<?xml version="1.0" encoding="utf-8"?>
<!-- Generator: Adobe Illustrator 16.0.4, SVG Export Plug-In . SVG Version: 6.00 Build 0)  -->
<!DOCTYPE svg PUBLIC "-//W3C//DTD SVG 1.1//EN" "http://www.w3.org/Graphics/SVG/1.1/DTD/svg11.dtd">
<svg version="1.1" id="Layer_1" xmlns="http://www.w3.org/2000/svg" xmlns:xlink="http://www.w3.org/1999/xlink" x="0px" y="0px"
	 width="595.279px" height="841.891px" viewBox="0 0 595.279 841.891" style="enable-background:new 0 0 595.279 841.891;"
	 xml:space="preserve">
<path d="M347.668,319.974L347.668,319.974L347.668,319.974C347.537,319.974,347.58,319.974,347.668,319.974z M347.668,319.974
	L347.668,319.974L347.668,319.974L347.668,319.974L347.668,319.974L347.668,319.974L347.668,319.974L347.668,319.974z
	 M205.036,363.857c9.631-3.53,17.126-7.321,16.733-8.454c-0.436-1.133-8.585,0.828-18.259,4.358
	c-9.631,3.53-16.996,7.277-16.604,8.411C187.343,369.261,195.406,367.344,205.036,363.857z M419.093,357.146l0.218,0.741
	l-0.393-0.131l-0.218-0.043v0.218l-0.044,0.915l-0.305,0.087l-0.087,0.043l-0.044,0.087l-0.262,1.002l-0.043,0.218h0.218h1.438
	h0.174v-0.174l0.044-0.393l0.349,0.305l0.261,0.262v-0.393v-1.133l0.567,0.479l0.218-0.262l-0.828-0.697l-0.262-0.218v0.349v1.089
	l-0.349-0.305l-0.262-0.218l-0.043,0.349l-0.044,0.61h-1.046l0.175-0.697l0.349-0.087l0.131-0.043v-0.131l0.043-0.784l0.479,0.13
	l0.305,0.087l-0.087-0.305l-0.305-1.046L419.093,357.146z M421.446,357.277l0.654,1.046l0.305-0.174l-0.305-0.523l0.522,0.262
	l0.175-0.305l-1.046-0.566l-0.523-0.305L421.446,357.277z M467.159,467.748L467.159,467.748L467.159,467.748L467.159,467.748z
	 M420.313,356.101l0.61,0.218l0.393,0.131l-0.175-0.393l-0.436-0.871l-0.306,0.13l0.262,0.479l-0.218-0.087L420.313,356.101z
	 M557.672,399.461c-40.528,45.104-40.049,88.464-39.613,130.212c0.044,3.922,0.088,7.888,0.088,11.81v1.482l-1.482,0.218
	c-11.504,1.525-22.355,0.828-32.684-1.743c-10.066-2.527-19.61-6.842-28.762-12.638c-10.633,2.31-21.527,4.14-32.64,5.447
	c-11.374,1.351-22.966,2.135-34.776,2.396l-0.653,0.044l-0.479-0.437c-8.846-7.888-17.126-15.993-24.927-24.36
	c-7.67-8.192-14.772-16.646-21.354-25.275c-10.72-1.481-20.786-4.401-30.068-9.021c-4.401-2.179-8.629-4.75-12.638-7.713
	c-11.94,8.716-25.973,14.163-42.445,16.473c-13.292,17.431-28.893,34.121-46.324,49.636l-0.479,0.436h-0.653
	c-23.314-0.566-46.019-3.182-67.416-7.888c-15.993,10.153-32.248,15.165-49.243,15.165c-4.009,0-8.062-0.262-12.158-0.828
	l-1.481-0.174v-1.481c0-3.923,0.043-7.845,0.087-11.767c0.479-41.835,1.002-85.064-39.525-130.212l-1.003-1.09L38,397.021
	c10.851-12.551,18.478-28.152,22.704-46.324l0.393-1.656l1.699,0.393c18.303,4.663,40.18-5.622,65.02-30.592l0.566-0.566
	l0.784,0.087c35.08,2.963,58.395-3.355,69.333-18.738l1.002-1.395l1.395,1.046c14.991,11.112,30.897,18.041,47.283,20.612
	l1.481,0.218l-0.044,1.482c-1.655,56.303,22.792,88.464,48.329,118.097c25.405-29.502,49.81-61.707,48.284-118.01l-0.044-1.482
	l1.395-0.218c0,0,0,0,0.044,0h0.044c2.266-0.349,4.575-0.785,6.842-1.351c2.266-0.523,4.532-1.133,6.798-1.83
	c11.548-3.574,22.791-9.413,33.599-17.432l1.352-1.046l1.002,1.395l0,0l0,0c1.525,2.135,3.269,4.097,5.229,5.883
	c2.005,1.787,4.227,3.399,6.667,4.837c12.812,7.496,31.943,10.154,57.437,8.019l0.784-0.043l0.566,0.566
	c12.551,12.638,24.273,21.528,35.212,26.626c10.72,5.011,20.656,6.362,29.808,4.009l1.656-0.393l0.392,1.656l0,0
	c0.61,2.571,1.264,5.055,1.961,7.496c0.741,2.44,1.525,4.837,2.354,7.19c4.401,11.984,10.503,22.53,18.303,31.638l0.959,1.133
	L557.672,399.461z M169.433,355.752l0.218,0.653l4.314,3.007l6.014,4.271l6.624,6.537c7.321,0.785,32.553-8.628,37.259-13.858
	l-0.479-11.853l3.747-9.37l-0.262-0.654c-2.091-0.349-4.009-0.349-5.839-0.043l-2.876,2.92l1.002,2.179l-1.481,1.308l1.177,1.743
	l0.218,1.699l-5.84-0.523l-1.09-1.176c0.262-0.436,0.393-0.828,0.088-1.525c-0.262-0.697-1.395-1.351-2.267-0.958
	c-0.915,0.349-1.22,1.656-1.002,2.266c0.262,0.61,0.349,0.61,0.653,0.828l-0.522,2.658l-4.619,2.833l-0.088,0.043l-0.479-0.872
	c0.348-0.087,1.394-1.395,0.479-2.266c-0.609-0.61-1.176-1.089-0.261-2.31c1.351-1.743-0.088-2.92-0.697-3.138
	c0.479-0.479,0.522-1.569,0.131-2.179c-1.525-2.353-2.877-0.043-2.528-1.351c0.306-1.133-1.177-1.264-2.135-0.916
	c-1.046,0.393-1.831,3.138-2.484,0.523c-0.262-1.002-1.786-1.612-2.44-1.351c-0.697,0.218-1.481,1.699-1.002,2.615
	c1.177,2.396-1.177,0.784-2.267,1.176c-0.958,0.349-1.961,1.395-1.002,2.092c1.09,0.741-1.395-0.131-1.09,2.658
	c0.088,0.697,0.828,1.482,1.482,1.569c-0.306,0.567-0.697,2.354,1.481,2.833c1.481,0.305,1.395,1.046,1.264,1.917
	c-0.131,1.22,1.525,1.569,1.83,1.438l0.218,0.958l-3.66,1.22l-2.179-0.958c0.087-0.349,0.087-0.697-0.044-1.046
	c-0.305-0.916-1.308-1.395-2.223-1.046c-0.915,0.305-1.395,1.351-1.046,2.222c0.175,0.523,0.61,0.916,1.09,1.09l-0.262,1.699
	l-3.835,4.14l-2.223-2.44l-0.043-2.353l-1.874-0.305l-0.959-1.656l-3.791-0.958C172.265,352.832,170.783,354.14,169.433,355.752z
	 M110.994,363.073l0.218,0.653l4.314,3.007l6.014,4.271l6.624,6.58c7.32,0.741,32.553-8.628,37.303-13.858l-0.479-11.853l3.748-9.37
	l-0.262-0.653c-2.092-0.349-4.053-0.349-5.84-0.044l-2.876,2.92l1.003,2.179l-1.482,1.308l1.177,1.743l0.218,1.699l-5.839-0.479
	l-1.09-1.22c0.262-0.436,0.393-0.828,0.131-1.525s-1.395-1.351-2.267-1.002c-0.871,0.349-1.22,1.656-0.958,2.266
	c0.261,0.61,0.349,0.61,0.653,0.828l-0.522,2.658l-4.663,2.833l-0.087,0.043l-0.479-0.871c0.349-0.087,1.351-1.395,0.479-2.266
	c-0.61-0.61-1.177-1.09-0.262-2.31c1.351-1.743-0.087-2.919-0.697-3.137c0.479-0.479,0.522-1.569,0.131-2.179
	c-1.525-2.353-2.877-0.043-2.528-1.351c0.306-1.133-1.176-1.307-2.135-0.958c-1.046,0.392-1.83,3.138-2.484,0.523
	c-0.218-0.958-1.786-1.612-2.44-1.351c-0.697,0.262-1.481,1.7-1.002,2.615c1.177,2.397-1.177,0.785-2.223,1.177
	c-0.959,0.349-1.961,1.438-1.002,2.092c1.089,0.741-1.438-0.131-1.09,2.615c0.087,0.697,0.828,1.525,1.481,1.569
	c-0.305,0.566-0.697,2.396,1.482,2.833c1.481,0.305,1.351,1.046,1.264,1.961c-0.131,1.22,1.525,1.569,1.83,1.395l0.218,1.002
	l-3.66,1.22l-2.18-0.959c0.088-0.349,0.088-0.697-0.043-1.046c-0.306-0.915-1.352-1.395-2.223-1.046
	c-0.915,0.305-1.395,1.351-1.046,2.223c0.174,0.523,0.61,0.915,1.09,1.046l-0.262,1.699l-3.791,4.184l-2.223-2.44l-0.044-2.353
	l-1.874-0.305l-0.959-1.612l-3.791-0.958C113.783,360.153,112.301,361.46,110.994,363.073z M156.533,431.273L156.533,431.273
	c-4.097,0.087-7.932,0.609-12.638,3.835c0.784,1.873,1.395,3.704,1.83,5.577c1.656-0.697,3.138-1.264,4.488-1.612
	c1.569-0.436,3.008-0.609,4.445-0.566h0.218c4.141-1.089,5.491-3.05,6.886-5.055c0.131-0.218,0.305-0.436,0.436-0.61
	c-0.479-0.262-1.046-0.522-1.743-0.74C159.409,431.753,158.059,431.447,156.533,431.273z M148.602,464.567
	c1.438,0.915,2.833,1.612,4.314,2.092c1.133,0.349,2.31,0.566,3.486,0.609c-0.784-2.876-2.048-5.229-3.791-7.146
	c-1.395-1.525-3.138-2.789-5.143-3.791c-0.566-0.218-1.089-0.393-1.612-0.654c0,0.044-0.044,0.044-0.044,0.087
	c-0.087,0.35-0.218,0.741-0.349,1.046l0,0v0.044l-0.13,0.349l-0.349,0.131c-0.044,0.044-0.088,0.044-0.175,0.044L148.602,464.567z
	 M147.731,472.411c-0.087-2.267-0.305-4.576-0.697-6.973l-4.14-7.932c-0.088,0-0.131,0-0.219,0
	c-0.218,4.751-0.915,7.976-1.873,10.11l0,0c-0.218,0.479-0.437,0.915-0.697,1.308c0.697,2.745,1.612,4.794,2.919,6.275
	c1.134,1.308,2.615,2.179,4.445,2.833C147.731,476.246,147.775,474.328,147.731,472.411z M154.921,456.287
	c2.745,0.218,5.534-0.044,8.279-0.784c-1.612-2.833-3.225-4.532-5.534-5.535c-1.177-0.479-2.571-0.827-4.184-1.046
	c-2.135,0-4.357-0.13-6.798-0.305l-0.349,0.175c-0.218,0.087-0.393,0.174-0.61,0.218c0.523,1.612,0.61,3.355,0.479,4.881
	c0.697,0.261,1.308,0.522,1.961,0.828C150.345,455.59,152.612,456.113,154.921,456.287z M157.928,447.092
	c2.92-0.305,5.36-1.046,7.408-2.527c-1.961-1.656-3.791-2.658-5.491-3.312c-1.873-0.697-3.616-0.959-5.011-1.046
	c-0.088,0-0.131,0-0.218,0c-1.003-0.044-2.223,0.131-3.617,0.522c-1.438,0.349-3.095,0.915-4.881,1.656
	c0.131,0.61,0.218,1.22,0.305,1.874c0.087,0.697,0.175,1.307,0.218,1.874c0.044,0.261,0.044,0.522,0.044,0.827
	c2.658,0,4.924,0.088,6.842,0.349C155.095,447.267,156.577,447.223,157.928,447.092z M142.197,435.413
	c-0.916-0.697-1.264-2.092-3.53-2.354c-0.044-1.655,0.566-3.529,0.61-5.36c0.043-1.786-0.393-3.573-2.484-5.099
	c-1.046,0.437-1.874,0.654-3.442,1.831c-2.615-2.267-4.053-3.269-5.316-3.355c-0.654,0.653-1.525,2.179-1.874,4.924
	c-1.569-1.089-3.966-3.225-5.143-2.789c-0.653,0.436-1.089,1.83-1.699,4.401c-0.349-0.218-3.094-0.828-4.968-0.436
	c-1.09,1.133-1.308,2.527-1.481,4.184c-1.265,0.436-3.008-0.741-4.838-0.915c-1.089,0.522-2.092,3.529-1.786,7.408
	c-0.306,0.131-1.046,0.174-1.874,0.174c-1.308,0-2.876-0.043-3.573,0.219c0.827,3.747,4.227,6.057,7.975,8.323
	c0.131,2.005-1.221,7.277,5.752,14.512c0.306-0.393,0.697-0.872,0.959-1.177c0.262-0.262,0.436-0.393,0.479-0.218
	c1.089,1.351,1.525,2.44,5.621,4.793c0.044-0.043,0.088-0.043,0.175-0.087c0.174-0.087,0.349-0.174,0.436-0.218
	c0.741-0.436,1.481-0.872,2.048-1.395l0.785-0.697l0.522,0.915c1.09,1.918,2.31,3.791,4.053,5.143
	c1.656,1.307,3.792,2.135,6.755,2.048c1.133-0.522,2.136-1.438,2.963-3.269c0.437-1.046,0.828-2.353,1.134-4.009
	c0.305-1.7,0.522-3.704,0.609-6.145l0.044-0.566l0.522-0.175c0.654-0.218,1.177-0.218,1.656-0.218c0.218,0,0.479,0,0.697-0.044
	c0.044-0.174,0.087-0.305,0.131-0.479c0.087-0.306,0.175-0.61,0.218-0.959c0.306-1.699,0.131-3.704-0.566-5.534l-0.305-0.741
	l0.697-0.349c0.305-0.131,0.522-0.218,0.784-0.262h0.044c-0.044-0.392-0.044-0.784-0.088-1.22c-0.043-0.306-0.043-0.61-0.087-0.959
	c-0.044-0.305-0.087-0.566-0.087-0.871C144.331,441.514,143.503,438.464,142.197,435.413z M138.797,470.668
	c-0.61,0.523-1.264,0.915-1.918,1.22l-0.13,0.044h-0.131c-0.915,0.044-1.743,0-2.571-0.131l4.184,7.452
	c0.392-1.133,0.697-2.31,0.828-3.617C139.146,474.11,139.102,472.498,138.797,470.668z M117.531,397.195l-0.479-11.854l3.748-9.37
	l-0.262-0.654c-2.092-0.349-4.053-0.349-5.839-0.043l-2.876,2.92l1.002,2.179l-1.481,1.308l1.177,1.743l0.218,1.7l-5.84-0.523
	l-1.09-1.177c0.262-0.436,0.393-0.828,0.131-1.525c-0.305-0.697-1.395-1.351-2.266-0.959c-0.872,0.349-1.221,1.656-0.959,2.266
	c0.218,0.61,0.349,0.61,0.653,0.828l-0.522,2.658l-4.663,2.833l-0.087,0.044l-0.436-0.872c0.349-0.087,1.351-1.395,0.479-2.266
	c-0.654-0.61-1.177-1.133-0.262-2.31c1.351-1.743-0.087-2.919-0.697-3.137c0.479-0.479,0.522-1.569,0.131-2.136
	c-1.525-2.353-2.877-0.043-2.528-1.351c0.306-1.133-1.176-1.308-2.135-0.959c-1.046,0.392-1.83,3.138-2.484,0.523
	c-0.218-1.002-1.786-1.612-2.44-1.351c-0.697,0.261-1.481,1.699-1.002,2.614c1.177,2.397-1.177,0.785-2.223,1.177
	c-0.959,0.349-1.961,1.438-1.002,2.092c1.089,0.741-1.438-0.131-1.09,2.658c0.087,0.697,0.828,1.482,1.481,1.569
	c-0.261,0.566-0.697,2.397,1.482,2.833c1.481,0.305,1.351,1.046,1.264,1.917c-0.131,1.22,1.525,1.569,1.83,1.438l0.218,0.959
	l-3.704,1.22l-2.179-0.959c0.087-0.349,0.087-0.697-0.044-1.046c-0.349-0.915-1.351-1.394-2.266-1.089
	c-0.915,0.349-1.395,1.351-1.046,2.266c0.174,0.523,0.609,0.872,1.089,1.046l-0.261,1.743l-3.835,4.14l-2.223-2.44l-0.044-2.354
	l-1.874-0.305l-0.958-1.613l-3.792-0.958c-1.568,0.958-3.05,2.266-4.357,3.878l0.218,0.654l4.357,3.007l5.971,4.271l6.624,6.58
	C87.549,411.794,112.781,402.381,117.531,397.195z M92.604,459.904c0.349-0.262,0.741-0.479,1.133-0.697
	c0.044-0.349,0.044-0.654,0.088-1.003c0.087-1.002,0.218-2.048,0.436-3.181c-2.484,0.959-5.447,3.617-4.794,5.055
	C90.818,459.643,91.994,460.209,92.604,459.904z M91.34,469.36c0.697-0.392,1.874-1.177,3.269-1.874
	c-0.523-1.612-0.828-3.486-0.915-5.621c0-0.044,0-0.087,0-0.087C91.733,463.347,90.251,465.962,91.34,469.36z M98.139,473.152
	c-0.872-0.828-1.613-1.743-2.267-2.833c-1.002,1.481-1.743,3.442-1.133,4.837C96.134,474.154,97.136,473.457,98.139,473.152z
	 M120.364,477.989c2.963,3.094,5.403,3.66,7.146,4.663c0.828-1.046,2.267-2.658,3.617-3.443c1.177,1.177,1.699,2.964,4.053,3.182
	c0.479,0.043,1.133-0.697,1.961-1.525l-5.36-9.587c-1.264-0.437-2.31-1.046-3.268-1.787c-1.656-1.308-2.92-3.007-3.966-4.794
	c-0.479,0.349-1.003,0.697-1.525,0.959c-0.218,0.087-0.349,0.218-0.479,0.262c-0.131,0.087-0.305,0.131-0.479,0.218l-0.131-0.262
	c-0.74,0.872-2.701,1.046-4.053,0.915c-11.505-1.089-13.247-12.638-21.876-12.158c-0.218,1.264-0.393,2.484-0.479,3.704
	c0,0.088,0,0.218-0.044,0.306c2.789-0.61,5.753,0.043,5.447,1.22c-1.002,0.262-2.439-0.087-3.66,0.131
	c-0.566,0.131-1.22,0.349-1.874,0.653c0,0.393,0,0.741,0,1.134c0.044,1.874,0.349,3.529,0.784,4.968
	c2.659-1.09,5.622-1.525,7.147,0.959c-0.872-0.044-3.704-0.697-5.622,0.566c-0.218,0.131-0.436,0.349-0.697,0.566
	c0.872,1.656,2.005,2.963,3.399,3.922l-0.087,0.131c0.043,0,0.043,0,0.043,0c0.959,0.131,1.352-0.828,2.528-1.7
	c2.658,3.574,4.531,6.843,7.669,9.021c0.219-0.828,0.785-2.354,1.7-2.92c1.133,0.828,2.179,3.442,6.362,3.878
	C119.187,480.647,119.71,478.294,120.364,477.989z M127.336,500.083c-1.046-1.264-1.918-2.658-2.658-4.14
	c-1.221,1.351-1.743,3.53-0.915,6.624C125.027,502.088,126.115,501.086,127.336,500.083z M132.653,504.311
	c-0.959-0.479-1.83-1.002-2.615-1.612c-0.479-0.349-0.958-0.741-1.351-1.177c-1.656,1.961-2.135,4.794,1.264,7.016
	C129.864,507.884,131.476,505.748,132.653,504.311z M140.496,509.191c-0.087-0.828-0.305-1.743-0.349-2.746
	c-1.655-0.218-3.138-0.522-4.532-0.958C136.488,508.146,138.492,509.191,140.496,509.191z M166.6,472.236
	c-1.743-5.621-2.44-7.277-2.31-10.764v-0.087c0.044-0.915,0.044-1.743-0.044-2.527c-0.087-0.566-0.218-1.177-0.349-1.787
	c-3.05,0.828-6.057,1.133-9.107,0.872c-0.741-0.044-1.525-0.131-2.266-0.262c0.479,0.393,0.871,0.828,1.307,1.264
	c2.136,2.354,3.617,5.273,4.445,8.89c0.087,0.479-0.262,1.003-0.741,1.003c-1.743,0.131-3.442-0.088-5.142-0.654
	c-1.177-0.392-2.31-0.871-3.443-1.524c0.262,1.961,0.437,3.834,0.479,5.621c0.087,2.354,0,4.663-0.305,6.886
	c-0.044,0.479-0.61,0.828-1.046,0.697c-2.571-0.697-4.619-1.831-6.231-3.617c-0.393-0.436-0.785-0.959-1.134-1.481
	c0,0.305-0.043,0.609-0.087,0.958c-0.087,1.134-0.305,2.136-0.61,3.138c0,0,0,0,0.044,0c-0.262,1.961-0.349,0.218,0.436,6.799
	c0.218,1.655,0.349,8.454-7.582,8.367c-0.479,0-1.003-0.044-1.525-0.088c-2.005-0.218-3.922,0.044-5.404,0.872
	c0.741,1.525,1.569,2.963,2.658,4.227c1.134-0.74,2.44-1.395,4.097-1.525c0.044,0,0.044,0,0.087,0c0.479,0,0.567,1.831,0.131,1.787
	c-1.002-0.044-2.092,0.393-3.094,1.046c0.349,0.349,0.741,0.653,1.133,0.959c0.697,0.566,1.481,1.046,2.354,1.481
	c0.479-1.787,2.005-4.576,4.271-4.794c0.218,1.874-2.44,3.312-2.44,5.578c1.525,0.566,3.269,0.959,5.273,1.221
	c3.922-1.177,3.965-2.876,2.527-8.629c1.83,0.828,4.881,4.01,7.582,3.617c-0.261-3.835,0.567-7.757,1.656-11.243
	c1.133,1.002,2.136,2.658,3.573,2.614c-0.349-1.786,0.175-7.975,1.438-10.589c1.656,0.174,2.745,1.046,4.184,0.871
	c-0.175-2.527-0.653-5.534,0.349-9.979C163.462,471.452,165.336,472.411,166.6,472.236z M180.676,488.012
	c-0.697-0.218-1.352-0.566-1.961-0.915c0.305,1.438,0.871,2.615,1.83,2.746C180.589,489.363,180.589,488.709,180.676,488.012z
	 M187.953,488.491c-0.61,0.088-1.22,0.175-1.787,0.218c-1.046,0.088-2.048,0.044-3.007-0.087c0.741,1.743,2.18,3.486,4.663,4.532
	C188.389,491.76,188.258,490.104,187.953,488.491z M197.105,491.455c-0.174-2.658-0.436-4.532-0.479-5.971
	c-1.961,0.959-3.747,1.743-5.49,2.267C192.268,489.406,194.054,490.758,197.105,491.455z M210.875,473.064
	c1.831-2.789,5.622-5.229,6.973-8.716c-1.481-0.392-2.876-0.174-3.966-0.653c4.184-4.488,4.794-6.885-0.261-7.801
	c-0.044,0-0.044,0-0.044,0c-0.784,0.219-1.351,0.262-2.92,0.437c-0.436,0.043-1.002,0.087-1.874,0.218
	c-5.316,0.566-7.8-3.748-10.109-7.67c-1.438-2.484-2.789-4.794-4.576-5.229c-4.794-1.177-13.771,10.502-15.645,12.986
	c1.22,5.099,6.537,8.41,10.633,7.844c2.354-0.349,10.372-1.002,11.592,4.489c0.697,3.268-4.488,4.619-9.369,4.357
	c-3.181-0.174-12.507,0.872-12.899,8.89c-0.043,0.567-0.043,1.569,0.044,2.658c0.741,0.61,1.568,1.09,2.44,1.438
	c0.262-2.005,0.741-3.791,2.048-3.312c-0.392,0.043-0.697,1.786-0.305,3.835c1.089,0.218,2.266,0.305,3.486,0.218
	c0.479-0.044,1.002-0.088,1.525-0.175c-0.523-2.44-0.828-4.532,1.307-5.055c0.306,1.395,0.654,2.963,1.352,4.488
	c2.004-0.566,4.14-1.481,6.449-2.702c0.087-0.305,0.175-0.566,0.306-0.828c1.264-2.135,3.791-2.004,6.101-1.961
	c4.357,0.088,8.323-1.786,10.502-5.839C214.492,473.893,211.965,473.85,210.875,473.064z M227.174,467.312
	c-0.523-0.262-0.915-0.566-1.308-0.872c0.218,0.741,0.523,1.352,0.959,1.525C226.912,467.792,227.043,467.53,227.174,467.312z
	 M236.543,469.666c0-0.175-0.044-0.393-0.044-0.654c-3.138,0-5.447-0.305-7.19-0.828c-0.087,2.092,0.654,4.794,3.138,7.365
	C233.798,474.721,234.8,472.716,236.543,469.666z M245.346,471.932c-0.349-1.351-0.522-2.44-0.566-3.486
	c-1.656,0.175-3.225,0.305-4.619,0.393C241.511,470.058,243.211,471.061,245.346,471.932z M253.321,446.003
	c-1.133-1.874-1.873-3.574-2.614-5.796c-0.61-1.787-0.087-1.874,0.828-2.484c-0.959-2.702-3.138-3.182-4.271-5.055
	c-0.523-0.828-0.872-1.395-0.479-2.658c-1.177-1.613-6.275-2.789-8.28-3.705c-1.481-0.653,0.349-3.094-3.573-4.662
	c-2.005,3.791-3.486,9.587-8.28,9.151c-7.277-0.61-10.677-9.588-16.516-14.294c29.546-11.025,32.901-19.305,32.335-23.532
	c-1.308-10.154-7.539-15.296-14.599-18.826c-0.697,1.438-0.61,3.094,0.305,4.924c-35.821,6.58-46.934,34.427-72.253,39.83
	c-3.486,0.741-6.275-2.701-5.709-5.011c1.221-4.969,10.198-10.895,21.311-11.462c9.587-0.479,12.245-6.144,11.94-6.972
	c-0.697-0.043-1.481-0.349-2.397-0.915c2.005-4.053,3.486-8.019,3.966-11.766c0.262-2.266-2.658-6.145-5.578-5.97
	c1.352,9.413-4.924,18.128-11.112,20.002c-18.434,5.491-24.36,9.195-24.534,16.255c-0.175,8.019,6.624,12.942,12.681,12.289
	c19.393-2.049,53.776-42.445,71.12-40.267c8.28,1.046,10.066,5.186,10.11,8.411c0.131,8.149-26.19,17.388-34.862,20.089
	c-0.697-0.043-1.395,0.087-2.18,0.131c-11.548,0.087-23.401,10.764-37.913,17.301c-0.087,0-0.174,0-0.261,0
	c0.522,0.262,1.002,0.566,1.351,0.915c0.305,0.262,0.349,0.828,0.087,1.133c-0.349,0.437-0.61,0.828-0.871,1.264
	c-1.177,1.7-2.31,3.355-4.794,4.62c0.653,0.174,1.351,0.348,2.092,0.653c2.092,0.784,4.401,2.092,6.755,4.271
	c0.349,0.305,0.349,0.959,0,1.264c-2.31,2.049-5.099,3.051-8.367,3.486c2.702,1.308,4.532,3.442,6.406,6.973
	c0.043,0.044,0.043,0.131,0.043,0.174c0.044,0.044,0.044,0.088,0.044,0.088c0.262,0.915,0.479,1.786,0.61,2.745
	c0.087,0.828,0.13,1.656,0.087,2.527c0.131,0,0.218,0,0.305,0.044c4.358-0.044,8.323-3.007,11.723-6.886
	c3.182-4.009,11.287-13.684,16.473-12.376c2.44,0.61,3.966,3.225,5.622,6.014c2.004,3.486,4.227,7.277,8.454,6.842
	c0.653-0.087,1.351-0.131,1.874-0.174c0.827-0.088,1.351-0.131,1.786-0.219c0,0,0-0.043-0.043-0.043
	c7.233-1.787,13.64-10.328,21.135-9.544c2.31,0.262,5.36,2.658,5.187,4.488c-0.654,6.537-12.42,7.888-13.03,12.682
	c-0.044,0.218-0.044,0.61-0.044,1.09l0.088-0.044c0.349,0.915,0.958,1.874,2.31,2.658c0.74-1.786,1.83-3.704,4.14-3.791
	c-1.918,2.396-2.048,3.529-2.354,4.532l0,0c0.044,0,0.044,0.043,0.087,0.043c1.613,0.479,3.792,0.785,6.755,0.785
	c-0.043-2.702,0.218-6.406,1.656-5.491c-0.305,1.481-0.479,4.097,0.393,5.186l0.174,0.262c1.787-0.087,3.835-0.218,6.145-0.479
	c0.131-1.395,0.566-2.745,1.221-4.575c0.697-2.005,0.087-3.748,0.522-5.927c0.262-1.308,2.005-0.872,3.442-0.828
	c1.525-3.312,0.218-5.578,0.175-8.454C252.275,446.831,253.582,446.482,253.321,446.003z M514.747,359.413
	c-0.349,1.395,6.406,2.615,6.493,3.312c0.043,0.261-1.002,0.043-1.438-0.131c-1.961-0.654-5.186-1.961-5.752-2.223
	c0.044,0.131,0,0.392-0.044,0.566c-0.261-0.087-0.479-0.261-0.74-0.305c-0.218,0.305-0.479,0.61-0.697,0.915
	c0.043,0.174,0.131,0.479,0.131,0.654c0.436-0.044,1.002,0.043,1.438,0.13c1.09,0.218,2.005-0.566,2.964-0.349
	c0.131,0.61,0.218,1.351,0.958,2.136c1.221,0.261,3.051,0.522,2.833,1.133c-0.087,0.261-0.566,0.174-0.828,0.261
	c-0.479,0.218-0.522,0.523-0.61,0.828c0.479-0.305,0.872-0.479,1.221-0.479c-0.131,0.393-0.305,0.654-0.61,1.002
	c0.306,0.131,0.697-0.174,1.177-0.479c0,0.305-0.131,0.567-0.349,0.872c0.393-0.043,0.784-0.349,1.002-0.697
	c-0.087-0.305-0.305-0.566-0.392-0.872c0.087,0,0.349,0.044,0.436,0.087c-0.087-0.305-0.479-0.654-0.393-0.959
	c0.044-0.174,0.349-0.218,0.523-0.305c-1.177-0.567-2.527-0.654-2.789-1.002c-0.131-0.131-0.131-0.479-0.131-0.654
	c0.61,0.087,1.22,0.349,1.83,0.436c0.436,0.043,0.741,0.131,1.002-0.436c0.479-1.089-6.667-2.092-6.711-3.312
	c0-0.523,0.479-0.915,1.264-0.915c1.09,0,1.831,0.61,2.005,1.308c-0.262,0.174-0.392,0.392-0.349,0.697
	c0.262-0.087,0.436-0.393,0.741-0.349c0.653,0.13,1.177,0.741,1.83,0.741c0.522,0,1.09-0.218,1.351-0.566
	c0.262-0.305-0.349-0.872-0.74-0.654c0.349,0.087,0.436,0.392,0.305,0.566c-0.218,0.305-0.959,0.262-1.481,0
	c0.131-0.174,0.262-0.087,0.566-0.566c-0.522-0.087-0.915,0.043-1.612-0.349c0.131-0.174,0.522-0.392,0.653-0.566
	c-1.046-0.131-2.44-0.61-3.225-0.741C515.793,358.018,514.878,358.933,514.747,359.413z M517.667,365.47
	c-0.175,0.218,1.438-0.479,0.61-1.089c-0.785-0.523-1.395-2.048-1.308-2.353c-1.525,0.218,0.087,1.656-0.436,1.699
	c-1.743-0.131-1.09-0.958-2.267-1.307c0.175,0.218,0.262,0.436,0.305,0.654c-0.609-0.393-0.871-0.218-1.133,0.043
	c0.306,0.087,0.566,0.043,0.654,0.349c-0.088,0.174-0.131,0.218-0.479,0.392c0.522,0.218,0.958,0.131,1.264,0
	c0.522,0.479,1.308,0.392,1.351,0.784c0.479-0.392,0.697-0.349,0.828-0.218c-0.218,0.218-0.436,0.262-0.479,0.654
	c0.262,0.087,0.654,0.043,0.784-0.174C517.492,364.816,518.234,364.729,517.667,365.47z M513.745,372.573
	c-0.262,0.174-0.393,0.392-0.349,0.741c0.261-0.087,0.436-0.392,0.74-0.349c0.654,0.087,1.177,0.741,1.83,0.741
	c0.523,0,1.09-0.218,1.352-0.566c0.261-0.349-0.349-0.872-0.741-0.654c0.349,0.087,0.436,0.392,0.305,0.523
	c-0.218,0.305-0.958,0.262-1.481,0c0.131-0.174,0.262-0.087,0.566-0.566c-0.522-0.087-0.915,0.043-1.612-0.305
	c0.131-0.174,0.523-0.392,0.654-0.566c-1.046-0.131-2.44-0.61-3.226-0.741c-0.784-0.131-1.699,0.741-1.83,1.22
	c-0.392,1.395,6.406,2.615,6.493,3.312c0.044,0.261-1.002,0.043-1.438-0.131c-1.961-0.654-5.187-1.961-5.753-2.266
	c0.044,0.131,0,0.392-0.043,0.566c-0.262-0.087-0.479-0.218-0.741-0.305c-0.218,0.305-0.479,0.61-0.697,0.916
	c0.044,0.174,0.131,0.479,0.131,0.653c0.436,0,1.002,0.044,1.438,0.131c1.089,0.218,2.004-0.566,2.963-0.349
	c0.131,0.654,0.218,1.351,0.959,2.135c1.22,0.262,3.05,0.523,2.832,1.133c-0.087,0.261-0.566,0.174-0.828,0.261
	c-0.479,0.218-0.522,0.479-0.609,0.828c0.479-0.305,0.871-0.479,1.22-0.479c-0.131,0.393-0.305,0.654-0.61,1.002
	c0.306,0.131,0.697-0.174,1.177-0.479c0,0.305-0.131,0.566-0.349,0.872c0.393-0.043,0.785-0.349,1.003-0.697
	c-0.088-0.305-0.306-0.566-0.393-0.872c0.087,0,0.349,0.043,0.436,0.043c-0.087-0.305-0.479-0.653-0.392-0.958
	c0.043-0.174,0.349-0.218,0.522-0.305c-1.177-0.566-2.527-0.653-2.789-1.002c-0.131-0.131-0.131-0.479-0.131-0.654
	c0.61,0.131,1.221,0.349,1.83,0.436c0.437,0.044,0.741,0.131,1.003-0.436c0.479-1.089-6.668-2.092-6.711-3.312
	c0-0.523,0.479-0.915,1.264-0.915C512.83,371.31,513.527,371.876,513.745,372.573z M512.873,378.151
	c-0.174,0.218,1.438-0.479,0.61-1.09c-0.784-0.523-1.395-2.048-1.308-2.31c-1.525,0.218,0.087,1.656-0.436,1.7
	c-1.743-0.131-1.046-0.959-2.267-1.308c0.175,0.218,0.262,0.436,0.306,0.654c-0.61-0.392-0.872-0.218-1.133,0.043
	c0.305,0.087,0.566,0.044,0.653,0.349c-0.087,0.174-0.131,0.218-0.479,0.392c0.523,0.218,0.959,0.131,1.264,0
	c0.523,0.479,1.308,0.393,1.395,0.785c0.479-0.392,0.697-0.349,0.828-0.218c-0.218,0.218-0.436,0.261-0.479,0.654
	c0.262,0.087,0.653,0.043,0.784-0.175C512.699,377.498,513.44,377.41,512.873,378.151z M508.951,385.254
	c-0.262,0.174-0.393,0.436-0.349,0.741c0.305-0.087,0.436-0.392,0.74-0.349c0.654,0.087,1.177,0.741,1.831,0.741
	c0.522,0,1.089-0.218,1.351-0.567c0.262-0.305-0.349-0.872-0.741-0.654c0.349,0.087,0.437,0.393,0.306,0.523
	c-0.218,0.305-0.959,0.261-1.481,0c0.13-0.175,0.261-0.087,0.566-0.567c-0.523-0.087-0.915,0.044-1.612-0.305
	c0.13-0.174,0.522-0.393,0.653-0.567c-1.046-0.13-2.44-0.61-3.225-0.741c-0.785-0.131-1.7,0.741-1.83,1.264
	c-0.393,1.395,6.405,2.571,6.493,3.312c0.043,0.262-1.003,0.043-1.438-0.131c-1.961-0.653-5.186-1.961-5.752-2.222
	c0,0.13,0,0.392-0.044,0.566c-0.262-0.087-0.479-0.261-0.741-0.305c-0.218,0.305-0.479,0.61-0.697,0.915
	c0.044,0.175,0.131,0.479,0.131,0.654c0.437-0.043,1.003,0.043,1.438,0.131c1.09,0.218,2.005-0.566,2.963-0.349
	c0.131,0.61,0.218,1.351,0.959,2.135c1.221,0.262,3.051,0.523,2.833,1.133c-0.088,0.261-0.566,0.174-0.828,0.261
	c-0.479,0.218-0.523,0.479-0.61,0.828c0.479-0.305,0.872-0.479,1.221-0.479c-0.131,0.392-0.306,0.654-0.61,1.002
	c0.305,0.13,0.697-0.174,1.177-0.479c0,0.305-0.131,0.566-0.349,0.872c0.392-0.043,0.784-0.349,1.002-0.697
	c-0.087-0.305-0.305-0.566-0.393-0.872c0.088,0,0.349,0.043,0.437,0.087c-0.088-0.305-0.479-0.654-0.393-0.959
	c0.044-0.174,0.349-0.218,0.522-0.305c-1.176-0.566-2.527-0.653-2.789-1.002c-0.13-0.131-0.13-0.479-0.13-0.654
	c0.609,0.087,1.22,0.349,1.83,0.436c0.436,0.044,0.74,0.131,1.002-0.436c0.479-1.089-6.667-2.092-6.711-3.312
	c0-0.523,0.479-0.915,1.264-0.915C508.036,383.991,508.777,384.557,508.951,385.254z M508.079,390.876
	c-0.174,0.218,1.438-0.479,0.61-1.089c-0.74-0.523-1.395-2.048-1.308-2.354c-1.524,0.218,0.088,1.656-0.436,1.7
	c-1.743-0.131-1.046-0.958-2.266-1.307c0.174,0.218,0.261,0.436,0.305,0.653c-0.61-0.392-0.871-0.218-1.133,0.044
	c0.305,0.087,0.566,0.043,0.653,0.349c-0.087,0.174-0.131,0.218-0.479,0.392c0.523,0.218,0.959,0.131,1.265,0
	c0.522,0.479,1.307,0.392,1.394,0.784c0.479-0.392,0.697-0.349,0.828-0.218c-0.218,0.218-0.436,0.262-0.479,0.654
	c0.262,0.087,0.654,0.043,0.785-0.131S508.69,390.092,508.079,390.876z M502.371,387.913c0.174-0.261,0.392-0.392,0.609-0.436
	c-0.131-0.523-0.218-1.046-0.566-1.482c-0.479,0-0.697,0.262-0.958,0.566c-2.615-0.261-1.482-1.395-2.702-1.787
	c0.218,0.305,0.349,0.61,0.436,0.916c-0.74-0.393-1.046-0.393-1.395-0.087c0.393,0.174,0.61,0.261,0.784,0.61
	c-0.305,0.087-0.392,0.262-0.871,0.174c0.131,0.567,0.697,0.741,1.351,0.262c0.349,0.305,0.566,0.654,0.741,1.046
	c0.174-0.131,0.392-0.174,0.566-0.262c0.262,0.436,0.175,0.741,0.959,0.785c0-0.174,0-0.392,0-0.523
	c0.74,0.523,0.784,0.697,1.395,0.872c0-0.131,0.087-0.349,0.305-0.392C502.763,388.087,502.589,388.087,502.371,387.913z
	 M500.628,382.204c-0.218,0-0.523-0.087-0.741-0.087c-0.262-0.043-0.393,0.131-0.479,0.392c0.393-0.043,0.741-0.043,1.09,0.044
	c-0.175,0.349-0.566,0.871-0.784,1.089c0.305,0,0.609-0.043,0.74,0.174c-0.305,0.218-0.522,0.697-0.436,1.002
	c0.479,0.262,0.305,0.262,0.479,0.828c0.087,0.262,0.871,0.218,1.177,0.218c0.043-0.218,0.218-0.566,0.261-0.784
	c-0.305-0.087-0.697,0-1.002-0.043c0.087-0.262,0.262-0.479,0.436-0.654c-0.043-0.218-0.218-0.305-0.261-0.523
	c0-0.392-0.088-0.828,0.043-1.177s0.566-0.566,0.653-0.915c0.088-0.305-0.349-0.654-0.522-0.958
	c0.044,0.261,0.087,0.479,0.087,0.741c-0.131,0.087-0.261,0.261-0.392,0.392c-0.088-0.174-0.044-0.392-0.175-0.523
	c-0.349-0.349-0.653-0.261-0.915-0.261c0.131,0.174,0.349,0.261,0.479,0.479C500.584,381.942,500.628,382.03,500.628,382.204z
	 M503.635,385.777c0.305,0.131,0.392,0.174,0.697,0.305c-0.044-0.392,0.131-0.785,0.087-1.177c0.174-0.043,0.305,0.087,0.479-0.043
	c-0.087-0.218-0.131-0.349-0.218-0.566c0.131,0,0.349-0.131,0.479-0.131c-0.088-0.174-0.219-0.262-0.306-0.436
	c0.175-0.043,0.349-0.13,0.523-0.218c-0.044-0.218-0.218-0.479-0.61-0.61c0.566-0.305,0.522-0.262-0.131-0.305
	c0-0.218,0.044-0.349-0.044-0.523c-0.305,0-0.653-0.043-0.784,0.043c-0.087-0.349,0-0.305-0.305-0.479
	c-0.175,0.174-0.306,0.349-0.218,0.741c-0.61-0.131-0.567,0.523-0.479,0.741c-0.566,0-1.003,0.218-1.133,0.61
	c0.13,0.087,0.261,0.262,0.392,0.392c-0.566,0.087-0.958,0.697-1.002,0.872c0.349,0,0.653-0.044,1.002,0
	c-0.087,0.305-0.262,0.784-0.349,1.089c0.349-0.174,0.436-0.218,0.784-0.218c0.219,0.305,0.306,0.523,0.437,0.916
	C503.156,386.387,503.417,386.126,503.635,385.777z M503.329,373.575c-0.305,0.087-0.392,0.262-0.871,0.174
	c0.131,0.567,0.697,0.741,1.351,0.262c0.349,0.305,0.566,0.61,0.741,1.046c0.174-0.131,0.392-0.174,0.566-0.262
	c0.262,0.436,0.174,0.741,0.959,0.785c0-0.174,0-0.392,0-0.523c0.74,0.523,0.784,0.697,1.395,0.872c0-0.131,0.087-0.349,0.305-0.393
	c-0.175-0.087-0.349-0.087-0.522-0.261c0.174-0.261,0.392-0.392,0.609-0.436c-0.131-0.523-0.218-1.046-0.566-1.482
	c-0.479,0-0.697,0.262-0.959,0.566c-2.614-0.261-1.524-1.395-2.701-1.787c0.218,0.305,0.349,0.61,0.392,0.915
	c-0.74-0.392-1.046-0.392-1.395-0.087C502.894,373.14,503.156,373.183,503.329,373.575z M505.378,369.522
	c-0.218,0-0.523-0.087-0.741-0.087c-0.262-0.044-0.393,0.131-0.479,0.392c0.393-0.043,0.741-0.043,1.09,0.043
	c-0.175,0.349-0.566,0.872-0.784,1.09c0.305,0,0.609-0.044,0.74,0.174c-0.305,0.218-0.522,0.697-0.436,1.002
	c0.479,0.262,0.305,0.262,0.479,0.828c0.087,0.261,0.871,0.218,1.177,0.218c0.043-0.218,0.218-0.566,0.261-0.784
	c-0.305-0.087-0.697,0.043-1.002-0.044c0.087-0.261,0.262-0.523,0.436-0.653c-0.043-0.218-0.218-0.305-0.261-0.523
	c0-0.393-0.088-0.828,0.043-1.177s0.566-0.566,0.653-0.915c0.088-0.305-0.349-0.654-0.522-0.959
	c0.044,0.262,0.087,0.479,0.087,0.741c-0.087,0.087-0.261,0.261-0.392,0.392c-0.044-0.174-0.044-0.392-0.175-0.523
	c-0.349-0.349-0.653-0.262-0.915-0.262c0.131,0.174,0.349,0.262,0.479,0.479C505.334,369.261,505.421,369.348,505.378,369.522z
	 M508.079,360.894c-0.305,0.087-0.392,0.262-0.871,0.174c0.131,0.566,0.697,0.741,1.351,0.262c0.349,0.305,0.566,0.653,0.741,1.046
	c0.174-0.131,0.392-0.174,0.566-0.262c0.262,0.436,0.175,0.741,0.959,0.784c0-0.174,0-0.392,0-0.522
	c0.74,0.522,0.784,0.697,1.395,0.871c0-0.13,0.087-0.349,0.305-0.436c-0.175-0.087-0.349-0.087-0.566-0.262
	c0.174-0.261,0.392-0.392,0.61-0.436c-0.131-0.523-0.219-1.046-0.566-1.481c-0.479,0-0.697,0.261-0.959,0.566
	c-2.615-0.262-1.525-1.395-2.702-1.787c0.218,0.305,0.349,0.61,0.436,0.915c-0.74-0.392-1.046-0.392-1.395-0.087
	C507.688,360.458,507.949,360.502,508.079,360.894z M506.467,371.048c0.131,0.131,0.262,0.262,0.393,0.392
	c-0.566,0.087-0.959,0.697-1.002,0.915c0.349,0,0.653-0.043,1.002,0c-0.087,0.305-0.262,0.828-0.349,1.09
	c0.349-0.174,0.436-0.218,0.784-0.218c0.218,0.305,0.305,0.523,0.436,0.916c0.219-0.349,0.479-0.61,0.697-0.959
	c0.262,0.131,0.393,0.174,0.697,0.305c-0.043-0.392,0.131-0.785,0.088-1.177c0.174-0.043,0.261,0.087,0.436-0.043
	c-0.087-0.218-0.131-0.349-0.218-0.523c0.131,0,0.349-0.131,0.479-0.131c-0.088-0.174-0.219-0.261-0.306-0.436
	c0.175-0.087,0.349-0.131,0.523-0.218c-0.044-0.218-0.218-0.479-0.61-0.61c0.566-0.305,0.522-0.262-0.131-0.305
	c0-0.218,0.044-0.349-0.044-0.523c-0.305,0-0.653-0.043-0.784,0.044c-0.087-0.349,0-0.305-0.305-0.479
	c-0.175,0.174-0.306,0.349-0.218,0.741c-0.61-0.131-0.566,0.523-0.479,0.741C507.033,370.438,506.598,370.656,506.467,371.048z
	 M512.394,357.756c-0.566,0-1.002,0.218-1.133,0.61c0.131,0.13,0.262,0.261,0.393,0.392c-0.567,0.087-0.959,0.697-1.003,0.872
	c0.349,0,0.654-0.043,1.003,0c-0.088,0.305-0.262,0.784-0.349,1.089c0.349-0.174,0.436-0.218,0.784-0.218
	c0.218,0.305,0.305,0.523,0.436,0.915c0.218-0.349,0.479-0.61,0.697-0.958c0.262,0.13,0.393,0.174,0.697,0.305
	c-0.044-0.392,0.131-0.784,0.087-1.176c0.175-0.044,0.262,0.087,0.437-0.044c-0.088-0.218-0.131-0.349-0.219-0.566
	c0.131,0,0.349-0.131,0.479-0.131c-0.087-0.174-0.218-0.261-0.305-0.436c0.174-0.043,0.349-0.131,0.522-0.218
	c-0.043-0.218-0.218-0.479-0.609-0.61c0.566-0.305,0.522-0.261-0.131-0.305c0-0.218,0.043-0.348-0.044-0.523
	c-0.305,0-0.653-0.043-0.784,0.044c-0.087-0.349,0-0.305-0.305-0.479c-0.175,0.174-0.306,0.349-0.219,0.741
	C512.263,356.841,512.263,357.539,512.394,357.756z M510.171,356.841c-0.218,0-0.522-0.087-0.74-0.087
	c-0.262-0.043-0.393,0.131-0.479,0.393c0.393-0.044,0.74-0.044,1.09,0.043c-0.175,0.349-0.567,0.872-0.785,1.089
	c0.306,0,0.61-0.043,0.741,0.174c-0.306,0.218-0.523,0.697-0.436,1.002c0.479,0.261,0.305,0.261,0.479,0.828
	c0.088,0.261,0.872,0.218,1.177,0.218c0.044-0.218,0.218-0.566,0.262-0.785c-0.305-0.087-0.697,0-1.002-0.043
	c0.087-0.261,0.261-0.479,0.436-0.654c-0.044-0.218-0.218-0.305-0.262-0.523c0-0.392-0.087-0.828,0.044-1.176
	s0.566-0.567,0.653-0.916c0.087-0.305-0.349-0.653-0.522-0.958c0,0.261,0.087,0.479,0.087,0.741
	c-0.131,0.087-0.262,0.262-0.393,0.393c-0.043-0.175-0.043-0.393-0.174-0.523c-0.349-0.349-0.654-0.261-0.915-0.261
	c0.131,0.174,0.349,0.261,0.479,0.479C510.128,356.58,510.215,356.667,510.171,356.841z M495.616,364.947
	c0.522-0.043,1.22-0.697,1.874-1.787c0.131,0.043,0.131,0.218,0.262,0.262c-0.567,0.697-1.221,1.351-1.787,2.004
	c0.218,0.218,0.436,0.566,0.522,0.915c0.044,0.131,0.044,0.305,0.044,0.479c0,0.131,0,0.305-0.044,0.436
	c0.218-0.349,0.437-0.566,0.654-0.697c0.305-0.218,0.653-0.349,1.002-0.349c0-0.872-0.044-1.787,0-2.702
	c0.087,0,0.262-0.087,0.349-0.043c-0.218,1.264-0.087,2.222,0.262,2.571c0.305,0.349,1.133,0.131,1.351-0.305
	c0.393-0.697,0.218-1.09,0.131-1.177c-0.218-0.218-0.566-0.131-0.61-0.043c0.218,0.566-0.174,0.872-0.392,0.653
	c-0.349-0.305-0.218-0.915-0.175-1.438c0.262,0.087,0.349,0.218,0.479,0.262c0.175-0.174,0.393-0.436,0.349-0.872
	c-0.044-0.174-0.262-0.218-0.436-0.436c0.262-0.566,1.046-1.351,1.481-0.872c0.305,0.349-0.087,0.697-0.393,1.046
	c-0.392,0.523-0.218,0.916,0.044,1.177c0.087-0.218,0.087-0.479,0.262-0.61c0.305-0.218,0.915-0.175,1.525-0.872
	c0.609-0.653,1.046-2.266,0.436-2.963c-0.61-0.654-2.048-0.131-3.094,1.395c-0.219,0.305-0.697,0.958-0.828,1.481
	c-0.088-0.043-0.088-0.131-0.175-0.174c0.697-1.395,1.787-2.484,2.615-3.878c0.828-1.351,0.566-2.833,0.261-4.314
	c-1.22,0.916-2.353,1.874-2.658,3.399c-0.261,1.569-0.174,3.094-0.566,4.619c-0.087-0.043-0.174,0.043-0.262,0
	c0.219-0.479,0.306-1.307,0.306-1.656c0.218-1.831-0.523-3.181-1.438-3.094s-1.656,1.612-1.612,2.484
	c0,0.915,0.479,1.308,0.566,1.656c0.044,0.174-0.131,0.392-0.218,0.61c0.393,0,0.784-0.174,0.828-0.828
	c0.044-0.436-0.087-0.958,0.393-1.002c0.653-0.087,0.697,1.046,0.522,1.656c-0.262,0.043-0.436-0.043-0.61,0.043
	c-0.349,0.262-0.349,0.61-0.349,0.872c0.131,0.043,0.306-0.043,0.523,0.087c-0.306,0.392-0.61,0.958-1.09,0.958
	c-0.305,0-0.392-0.479,0.131-0.741c0-0.131-0.174-0.392-0.522-0.392c-0.131,0-0.523,0.174-0.697,0.958
	C494.701,364.293,495.181,364.99,495.616,364.947z M492.61,350.828c-1.221,0.872-2.354,1.874-2.658,3.399
	c-0.262,1.569-0.175,3.094-0.566,4.619c-0.088-0.043-0.175,0.044-0.262,0c0.218-0.479,0.305-1.307,0.305-1.656
	c0.218-1.874-0.522-3.181-1.438-3.094c-0.916,0.087-1.656,1.612-1.656,2.484c0,0.915,0.479,1.264,0.566,1.656
	c0.044,0.174-0.131,0.392-0.218,0.61c0.392,0,0.784-0.174,0.828-0.828c0.043-0.436-0.087-0.959,0.392-1.002
	c0.654-0.087,0.697,1.046,0.523,1.656c-0.262,0.044-0.436-0.043-0.61,0.044c-0.349,0.261-0.349,0.61-0.349,0.872
	c0.131,0.043,0.305-0.044,0.523,0.087c-0.306,0.392-0.61,0.959-1.09,0.959c-0.305,0-0.393-0.479,0.131-0.741
	c0-0.13-0.175-0.392-0.523-0.392c-0.131,0-0.522,0.174-0.697,0.959c-0.087,0.479,0.393,1.176,0.828,1.133
	c0.523-0.043,1.221-0.697,1.874-1.787c0.131,0.043,0.131,0.174,0.262,0.261c-0.566,0.697-1.221,1.351-1.787,2.005
	c0.218,0.218,0.437,0.566,0.523,0.915c0.043,0.218,0.087,0.566,0,0.958c0.218-0.349,0.436-0.566,0.61-0.697
	c0.305-0.218,0.653-0.349,1.002-0.349c0-0.871-0.044-1.787,0-2.702c0.131,0,0.262-0.087,0.349-0.043
	c-0.218,1.264-0.087,2.223,0.262,2.571c0.305,0.349,1.133,0.13,1.351-0.305c0.393-0.697,0.218-1.089,0.087-1.177
	c-0.218-0.218-0.522-0.131-0.61-0.043c0.219,0.566-0.174,0.872-0.392,0.654c-0.349-0.305-0.218-0.916-0.175-1.438
	c0.262,0.087,0.349,0.218,0.479,0.305c0.175-0.174,0.393-0.436,0.349-0.872c-0.043-0.174-0.262-0.218-0.436-0.436
	c0.305-0.567,1.046-1.351,1.481-0.872c0.306,0.349-0.131,0.697-0.392,1.002c-0.393,0.523-0.219,0.916,0.043,1.177
	c0.087-0.218,0.087-0.479,0.262-0.61c0.305-0.218,0.915-0.174,1.525-0.872c0.609-0.654,1.046-2.31,0.436-2.963
	s-2.048-0.131-3.094,1.395c-0.218,0.305-0.697,0.958-0.872,1.438c-0.087-0.043-0.087-0.131-0.174-0.174
	c0.697-1.395,1.786-2.484,2.614-3.878c0.393-0.697,0.566-1.395,0.566-2.135C492.914,352.266,492.783,351.525,492.61,350.828z
	 M490.605,375.624c-0.392,0.523-0.218,0.915,0.044,1.177c0.087-0.218,0.087-0.479,0.261-0.61c0.306-0.218,0.916-0.174,1.525-0.872
	c0.61-0.653,1.046-2.31,0.437-2.963c-0.61-0.654-2.049-0.131-3.095,1.394c-0.218,0.305-0.697,0.959-0.828,1.482
	c-0.087-0.043-0.087-0.131-0.174-0.174c0.697-1.395,1.786-2.484,2.614-3.878c0.393-0.697,0.566-1.395,0.566-2.135
	c0-0.697-0.13-1.438-0.305-2.136c-1.22,0.872-2.354,1.874-2.658,3.399c-0.262,1.569-0.174,3.094-0.566,4.619
	c-0.087-0.043-0.175,0.043-0.262,0c0.218-0.479,0.306-1.307,0.306-1.656c0.218-1.831-0.523-3.181-1.438-3.094
	c-0.915,0.087-1.656,1.612-1.656,2.484c0,0.915,0.479,1.308,0.566,1.656c0.044,0.174-0.131,0.392-0.218,0.61
	c0.393,0,0.784-0.174,0.828-0.828c0.044-0.436-0.087-0.958,0.393-1.002c0.653-0.087,0.697,1.046,0.522,1.656
	c-0.262,0.043-0.436-0.043-0.61,0.043c-0.349,0.262-0.349,0.61-0.349,0.872c0.131,0.044,0.306-0.043,0.523,0.087
	c-0.305,0.392-0.61,0.958-1.09,0.958c-0.305,0-0.392-0.479,0.131-0.741c0-0.131-0.174-0.392-0.522-0.392
	c-0.131,0-0.523,0.174-0.697,0.958c-0.088,0.479,0.349,1.177,0.828,1.133c0.522-0.043,1.22-0.697,1.873-1.787
	c0.131,0.043,0.131,0.218,0.262,0.261c-0.566,0.697-1.22,1.351-1.786,2.005c0.218,0.218,0.436,0.566,0.522,0.915
	c0.044,0.131,0.044,0.305,0.044,0.479c0,0.13,0,0.305-0.044,0.436c0.218-0.349,0.436-0.566,0.653-0.697
	c0.306-0.218,0.654-0.349,1.003-0.349c0-0.872-0.044-1.787,0-2.702c0.087,0,0.262-0.087,0.349-0.044
	c-0.218,1.264-0.087,2.223,0.262,2.571c0.305,0.349,1.133,0.131,1.351-0.305c0.392-0.697,0.218-1.089,0.131-1.176
	c-0.218-0.218-0.566-0.131-0.61-0.044c0.218,0.567-0.174,0.872-0.393,0.654c-0.349-0.305-0.218-0.915-0.174-1.438
	c0.262,0.087,0.349,0.218,0.479,0.305c0.174-0.174,0.392-0.436,0.349-0.872c-0.044-0.174-0.262-0.218-0.436-0.436
	c0.305-0.566,1.045-1.351,1.481-0.872C491.258,374.926,490.866,375.275,490.605,375.624z M491.258,340.674l0.131-0.349l0,0
	L491.258,340.674z M424.583,360.197c-1.046,3.748,14.294,5.883,14.338,7.757c0.043,0.61-2.267,0.262-3.312-0.087
	c-4.401-1.395-11.592-4.314-12.812-5.055c0,0.392-0.087,1.002-0.218,1.481c-0.566-0.174-1.09-0.566-1.656-0.741
	c-0.566,0.828-1.177,1.656-1.699,2.484c0.043,0.479,0.218,1.22,0.218,1.656c1.002-0.131,2.266-0.043,3.225,0.131
	c2.44,0.436,4.619-1.831,6.886-1.395c0.218,1.656,0.261,3.486,1.873,5.534c2.789,0.523,6.842,0.959,6.319,2.528
	c-0.262,0.697-1.351,0.523-1.961,0.872c-1.133,0.61-1.308,1.395-1.525,2.31c1.09-0.872,2.092-1.438,2.833-1.438
	c-0.349,1.09-0.785,1.743-1.525,2.702c0.609,0.305,1.655-0.566,2.745-1.438c-0.044,0.784-0.436,1.569-0.871,2.353
	c0.871-0.218,1.83-1.046,2.353-1.961c-0.174-0.784-0.61-1.481-0.784-2.266c0.218,0,0.784,0.087,1.002,0.087
	c-0.174-0.828-0.958-1.656-0.74-2.484c0.131-0.479,0.828-0.653,1.264-0.872c-2.571-1.351-5.753-1.351-6.275-2.179
	c-0.262-0.349-0.218-1.22-0.218-1.656c1.351,0.174,2.789,0.741,4.184,0.871c0.958,0.087,1.699,0.218,2.353-1.307
	c1.221-2.92-14.947-4.532-14.859-7.713c0.043-1.395,1.22-2.527,3.007-2.615c2.527-0.131,4.053,1.351,4.401,3.138
	c-0.654,0.523-1.003,1.133-0.872,1.961c0.654-0.261,1.046-1.133,1.743-1.046c1.525,0.174,2.615,1.831,4.097,1.7
	c1.22-0.087,2.527-0.697,3.225-1.7c0.61-0.915-0.653-2.179-1.568-1.612c0.74,0.174,0.958,0.959,0.609,1.395
	c-0.522,0.828-2.266,0.828-3.442,0.218c0.349-0.523,0.61-0.261,1.351-1.525c-1.22-0.131-2.092,0.218-3.66-0.61
	c0.393-0.523,1.22-1.133,1.612-1.656c-2.396-0.218-5.534-1.264-7.277-1.482C427.198,356.405,424.976,358.933,424.583,360.197z
	 M430.336,375.798c-0.436,0.61,3.398-1.525,1.568-2.92c-1.655-1.307-2.876-5.229-2.658-5.97c-3.486,0.785-0.087,4.401-1.308,4.576
	c-3.922-0.13-2.31-2.396-5.011-3.094c0.349,0.523,0.479,1.177,0.609,1.743c-1.351-0.915-1.961-0.523-2.57,0.261
	c0.653,0.174,1.307,0,1.481,0.828c-0.262,0.479-0.349,0.61-1.177,1.046c1.177,0.523,2.179,0.218,2.876-0.218
	c1.09,1.176,2.92,0.872,3.051,1.83c1.133-1.133,1.656-1.002,1.961-0.654c-0.566,0.61-1.09,0.785-1.264,1.831
	c0.61,0.131,1.481,0.043,1.83-0.523C430.031,374.011,431.774,373.706,430.336,375.798z M419.442,356.188
	c-1.308,0.131-2.354,0.697-2.702,1.787c0.305,0.262,0.522,0.654,0.872,0.916c-1.308,0.349-2.311,2.004-2.484,2.527
	c0.784-0.043,1.481-0.174,2.266-0.174c-0.218,0.828-0.74,2.135-0.958,2.963c0.827-0.566,1.089-0.654,1.83-0.741
	c0.479,0.741,0.61,1.307,0.871,2.31c0.566-0.915,1.177-1.7,1.7-2.658c0.653,0.305,0.915,0.436,1.525,0.697
	c-0.088-1.002,0.436-2.135,0.349-3.138c0.436-0.131,0.653,0.131,1.089-0.218c-0.131-0.567-0.262-0.828-0.392-1.395
	c0.349-0.044,0.784-0.349,1.133-0.393c-0.175-0.436-0.437-0.697-0.61-1.133c0.436-0.218,0.828-0.436,1.264-0.61
	c-0.043-0.567-0.393-1.22-1.264-1.525c1.395-0.915,1.22-0.741-0.262-0.828c0-0.566,0.131-0.915-0.043-1.395
	c-0.697,0.087-1.525-0.043-1.831,0.174c-0.174-0.872,0.044-0.741-0.653-1.22c-0.393,0.479-0.697,1.002-0.566,1.961
	C419.267,353.834,419.224,355.621,419.442,356.188z M417.698,369c0.436-0.697,0.915-1.089,1.481-1.264
	c-0.218-1.307-0.305-2.746-1.046-3.835c-1.133,0.043-1.699,0.828-2.31,1.656c-5.927-0.218-3.225-3.443-5.927-4.271
	c0.479,0.741,0.653,1.569,0.828,2.31c-1.699-0.915-2.31-0.828-3.225,0.044c0.828,0.392,1.395,0.566,1.743,1.481
	c-0.697,0.305-0.915,0.828-2.049,0.61c0.175,1.481,1.482,1.83,3.095,0.523c0.74,0.784,1.22,1.612,1.524,2.658
	c0.393-0.349,0.916-0.479,1.308-0.828c0.523,1.133,0.262,2.004,2.049,2.004c0-0.436,0.043-1.002,0.043-1.394
	c1.569,1.264,1.743,1.743,3.051,2.091c0-0.349,0.262-0.958,0.74-1.133C418.527,369.305,418.134,369.305,417.698,369z
	 M414.474,354.14c-0.479,0.043-1.177-0.087-1.656-0.087c-0.566-0.043-0.915,0.436-1.177,1.089c0.871-0.13,1.743-0.261,2.484-0.043
	c-0.437,1.002-1.395,2.353-2.005,2.963c0.74-0.043,1.395-0.174,1.743,0.349c-0.697,0.61-1.308,1.961-1.177,2.746
	c1.09,0.61,0.697,0.697,0.915,2.135c0.131,0.741,1.961,0.392,2.702,0.436c0.131-0.566,0.566-1.569,0.697-2.092
	c-0.697-0.13-1.569,0.174-2.267,0.044c0.218-0.741,0.654-1.351,1.133-1.831c-0.087-0.523-0.479-0.784-0.566-1.307
	c0.044-1.09-0.043-2.136,0.306-3.182c0.349-0.958,1.395-1.568,1.612-2.571c0.218-0.872-0.697-1.656-1.046-2.484
	c0,0.697,0.087,1.22,0.087,1.917c-0.262,0.305-0.653,0.784-0.959,1.089c-0.13-0.479-0.043-1.046-0.349-1.395
	c-0.74-0.872-1.438-0.61-2.092-0.566c0.306,0.479,0.785,0.653,1.046,1.176C414.43,353.486,414.561,353.66,414.474,354.14z
	 M363.922,360.807c2.354,0,5.447-2.005,8.062-5.709c0.566,0.174,0.784,0.785,1.22,1.046c-2.396,2.223-5.055,4.358-7.451,6.581
	c1.133,0.915,2.31,2.179,2.789,3.617c0.305,0.872,0.609,2.135,0.436,3.486l0,0c0.784-1.133,1.83-1.874,2.658-2.31
	c1.308-0.741,3.007-0.915,4.445-0.872c-0.349-3.269-0.915-6.624-1.265-9.893c0.523,0.087,1.09-0.174,1.613,0.044
	c-0.479,4.488,0.522,8.062,2.266,9.587c1.569,1.395,5.316,0.916,6.231-0.479c1.569-2.44,0.523-3.878,0-4.358
	c-1.133-0.915-2.614-0.697-2.963-0.479c1.264,2.092-0.349,3.094-1.525,2.266c-1.83-1.351-1.395-3.53-1.525-5.36
	c1.264,0.393,1.7,0.916,2.267,1.264c0.697-0.61,1.655-1.482,1.133-3.051c-0.349-0.653-1.221-0.872-2.179-1.743
	c1.089-1.917,4.271-4.532,6.536-2.571c1.612,1.395-0.218,2.484-1.264,3.573c-1.656,1.7-0.697,3.269,0.784,4.314
	c0.306-0.697,0.262-1.743,0.915-2.092c1.352-0.697,4.271-0.305,6.799-2.528c2.483-2.179,3.922-7.931,0.653-10.633
	c-3.225-2.746-9.587-1.438-13.901,3.704c-0.828,0.958-2.832,3.225-3.312,4.968c-0.437-0.174-0.566-0.566-0.959-0.741
	c2.702-4.837,7.277-8.367,10.546-12.986c3.182-4.576,1.481-10.154-0.653-15.688l0,0c-5.229,2.746-10.241,5.796-10.852,11.374
	c-0.61,5.622,0.479,11.287-0.653,16.69c-0.436-0.13-0.784,0.087-1.221-0.087c0.828-1.612,0.741-4.663,0.785-5.927
	c0.13-6.711-3.792-11.853-8.019-11.94c-4.228-0.087-6.973,5.142-6.537,8.454s2.876,4.924,3.442,6.363
	c0.262,0.697-0.479,1.438-0.697,2.179c1.831,0.218,3.574-0.349,3.443-2.702c-0.088-1.525-0.741-3.573,1.395-3.53
	c2.963,0.044,3.66,4.14,3.225,6.275c-1.264,0.043-2.092-0.349-2.789-0.131c-1.438,0.828-1.264,2.136-1.177,3.051
	c0.653,0.174,1.351,0.043,2.527,0.566c-1.307,1.307-2.396,3.225-4.662,3.05c-1.395-0.13-1.962-1.961,0.349-2.702
	c-0.131-0.436-1.046-1.569-2.528-1.612c-0.697-0.043-2.44,0.349-2.876,3.225C359.347,358.018,361.83,360.807,363.922,360.807z
	 M328.58,426.087c1.743-8.105,4.01-9.849,8.803-7.582l2.267-4.794C336.817,406.521,326.227,413.449,328.58,426.087z M340.26,412.36
	l3.355-6.581l-0.219-12.114l-5.577,15.601L340.26,412.36z M330.062,426.479c2.092-4.14,3.356-2.963,4.62-1.874l2.179-4.968
	C335.335,417.677,329.844,417.502,330.062,426.479z M328.798,453.978c7.06-17.432,14.947-39.09,20.265-52.991
	c-2.528-0.349-15.819,24.229-23.358,51.204C325.4,453.324,328.363,455.023,328.798,453.978z M331.282,466.223l-0.566-10.066
	c-1.177-0.305-2.615-0.74-3.661-1.395l0.915,10.633C328.842,466.267,330.323,466.746,331.282,466.223z M349.672,401.248
	c-5.186,13.901-13.553,35.429-19.74,53.165c-0.349,1.046,3.007,1.743,3.486,0.741C345.532,429.879,351.808,402.643,349.672,401.248z
	 M356.732,437.243c1.743-8.105,4.01-9.849,8.804-7.539l2.266-4.793C364.968,417.721,354.379,424.605,356.732,437.243z
	 M368.411,423.56l3.355-6.58l-0.218-12.115l-5.578,15.602L368.411,423.56z M358.17,437.679c2.092-4.14,3.355-2.963,4.619-1.873
	l2.179-4.969C363.444,428.876,357.996,428.702,358.17,437.679z M358.737,399.417l-8.149,8.978l-1.83,7.146l3.879-0.697
	L358.737,399.417z M347.102,432.929c6.057-6.624,1.83-10.109-0.567-9.631l-1.655,5.187
	C346.534,428.484,348.278,428.44,347.102,432.929z M348.322,416.979l-1.481,5.099c5.099,1.438,5.665,4.227,1.612,11.505
	C358.563,425.608,355.163,413.449,348.322,416.979z M356.906,465.177c7.06-17.431,14.947-39.09,20.264-52.991
	c-2.527-0.392-15.818,24.187-23.357,51.205C353.507,464.523,356.471,466.223,356.906,465.177z M359.391,477.423l-0.567-10.066
	c-1.176-0.306-2.614-0.741-3.704-1.395l0.915,10.633C356.95,477.466,358.432,477.902,359.391,477.423z M377.781,412.447
	c-5.186,13.901-13.553,35.43-19.741,53.166c-0.392,1.089,3.007,1.743,3.486,0.74C373.684,441.035,379.916,413.842,377.781,412.447z
	 M385.493,448.095c1.743-8.149,4.01-9.849,8.804-7.583l2.266-4.794C393.774,428.571,383.141,435.457,385.493,448.095z
	 M397.173,434.411l3.355-6.581l-0.218-12.114l-5.578,15.601L397.173,434.411z M386.976,448.486c2.048-4.14,3.355-2.963,4.619-1.874
	l2.179-4.968C392.248,439.684,386.758,439.51,386.976,448.486z M386.845,410.617l-8.149,8.977l-1.83,7.147l3.878-0.697
	L386.845,410.617z M375.253,444.085c6.058-6.624,1.83-10.11-0.566-9.631l-1.656,5.187
	C374.643,439.684,376.43,439.597,375.253,444.085z M376.473,428.179l-1.481,5.099c5.099,1.438,5.665,4.228,1.612,11.505
	C386.67,436.808,383.315,424.605,376.473,428.179z M385.712,476.028c7.06-17.432,14.99-39.09,20.264-52.948
	c-2.527-0.349-15.819,24.187-23.358,51.205C382.269,475.374,385.276,477.074,385.712,476.028z M404.015,454.937
	c6.058-6.624,1.83-10.11-0.566-9.631l-1.656,5.186C403.448,450.491,405.192,450.447,404.015,454.937z M405.365,455.59
	c10.11-7.932,6.711-20.133-0.131-16.604l-1.481,5.099C408.852,445.523,409.418,448.355,405.365,455.59z M415.65,421.468
	l-8.148,8.978l-1.831,7.146l3.879-0.697L415.65,421.468z M406.542,423.255c-5.186,13.901-13.553,35.429-19.741,53.165
	c-0.392,1.09,3.007,1.743,3.486,0.741C402.446,451.886,408.678,424.692,406.542,423.255z M388.196,488.273l-0.566-10.066
	c-1.177-0.305-2.614-0.741-3.704-1.395l0.915,10.633C385.755,488.317,387.237,488.797,388.196,488.273z M438.529,488.928
	c4.488,2.353,8.498,3.442,9.544,1.742c-3.53-1.524-6.711-3.181-9.239-5.229c0.916-0.566,2.397-0.697,3.574-0.566
	c-2.964-3.835-8.411-2.311-8.978-11.767c-0.087-1.569-0.131-3.704-0.436-5.229c-0.306-1.481-1.352-2.31-2.44-2.136
	c-0.523,0.088-1.874,1.134-3.748,1.613c0.915,0.915,1.656,2.135,2.005,3.225c-2.615,3.442-3.835,6.101-3.399,8.192
	c2.658,12.594,9.937,2.396,12.202,17.954c0.305,0.393,1.525,0.306,1.568-0.087C439.313,494.2,438.877,491.542,438.529,488.928z
	 M466.68,517.863c-3.529-1.525-6.711-3.182-9.282-5.229c0.915-0.566,2.397-0.697,3.574-0.566c-3.007-3.835-8.411-2.31-8.978-11.723
	c-0.087-1.568-0.087-3.704-0.436-5.229c-0.306-1.481-1.352-2.31-2.397-2.135c-0.566,0.087-1.873,1.176-3.747,1.612
	c0.915,0.915,1.656,2.135,2.004,3.225c-2.614,3.442-3.834,6.101-3.398,8.192c2.658,12.551,9.936,2.397,12.202,17.911
	c0.305,0.392,1.524,0.305,1.524-0.087c0.088-2.44-0.305-5.1-0.653-7.714C461.581,518.474,465.591,519.562,466.68,517.863z
	 M494.744,508.276c-3.529-1.525-6.711-3.182-9.282-5.229c0.959-0.566,2.397-0.697,3.574-0.566c-2.964-3.835-8.411-2.31-8.978-11.723
	c-0.087-1.569-0.131-3.704-0.436-5.229c-0.306-1.481-1.352-2.31-2.44-2.136c-0.566,0.088-1.874,1.133-3.748,1.612
	c0.915,0.915,1.656,2.136,2.005,3.226c-2.571,3.442-3.791,6.101-3.355,8.192c2.658,12.551,9.936,2.354,12.202,17.91
	c0.305,0.393,1.524,0.306,1.524-0.087c0.088-2.44-0.305-5.099-0.653-7.713C489.69,508.886,493.698,509.976,494.744,508.276z
	 M493.612,474.634c1.612-2.92,2.048-4.794,1.177-5.187c-4.228,2.267-12.071,1.047-23.707-3.485
	c4.271-11.723,8.542-18.434,12.986-20.134c0.306-0.915-1.395-1.83-4.662-2.527c0.349-4.532-0.785-6.014-0.828-5.927
	c0.043-0.044-1.83,0.262-4.576,3.922c-2.92-1.655-4.793-2.048-5.186-1.177c2.266,4.228,1.046,12.071-3.486,23.663
	c-11.723-4.271-18.434-8.541-20.133-12.986c-0.915-0.261-1.831,1.395-2.528,4.663c-4.532-0.349-6.014,0.828-5.926,0.828
	c-0.088-0.044,0.305,1.787,3.922,4.532c-1.656,2.92-2.092,4.794-1.177,5.186c4.227-2.266,12.071-1.002,23.706,3.53
	c-4.271,11.723-8.541,18.434-13.029,20.133c-0.306,0.915,1.395,1.83,4.663,2.527c-0.349,4.532,0.827,6.014,0.827,5.927
	c-0.043,0.087,1.831-0.261,4.532-3.922c2.92,1.656,4.794,2.048,5.187,1.177c-2.267-4.228-1.003-12.071,3.529-23.707
	c11.723,4.271,18.434,8.542,20.134,12.986c0.915,0.306,1.83-1.395,2.527-4.662c4.532,0.349,6.014-0.828,5.927-0.828
	C497.621,479.209,497.229,477.379,493.612,474.634z M444.324,429.442c-2.614,3.443-3.791,6.102-3.355,8.193
	c2.658,12.551,9.936,2.396,12.202,17.91c0.305,0.393,1.525,0.306,1.525-0.087c0.087-2.44-0.306-5.099-0.654-7.713
	c4.445,2.353,8.498,3.442,9.544,1.743c-3.529-1.525-6.711-3.182-9.282-5.273c0.915-0.566,2.396-0.697,3.573-0.566
	c-3.007-3.835-8.41-2.31-8.977-11.723c-0.088-1.568-0.131-3.704-0.437-5.272c-0.305-1.482-1.351-2.311-2.396-2.136
	c-0.566,0.087-1.874,1.177-3.748,1.612C443.236,427.177,443.976,428.396,444.324,429.442z M510.259,467.138
	c-3.53-1.524-6.712-3.181-9.282-5.272c0.915-0.566,2.396-0.697,3.573-0.566c-3.007-3.835-8.454-2.31-8.978-11.723
	c-0.087-1.569-0.131-3.704-0.436-5.229c-0.305-1.481-1.351-2.31-2.44-2.136c-0.566,0.088-1.874,1.134-3.748,1.612
	c0.915,0.916,1.656,2.136,2.005,3.226c-2.614,3.442-3.835,6.101-3.355,8.192c2.658,12.594,9.936,2.396,12.202,17.954
	c0.305,0.393,1.525,0.306,1.525-0.087c0.087-2.44-0.306-5.099-0.654-7.714C505.203,467.748,509.213,468.838,510.259,467.138z
	 M556.451,398.328c-11.068-12.856-18.738-28.5-23.009-47.065c-1.482,0.349-2.964,0.654-4.445,0.828l0.044-0.131l0.087-0.218l0,0
	l-0.218,0.043c-0.218,0.043-0.436,0.043-0.654,0.087c0.219-0.044,0.437-0.044,0.654-0.087l0.218-0.043l-0.087,0.218l-0.044,0.131
	l-16.646,44.145l-17.78-6.711l14.425-38.349l-1.09-0.436l-14.425,38.349l-17.954-6.755l15.731-41.617
	c-7.582-5.011-15.47-11.635-23.706-19.872l-0.523-0.523c-0.043-0.043-0.13-0.131-0.174-0.174l-0.044,0.087l-1.525-0.087l0,0
	l-34.165,93.389l-41.399-15.078l29.372-80.664l-1.134-0.392l-29.328,80.664l-49.505-18.042l-0.828,2.223l91.994,33.511
	l-43.36,118.621l2.223,0.827l43.36-118.62l92.43,33.687l0.828-2.223C531.307,428.92,542.986,413.014,556.451,398.328z
	 M146.554,371.135c9.631-3.53,17.126-7.321,16.734-8.454c-0.437-1.133-8.585,0.828-18.216,4.358s-16.996,7.278-16.604,8.411
	C128.905,376.583,136.923,374.665,146.554,371.135z M136.182,426.566l0.828,1.09c-0.174,0.131-0.392,0.479-0.609,1.089
	c-0.262,0.697-0.523,1.743-0.741,3.226l-0.087,0.566h-0.566c-0.697-0.044-1.352-0.044-1.961-0.044
	c-0.741-0.044-1.482-0.044-2.18-0.044c-0.871,0.61-1.743,1.221-2.614,1.787c-0.741,0.479-1.481,1.002-2.223,1.525
	c0.61,0.784,1.133,1.525,1.656,2.266l2.44-3.138l5.49,0.61l-2.658,5.316l-3.617-0.174c2.049,3.573,2.964,6.667,2.702,9.238
	c-0.087,0.784-0.262,1.525-0.522,2.223c-0.262,0.697-0.654,1.351-1.134,1.961l0,0l-0.043,0.087h0.131l6.188-0.043l1.612-3.792
	l0.175-0.392l0.393-0.044l1.743-0.131l-1.003-4.488l-0.174-0.697l0.74-0.087l1.656-0.218l-2.179-3.792l1.177-0.653l2.57,4.663
	l0.479,0.871l-1.002,0.131l-1.917,0.262l1.002,4.532l0.174,0.74l-0.784,0.044l-2.135,0.175l-1.613,3.791l-0.174,0.393h-0.436
	l-3.225,0.043c1.045,0.697,2.004,1.874,2.527,3.355c1.002,2.833,0.218,5.753-1.831,6.493c-2.048,0.741-4.531-1.002-5.534-3.835
	c-0.479-1.264-0.566-2.571-0.305-3.66l-1.918,2.092l-0.305,0.349l-0.436-0.175l-3.617-1.481l-1.743,1.656l-0.61,0.566l-0.436-0.697
	l-2.658-4.358l-1.351,2.484l-0.697,1.351l-0.523-1.438l-1.874-5.404l1.264-0.436l1.438,4.053l1.177-2.179l0.566-1.046l0.61,1.002
	l2.789,4.62l1.438-1.395l0.306-0.306l0.436,0.175l3.573,1.481l3.835-4.271l0,0l-0.218-0.044c-0.087,0-0.349-0.044-0.61-0.087
	c-3.225-0.566-6.406-1.09-8.585-9.587l-2.266,2.701l-5.753-1.612l3.225-4.488l4.097,0.305c-0.174-0.828-0.305-1.656-0.436-2.614
	c-1.83,0.087-2.223,0.131-2.223,0.131c-0.044,0-0.044,0-0.044,0c-1.22,0.043-2.44,0.13-3.878,0.174
	c-0.697,0.784-1.264,1.525-1.612,2.223c-0.349,0.741-0.566,1.481-0.566,2.179l0.043,1.612l-1.177-1.133
	c-1.699-1.656-3.355-2.266-5.229-3.007c-0.305-0.131-0.609-0.218-0.74-0.305l0.479-1.264c0.349,0.13,0.566,0.218,0.74,0.305
	c1.7,0.653,3.182,1.22,4.707,2.44c0.131-0.479,0.305-0.959,0.522-1.395c0.437-0.915,1.134-1.83,2.005-2.789l0.174-0.175h0.262h0.044
	c1.22-0.043,2.658-0.13,4.097-0.218c0.827-0.043,0,0,2.876-0.131l0.609-0.043l0.088,0.61c0.958,6.58,2.179,10.109,3.66,12.07
	c0.087-0.087,0.218-0.174,0.349-0.261l0,0c0.306-0.262,0.654-0.479,0.959-0.697c1.525-1.003,3.181-1.656,4.924-1.961
	c-0.566-3.095-2.57-6.842-6.057-11.243l-0.437-0.566l0.61-0.393c0.959-0.654,1.874-1.264,2.789-1.918
	c0.959-0.653,1.874-1.264,2.789-1.917l0.175-0.131h0.218c0.871,0,1.612,0.044,2.396,0.044c0.479,0,0.959,0,1.395,0.043
	c0.218-1.264,0.479-2.223,0.741-2.92C135.442,427.352,135.79,426.872,136.182,426.566z M117.879,443.649
	c-0.436-1.22-1.264-2.048-1.83-1.83s-0.697,1.351-0.262,2.571c0.437,1.22,1.264,2.048,1.831,1.83
	C118.228,446.003,118.316,444.869,117.879,443.649z M130.692,448.617c-1.569,0.305-3.007,0.872-4.358,1.743
	c-0.305,0.175-0.609,0.393-0.871,0.61c-0.087,0.087-0.175,0.131-0.262,0.218c1.308,1.22,2.702,1.438,4.14,1.699
	c0.088,0.044,0.131,0.044,0.219,0.044c0.305-0.436,0.522-0.828,0.697-1.308c0.218-0.566,0.349-1.22,0.436-1.83
	C130.692,449.401,130.692,449.01,130.692,448.617z M130.343,438.071c0.61,1.133,1.525,1.83,2.092,1.569
	c0.522-0.306,0.479-1.438-0.131-2.571c-0.61-1.134-1.525-1.831-2.092-1.569C129.689,435.762,129.733,436.938,130.343,438.071z
	 M97.093,400.463c-9.631,3.53-16.996,7.278-16.604,8.411c0.392,1.133,8.454-0.784,18.085-4.271c9.631-3.53,17.17-7.321,16.733-8.455
	C114.916,395.016,106.723,396.934,97.093,400.463z M469.208,417.284h0.087v-0.087v-0.131l0.131,0.131l0.131,0.131v-0.175
	l-0.044-0.392l0.218,0.174l0.087-0.131l-0.392-0.305l-0.131-0.131v0.175l0.043,0.349l-0.13-0.088l-0.131-0.087v0.175v0.218
	l-0.437-0.044l0.044-0.218l0.131-0.044h0.087v-0.087v-0.262l0.218,0.044l0.175,0.044l-0.044-0.175l-0.174-0.392l-0.175,0.043
	l0.087,0.262l-0.131-0.044l-0.13-0.043v0.131v0.305l-0.131,0.044h-0.044v0.043l-0.087,0.349l-0.044,0.087h0.087L469.208,417.284z
	 M494.178,390.658l17.78,6.711l-14.947,39.612l-0.131-0.043l-17.736-6.319L494.178,390.658z M496.227,420.814
	c-0.61-0.654-2.049-0.131-3.095,1.395c-0.218,0.305-0.697,0.959-0.828,1.438c-0.087-0.043-0.087-0.13-0.174-0.174
	c0.697-1.395,1.786-2.484,2.614-3.835s0.566-2.833,0.262-4.314c-1.22,0.915-2.354,1.874-2.658,3.399
	c-0.262,1.568-0.174,3.094-0.566,4.619c-0.087-0.044-0.175,0.044-0.262,0c0.218-0.479,0.305-1.308,0.305-1.656
	c0.219-1.83-0.522-3.181-1.438-3.094s-1.656,1.612-1.656,2.484c0,0.915,0.479,1.264,0.566,1.655c0.044,0.175-0.131,0.393-0.218,0.61
	c0.393,0,0.784-0.174,0.828-0.828c0.044-0.436-0.044-0.959,0.393-1.002c0.653-0.087,0.697,1.046,0.522,1.656
	c-0.262,0.043-0.436-0.044-0.61,0.043c-0.349,0.262-0.349,0.61-0.349,0.872c0.131,0.043,0.306-0.044,0.523,0.087
	c-0.306,0.393-0.61,0.959-1.09,0.959c-0.305,0-0.392-0.479,0.131-0.741c0-0.131-0.174-0.393-0.522-0.393
	c-0.131,0-0.523,0.175-0.697,0.959c-0.088,0.479,0.392,1.177,0.828,1.133c0.522-0.043,1.22-0.697,1.873-1.786
	c0.131,0.043,0.175,0.174,0.262,0.262c-0.566,0.697-1.22,1.351-1.786,2.004c0.218,0.218,0.436,0.566,0.522,0.915
	c0.044,0.219,0.087,0.567,0,0.959l0,0l0,0l0,0c0.218-0.349,0.436-0.566,0.653-0.697c0.306-0.218,0.654-0.349,1.003-0.349
	c0-0.871-0.044-1.786,0-2.702c0.131,0,0.261-0.087,0.349-0.043c-0.218,1.264-0.087,2.223,0.262,2.571
	c0.305,0.349,1.133,0.131,1.351-0.306c0.392-0.697,0.218-1.089,0.131-1.177c-0.218-0.218-0.523-0.13-0.61-0.043
	c0.218,0.522-0.174,0.871-0.393,0.653c-0.349-0.305-0.218-0.915-0.174-1.438c0.262,0.087,0.349,0.218,0.479,0.305
	c0.174-0.175,0.392-0.436,0.349-0.872c-0.044-0.174-0.262-0.218-0.436-0.436c0.261-0.566,1.045-1.351,1.481-0.871
	c0.305,0.349-0.131,0.697-0.393,1.002c-0.393,0.523-0.218,0.915,0.044,1.177c0.087-0.218,0.087-0.479,0.261-0.61
	c0.306-0.218,0.916-0.174,1.525-0.871C496.401,423.124,496.836,421.512,496.227,420.814z M498.972,413.406
	c0.522-0.044,1.22-0.697,1.874-1.787c0.131,0.044,0.174,0.175,0.262,0.262c-0.567,0.697-1.221,1.351-1.787,2.005
	c0.218,0.218,0.436,0.566,0.522,0.915c0.044,0.218,0.088,0.566,0,0.958l0,0l0,0l0,0c0.219-0.349,0.437-0.566,0.654-0.696
	c0.305-0.219,0.653-0.35,1.002-0.35c0-0.871-0.043-1.786,0-2.701c0.131,0,0.262-0.087,0.349-0.044
	c-0.218,1.264-0.087,2.223,0.262,2.571c0.305,0.349,1.133,0.131,1.351-0.305c0.393-0.697,0.218-1.09,0.131-1.177
	c-0.218-0.218-0.522-0.131-0.61-0.044c0.219,0.523-0.174,0.872-0.392,0.654c-0.349-0.306-0.218-0.916-0.175-1.438
	c0.262,0.087,0.349,0.218,0.479,0.305c0.175-0.174,0.393-0.436,0.349-0.871c-0.043-0.175-0.262-0.218-0.436-0.436
	c0.262-0.567,1.046-1.352,1.481-0.872c0.305,0.349-0.131,0.697-0.392,1.002c-0.393,0.523-0.219,0.916,0.043,1.177
	c0.087-0.218,0.087-0.479,0.262-0.609c0.305-0.219,0.915-0.175,1.525-0.872c0.609-0.653,1.046-2.31,0.436-2.963
	c-0.61-0.654-2.048-0.131-3.094,1.395c-0.219,0.305-0.697,0.958-0.828,1.438c-0.087-0.043-0.087-0.131-0.175-0.174
	c0.697-1.395,1.787-2.484,2.615-3.835c0.828-1.352,0.566-2.833,0.261-4.314l0,0c-1.22,0.915-2.353,1.874-2.658,3.399
	c-0.261,1.568-0.174,3.094-0.566,4.619c-0.087-0.044-0.174,0.043-0.262,0c0.219-0.479,0.306-1.308,0.306-1.656
	c0.218-1.83-0.523-3.181-1.438-3.094s-1.656,1.612-1.656,2.483c0,0.915,0.479,1.264,0.567,1.656c0.043,0.175-0.131,0.393-0.218,0.61
	c0.392,0,0.784-0.175,0.827-0.828c0.044-0.436-0.043-0.959,0.393-1.002c0.653-0.088,0.697,1.046,0.522,1.655
	c-0.261,0.044-0.436-0.043-0.609,0.044c-0.349,0.262-0.349,0.61-0.349,0.871c0.131,0.044,0.305-0.043,0.522,0.088
	c-0.305,0.392-0.61,0.958-1.089,0.958c-0.306,0-0.393-0.479,0.13-0.74c0-0.131-0.174-0.393-0.522-0.393
	c-0.131,0-0.522,0.175-0.697,0.959C498.057,412.752,498.536,413.449,498.972,413.406z M495.965,399.287
	c-1.221,0.915-2.354,1.873-2.658,3.398c-0.262,1.569-0.175,3.094-0.566,4.619c-0.088-0.043-0.175,0.044-0.262,0
	c0.218-0.479,0.305-1.307,0.349-1.655c0.218-1.831-0.523-3.182-1.438-3.095c-0.915,0.088-1.655,1.612-1.612,2.484
	c0,0.915,0.479,1.264,0.566,1.656c0.044,0.174-0.13,0.392-0.218,0.609c0.393,0,0.785-0.174,0.828-0.828
	c0-0.436-0.043-0.958,0.393-1.002c0.653-0.087,0.697,1.046,0.522,1.656c-0.261,0.043-0.436-0.044-0.61,0.043
	c-0.349,0.262-0.349,0.61-0.349,0.872c0.131,0.044,0.306-0.044,0.523,0.087c-0.305,0.393-0.61,0.959-1.09,0.959
	c-0.305,0-0.392-0.479,0.131-0.741c0-0.131-0.174-0.392-0.522-0.392c-0.131,0-0.523,0.174-0.697,0.958
	c-0.087,0.479,0.349,1.177,0.828,1.134c0.522-0.044,1.22-0.697,1.873-1.787c0.131,0.044,0.131,0.175,0.262,0.262
	c-0.566,0.697-1.22,1.351-1.786,2.005c0.218,0.218,0.436,0.566,0.522,0.915c0.044,0.218,0.087,0.566,0,0.958l0,0l0,0l0,0
	c0.218-0.349,0.436-0.566,0.654-0.697c0.305-0.218,0.653-0.349,1.002-0.349c0-0.871-0.044-1.786,0-2.701
	c0.131,0,0.262-0.088,0.349-0.044c-0.218,1.264-0.087,2.223,0.262,2.571c0.305,0.349,1.133,0.131,1.351-0.305
	c0.393-0.697,0.218-1.09,0.131-1.177c-0.218-0.218-0.566-0.131-0.61-0.044c0.218,0.523-0.174,0.872-0.393,0.653
	c-0.349-0.305-0.218-0.915-0.174-1.438c0.262,0.087,0.349,0.218,0.479,0.305c0.174-0.174,0.392-0.436,0.349-0.871
	c-0.044-0.175-0.262-0.218-0.436-0.437c0.261-0.566,1.046-1.351,1.481-0.871c0.305,0.349-0.131,0.697-0.393,1.002
	c-0.392,0.523-0.218,0.915,0.044,1.177c0.087-0.218,0.087-0.479,0.262-0.61c0.305-0.218,0.915-0.174,1.524-0.871
	c0.61-0.653,1.046-2.266,0.437-2.963c-0.654-0.654-2.049-0.131-3.095,1.395c-0.218,0.305-0.697,0.958-0.828,1.438
	c-0.087-0.043-0.087-0.131-0.174-0.174c0.697-1.395,1.787-2.484,2.614-3.835C496.531,402.25,496.314,400.769,495.965,399.287
	L495.965,399.287z M513.266,358.236l0.305,0.436l0.131-0.087l-0.087-0.131l0.174,0.087l0.087-0.131l-0.479-0.218l-0.306-0.174
	L513.266,358.236z M512.742,357.756l0.262,0.087l0.218,0.087l-0.131-0.218l-0.218-0.349l-0.131,0.087l0.087,0.131h-0.043
	L512.742,357.756z M469.948,416.238l0.306,0.437l0.13-0.088l-0.087-0.131l0.175,0.088l0.087-0.131l-0.479-0.218l-0.305-0.175
	L469.948,416.238z M493.045,390.266l-15.034,39.961l-18.173-6.493l0.044-0.131l15.165-40.136L493.045,390.266z M478.62,390.396
	c-0.566,0-1.002,0.218-1.133,0.61c0.131,0.131,0.262,0.261,0.393,0.392c-0.566,0.087-0.959,0.697-1.003,0.872
	c0.35,0,0.654-0.043,1.003,0c-0.087,0.305-0.262,0.784-0.349,1.089c0.349-0.174,0.436-0.218,0.784-0.218
	c0.218,0.305,0.305,0.523,0.436,0.915c0.218-0.349,0.479-0.61,0.697-0.958c0.306,0.13,0.393,0.174,0.697,0.305
	c-0.043-0.392,0.131-0.784,0.088-1.176c0.174-0.043,0.305,0.087,0.479-0.043c-0.087-0.218-0.13-0.305-0.218-0.523
	c0.131,0,0.349-0.13,0.479-0.13c-0.087-0.174-0.218-0.262-0.305-0.436c0.174-0.043,0.349-0.131,0.522-0.218
	c-0.043-0.218-0.218-0.479-0.609-0.61c0.566-0.305,0.522-0.261-0.131-0.305c0-0.218,0.043-0.349-0.044-0.523
	c-0.305,0-0.653-0.043-0.784,0.043c-0.088-0.349,0-0.305-0.306-0.479c-0.174,0.174-0.305,0.349-0.218,0.741
	C478.49,389.481,478.49,390.135,478.62,390.396z M475.178,389.787c0.393-0.043,0.741-0.043,1.09,0.043
	c-0.175,0.349-0.566,0.872-0.785,1.089c0.306,0,0.61-0.043,0.741,0.174c-0.305,0.218-0.522,0.697-0.436,1.002
	c0.479,0.261,0.305,0.261,0.479,0.828c0.087,0.261,0.871,0.218,1.176,0.218c0.044-0.218,0.219-0.566,0.262-0.785
	c-0.305-0.087-0.697,0-1.002-0.043c0.087-0.261,0.262-0.479,0.436-0.654c-0.043-0.218-0.218-0.305-0.262-0.522
	c0-0.393-0.043-0.828,0.044-1.177c0.131-0.349,0.566-0.566,0.653-0.915c0.088-0.305-0.349-0.654-0.522-0.959
	c0.044,0.262,0.087,0.479,0.087,0.741c-0.131,0.087-0.262,0.262-0.393,0.392c-0.043-0.174-0.043-0.392-0.174-0.522
	c-0.349-0.349-0.653-0.262-0.915-0.262c0.131,0.174,0.349,0.262,0.479,0.479c0.261,0.349,0.305,0.436,0.261,0.61
	c-0.218,0-0.522-0.087-0.74-0.087C475.396,389.351,475.265,389.525,475.178,389.787z M474.35,393.491
	c-0.305,0.087-0.392,0.261-0.871,0.174c0.131,0.566,0.697,0.741,1.351,0.261c0.349,0.305,0.566,0.654,0.741,1.046
	c0.174-0.13,0.392-0.174,0.566-0.261c0.262,0.436,0.174,0.741,0.959,0.784c0-0.174,0-0.392,0-0.523
	c0.74,0.523,0.784,0.697,1.395,0.872c0-0.13,0.087-0.349,0.305-0.436c-0.175-0.087-0.349-0.087-0.523-0.262
	c0.175-0.261,0.393-0.392,0.61-0.436c-0.131-0.523-0.218-1.046-0.566-1.482c-0.479,0-0.697,0.262-0.959,0.567
	c-2.614-0.262-1.525-1.395-2.701-1.787c0.218,0.305,0.349,0.61,0.392,0.916c-0.74-0.393-1.046-0.393-1.395-0.087
	C473.914,393.055,474.176,393.142,474.35,393.491z M472.694,403.645c0.131,0.131,0.262,0.262,0.393,0.393
	c-0.566,0.087-0.959,0.697-1.002,0.871c0.349,0,0.653-0.044,1.002,0c-0.087,0.305-0.262,0.784-0.349,1.09
	c0.349-0.175,0.436-0.219,0.784-0.219c0.219,0.306,0.306,0.523,0.437,0.916c0.218-0.349,0.479-0.61,0.697-0.959
	c0.305,0.131,0.392,0.174,0.697,0.305c-0.044-0.392,0.13-0.784,0.087-1.177c0.174-0.043,0.305,0.088,0.479-0.043
	c-0.088-0.218-0.131-0.306-0.218-0.523c0.13,0,0.349-0.131,0.479-0.131c-0.087-0.174-0.218-0.261-0.305-0.436
	c0.175-0.044,0.349-0.131,0.523-0.218c-0.044-0.218-0.219-0.479-0.61-0.61c0.566-0.305,0.522-0.261-0.131-0.305
	c0-0.218,0.044-0.349-0.044-0.523c-0.305,0-0.653-0.043-0.784,0.044c-0.087-0.349,0-0.305-0.305-0.479
	c-0.175,0.175-0.306,0.349-0.218,0.741c-0.61-0.131-0.567,0.522-0.479,0.74C473.261,403.078,472.824,403.252,472.694,403.645z
	 M470.384,402.468c0.393-0.044,0.741-0.044,1.09,0.044c-0.174,0.349-0.566,0.871-0.784,1.089c0.305,0,0.61-0.043,0.74,0.175
	c-0.305,0.218-0.522,0.697-0.436,1.002c0.479,0.262,0.305,0.262,0.479,0.828c0.087,0.262,0.872,0.218,1.177,0.218
	c0.043-0.218,0.218-0.566,0.262-0.784c-0.306-0.087-0.697,0-1.003-0.044c0.087-0.261,0.262-0.479,0.436-0.653
	c-0.043-0.218-0.218-0.305-0.261-0.523c0-0.392-0.044-0.827,0.043-1.176c0.131-0.349,0.566-0.567,0.654-0.916
	c0.087-0.305-0.349-0.653-0.523-0.958c0.044,0.261,0.087,0.479,0.087,0.74c-0.13,0.088-0.261,0.262-0.392,0.393
	c-0.044-0.175-0.044-0.393-0.175-0.523c-0.349-0.349-0.653-0.261-0.915-0.261c0.131,0.174,0.349,0.261,0.479,0.479
	c0.262,0.349,0.305,0.436,0.262,0.609c-0.218,0-0.523-0.087-0.741-0.087C470.646,402.032,470.515,402.25,470.384,402.468z
	 M469.557,406.172c-0.306,0.087-0.393,0.262-0.872,0.175c0.131,0.566,0.697,0.74,1.351,0.261c0.349,0.306,0.567,0.654,0.741,1.046
	c0.175-0.13,0.393-0.174,0.566-0.261c0.262,0.436,0.175,0.74,0.959,0.784c0-0.175,0-0.393,0-0.523
	c0.74,0.523,0.784,0.697,1.395,0.872c0-0.131,0.087-0.349,0.305-0.436c-0.174-0.088-0.349-0.131-0.522-0.262
	c0.174-0.262,0.349-0.393,0.609-0.436c-0.13-0.523-0.218-1.046-0.566-1.482c-0.479,0-0.697,0.262-0.958,0.566
	c-2.615-0.261-1.525-1.395-2.702-1.786c0.218,0.305,0.349,0.61,0.393,0.915c-0.741-0.393-1.046-0.393-1.395-0.087
	C469.12,405.736,469.382,405.823,469.557,406.172z M467.944,416.369c0.131,0.131,0.262,0.262,0.393,0.393
	c-0.566,0.087-0.959,0.697-1.002,0.915c0.349,0,0.653-0.044,1.002,0c-0.087,0.305-0.262,0.784-0.349,1.089
	c0.349-0.174,0.436-0.218,0.784-0.218c0.219,0.306,0.306,0.523,0.437,0.915c0.218-0.348,0.479-0.609,0.697-0.958
	c0.305,0.131,0.392,0.174,0.697,0.305c-0.044-0.392,0.13-0.784,0.087-1.177c0.174-0.043,0.305,0.088,0.479-0.043
	c-0.088-0.218-0.131-0.306-0.218-0.523c0.13,0,0.349-0.131,0.479-0.131c-0.087-0.174-0.218-0.261-0.305-0.436
	c0.175-0.044,0.349-0.131,0.523-0.218c-0.044-0.218-0.219-0.479-0.61-0.61c0.566-0.305,0.522-0.262-0.131-0.305
	c0-0.218,0.044-0.349-0.044-0.523c-0.305,0-0.653-0.043-0.784,0.044c-0.087-0.349,0-0.305-0.305-0.479
	c-0.175,0.175-0.306,0.349-0.218,0.741c-0.61-0.131-0.567,0.522-0.479,0.74C468.511,415.759,468.074,415.934,467.944,416.369z
	 M465.634,415.149c0.393-0.044,0.741-0.044,1.09,0.043c-0.175,0.349-0.566,0.872-0.784,1.09c0.305,0,0.609-0.044,0.74,0.174
	c-0.305,0.219-0.522,0.697-0.436,1.003c0.479,0.262,0.305,0.262,0.479,0.828c0.087,0.261,0.871,0.218,1.177,0.218
	c0.043-0.218,0.218-0.566,0.262-0.784c-0.306-0.088-0.697,0-1.003-0.044c0.087-0.262,0.262-0.523,0.436-0.653
	c-0.043-0.219-0.218-0.306-0.261-0.523c0-0.393-0.044-0.828,0.043-1.177c0.131-0.349,0.566-0.566,0.654-0.915
	c0.043-0.305-0.349-0.653-0.523-0.959c0.044,0.262,0.087,0.479,0.087,0.741c-0.13,0.087-0.261,0.262-0.392,0.393
	c-0.044-0.175-0.044-0.393-0.175-0.523c-0.349-0.349-0.653-0.262-0.915-0.262c0.131,0.175,0.349,0.262,0.479,0.479
	c0.262,0.349,0.305,0.436,0.262,0.61c-0.218,0-0.523-0.087-0.741-0.087C465.853,414.713,465.722,414.932,465.634,415.149z
	 M468.641,420.553c0.175-0.262,0.35-0.393,0.61-0.436c-0.131-0.523-0.218-1.046-0.566-1.481c-0.479,0-0.697,0.261-0.959,0.566
	c-2.614-0.262-1.481-1.395-2.701-1.787c0.218,0.306,0.349,0.61,0.436,0.915c-0.741-0.392-1.046-0.392-1.395-0.043
	c0.393,0.174,0.61,0.261,0.784,0.609c-0.305,0.088-0.392,0.262-0.871,0.175c0.131,0.566,0.697,0.741,1.351,0.262
	c0.349,0.305,0.566,0.653,0.741,1.046c0.174-0.131,0.392-0.175,0.566-0.262c0.262,0.436,0.174,0.74,0.959,0.784
	c0-0.174,0-0.392,0-0.522c0.74,0.522,0.784,0.697,1.395,0.871c0-0.131,0.087-0.349,0.305-0.393
	C468.99,420.728,468.816,420.684,468.641,420.553z M474.96,422.427c-0.784-0.523-1.395-2.048-1.308-2.354
	c-1.525,0.218,0.088,1.656-0.436,1.7c-1.743-0.131-1.09-0.959-2.266-1.308c0.174,0.218,0.261,0.436,0.305,0.653
	c-0.61-0.392-0.872-0.218-1.133,0.044c0.305,0.087,0.566,0.044,0.653,0.349c-0.087,0.174-0.131,0.218-0.479,0.392
	c0.523,0.219,0.959,0.131,1.264,0c0.523,0.479,1.308,0.393,1.352,0.785c0.479-0.393,0.697-0.349,0.828-0.218
	c-0.219,0.218-0.437,0.261-0.479,0.653c0.261,0.087,0.653,0.044,0.784-0.175c0.131-0.174,0.871-0.261,0.305,0.479
	C474.176,423.69,475.788,422.993,474.96,422.427z M478.054,417.808c0.349,0.087,0.437,0.392,0.306,0.522
	c-0.218,0.306-0.959,0.262-1.482,0c0.131-0.174,0.262-0.087,0.567-0.566c-0.523-0.087-0.916,0.044-1.612-0.305
	c0.174-0.175,0.522-0.393,0.653-0.566c-1.046-0.131-2.44-0.61-3.225-0.741c-0.785-0.131-1.7,0.741-1.831,1.264
	c-0.349,1.395,6.406,2.571,6.493,3.312c0.044,0.261-1.002,0.043-1.438-0.131c-1.961-0.654-5.186-1.961-5.753-2.223
	c0,0.131,0,0.392-0.043,0.566c-0.262-0.087-0.479-0.262-0.741-0.305c-0.218,0.305-0.479,0.609-0.697,0.915
	c0.044,0.174,0.131,0.479,0.131,0.653c0.436,0,1.003,0.044,1.438,0.131c1.089,0.218,1.961-0.566,2.963-0.349
	c0.131,0.653,0.218,1.351,0.959,2.136c1.221,0.261,3.051,0.522,2.833,1.133c-0.088,0.262-0.567,0.174-0.828,0.262
	c-0.479,0.218-0.523,0.479-0.61,0.827c0.479-0.305,0.871-0.479,1.22-0.479c-0.13,0.392-0.305,0.653-0.609,1.002
	c0.305,0.131,0.697-0.175,1.177-0.479c0,0.305-0.131,0.61-0.35,0.872c0.393-0.044,0.785-0.349,1.003-0.697
	c-0.087-0.306-0.305-0.567-0.393-0.872c0.087,0,0.349,0.044,0.437,0.044c-0.088-0.306-0.479-0.654-0.393-0.959
	c0.043-0.175,0.349-0.218,0.522-0.305c-1.177-0.567-2.527-0.654-2.789-1.003c-0.13-0.131-0.13-0.479-0.13-0.653
	c0.609,0.087,1.22,0.349,1.83,0.436c0.436,0.044,0.74,0.131,1.002-0.436c0.479-1.09-6.667-2.092-6.711-3.312
	c0-0.522,0.479-0.915,1.264-0.915c1.09,0,1.83,0.61,2.005,1.308c-0.306,0.174-0.393,0.436-0.349,0.741
	c0.305-0.088,0.436-0.393,0.74-0.349c0.654,0.131,1.177,0.74,1.83,0.74c0.523,0,1.09-0.218,1.352-0.566
	S478.447,417.59,478.054,417.808z M479.71,409.745c-0.784-0.522-1.395-2.048-1.308-2.353c-1.525,0.218,0.088,1.655-0.436,1.699
	c-1.743-0.131-1.09-0.959-2.266-1.308c0.174,0.218,0.261,0.436,0.305,0.654c-0.61-0.393-0.871-0.219-1.133,0.043
	c0.305,0.087,0.566,0.044,0.653,0.349c-0.087,0.175-0.131,0.218-0.479,0.393c0.523,0.218,0.959,0.131,1.264,0
	c0.523,0.479,1.308,0.392,1.352,0.784c0.479-0.393,0.697-0.349,0.828-0.218c-0.219,0.218-0.437,0.262-0.479,0.653
	c0.261,0.088,0.653,0.044,0.784-0.174c0.131-0.175,0.871-0.262,0.305,0.479C478.926,411.009,480.538,410.312,479.71,409.745z
	 M482.848,405.126c0.349,0.087,0.436,0.393,0.305,0.523c-0.218,0.305-0.958,0.261-1.481,0c0.131-0.175,0.262-0.088,0.566-0.566
	c-0.522-0.088-0.915,0.043-1.612-0.306c0.131-0.174,0.523-0.392,0.654-0.566c-1.046-0.131-2.44-0.61-3.226-0.741
	c-0.784-0.13-1.699,0.741-1.83,1.265c-0.349,1.395,6.406,2.614,6.493,3.312c0.044,0.262-1.002,0.044-1.438-0.131
	c-1.962-0.653-5.187-1.961-5.753-2.223c0,0.131,0,0.393-0.087,0.566c-0.262-0.087-0.479-0.261-0.741-0.305
	c-0.218,0.305-0.479,0.61-0.697,0.915c0.044,0.175,0.131,0.479,0.131,0.654c0.436,0,1.003,0.043,1.438,0.13
	c1.089,0.218,2.005-0.566,2.963-0.349c0.131,0.654,0.218,1.352,0.959,2.136c1.221,0.262,3.051,0.522,2.833,1.133
	c-0.088,0.262-0.567,0.175-0.828,0.262c-0.479,0.218-0.523,0.479-0.61,0.828c0.479-0.306,0.871-0.479,1.221-0.479
	c-0.131,0.393-0.306,0.653-0.61,1.002c0.305,0.131,0.697-0.174,1.177-0.479c0,0.306-0.131,0.567-0.349,0.872
	c0.392-0.044,0.784-0.349,1.002-0.697c-0.087-0.305-0.305-0.566-0.393-0.872c0.088,0,0.349,0.044,0.437,0.044
	c-0.088-0.305-0.479-0.653-0.393-0.959c0.044-0.174,0.349-0.218,0.522-0.305c-1.176-0.566-2.527-0.653-2.789-1.002
	c-0.13-0.131-0.13-0.479-0.13-0.654c0.609,0.087,1.22,0.349,1.83,0.436c0.436,0.044,0.74,0.131,1.002-0.436
	c0.479-1.089-6.667-2.092-6.711-3.312c0-0.523,0.479-0.915,1.264-0.915c1.09,0,1.83,0.609,2.005,1.307
	c-0.306,0.175-0.393,0.393-0.349,0.741c0.305-0.087,0.436-0.393,0.74-0.349c0.654,0.131,1.177,0.741,1.831,0.741
	c0.522,0,1.089-0.218,1.351-0.567C483.807,405.432,483.24,404.908,482.848,405.126z M484.504,397.064
	c-0.785-0.523-1.395-2.048-1.308-2.354c-1.525,0.218,0.087,1.656-0.436,1.7c-1.743-0.131-1.09-0.959-2.267-1.308
	c0.175,0.218,0.262,0.436,0.306,0.654c-0.61-0.392-0.872-0.262-1.134,0.043c0.306,0.087,0.567,0.043,0.654,0.349
	c-0.087,0.174-0.131,0.218-0.479,0.392c0.522,0.218,0.959,0.131,1.264,0c0.523,0.479,1.308,0.393,1.395,0.784
	c0.479-0.392,0.697-0.349,0.828-0.218c-0.218,0.218-0.436,0.262-0.479,0.654c0.262,0.087,0.653,0.043,0.784-0.175
	c0.131-0.174,0.872-0.262,0.306,0.479C483.719,398.328,485.332,397.631,484.504,397.064z M484.722,392.532
	c-0.306,0.174-0.393,0.436-0.349,0.741c0.305-0.087,0.436-0.392,0.74-0.349c0.654,0.13,1.177,0.741,1.831,0.741
	c0.522,0,1.089-0.218,1.351-0.566c0.262-0.305-0.349-0.872-0.741-0.654c0.349,0.087,0.437,0.392,0.306,0.523
	c-0.218,0.305-0.959,0.262-1.482,0c0.131-0.174,0.262-0.087,0.567-0.566c-0.523-0.087-0.915,0.043-1.612-0.305
	c0.174-0.174,0.522-0.392,0.653-0.566c-1.046-0.131-2.44-0.61-3.225-0.741c-0.785-0.131-1.7,0.741-1.831,1.264
	c-0.348,1.395,6.406,2.615,6.494,3.312c0.043,0.261-1.003,0.043-1.438-0.131c-1.961-0.654-5.186-1.961-5.752-2.223
	c0,0.131,0,0.392-0.044,0.567c-0.262-0.087-0.479-0.218-0.741-0.305c-0.218,0.305-0.479,0.61-0.697,0.915
	c0.044,0.174,0.131,0.479,0.131,0.654c0.436,0,1.003,0.043,1.438,0.13c1.089,0.218,2.005-0.566,2.963-0.349
	c0.131,0.654,0.218,1.351,0.959,2.136c1.221,0.261,3.051,0.523,2.833,1.133c-0.088,0.261-0.567,0.174-0.828,0.261
	c-0.479,0.218-0.523,0.479-0.61,0.828c0.479-0.305,0.871-0.479,1.221-0.479c-0.131,0.393-0.306,0.654-0.61,1.003
	c0.305,0.13,0.697-0.175,1.177-0.479c0,0.305-0.131,0.609-0.349,0.871c0.392-0.043,0.784-0.349,1.002-0.697
	c-0.087-0.305-0.305-0.566-0.393-0.871c0.088,0,0.349,0.043,0.437,0.087c-0.088-0.305-0.479-0.653-0.393-0.959
	c0.044-0.174,0.349-0.218,0.522-0.305c-1.176-0.566-2.527-0.654-2.789-1.002c-0.13-0.131-0.13-0.479-0.13-0.654
	c0.609,0.131,1.22,0.349,1.83,0.436c0.436,0.043,0.74,0.131,1.002-0.436c0.479-1.089-6.667-2.092-6.711-3.312
	c0-0.523,0.479-0.916,1.264-0.916C483.85,391.225,484.547,391.835,484.722,392.532z M469.426,415.759l0.261,0.088l0.219,0.087
	l-0.131-0.218l-0.218-0.349l-0.131,0.087l0.087,0.131h-0.044L469.426,415.759z M507.775,372.006h0.087v-0.087v-0.131l0.131,0.131
	l0.131,0.131v-0.174l-0.044-0.393l0.219,0.174l0.087-0.13l-0.393-0.305l-0.131-0.131v0.174l0.044,0.349l-0.131-0.087l-0.131-0.087
	v0.174v0.174l-0.436-0.043l0.043-0.218l0.131-0.044h0.088v-0.087v-0.262l0.218,0.044l0.174,0.043l-0.043-0.174l-0.175-0.392
	l-0.174,0.043l0.087,0.261l-0.131-0.043l-0.131-0.043v0.131v0.305h-0.131h-0.043v0.044l-0.088,0.392l-0.043,0.087h0.087
	L507.775,372.006z M503.198,383.119l0.262,0.087l0.218,0.087l-0.131-0.218l-0.218-0.349l-0.131,0.087l0.088,0.131h-0.044
	L503.198,383.119z M512.525,359.325h0.087v-0.087v-0.131l0.131,0.131l0.131,0.13v-0.174l-0.043-0.392l0.218,0.174l0.087-0.131
	l-0.393-0.261l-0.131-0.087v0.174l0.044,0.349l-0.131-0.087l-0.131-0.087v0.174v0.174l-0.436-0.043l0.044-0.218l0.13-0.043h0.088
	v-0.087v-0.261l0.218,0.043l0.174,0.043l-0.043-0.174l-0.175-0.392l-0.174,0.043l0.087,0.262l-0.131-0.044l-0.131-0.043v0.131v0.305
	l-0.131,0.043h-0.043v0.043l-0.088,0.349l-0.043,0.087h0.087L512.525,359.325z M503.722,383.599l0.305,0.436l0.131-0.087
	l-0.087-0.131l0.175,0.087l0.087-0.131l-0.479-0.218l-0.305-0.174L503.722,383.599z M502.981,384.688h0.088v-0.087v-0.131
	l0.13,0.131l0.131,0.131v-0.174l-0.043-0.392l0.218,0.174l0.087-0.131l-0.393-0.305l-0.13-0.131v0.175v0.349l-0.131-0.087
	l-0.131-0.087v0.174v0.174l-0.436-0.043l0.043-0.218l0.131-0.043h0.087v-0.087v-0.261l0.218,0.043l0.175,0.043l-0.087-0.174
	l-0.175-0.392l-0.174,0.043l0.087,0.262l-0.131-0.043l-0.131-0.044v0.131v0.305h-0.131h-0.043v0.043l-0.088,0.392l-0.043,0.087
	h0.087L502.981,384.688z M508.516,370.917l0.305,0.436l0.131-0.087l-0.087-0.131l0.174,0.087l0.087-0.131l-0.479-0.218l-0.306-0.174
	L508.516,370.917z M474.001,404.604h0.087v-0.088v-0.13l0.131,0.13l0.131,0.131v-0.174l-0.043-0.393l0.218,0.175l0.087-0.131
	l-0.393-0.306l-0.131-0.087v0.175l0.044,0.349l-0.131-0.088l-0.131-0.087v0.175v0.174l-0.436-0.044l0.044-0.218l0.131-0.043h0.087
	v-0.087v-0.262l0.218,0.043l0.174,0.044l-0.043-0.175l-0.175-0.392l-0.174,0.044l0.087,0.261l-0.131-0.043l-0.131-0.044v0.131v0.305
	h-0.131h-0.043v0.044l-0.088,0.392l-0.043,0.088h0.087L474.001,404.604z M507.992,370.438l0.262,0.087l0.218,0.087l-0.131-0.218
	l-0.218-0.349l-0.131,0.087l0.087,0.131h-0.043L507.992,370.438z M474.219,403.078l0.262,0.087l0.218,0.087l-0.131-0.218
	l-0.218-0.349l-0.131,0.087l0.088,0.131h-0.044L474.219,403.078z M478.969,390.396l0.262,0.087l0.218,0.087l-0.131-0.218
	l-0.218-0.349l-0.131,0.087l0.088,0.13h-0.044L478.969,390.396z M474.742,403.558l0.305,0.436l0.131-0.087l-0.087-0.131l0.174,0.087
	l0.088-0.131l-0.479-0.218l-0.306-0.174L474.742,403.558z M478.751,391.922h0.088v-0.087v-0.131l0.13,0.131l0.131,0.13v-0.174
	l-0.043-0.392l0.218,0.174l0.087-0.131l-0.393-0.305l-0.13-0.087v0.174l0.043,0.349l-0.131-0.087l-0.131-0.087v0.174v0.218
	l-0.436-0.043l0.044-0.218l0.131-0.044h0.087v-0.087v-0.262l0.218,0.044l0.174,0.043l-0.043-0.174l-0.175-0.392l-0.174,0.043
	l0.087,0.261l-0.131-0.043l-0.131-0.043v0.131v0.305l-0.131,0.044h-0.043v0.043l-0.087,0.349l-0.044,0.087h0.087L478.751,391.922z
	 M479.492,390.876l0.305,0.436l0.131-0.087l-0.087-0.131l0.174,0.087l0.088-0.131l-0.479-0.218l-0.306-0.174L479.492,390.876z
	 M460.666,387.826c-0.436,0.349-0.871,0.697-1.046,0.523c-0.174-0.174-0.349-0.349-0.522-0.479
	c-0.262-0.174-0.523-0.392-0.741-0.654c-0.61-0.523-1.177-0.828-1.961-1.046c-0.087,0-0.131,0-0.218,0
	c-0.523,0.043-1.09,0.087-1.395-0.218c-0.044-0.043-0.044-0.043-0.087-0.087c-0.044,0-0.044,0-0.087,0
	c-0.697-0.087-0.697-1.525-1.395-1.525c-0.828,0-1.874-0.567-0.916-1.831c0.044-0.087,0-0.174-0.13-0.261
	c-0.262-0.131-0.523-0.262-0.741-0.479c-0.393-0.261-0.784-0.566-0.871-1.002c-0.044-0.305,0.958-1.874,1.133-3.617
	c-0.044-0.087-0.044-0.131-0.087-0.218c-0.219-0.479-0.393-1.002-0.219-1.394c0.219-0.479,0.654-1.09,1.221-1.525
	c0.218-0.349,0.305-0.654,0.131-0.959c-0.523-0.741-0.566-0.958,0.653-1.046c0.175,0,0.393-0.305,0.654-0.697
	c0.13-0.348,0.305-0.697,0.566-0.915c0,0,0.043,0,0.043-0.043c0.262-0.349,0.523-0.61,0.785-0.523
	c1.089,0.261,1.699,0.479,3.922-1.089c1.046-0.741,2.745,0.784,3.05,0.392c0.61-0.958,2.18-0.131,1.918,0.654
	c-0.175,0.436,2.31,0.087,2.571,1.351c0.436,2.223,1.395,2.615,2.527,4.14c0.697,0.915-0.653,1.787,0.044,2.397
	c1.264,1.046,1.002,1.699,0.13,2.179c-0.218,0.087,0.393,2.484-0.218,2.658c-1.786,0.523-2.614,1.569-2.919,2.31
	c-0.044,0.131-0.088,0.305-0.131,0.436c0,0.087-0.044,0.174,0,0.261c0,0.174-0.262,0.262-0.61,0.393
	c-0.393,0.218-0.915,0.392-1.481,0.436c-0.262,0.131-0.479,0.262-0.523,0.436c-0.349,1.22-0.828,1.743-1.743,0.61
	c-0.174-0.174-0.436-0.087-0.74,0.087C460.972,387.651,460.797,387.738,460.666,387.826z M467.77,379.153
	c-0.305-0.131-0.653-0.174-1.002-0.174c-0.741,0-1.482,0.218-2.049,0.654c-0.305,0.261-0.479,0.828-0.609,1.307
	c-0.088,0.262-0.131,0.479-0.219,0.654c-0.174,0.392-0.609,0.566-1.046,0.785c-0.436,0.218-0.827,0.392-0.958,0.697
	c-0.175,0.436-0.218,1.002-0.131,1.481c0.087,0.218,0.131,0.392,0.174,0.61c0.131,0.262,0.262,0.479,0.479,0.61
	c0.784,0.523,2.31,0.305,3.225-0.262c0.306-0.174,0.393-0.653,0.523-1.133c0.087-0.392,0.174-0.741,0.349-1.002
	c0.305-0.392,0.784-0.653,1.264-0.872c0.566-0.261,1.133-0.523,1.264-1.046C469.208,380.722,468.554,379.458,467.77,379.153z
	 M455.873,379.197c0,0.087,0.043,0.174,0.043,0.262c0.044,0.087,0.175,0.218,0.306,0.305c0.13,0.13,0.305,0.218,0.392,0.392
	c0.131,0.218,0.131,0.479,0.131,0.741c0,0.305,0,0.566,0.175,0.697c0.305,0.262,0.915,0.218,1.176-0.043
	c0.349-0.349,0.523-0.915,0.393-1.395c-0.044-0.174-0.262-0.349-0.436-0.523c-0.087-0.087-0.175-0.174-0.262-0.262
	c-0.131-0.174-0.131-0.436-0.131-0.653s0-0.393-0.087-0.523c-0.218-0.218-0.523-0.349-0.784-0.392c-0.044,0-0.044,0-0.088,0l0,0
	c-0.13,0-0.218,0.043-0.305,0.087C456.091,378.151,455.916,378.718,455.873,379.197z M456.527,377.541
	c0.436,0.218,1.002,0.218,1.438,0c0.13-0.087,0.261-0.349,0.349-0.566c0.043-0.131,0.087-0.218,0.174-0.305
	c0.131-0.174,0.349-0.261,0.61-0.305c0.218-0.043,0.392-0.13,0.479-0.218c0.218-0.392,0.218-1.002-0.044-1.264
	c-0.305-0.305-1.046-0.305-1.481-0.087c-0.131,0.044-0.218,0.262-0.306,0.479c-0.087,0.174-0.13,0.349-0.261,0.479
	c-0.175,0.174-0.437,0.261-0.697,0.349c-0.262,0.087-0.523,0.174-0.61,0.349C455.96,376.757,456.178,377.367,456.527,377.541z
	 M458.488,381.812c0.087,0.393,0.697,0.828,1.177,0.916c0.131,0.043,0.305-0.087,0.479-0.218c0.174-0.087,0.305-0.218,0.479-0.261
	c0.261-0.043,0.522,0.043,0.74,0.131c0.262,0.087,0.523,0.174,0.741,0.043c0.305-0.174,0.479-0.828,0.305-1.133
	c-0.218-0.436-0.697-0.741-1.177-0.784c0,0,0,0-0.043,0c-0.175,0-0.393,0.131-0.566,0.261c-0.131,0.087-0.219,0.131-0.306,0.174
	c-0.218,0.087-0.436,0-0.653-0.087c-0.131-0.043-0.262-0.087-0.393-0.087c-0.043,0-0.087,0-0.131,0.044
	c-0.174,0.087-0.392,0.261-0.522,0.479c-0.044,0.087-0.087,0.174-0.131,0.262C458.488,381.594,458.444,381.681,458.488,381.812z
	 M463.891,379.066L463.891,379.066c0.044-0.262,0.175-0.479,0.349-0.697c0.175-0.218,0.306-0.479,0.262-0.697
	c-0.087-0.349-0.566-0.654-0.915-0.654c-0.044,0-0.044,0-0.087,0c-0.479,0.087-0.915,0.436-1.133,0.915
	c-0.088,0.174,0,0.436,0.043,0.654c0.044,0.131,0.044,0.261,0.044,0.349c0,0.218-0.131,0.436-0.262,0.61s-0.262,0.349-0.218,0.479
	c0.087,0.436,0.436,0.915,0.828,0.959h0.044c0.392,0,0.958-0.436,1.176-0.828l0,0c0.088-0.131,0-0.349-0.043-0.523
	C463.935,379.415,463.891,379.241,463.891,379.066z M462.889,375.188c-0.087-0.087-0.349-0.087-0.522-0.087
	c-0.175,0-0.393,0-0.523-0.087c-0.218-0.087-0.392-0.305-0.566-0.523c-0.175-0.218-0.349-0.436-0.566-0.436l0,0
	c-0.349,0-0.872,0.392-0.915,0.785c0,0.043,0,0.043,0,0.087c0.131,0.218,0.174,0.479,0.131,0.741
	c0.087,0.218,0.218,0.393,0.392,0.523c0.131,0.087,0.437,0.131,0.654,0.131c0.131,0,0.261,0,0.349,0.043
	c0.218,0.044,0.349,0.262,0.522,0.436c0.131,0.174,0.262,0.349,0.393,0.349c0.436,0.043,1.002-0.131,1.133-0.479
	C463.499,376.19,463.238,375.537,462.889,375.188z M462.802,374.403c0.131,0.392,0.653,0.697,1.089,1.002
	c0.219,0.131,0.437,0.261,0.567,0.392c0.305,0.305,0.349,0.784,0.436,1.22c0.043,0.479,0.131,0.915,0.392,1.133
	c0.785,0.566,2.049,0.828,2.746,0.261c0.74-0.566,0.959-2.135,0.697-3.181c-0.087-0.349-0.523-0.566-0.915-0.828
	c-0.349-0.174-0.654-0.392-0.872-0.654c-0.305-0.392-0.392-0.915-0.436-1.481c-0.087-0.61-0.175-1.22-0.61-1.525
	c-0.262-0.174-0.566-0.218-0.915-0.218c-0.653,0-1.395,0.261-1.743,0.697C462.584,372.137,462.409,373.401,462.802,374.403z
	 M454.304,373.357c0.044,0.043,0.087,0.087,0.087,0.087c0.523,0.13,1.003,0.479,1.352,0.958c0.436,0.174,0.915,0.305,1.395,0.262
	c0.392-0.044,0.871-0.436,1.264-0.741c0.218-0.174,0.392-0.349,0.566-0.436c0.349-0.218,0.828-0.131,1.308-0.043
	c0.479,0.087,0.915,0.174,1.176-0.044c0.785-0.566,1.395-1.743,1.09-2.571c-0.349-0.872-1.743-1.569-2.789-1.612c0,0,0,0-0.044,0
	c-0.349,0-0.697,0.349-1.002,0.653c-0.262,0.262-0.566,0.523-0.871,0.654c-0.479,0.174-1.003,0.087-1.525,0
	c-0.306-0.043-0.566-0.087-0.828-0.087c-0.305,0-0.566,0.044-0.784,0.218C454.042,371.222,453.824,372.66,454.304,373.357z
	 M455.698,380.068c0.131-0.392-0.087-0.958-0.218-1.438c-0.087-0.261-0.175-0.479-0.175-0.654c-0.043-0.436,0.175-0.828,0.437-1.22
	c0.043-0.087,0.131-0.218,0.174-0.305c0-0.043,0-0.087,0-0.087c0.044-0.043,0.087-0.13,0.131-0.174
	c0.087-0.174,0.131-0.392,0.087-0.523c-0.261-0.915-1.089-1.917-2.004-1.917l0,0c-0.959,0-2.092,1.09-2.528,2.048
	c-0.131,0.305,0.044,0.785,0.219,1.22c0.13,0.349,0.305,0.741,0.305,1.046l0,0c0,0.479-0.305,0.958-0.566,1.438
	c-0.306,0.566-0.61,1.089-0.437,1.569c0.262,0.785,1.569,1.482,2.354,1.264C454.435,381.942,455.35,381.071,455.698,380.068z
	 M459.795,387.869c0.828-0.043,1.874-1.046,1.917-1.874c0.044-1.046-0.522-2.179-1.395-2.789c-0.305-0.218-0.958-0.218-1.438-0.218
	c-0.262,0-0.523,0-0.697,0c-0.393-0.087-0.741-0.436-1.046-0.784c-0.088-0.131-0.218-0.218-0.306-0.349
	c-0.043,0-0.043-0.044-0.087-0.044c-0.043-0.043-0.043-0.087-0.087-0.087c-0.175-0.131-0.305-0.218-0.479-0.218
	c-0.044,0-0.087,0-0.087,0c-0.479,0-0.959,0.13-1.395,0.349c-0.175,0.13-0.306,0.261-0.479,0.349
	c-0.218,0.174-0.393,0.392-0.436,0.653c-0.306,0.915,0.392,2.31,1.22,3.007c0.262,0.218,0.741,0.174,1.221,0.131
	c0.392-0.043,0.784-0.087,1.089,0.043c0.479,0.174,0.828,0.567,1.221,0.959C458.88,387.433,459.272,387.913,459.795,387.869z
	 M536.58,405.213c-0.218,0.088,0.392,2.484-0.218,2.658c-1.787,0.523-2.615,1.569-2.92,2.311c-0.044,0.13-0.087,0.305-0.131,0.436
	c0,0.087-0.044,0.174,0,0.262c0,0.174-0.262,0.261-0.61,0.392c-0.393,0.218-0.915,0.393-1.481,0.436
	c-0.262,0.131-0.479,0.262-0.523,0.437c-0.349,1.22-0.827,1.743-1.743,0.609c-0.174-0.174-0.436-0.087-0.74,0.088
	c-0.131,0.131-0.262,0.218-0.393,0.305c-0.436,0.349-0.871,0.697-1.046,0.523c-0.174-0.175-0.349-0.35-0.522-0.479
	c-0.262-0.175-0.523-0.393-0.741-0.654c-0.61-0.522-1.177-0.828-1.961-1.046c-0.087,0-0.131,0-0.218,0
	c-0.523,0.044-1.09,0.088-1.395-0.218c-0.044-0.043-0.044-0.043-0.087-0.087c-0.044,0-0.044,0-0.087,0
	c-0.697-0.087-0.697-1.525-1.395-1.525c-0.828,0-1.874-0.566-0.916-1.83c0.044-0.087,0-0.175-0.13-0.262
	c-0.262-0.131-0.523-0.262-0.741-0.479c-0.393-0.262-0.784-0.566-0.871-1.002c-0.044-0.306,0.958-1.874,1.133-3.617
	c-0.044-0.087-0.044-0.131-0.088-0.218c-0.218-0.479-0.392-1.002-0.218-1.395c0.218-0.479,0.654-1.09,1.221-1.525
	c0.218-0.349,0.305-0.697,0.131-0.959c-0.523-0.74-0.566-0.958,0.653-1.046c0.175,0,0.393-0.305,0.654-0.697
	c0.13-0.349,0.305-0.697,0.566-0.915c0,0,0.043,0,0.043-0.044c0.262-0.349,0.523-0.61,0.785-0.523
	c1.089,0.262,1.699,0.479,3.922-1.133c1.046-0.741,2.745,0.784,3.05,0.392c0.61-0.958,2.18-0.131,1.918,0.654
	c-0.175,0.436,2.31,0.087,2.571,1.351c0.436,2.223,1.395,2.615,2.527,4.141c0.697,0.915-0.653,1.786,0.044,2.396
	C537.713,404.124,537.451,404.777,536.58,405.213z M529.956,399.723c0.131,0.392,0.653,0.697,1.089,1.002
	c0.219,0.131,0.437,0.262,0.566,0.393c0.306,0.305,0.35,0.784,0.437,1.22c0.043,0.479,0.131,0.915,0.392,1.133
	c0.785,0.567,2.049,0.828,2.746,0.262c0.74-0.566,0.958-2.135,0.697-3.181c-0.088-0.349-0.523-0.567-0.915-0.828
	c-0.349-0.175-0.697-0.393-0.872-0.654c-0.305-0.392-0.393-0.958-0.436-1.481c-0.087-0.61-0.175-1.22-0.61-1.525
	c-0.262-0.174-0.566-0.218-0.915-0.218c-0.653,0-1.395,0.262-1.699,0.697C529.739,397.456,529.564,398.72,529.956,399.723z
	 M531.045,404.386L531.045,404.386c0.044-0.262,0.175-0.479,0.349-0.697c0.175-0.219,0.306-0.479,0.262-0.697
	c-0.087-0.349-0.566-0.654-0.915-0.654c-0.044,0-0.044,0-0.087,0c-0.479,0.087-0.915,0.436-1.133,0.915
	c-0.088,0.175,0,0.437,0.043,0.654c0.044,0.131,0.044,0.261,0.044,0.349c0,0.218-0.131,0.436-0.262,0.609
	c-0.131,0.175-0.262,0.349-0.218,0.479c0.087,0.436,0.436,0.915,0.828,0.959c0.392,0.044,1.002-0.393,1.22-0.828l0,0
	c0.088-0.131,0-0.349-0.043-0.522C531.089,404.734,531.045,404.56,531.045,404.386z M523.071,404.516
	c0,0.088,0.044,0.175,0.044,0.262c0.043,0.087,0.174,0.218,0.305,0.305c0.131,0.131,0.306,0.219,0.393,0.393
	c0.131,0.218,0.131,0.479,0.131,0.741c0,0.305,0,0.566,0.174,0.697c0.306,0.261,0.915,0.218,1.177-0.044
	c0.349-0.349,0.522-0.915,0.393-1.395c-0.044-0.174-0.262-0.349-0.437-0.522c-0.087-0.088-0.174-0.175-0.261-0.218
	c-0.131-0.175-0.131-0.437-0.131-0.654s0-0.392-0.088-0.522c-0.218-0.218-0.522-0.349-0.827-0.393c-0.044,0-0.044,0-0.088,0l0,0
	c-0.13,0-0.218,0.044-0.305,0.087C523.245,403.47,523.071,404.037,523.071,404.516z M523.681,402.86
	c0.436,0.218,1.002,0.218,1.438,0c0.13-0.088,0.261-0.349,0.348-0.566c0.044-0.131,0.088-0.219,0.175-0.306
	c0.131-0.174,0.349-0.262,0.61-0.305c0.218-0.044,0.392-0.131,0.479-0.218c0.218-0.393,0.218-1.003-0.044-1.264
	c-0.305-0.306-1.046-0.306-1.481-0.088c-0.131,0.044-0.218,0.262-0.306,0.479c-0.087,0.175-0.131,0.349-0.261,0.479
	c-0.175,0.175-0.437,0.262-0.697,0.349c-0.262,0.087-0.523,0.175-0.61,0.349C523.157,402.032,523.332,402.686,523.681,402.86z
	 M525.642,407.087c0.087,0.393,0.697,0.828,1.177,0.915c0.131,0.044,0.305-0.087,0.479-0.218c0.174-0.087,0.305-0.218,0.479-0.261
	c0.261-0.044,0.522,0.043,0.74,0.13c0.262,0.088,0.523,0.175,0.741,0.044c0.305-0.218,0.479-0.828,0.305-1.133
	c-0.218-0.436-0.697-0.741-1.177-0.785c-0.174,0-0.392,0.131-0.61,0.262c-0.13,0.088-0.218,0.131-0.305,0.175
	c-0.218,0.087-0.436,0-0.653-0.087c-0.131-0.044-0.262-0.088-0.393-0.088c-0.043,0-0.087,0-0.131,0.044
	c-0.174,0.087-0.392,0.262-0.522,0.436c-0.044,0.087-0.087,0.175-0.131,0.262C525.642,406.869,525.642,407,525.642,407.087z
	 M526.949,400.202c0.131,0.218,0.174,0.479,0.131,0.74c0.087,0.218,0.218,0.393,0.392,0.523c0.131,0.087,0.393,0.131,0.654,0.131
	c0.13,0,0.261,0,0.349,0.043c0.218,0.044,0.349,0.262,0.522,0.436c0.131,0.175,0.262,0.349,0.393,0.349
	c0.436,0.044,1.002-0.13,1.133-0.479c0.174-0.393-0.087-1.046-0.436-1.438c-0.088-0.087-0.306-0.087-0.523-0.087l0,0
	c-0.174,0-0.392,0-0.522-0.088c-0.218-0.087-0.393-0.305-0.566-0.522c-0.175-0.218-0.349-0.436-0.567-0.436l0,0
	c-0.349,0-0.871,0.392-0.915,0.784C526.906,400.114,526.949,400.158,526.949,400.202z M521.502,398.677
	c0.043,0.043,0.087,0.087,0.087,0.087c0.522,0.131,1.002,0.479,1.351,0.959c0.436,0.174,0.915,0.305,1.395,0.262
	c0.393-0.044,0.872-0.437,1.264-0.741c0.218-0.175,0.393-0.349,0.566-0.436c0.349-0.218,0.828-0.131,1.308-0.044
	s0.915,0.174,1.177-0.044c0.784-0.566,1.395-1.743,1.09-2.571c-0.349-0.872-1.743-1.569-2.789-1.612c0,0,0,0-0.044,0
	c-0.349,0-0.697,0.349-1.002,0.654c-0.262,0.261-0.567,0.523-0.872,0.653l0,0c-0.479,0.174-1.002,0.087-1.525,0
	c-0.305-0.043-0.566-0.087-0.828-0.087c-0.305,0-0.566,0.043-0.784,0.218C521.197,396.541,521.023,397.979,521.502,398.677z
	 M522.853,405.388c0.131-0.393-0.087-0.959-0.218-1.438c-0.087-0.261-0.175-0.479-0.175-0.653c-0.043-0.393,0.175-0.828,0.437-1.221
	c0.043-0.087,0.131-0.218,0.174-0.305c0-0.044,0-0.087,0-0.131c0.044-0.087,0.087-0.131,0.131-0.174
	c0.087-0.175,0.131-0.349,0.087-0.523c-0.261-0.915-1.089-1.917-2.004-1.917l0,0c-0.959,0-2.092,1.089-2.528,2.048
	c-0.131,0.305,0.044,0.784,0.219,1.221c0.13,0.349,0.305,0.74,0.305,1.046l0,0c0,0.479-0.305,0.958-0.566,1.438
	c-0.306,0.566-0.61,1.09-0.437,1.569c0.262,0.784,1.569,1.481,2.354,1.264C521.589,407.262,522.504,406.39,522.853,405.388z
	 M528.866,411.271c0.044-1.046-0.522-2.179-1.395-2.789c-0.349-0.218-0.958-0.218-1.438-0.218c-0.262,0-0.523,0-0.697,0
	c-0.393-0.087-0.741-0.436-1.046-0.784c-0.088-0.131-0.219-0.218-0.306-0.349c-0.043,0-0.043-0.044-0.087-0.044
	c-0.044-0.043-0.044-0.087-0.087-0.087c-0.175-0.131-0.306-0.218-0.479-0.218c-0.044,0-0.087,0-0.087,0
	c-0.479,0-0.959,0.131-1.395,0.349c-0.175,0.131-0.306,0.262-0.479,0.349c-0.218,0.174-0.393,0.392-0.436,0.653
	c-0.306,0.915,0.392,2.31,1.22,3.007c0.262,0.218,0.741,0.175,1.221,0.131c0.392-0.044,0.784-0.087,1.089,0.044
	c0.479,0.174,0.828,0.566,1.221,0.959c0.436,0.479,0.828,0.915,1.351,0.871C527.821,413.145,528.823,412.099,528.866,411.271z
	 M534.924,404.473c-0.305-0.131-0.653-0.175-1.002-0.175c-0.741,0-1.482,0.218-2.049,0.654c-0.305,0.261-0.479,0.827-0.609,1.307
	c-0.088,0.262-0.131,0.479-0.219,0.654c-0.174,0.392-0.609,0.566-1.046,0.784c-0.436,0.218-0.827,0.393-0.958,0.697
	c-0.175,0.436-0.218,1.002-0.131,1.481c0.087,0.218,0.174,0.436,0.218,0.654c0.131,0.261,0.262,0.436,0.479,0.609
	c0.784,0.523,2.31,0.306,3.225-0.261c0.305-0.175,0.393-0.654,0.522-1.134c0.088-0.392,0.175-0.74,0.349-1.002
	c0.306-0.393,0.785-0.653,1.265-0.872c0.566-0.261,1.133-0.522,1.264-1.045C536.363,406.041,535.708,404.777,534.924,404.473z"/>
</svg>
