<?xml version="1.0" encoding="utf-8"?>
<!-- Generator: Adobe Illustrator 21.0.2, SVG Export Plug-In . SVG Version: 6.00 Build 0)  -->
<svg version="1.1" id="Layer_1" xmlns="http://www.w3.org/2000/svg" xmlns:xlink="http://www.w3.org/1999/xlink" x="0px" y="0px"
	 viewBox="0 0 1366 768" style="enable-background:new 0 0 1366 768;" xml:space="preserve">
<path d="M797.8,152.3L797.8,152.3L797.8,152.3C797.5,152.3,797.6,152.3,797.8,152.3z M797.8,152.3L797.8,152.3L797.8,152.3
	L797.8,152.3L797.8,152.3L797.8,152.3L797.8,152.3L797.8,152.3z M470.5,253c22.1-8.1,39.3-16.8,38.4-19.4c-1-2.6-19.7,1.9-41.9,10
	c-22.1,8.1-39,16.7-38.1,19.3C429.9,265.4,448.4,261,470.5,253z M961.7,237.6l0.5,1.7l-0.9-0.3l-0.5-0.1l0,0.5l-0.1,2.1l-0.7,0.2
	l-0.2,0.1l-0.1,0.2l-0.6,2.3l-0.1,0.5l0.5,0l3.3,0l0.4,0l0-0.4l0.1-0.9l0.8,0.7l0.6,0.6l0-0.9l0-2.6l1.3,1.1l0.5-0.6l-1.9-1.6
	l-0.6-0.5l0,0.8l0,2.5l-0.8-0.7l-0.6-0.5l-0.1,0.8l-0.1,1.4l-2.4,0l0.4-1.6l0.8-0.2l0.3-0.1l0-0.3l0.1-1.8l1.1,0.3l0.7,0.2l-0.2-0.7
	l-0.7-2.4L961.7,237.6z M967.1,237.9l1.5,2.4l0.7-0.4l-0.7-1.2l1.2,0.6l0.4-0.7l-2.4-1.3l-1.2-0.7L967.1,237.9z M1072,491.4
	L1072,491.4L1072,491.4L1072,491.4z M964.5,235.2l1.4,0.5l0.9,0.3l-0.4-0.9l-1-2l-0.7,0.3l0.6,1.1l-0.5-0.2L964.5,235.2z
	 M1279.7,334.7c-93,103.5-91.9,203-90.9,298.8c0.1,9,0.2,18.1,0.2,27.1v3.4l-3.4,0.5c-26.4,3.5-51.3,1.9-75-4
	c-23.1-5.8-45-15.7-66-29c-24.4,5.3-49.4,9.5-74.9,12.5c-26.1,3.1-52.7,4.9-79.8,5.5l-1.5,0.1l-1.1-1
	c-20.3-18.1-39.3-36.7-57.2-55.9c-17.6-18.8-33.9-38.2-49-58c-24.6-3.4-47.7-10.1-69-20.7c-10.1-5-19.8-10.9-29-17.7
	c-27.4,20-59.6,32.5-97.4,37.8c-30.5,40-66.3,78.3-106.3,113.9l-1.1,1l-1.5,0c-53.5-1.3-105.6-7.3-154.7-18.1
	c-36.7,23.3-74,34.8-113,34.8c-9.2,0-18.5-0.6-27.9-1.9l-3.4-0.4v-3.4c0-9,0.1-18,0.2-27c1.1-96,2.3-195.2-90.7-298.8l-2.3-2.5
	l2.2-2.6c24.9-28.8,42.4-64.6,52.1-106.3l0.9-3.8l3.9,0.9c42,10.7,92.2-12.9,149.2-70.2l1.3-1.3l1.8,0.2c80.5,6.8,134-7.7,159.1-43
	l2.3-3.2l3.2,2.4c34.4,25.5,70.9,41.4,108.5,47.3l3.4,0.5l-0.1,3.4C569,285.2,625.1,359,683.7,427C742,359.3,798,285.4,794.5,156.2
	l-0.1-3.4l3.2-0.5c0,0,0,0,0.1,0h0.1c5.2-0.8,10.5-1.8,15.7-3.1c5.2-1.2,10.4-2.6,15.6-4.2c26.5-8.2,52.3-21.6,77.1-40l3.1-2.4
	l2.3,3.2v0h0c3.5,4.9,7.5,9.4,12,13.5c4.6,4.1,9.7,7.8,15.3,11.1c29.4,17.2,73.3,23.3,131.8,18.4l1.8-0.1l1.3,1.3
	c28.8,29,55.7,49.4,80.8,61.1c24.6,11.5,47.4,14.6,68.4,9.2l3.8-0.9l0.9,3.8v0c1.4,5.9,2.9,11.6,4.5,17.2c1.7,5.6,3.5,11.1,5.4,16.5
	c10.1,27.5,24.1,51.7,42,72.6l2.2,2.6L1279.7,334.7z M388.8,234.4l0.5,1.5l9.9,6.9l13.8,9.8l15.2,15c16.8,1.8,74.7-19.8,85.5-31.8
	l-1.1-27.2l8.6-21.5l-0.6-1.5c-4.8-0.8-9.2-0.8-13.4-0.1l-6.6,6.7l2.3,5l-3.4,3l2.7,4l0.5,3.9l-13.4-1.2l-2.5-2.7
	c0.6-1,0.9-1.9,0.2-3.5c-0.6-1.6-3.2-3.1-5.2-2.2c-2.1,0.8-2.8,3.8-2.3,5.2c0.6,1.4,0.8,1.4,1.5,1.9l-1.2,6.1l-10.6,6.5l-0.2,0.1
	l-1.1-2c0.8-0.2,3.2-3.2,1.1-5.2c-1.4-1.4-2.7-2.5-0.6-5.3c3.1-4-0.2-6.7-1.6-7.2c1.1-1.1,1.2-3.6,0.3-5c-3.5-5.4-6.6-0.1-5.8-3.1
	c0.7-2.6-2.7-2.9-4.9-2.1c-2.4,0.9-4.2,7.2-5.7,1.2c-0.6-2.3-4.1-3.7-5.6-3.1c-1.6,0.5-3.4,3.9-2.3,6c2.7,5.5-2.7,1.8-5.2,2.7
	c-2.2,0.8-4.5,3.2-2.3,4.8c2.5,1.7-3.2-0.3-2.5,6.1c0.2,1.6,1.9,3.4,3.4,3.6c-0.7,1.3-1.6,5.4,3.4,6.5c3.4,0.7,3.2,2.4,2.9,4.4
	c-0.3,2.8,3.5,3.6,4.2,3.3l0.5,2.2l-8.4,2.8l-5-2.2c0.2-0.8,0.2-1.6-0.1-2.4c-0.7-2.1-3-3.2-5.1-2.4c-2.1,0.7-3.2,3.1-2.4,5.1
	c0.4,1.2,1.4,2.1,2.5,2.5l-0.6,3.9l-8.8,9.5l-5.1-5.6l-0.1-5.4l-4.3-0.7l-2.2-3.8l-8.7-2.2C395.3,227.7,391.9,230.7,388.8,234.4z
	 M254.7,251.2l0.5,1.5l9.9,6.9l13.8,9.8l15.2,15.1c16.8,1.7,74.7-19.8,85.6-31.8l-1.1-27.2l8.6-21.5l-0.6-1.5
	c-4.8-0.8-9.3-0.8-13.4-0.1l-6.6,6.7l2.3,5l-3.4,3l2.7,4l0.5,3.9l-13.4-1.1l-2.5-2.8c0.6-1,0.9-1.9,0.3-3.5
	c-0.6-1.6-3.2-3.1-5.2-2.3c-2,0.8-2.8,3.8-2.2,5.2c0.6,1.4,0.8,1.4,1.5,1.9l-1.2,6.1l-10.7,6.5l-0.2,0.1l-1.1-2
	c0.8-0.2,3.1-3.2,1.1-5.2c-1.4-1.4-2.7-2.5-0.6-5.3c3.1-4-0.2-6.7-1.6-7.2c1.1-1.1,1.2-3.6,0.3-5c-3.5-5.4-6.6-0.1-5.8-3.1
	c0.7-2.6-2.7-3-4.9-2.2c-2.4,0.9-4.2,7.2-5.7,1.2c-0.5-2.2-4.1-3.7-5.6-3.1c-1.6,0.6-3.4,3.9-2.3,6c2.7,5.5-2.7,1.8-5.1,2.7
	c-2.2,0.8-4.5,3.3-2.3,4.8c2.5,1.7-3.3-0.3-2.5,6c0.2,1.6,1.9,3.5,3.4,3.6c-0.7,1.3-1.6,5.5,3.4,6.5c3.4,0.7,3.1,2.4,2.9,4.5
	c-0.3,2.8,3.5,3.6,4.2,3.2l0.5,2.3l-8.4,2.8l-5-2.2c0.2-0.8,0.2-1.6-0.1-2.4c-0.7-2.1-3.1-3.2-5.1-2.4c-2.1,0.7-3.2,3.1-2.4,5.1
	c0.4,1.2,1.4,2.1,2.5,2.4l-0.6,3.9l-8.7,9.6l-5.1-5.6l-0.1-5.4l-4.3-0.7l-2.2-3.7l-8.7-2.2C261.1,244.5,257.7,247.5,254.7,251.2z
	 M359.2,407.7L359.2,407.7c-9.4,0.2-18.2,1.4-29,8.8c1.8,4.3,3.2,8.5,4.2,12.8c3.8-1.6,7.2-2.9,10.3-3.7c3.6-1,6.9-1.4,10.2-1.3h0.5
	c9.5-2.5,12.6-7,15.8-11.6c0.3-0.5,0.7-1,1-1.4c-1.1-0.6-2.4-1.2-4-1.7C365.8,408.8,362.7,408.1,359.2,407.7z M341,484.1
	c3.3,2.1,6.5,3.7,9.9,4.8c2.6,0.8,5.3,1.3,8,1.4c-1.8-6.6-4.7-12-8.7-16.4c-3.2-3.5-7.2-6.4-11.8-8.7c-1.3-0.5-2.5-0.9-3.7-1.5
	c0,0.1-0.1,0.1-0.1,0.2c-0.2,0.8-0.5,1.7-0.8,2.4h0l0,0.1l-0.3,0.8l-0.8,0.3c-0.1,0.1-0.2,0.1-0.4,0.1L341,484.1z M339,502.1
	c-0.2-5.2-0.7-10.5-1.6-16l-9.5-18.2c-0.2,0-0.3,0-0.5,0c-0.5,10.9-2.1,18.3-4.3,23.2v0c-0.5,1.1-1,2.1-1.6,3
	c1.6,6.3,3.7,11,6.7,14.4c2.6,3,6,5,10.2,6.5C339,510.9,339.1,506.5,339,502.1z M355.5,465.1c6.3,0.5,12.7-0.1,19-1.8
	c-3.7-6.5-7.4-10.4-12.7-12.7c-2.7-1.1-5.9-1.9-9.6-2.4c-4.9,0-10-0.3-15.6-0.7l-0.8,0.4c-0.5,0.2-0.9,0.4-1.4,0.5
	c1.2,3.7,1.4,7.7,1.1,11.2c1.6,0.6,3,1.2,4.5,1.9C345,463.5,350.2,464.7,355.5,465.1z M362.4,444c6.7-0.7,12.3-2.4,17-5.8
	c-4.5-3.8-8.7-6.1-12.6-7.6c-4.3-1.6-8.3-2.2-11.5-2.4c-0.2,0-0.3,0-0.5,0c-2.3-0.1-5.1,0.3-8.3,1.2c-3.3,0.8-7.1,2.1-11.2,3.8
	c0.3,1.4,0.5,2.8,0.7,4.3c0.2,1.6,0.4,3,0.5,4.3c0.1,0.6,0.1,1.2,0.1,1.9c6.1,0,11.3,0.2,15.7,0.8
	C355.9,444.4,359.3,444.3,362.4,444z M326.3,417.2c-2.1-1.6-2.9-4.8-8.1-5.4c-0.1-3.8,1.3-8.1,1.4-12.3c0.1-4.1-0.9-8.2-5.7-11.7
	c-2.4,1-4.3,1.5-7.9,4.2c-6-5.2-9.3-7.5-12.2-7.7c-1.5,1.5-3.5,5-4.3,11.3c-3.6-2.5-9.1-7.4-11.8-6.4c-1.5,1-2.5,4.2-3.9,10.1
	c-0.8-0.5-7.1-1.9-11.4-1c-2.5,2.6-3,5.8-3.4,9.6c-2.9,1-6.9-1.7-11.1-2.1c-2.5,1.2-4.8,8.1-4.1,17c-0.7,0.3-2.4,0.4-4.3,0.4
	c-3,0-6.6-0.1-8.2,0.5c1.9,8.6,9.7,13.9,18.3,19.1c0.3,4.6-2.8,16.7,13.2,33.3c0.7-0.9,1.6-2,2.2-2.7c0.6-0.6,1-0.9,1.1-0.5
	c2.5,3.1,3.5,5.6,12.9,11c0.1-0.1,0.2-0.1,0.4-0.2c0.4-0.2,0.8-0.4,1-0.5c1.7-1,3.4-2,4.7-3.2l1.8-1.6l1.2,2.1
	c2.5,4.4,5.3,8.7,9.3,11.8c3.8,3,8.7,4.9,15.5,4.7c2.6-1.2,4.9-3.3,6.8-7.5c1-2.4,1.9-5.4,2.6-9.2c0.7-3.9,1.2-8.5,1.4-14.1l0.1-1.3
	l1.2-0.4c1.5-0.5,2.7-0.5,3.8-0.5c0.5,0,1.1,0,1.6-0.1c0.1-0.4,0.2-0.7,0.3-1.1c0.2-0.7,0.4-1.4,0.5-2.2c0.7-3.9,0.3-8.5-1.3-12.7
	l-0.7-1.7l1.6-0.8c0.7-0.3,1.2-0.5,1.8-0.6c0,0,0.1,0,0.1,0c-0.1-0.9-0.1-1.8-0.2-2.8c-0.1-0.7-0.1-1.4-0.2-2.2
	c-0.1-0.7-0.2-1.3-0.2-2C331.2,431.2,329.3,424.2,326.3,417.2z M318.5,498.1c-1.4,1.2-2.9,2.1-4.4,2.8l-0.3,0.1l-0.3,0
	c-2.1,0.1-4,0-5.9-0.3l9.6,17.1c0.9-2.6,1.6-5.3,1.9-8.3C319.3,506,319.2,502.3,318.5,498.1z M269.7,329.5l-1.1-27.2l8.6-21.5
	l-0.6-1.5c-4.8-0.8-9.3-0.8-13.4-0.1l-6.6,6.7l2.3,5l-3.4,3l2.7,4l0.5,3.9l-13.4-1.2l-2.5-2.7c0.6-1,0.9-1.9,0.3-3.5
	c-0.7-1.6-3.2-3.1-5.2-2.2c-2,0.8-2.8,3.8-2.2,5.2c0.5,1.4,0.8,1.4,1.5,1.9l-1.2,6.1l-10.7,6.5l-0.2,0.1l-1-2
	c0.8-0.2,3.1-3.2,1.1-5.2c-1.5-1.4-2.7-2.6-0.6-5.3c3.1-4-0.2-6.7-1.6-7.2c1.1-1.1,1.2-3.6,0.3-4.9c-3.5-5.4-6.6-0.1-5.8-3.1
	c0.7-2.6-2.7-3-4.9-2.2c-2.4,0.9-4.2,7.2-5.7,1.2c-0.5-2.3-4.1-3.7-5.6-3.1c-1.6,0.6-3.4,3.9-2.3,6c2.7,5.5-2.7,1.8-5.1,2.7
	c-2.2,0.8-4.5,3.3-2.3,4.8c2.5,1.7-3.3-0.3-2.5,6.1c0.2,1.6,1.9,3.4,3.4,3.6c-0.6,1.3-1.6,5.5,3.4,6.5c3.4,0.7,3.1,2.4,2.9,4.4
	c-0.3,2.8,3.5,3.6,4.2,3.3l0.5,2.2l-8.5,2.8l-5-2.2c0.2-0.8,0.2-1.6-0.1-2.4c-0.8-2.1-3.1-3.2-5.2-2.5c-2.1,0.8-3.2,3.1-2.4,5.2
	c0.4,1.2,1.4,2,2.5,2.4l-0.6,4l-8.8,9.5l-5.1-5.6l-0.1-5.4l-4.3-0.7l-2.2-3.7l-8.7-2.2c-3.6,2.2-7,5.2-10,8.9l0.5,1.5l10,6.9
	l13.7,9.8l15.2,15.1C200.9,363,258.8,341.4,269.7,329.5z M212.5,473.4c0.8-0.6,1.7-1.1,2.6-1.6c0.1-0.8,0.1-1.5,0.2-2.3
	c0.2-2.3,0.5-4.7,1-7.3c-5.7,2.2-12.5,8.3-11,11.6C208.4,472.8,211.1,474.1,212.5,473.4z M209.6,495.1c1.6-0.9,4.3-2.7,7.5-4.3
	c-1.2-3.7-1.9-8-2.1-12.9c0-0.1,0-0.2,0-0.2C210.5,481.3,207.1,487.3,209.6,495.1z M225.2,503.8c-2-1.9-3.7-4-5.2-6.5
	c-2.3,3.4-4,7.9-2.6,11.1C220.6,506.1,222.9,504.5,225.2,503.8z M276.2,514.9c6.8,7.1,12.4,8.4,16.4,10.7c1.9-2.4,5.2-6.1,8.3-7.9
	c2.7,2.7,3.9,6.8,9.3,7.3c1.1,0.1,2.6-1.6,4.5-3.5l-12.3-22c-2.9-1-5.3-2.4-7.5-4.1c-3.8-3-6.7-6.9-9.1-11c-1.1,0.8-2.3,1.6-3.5,2.2
	c-0.5,0.2-0.8,0.5-1.1,0.6c-0.3,0.2-0.7,0.3-1.1,0.5l-0.3-0.6c-1.7,2-6.2,2.4-9.3,2.1c-26.4-2.5-30.4-29-50.2-27.9
	c-0.5,2.9-0.9,5.7-1.1,8.5c0,0.2,0,0.5-0.1,0.7c6.4-1.4,13.2,0.1,12.5,2.8c-2.3,0.6-5.6-0.2-8.4,0.3c-1.3,0.3-2.8,0.8-4.3,1.5
	c0,0.9,0,1.7,0,2.6c0.1,4.3,0.8,8.1,1.8,11.4c6.1-2.5,12.9-3.5,16.4,2.2c-2-0.1-8.5-1.6-12.9,1.3c-0.5,0.3-1,0.8-1.6,1.3
	c2,3.8,4.6,6.8,7.8,9l-0.2,0.3c0.1,0,0.1,0,0.1,0c2.2,0.3,3.1-1.9,5.8-3.9c6.1,8.2,10.4,15.7,17.6,20.7c0.5-1.9,1.8-5.4,3.9-6.7
	c2.6,1.9,5,7.9,14.6,8.9C273.5,521,274.7,515.6,276.2,514.9z M292.2,565.6c-2.4-2.9-4.4-6.1-6.1-9.5c-2.8,3.1-4,8.1-2.1,15.2
	C286.9,570.2,289.4,567.9,292.2,565.6z M304.4,575.3c-2.2-1.1-4.2-2.3-6-3.7c-1.1-0.8-2.2-1.7-3.1-2.7c-3.8,4.5-4.9,11,2.9,16.1
	C298,583.5,301.7,578.6,304.4,575.3z M322.4,586.5c-0.2-1.9-0.7-4-0.8-6.3c-3.8-0.5-7.2-1.2-10.4-2.2
	C313.2,584.1,317.8,586.5,322.4,586.5z M382.3,501.7c-4-12.9-5.6-16.7-5.3-24.7v-0.2c0.1-2.1,0.1-4-0.1-5.8
	c-0.2-1.3-0.5-2.7-0.8-4.1c-7,1.9-13.9,2.6-20.9,2c-1.7-0.1-3.5-0.3-5.2-0.6c1.1,0.9,2,1.9,3,2.9c4.9,5.4,8.3,12.1,10.2,20.4
	c0.2,1.1-0.6,2.3-1.7,2.3c-4,0.3-7.9-0.2-11.8-1.5c-2.7-0.9-5.3-2-7.9-3.5c0.6,4.5,1,8.8,1.1,12.9c0.2,5.4,0,10.7-0.7,15.8
	c-0.1,1.1-1.4,1.9-2.4,1.6c-5.9-1.6-10.6-4.2-14.3-8.3c-0.9-1-1.8-2.2-2.6-3.4c0,0.7-0.1,1.4-0.2,2.2c-0.2,2.6-0.7,4.9-1.4,7.2
	c0,0,0,0,0.1,0c-0.6,4.5-0.8,0.5,1,15.6c0.5,3.8,0.8,19.4-17.4,19.2c-1.1,0-2.3-0.1-3.5-0.2c-4.6-0.5-9,0.1-12.4,2
	c1.7,3.5,3.6,6.8,6.1,9.7c2.6-1.7,5.6-3.2,9.4-3.5c0.1,0,0.1,0,0.2,0c1.1,0,1.3,4.2,0.3,4.1c-2.3-0.1-4.8,0.9-7.1,2.4
	c0.8,0.8,1.7,1.5,2.6,2.2c1.6,1.3,3.4,2.4,5.4,3.4c1.1-4.1,4.6-10.5,9.8-11c0.5,4.3-5.6,7.6-5.6,12.8c3.5,1.3,7.5,2.2,12.1,2.8
	c9-2.7,9.1-6.6,5.8-19.8c4.2,1.9,11.2,9.2,17.4,8.3c-0.6-8.8,1.3-17.8,3.8-25.8c2.6,2.3,4.9,6.1,8.2,6c-0.8-4.1,0.4-18.3,3.3-24.3
	c3.8,0.4,6.3,2.4,9.6,2c-0.4-5.8-1.5-12.7,0.8-22.9C375.1,499.9,379.4,502.1,382.3,501.7z M414.6,537.9c-1.6-0.5-3.1-1.3-4.5-2.1
	c0.7,3.3,2,6,4.2,6.3C414.4,541,414.4,539.5,414.6,537.9z M431.3,539c-1.4,0.2-2.8,0.4-4.1,0.5c-2.4,0.2-4.7,0.1-6.9-0.2
	c1.7,4,5,8,10.7,10.4C432.3,546.5,432,542.7,431.3,539z M452.3,545.8c-0.4-6.1-1-10.4-1.1-13.7c-4.5,2.2-8.6,4-12.6,5.2
	C441.2,541.1,445.3,544.2,452.3,545.8z M483.9,503.6c4.2-6.4,12.9-12,16-20c-3.4-0.9-6.6-0.4-9.1-1.5c9.6-10.3,11-15.8-0.6-17.9
	c-0.1,0-0.1,0-0.1,0c-1.8,0.5-3.1,0.6-6.7,1c-1,0.1-2.3,0.2-4.3,0.5c-12.2,1.3-17.9-8.6-23.2-17.6c-3.3-5.7-6.4-11-10.5-12
	c-11-2.7-31.6,24.1-35.9,29.8c2.8,11.7,15,19.3,24.4,18c5.4-0.8,23.8-2.3,26.6,10.3c1.6,7.5-10.3,10.6-21.5,10
	c-7.3-0.4-28.7,2-29.6,20.4c-0.1,1.3-0.1,3.6,0.1,6.1c1.7,1.4,3.6,2.5,5.6,3.3c0.6-4.6,1.7-8.7,4.7-7.6c-0.9,0.1-1.6,4.1-0.7,8.8
	c2.5,0.5,5.2,0.7,8,0.5c1.1-0.1,2.3-0.2,3.5-0.4c-1.2-5.6-1.9-10.4,3-11.6c0.7,3.2,1.5,6.8,3.1,10.3c4.6-1.3,9.5-3.4,14.8-6.2
	c0.2-0.7,0.4-1.3,0.7-1.9c2.9-4.9,8.7-4.6,14-4.5c10,0.2,19.1-4.1,24.1-13.4C492.2,505.5,486.4,505.4,483.9,503.6z M521.3,490.4
	c-1.2-0.6-2.1-1.3-3-2c0.5,1.7,1.2,3.1,2.2,3.5C520.7,491.5,521,490.9,521.3,490.4z M542.8,495.8c0-0.4-0.1-0.9-0.1-1.5
	c-7.2,0-12.5-0.7-16.5-1.9c-0.2,4.8,1.5,11,7.2,16.9C536.5,507.4,538.8,502.8,542.8,495.8z M563,501c-0.8-3.1-1.2-5.6-1.3-8
	c-3.8,0.4-7.4,0.7-10.6,0.9C554.2,496.7,558.1,499,563,501z M581.3,441.5c-2.6-4.3-4.3-8.2-6-13.3c-1.4-4.1-0.2-4.3,1.9-5.7
	c-2.2-6.2-7.2-7.3-9.8-11.6c-1.2-1.9-2-3.2-1.1-6.1c-2.7-3.7-14.4-6.4-19-8.5c-3.4-1.5,0.8-7.1-8.2-10.7c-4.6,8.7-8,22-19,21
	c-16.7-1.4-24.5-22-37.9-32.8c67.8-25.3,75.5-44.3,74.2-54c-3-23.3-17.3-35.1-33.5-43.2c-1.6,3.3-1.4,7.1,0.7,11.3
	c-82.2,15.1-107.7,79-165.8,91.4c-8,1.7-14.4-6.2-13.1-11.5c2.8-11.4,23.4-25,48.9-26.3c22-1.1,28.1-14.1,27.4-16
	c-1.6-0.1-3.4-0.8-5.5-2.1c4.6-9.3,8-18.4,9.1-27c0.6-5.2-6.1-14.1-12.8-13.7c3.1,21.6-11.3,41.6-25.5,45.9
	c-42.3,12.6-55.9,21.1-56.3,37.3c-0.4,18.4,15.2,29.7,29.1,28.2c44.5-4.7,123.4-97.4,163.2-92.4c19,2.4,23.1,11.9,23.2,19.3
	c0.3,18.7-60.1,39.9-80,46.1c-1.6-0.1-3.2,0.2-5,0.3c-26.5,0.2-53.7,24.7-87,39.7c-0.2,0-0.4,0-0.6,0c1.2,0.6,2.3,1.3,3.1,2.1
	c0.7,0.6,0.8,1.9,0.2,2.6c-0.8,1-1.4,1.9-2,2.9c-2.7,3.9-5.3,7.7-11,10.6c1.5,0.4,3.1,0.8,4.8,1.5c4.8,1.8,10.1,4.8,15.5,9.8
	c0.8,0.7,0.8,2.2,0,2.9c-5.3,4.7-11.7,7-19.2,8c6.2,3,10.4,7.9,14.7,16c0.1,0.1,0.1,0.3,0.1,0.4c0.1,0.1,0.1,0.2,0.1,0.2
	c0.6,2.1,1.1,4.1,1.4,6.3c0.2,1.9,0.3,3.8,0.2,5.8c0.3,0,0.5,0,0.7,0.1c10-0.1,19.1-6.9,26.9-15.8c7.3-9.2,25.9-31.4,37.8-28.4
	c5.6,1.4,9.1,7.4,12.9,13.8c4.6,8,9.7,16.7,19.4,15.7c1.5-0.2,3.1-0.3,4.3-0.4c1.9-0.2,3.1-0.3,4.1-0.5c0,0,0-0.1-0.1-0.1
	c16.6-4.1,31.3-23.7,48.5-21.9c5.3,0.6,12.3,6.1,11.9,10.3c-1.5,15-28.5,18.1-29.9,29.1c-0.1,0.5-0.1,1.4-0.1,2.5l0.2-0.1
	c0.8,2.1,2.2,4.3,5.3,6.1c1.7-4.1,4.2-8.5,9.5-8.7c-4.4,5.5-4.7,8.1-5.4,10.4c0,0,0,0,0,0c0.1,0,0.1,0.1,0.2,0.1
	c3.7,1.1,8.7,1.8,15.5,1.8c-0.1-6.2,0.5-14.7,3.8-12.6c-0.7,3.4-1.1,9.4,0.9,11.9l0.4,0.6c4.1-0.2,8.8-0.5,14.1-1.1
	c0.3-3.2,1.3-6.3,2.8-10.5c1.6-4.6,0.2-8.6,1.2-13.6c0.6-3,4.6-2,7.9-1.9c3.5-7.6,0.5-12.8,0.4-19.4
	C578.9,443.4,581.9,442.6,581.3,441.5z M1181.2,242.8c-0.8,3.2,14.7,6,14.9,7.6c0.1,0.6-2.3,0.1-3.3-0.3c-4.5-1.5-11.9-4.5-13.2-5.1
	c0.1,0.3,0,0.9-0.1,1.3c-0.6-0.2-1.1-0.6-1.7-0.7c-0.5,0.7-1.1,1.4-1.6,2.1c0.1,0.4,0.3,1.1,0.3,1.5c1-0.1,2.3,0.1,3.3,0.3
	c2.5,0.5,4.6-1.3,6.8-0.8c0.3,1.4,0.5,3.1,2.2,4.9c2.8,0.6,7,1.2,6.5,2.6c-0.2,0.6-1.3,0.4-1.9,0.6c-1.1,0.5-1.2,1.2-1.4,1.9
	c1.1-0.7,2-1.1,2.8-1.1c-0.3,0.9-0.7,1.5-1.4,2.3c0.7,0.3,1.6-0.4,2.7-1.1c0,0.7-0.3,1.3-0.8,2c0.9-0.1,1.8-0.8,2.3-1.6
	c-0.2-0.7-0.7-1.3-0.9-2c0.2,0,0.8,0.1,1,0.2c-0.2-0.7-1.1-1.5-0.9-2.2c0.1-0.4,0.8-0.5,1.2-0.7c-2.7-1.3-5.8-1.5-6.4-2.3
	c-0.3-0.3-0.3-1.1-0.3-1.5c1.4,0.2,2.8,0.8,4.2,1c1,0.1,1.7,0.3,2.3-1c1.1-2.5-15.3-4.8-15.4-7.6c0-1.2,1.1-2.1,2.9-2.1
	c2.5,0,4.2,1.4,4.6,3c-0.6,0.4-0.9,0.9-0.8,1.6c0.6-0.2,1-0.9,1.7-0.8c1.5,0.3,2.7,1.7,4.2,1.7c1.2,0,2.5-0.5,3.1-1.3
	c0.6-0.7-0.8-2-1.7-1.5c0.8,0.2,1,0.9,0.7,1.3c-0.5,0.7-2.2,0.6-3.4,0c0.3-0.4,0.6-0.2,1.3-1.3c-1.2-0.2-2.1,0.1-3.7-0.8
	c0.3-0.4,1.2-0.9,1.5-1.3c-2.4-0.3-5.6-1.4-7.4-1.7C1183.6,239.6,1181.5,241.7,1181.2,242.8z M1187.9,256.7
	c-0.4,0.5,3.3-1.1,1.4-2.5c-1.8-1.2-3.2-4.7-3-5.4c-3.5,0.5,0.2,3.8-1,3.9c-4-0.3-2.5-2.2-5.2-3c0.4,0.5,0.6,1,0.7,1.5
	c-1.4-0.9-2-0.5-2.6,0.1c0.7,0.2,1.3,0.1,1.5,0.8c-0.2,0.4-0.3,0.5-1.1,0.9c1.2,0.5,2.2,0.3,2.9,0c1.2,1.1,3,0.9,3.1,1.8
	c1.1-0.9,1.6-0.8,1.9-0.5c-0.5,0.5-1,0.6-1.1,1.5c0.6,0.2,1.5,0.1,1.8-0.4C1187.5,255.2,1189.2,255,1187.9,256.7z M1178.9,273
	c-0.6,0.4-0.9,0.9-0.8,1.7c0.6-0.2,1-0.9,1.7-0.8c1.5,0.2,2.7,1.7,4.2,1.7c1.2,0,2.5-0.5,3.1-1.3c0.6-0.8-0.8-2-1.7-1.5
	c0.8,0.2,1,0.9,0.7,1.2c-0.5,0.7-2.2,0.6-3.4,0c0.3-0.4,0.6-0.2,1.3-1.3c-1.2-0.2-2.1,0.1-3.7-0.7c0.3-0.4,1.2-0.9,1.5-1.3
	c-2.4-0.3-5.6-1.4-7.4-1.7c-1.8-0.3-3.9,1.7-4.2,2.8c-0.9,3.2,14.7,6,14.9,7.6c0.1,0.6-2.3,0.1-3.3-0.3c-4.5-1.5-11.9-4.5-13.2-5.2
	c0.1,0.3,0,0.9-0.1,1.3c-0.6-0.2-1.1-0.5-1.7-0.7c-0.5,0.7-1.1,1.4-1.6,2.1c0.1,0.4,0.3,1.1,0.3,1.5c1,0,2.3,0.1,3.3,0.3
	c2.5,0.5,4.6-1.3,6.8-0.8c0.3,1.5,0.5,3.1,2.2,4.9c2.8,0.6,7,1.2,6.5,2.6c-0.2,0.6-1.3,0.4-1.9,0.6c-1.1,0.5-1.2,1.1-1.4,1.9
	c1.1-0.7,2-1.1,2.8-1.1c-0.3,0.9-0.7,1.5-1.4,2.3c0.7,0.3,1.6-0.4,2.7-1.1c0,0.7-0.3,1.3-0.8,2c0.9-0.1,1.8-0.8,2.3-1.6
	c-0.2-0.7-0.7-1.3-0.9-2c0.2,0,0.8,0.1,1,0.1c-0.2-0.7-1.1-1.5-0.9-2.2c0.1-0.4,0.8-0.5,1.2-0.7c-2.7-1.3-5.8-1.5-6.4-2.3
	c-0.3-0.3-0.3-1.1-0.3-1.5c1.4,0.3,2.8,0.8,4.2,1c1,0.1,1.7,0.3,2.3-1c1.1-2.5-15.3-4.8-15.4-7.6c0-1.2,1.1-2.1,2.9-2.1
	C1176.8,270.1,1178.4,271.4,1178.9,273z M1176.9,285.8c-0.4,0.5,3.3-1.1,1.4-2.5c-1.8-1.2-3.2-4.7-3-5.3c-3.5,0.5,0.2,3.8-1,3.9
	c-4-0.3-2.4-2.2-5.2-3c0.4,0.5,0.6,1,0.7,1.5c-1.4-0.9-2-0.5-2.6,0.1c0.7,0.2,1.3,0.1,1.5,0.8c-0.2,0.4-0.3,0.5-1.1,0.9
	c1.2,0.5,2.2,0.3,2.9,0c1.2,1.1,3,0.9,3.2,1.8c1.1-0.9,1.6-0.8,1.9-0.5c-0.5,0.5-1,0.6-1.1,1.5c0.6,0.2,1.5,0.1,1.8-0.4
	C1176.5,284.3,1178.2,284.1,1176.9,285.8z M1167.9,302.1c-0.6,0.4-0.9,1-0.8,1.7c0.7-0.2,1-0.9,1.7-0.8c1.5,0.2,2.7,1.7,4.2,1.7
	c1.2,0,2.5-0.5,3.1-1.3c0.6-0.7-0.8-2-1.7-1.5c0.8,0.2,1,0.9,0.7,1.2c-0.5,0.7-2.2,0.6-3.4,0c0.3-0.4,0.6-0.2,1.3-1.3
	c-1.2-0.2-2.1,0.1-3.7-0.7c0.3-0.4,1.2-0.9,1.5-1.3c-2.4-0.3-5.6-1.4-7.4-1.7c-1.8-0.3-3.9,1.7-4.2,2.9c-0.9,3.2,14.7,5.9,14.9,7.6
	c0.1,0.6-2.3,0.1-3.3-0.3c-4.5-1.5-11.9-4.5-13.2-5.1c0,0.3,0,0.9-0.1,1.3c-0.6-0.2-1.1-0.6-1.7-0.7c-0.5,0.7-1.1,1.4-1.6,2.1
	c0.1,0.4,0.3,1.1,0.3,1.5c1-0.1,2.3,0.1,3.3,0.3c2.5,0.5,4.6-1.3,6.8-0.8c0.3,1.4,0.5,3.1,2.2,4.9c2.8,0.6,7,1.2,6.5,2.6
	c-0.2,0.6-1.3,0.4-1.9,0.6c-1.1,0.5-1.2,1.1-1.4,1.9c1.1-0.7,2-1.1,2.8-1.1c-0.3,0.9-0.7,1.5-1.4,2.3c0.7,0.3,1.6-0.4,2.7-1.1
	c0,0.7-0.3,1.3-0.8,2c0.9-0.1,1.8-0.8,2.3-1.6c-0.2-0.7-0.7-1.3-0.9-2c0.2,0,0.8,0.1,1,0.2c-0.2-0.7-1.1-1.5-0.9-2.2
	c0.1-0.4,0.8-0.5,1.2-0.7c-2.7-1.3-5.8-1.5-6.4-2.3c-0.3-0.3-0.3-1.1-0.3-1.5c1.4,0.2,2.8,0.8,4.2,1c1,0.1,1.7,0.3,2.3-1
	c1.1-2.5-15.3-4.8-15.4-7.6c0-1.2,1.1-2.1,2.9-2.1C1165.8,299.2,1167.5,300.5,1167.9,302.1z M1165.9,315c-0.4,0.5,3.3-1.1,1.4-2.5
	c-1.7-1.2-3.2-4.7-3-5.4c-3.5,0.5,0.2,3.8-1,3.9c-4-0.3-2.4-2.2-5.2-3c0.4,0.5,0.6,1,0.7,1.5c-1.4-0.9-2-0.5-2.6,0.1
	c0.7,0.2,1.3,0.1,1.5,0.8c-0.2,0.4-0.3,0.5-1.1,0.9c1.2,0.5,2.2,0.3,2.9,0c1.2,1.1,3,0.9,3.2,1.8c1.1-0.9,1.6-0.8,1.9-0.5
	c-0.5,0.5-1,0.6-1.1,1.5c0.6,0.2,1.5,0.1,1.8-0.3C1165.6,313.4,1167.3,313.2,1165.9,315z M1152.8,308.2c0.4-0.6,0.9-0.9,1.4-1
	c-0.3-1.2-0.5-2.4-1.3-3.4c-1.1,0-1.6,0.6-2.2,1.3c-6-0.6-3.4-3.2-6.2-4.1c0.5,0.7,0.8,1.4,1,2.1c-1.7-0.9-2.4-0.9-3.2-0.2
	c0.9,0.4,1.4,0.6,1.8,1.4c-0.7,0.2-0.9,0.6-2,0.4c0.3,1.3,1.6,1.7,3.1,0.6c0.8,0.7,1.3,1.5,1.7,2.4c0.4-0.3,0.9-0.4,1.3-0.6
	c0.6,1,0.4,1.7,2.2,1.8c0-0.4,0-0.9,0-1.2c1.7,1.2,1.8,1.6,3.2,2c0-0.3,0.2-0.8,0.7-0.9C1153.7,308.6,1153.3,308.6,1152.8,308.2z
	 M1148.8,295.1c-0.5,0-1.2-0.2-1.7-0.2c-0.6-0.1-0.9,0.3-1.1,0.9c0.9-0.1,1.7-0.1,2.5,0.1c-0.4,0.8-1.3,2-1.8,2.5
	c0.7,0,1.4-0.1,1.7,0.4c-0.7,0.5-1.2,1.6-1,2.3c1.1,0.6,0.7,0.6,1.1,1.9c0.2,0.6,2,0.5,2.7,0.5c0.1-0.5,0.5-1.3,0.6-1.8
	c-0.7-0.2-1.6,0-2.3-0.1c0.2-0.6,0.6-1.1,1-1.5c-0.1-0.5-0.5-0.7-0.6-1.2c0-0.9-0.2-1.9,0.1-2.7c0.3-0.8,1.3-1.3,1.5-2.1
	c0.2-0.7-0.8-1.5-1.2-2.2c0.1,0.6,0.2,1.1,0.2,1.7c-0.3,0.2-0.6,0.6-0.9,0.9c-0.2-0.4-0.1-0.9-0.4-1.2c-0.8-0.8-1.5-0.6-2.1-0.6
	c0.3,0.4,0.8,0.6,1.1,1.1C1148.7,294.5,1148.8,294.7,1148.8,295.1z M1155.7,303.3c0.7,0.3,0.9,0.4,1.6,0.7c-0.1-0.9,0.3-1.8,0.2-2.7
	c0.4-0.1,0.7,0.2,1.1-0.1c-0.2-0.5-0.3-0.8-0.5-1.3c0.3,0,0.8-0.3,1.1-0.3c-0.2-0.4-0.5-0.6-0.7-1c0.4-0.1,0.8-0.3,1.2-0.5
	c-0.1-0.5-0.5-1.1-1.4-1.4c1.3-0.7,1.2-0.6-0.3-0.7c0-0.5,0.1-0.8-0.1-1.2c-0.7,0-1.5-0.1-1.8,0.1c-0.2-0.8,0-0.7-0.7-1.1
	c-0.4,0.4-0.7,0.8-0.5,1.7c-1.4-0.3-1.3,1.2-1.1,1.7c-1.3,0-2.3,0.5-2.6,1.4c0.3,0.2,0.6,0.6,0.9,0.9c-1.3,0.2-2.2,1.6-2.3,2
	c0.8,0,1.5-0.1,2.3,0c-0.2,0.7-0.6,1.8-0.8,2.5c0.8-0.4,1-0.5,1.8-0.5c0.5,0.7,0.7,1.2,1,2.1
	C1154.6,304.7,1155.2,304.1,1155.7,303.3z M1155,275.3c-0.7,0.2-0.9,0.6-2,0.4c0.3,1.3,1.6,1.7,3.1,0.6c0.8,0.7,1.3,1.4,1.7,2.4
	c0.4-0.3,0.9-0.4,1.3-0.6c0.6,1,0.4,1.7,2.2,1.8c0-0.4,0-0.9,0-1.2c1.7,1.2,1.8,1.6,3.2,2c0-0.3,0.2-0.8,0.7-0.9
	c-0.4-0.2-0.8-0.2-1.2-0.6c0.4-0.6,0.9-0.9,1.4-1c-0.3-1.2-0.5-2.4-1.3-3.4c-1.1,0-1.6,0.6-2.2,1.3c-6-0.6-3.5-3.2-6.2-4.1
	c0.5,0.7,0.8,1.4,0.9,2.1c-1.7-0.9-2.4-0.9-3.2-0.2C1154,274.3,1154.6,274.4,1155,275.3z M1159.7,266c-0.5,0-1.2-0.2-1.7-0.2
	c-0.6-0.1-0.9,0.3-1.1,0.9c0.9-0.1,1.7-0.1,2.5,0.1c-0.4,0.8-1.3,2-1.8,2.5c0.7,0,1.4-0.1,1.7,0.4c-0.7,0.5-1.2,1.6-1,2.3
	c1.1,0.6,0.7,0.6,1.1,1.9c0.2,0.6,2,0.5,2.7,0.5c0.1-0.5,0.5-1.3,0.6-1.8c-0.7-0.2-1.6,0.1-2.3-0.1c0.2-0.6,0.6-1.2,1-1.5
	c-0.1-0.5-0.5-0.7-0.6-1.2c0-0.9-0.2-1.9,0.1-2.7c0.3-0.8,1.3-1.3,1.5-2.1c0.2-0.7-0.8-1.5-1.2-2.2c0.1,0.6,0.2,1.1,0.2,1.7
	c-0.2,0.2-0.6,0.6-0.9,0.9c-0.1-0.4-0.1-0.9-0.4-1.2c-0.8-0.8-1.5-0.6-2.1-0.6c0.3,0.4,0.8,0.6,1.1,1.1
	C1159.6,265.4,1159.8,265.6,1159.7,266z M1165.9,246.2c-0.7,0.2-0.9,0.6-2,0.4c0.3,1.3,1.6,1.7,3.1,0.6c0.8,0.7,1.3,1.5,1.7,2.4
	c0.4-0.3,0.9-0.4,1.3-0.6c0.6,1,0.4,1.7,2.2,1.8c0-0.4,0-0.9,0-1.2c1.7,1.2,1.8,1.6,3.2,2c0-0.3,0.2-0.8,0.7-1
	c-0.4-0.2-0.8-0.2-1.3-0.6c0.4-0.6,0.9-0.9,1.4-1c-0.3-1.2-0.5-2.4-1.3-3.4c-1.1,0-1.6,0.6-2.2,1.3c-6-0.6-3.5-3.2-6.2-4.1
	c0.5,0.7,0.8,1.4,1,2.1c-1.7-0.9-2.4-0.9-3.2-0.2C1165,245.2,1165.6,245.3,1165.9,246.2z M1162.2,269.5c0.3,0.3,0.6,0.6,0.9,0.9
	c-1.3,0.2-2.2,1.6-2.3,2.1c0.8,0,1.5-0.1,2.3,0c-0.2,0.7-0.6,1.9-0.8,2.5c0.8-0.4,1-0.5,1.8-0.5c0.5,0.7,0.7,1.2,1,2.1
	c0.5-0.8,1.1-1.4,1.6-2.2c0.6,0.3,0.9,0.4,1.6,0.7c-0.1-0.9,0.3-1.8,0.2-2.7c0.4-0.1,0.6,0.2,1-0.1c-0.2-0.5-0.3-0.8-0.5-1.2
	c0.3,0,0.8-0.3,1.1-0.3c-0.2-0.4-0.5-0.6-0.7-1c0.4-0.2,0.8-0.3,1.2-0.5c-0.1-0.5-0.5-1.1-1.4-1.4c1.3-0.7,1.2-0.6-0.3-0.7
	c0-0.5,0.1-0.8-0.1-1.2c-0.7,0-1.5-0.1-1.8,0.1c-0.2-0.8,0-0.7-0.7-1.1c-0.4,0.4-0.7,0.8-0.5,1.7c-1.4-0.3-1.3,1.2-1.1,1.7
	C1163.5,268.1,1162.5,268.6,1162.2,269.5z M1175.8,239c-1.3,0-2.3,0.5-2.6,1.4c0.3,0.3,0.6,0.6,0.9,0.9c-1.3,0.2-2.2,1.6-2.3,2
	c0.8,0,1.5-0.1,2.3,0c-0.2,0.7-0.6,1.8-0.8,2.5c0.8-0.4,1-0.5,1.8-0.5c0.5,0.7,0.7,1.2,1,2.1c0.5-0.8,1.1-1.4,1.6-2.2
	c0.6,0.3,0.9,0.4,1.6,0.7c-0.1-0.9,0.3-1.8,0.2-2.7c0.4-0.1,0.6,0.2,1-0.1c-0.2-0.5-0.3-0.8-0.5-1.3c0.3,0,0.8-0.3,1.1-0.3
	c-0.2-0.4-0.5-0.6-0.7-1c0.4-0.1,0.8-0.3,1.2-0.5c-0.1-0.5-0.5-1.1-1.4-1.4c1.3-0.7,1.2-0.6-0.3-0.7c0-0.5,0.1-0.8-0.1-1.2
	c-0.7,0-1.5-0.1-1.8,0.1c-0.2-0.8,0-0.7-0.7-1.1c-0.4,0.4-0.7,0.8-0.5,1.7C1175.5,236.9,1175.5,238.5,1175.8,239z M1170.7,236.9
	c-0.5,0-1.2-0.2-1.7-0.2c-0.6-0.1-0.9,0.3-1.1,0.9c0.9-0.1,1.7-0.1,2.5,0.1c-0.4,0.8-1.3,2-1.8,2.5c0.7,0,1.4-0.1,1.7,0.4
	c-0.7,0.5-1.2,1.6-1,2.3c1.1,0.6,0.7,0.6,1.1,1.9c0.2,0.6,2,0.5,2.7,0.5c0.1-0.5,0.5-1.3,0.6-1.8c-0.7-0.2-1.6,0-2.3-0.1
	c0.2-0.6,0.6-1.1,1-1.5c-0.1-0.5-0.5-0.7-0.6-1.2c0-0.9-0.2-1.9,0.1-2.7c0.3-0.8,1.3-1.3,1.5-2.1c0.2-0.7-0.8-1.5-1.2-2.2
	c0,0.6,0.2,1.1,0.2,1.7c-0.3,0.2-0.6,0.6-0.9,0.9c-0.1-0.4-0.1-0.9-0.4-1.2c-0.8-0.8-1.5-0.6-2.1-0.6c0.3,0.4,0.8,0.6,1.1,1.1
	C1170.6,236.3,1170.8,236.5,1170.7,236.9z M1137.3,255.5c1.2-0.1,2.8-1.6,4.3-4.1c0.3,0.1,0.3,0.5,0.6,0.6c-1.3,1.6-2.8,3.1-4.1,4.6
	c0.5,0.5,1,1.3,1.2,2.1c0.1,0.3,0.1,0.7,0.1,1.1c0,0.3,0,0.7-0.1,1c0.5-0.8,1-1.3,1.5-1.6c0.7-0.5,1.5-0.8,2.3-0.8
	c0-2-0.1-4.1,0-6.2c0.2,0,0.6-0.2,0.8-0.1c-0.5,2.9-0.2,5.1,0.6,5.9c0.7,0.8,2.6,0.3,3.1-0.7c0.9-1.6,0.5-2.5,0.3-2.7
	c-0.5-0.5-1.3-0.3-1.4-0.1c0.5,1.3-0.4,2-0.9,1.5c-0.8-0.7-0.5-2.1-0.4-3.3c0.6,0.2,0.8,0.5,1.1,0.6c0.4-0.4,0.9-1,0.8-2
	c-0.1-0.4-0.6-0.5-1-1c0.6-1.3,2.4-3.1,3.4-2c0.7,0.8-0.2,1.6-0.9,2.4c-0.9,1.2-0.5,2.1,0.1,2.7c0.2-0.5,0.2-1.1,0.6-1.4
	c0.7-0.5,2.1-0.4,3.5-2c1.4-1.5,2.4-5.2,1-6.8c-1.4-1.5-4.7-0.3-7.1,3.2c-0.5,0.7-1.6,2.2-1.9,3.4c-0.2-0.1-0.2-0.3-0.4-0.4
	c1.6-3.2,4.1-5.7,6-8.9c1.9-3.1,1.3-6.5,0.6-9.9c-2.8,2.1-5.4,4.3-6.1,7.8c-0.6,3.6-0.4,7.1-1.3,10.6c-0.2-0.1-0.4,0.1-0.6,0
	c0.5-1.1,0.7-3,0.7-3.8c0.5-4.2-1.2-7.3-3.3-7.1c-2.1,0.2-3.8,3.7-3.7,5.7c0,2.1,1.1,3,1.3,3.8c0.1,0.4-0.3,0.9-0.5,1.4
	c0.9,0,1.8-0.4,1.9-1.9c0.1-1-0.2-2.2,0.9-2.3c1.5-0.2,1.6,2.4,1.2,3.8c-0.6,0.1-1-0.1-1.4,0.1c-0.8,0.6-0.8,1.4-0.8,2
	c0.3,0.1,0.7-0.1,1.2,0.2c-0.7,0.9-1.4,2.2-2.5,2.2c-0.7,0-0.9-1.1,0.3-1.7c0-0.3-0.4-0.9-1.2-0.9c-0.3,0-1.2,0.4-1.6,2.2
	C1135.2,254,1136.3,255.6,1137.3,255.5z M1130.4,223.1c-2.8,2-5.4,4.3-6.1,7.8c-0.6,3.6-0.4,7.1-1.3,10.6c-0.2-0.1-0.4,0.1-0.6,0
	c0.5-1.1,0.7-3,0.7-3.8c0.5-4.3-1.2-7.3-3.3-7.1c-2.1,0.2-3.8,3.7-3.8,5.7c0,2.1,1.1,2.9,1.3,3.8c0.1,0.4-0.3,0.9-0.5,1.4
	c0.9,0,1.8-0.4,1.9-1.9c0.1-1-0.2-2.2,0.9-2.3c1.5-0.2,1.6,2.4,1.2,3.8c-0.6,0.1-1-0.1-1.4,0.1c-0.8,0.6-0.8,1.4-0.8,2
	c0.3,0.1,0.7-0.1,1.2,0.2c-0.7,0.9-1.4,2.2-2.5,2.2c-0.7,0-0.9-1.1,0.3-1.7c0-0.3-0.4-0.9-1.2-0.9c-0.3,0-1.2,0.4-1.6,2.2
	c-0.2,1.1,0.9,2.7,1.9,2.6c1.2-0.1,2.8-1.6,4.3-4.1c0.3,0.1,0.3,0.4,0.6,0.6c-1.3,1.6-2.8,3.1-4.1,4.6c0.5,0.5,1,1.3,1.2,2.1
	c0.1,0.5,0.2,1.3,0,2.2c0.5-0.8,1-1.3,1.4-1.6c0.7-0.5,1.5-0.8,2.3-0.8c0-2-0.1-4.1,0-6.2c0.3,0,0.6-0.2,0.8-0.1
	c-0.5,2.9-0.2,5.1,0.6,5.9c0.7,0.8,2.6,0.3,3.1-0.7c0.9-1.6,0.5-2.5,0.2-2.7c-0.5-0.5-1.2-0.3-1.4-0.1c0.5,1.3-0.4,2-0.9,1.5
	c-0.8-0.7-0.5-2.1-0.4-3.3c0.6,0.2,0.8,0.5,1.1,0.7c0.4-0.4,0.9-1,0.8-2c-0.1-0.4-0.6-0.5-1-1c0.7-1.3,2.4-3.1,3.4-2
	c0.7,0.8-0.3,1.6-0.9,2.3c-0.9,1.2-0.5,2.1,0.1,2.7c0.2-0.5,0.2-1.1,0.6-1.4c0.7-0.5,2.1-0.4,3.5-2c1.4-1.5,2.4-5.3,1-6.8
	c-1.4-1.5-4.7-0.3-7.1,3.2c-0.5,0.7-1.6,2.2-2,3.3c-0.2-0.1-0.2-0.3-0.4-0.4c1.6-3.2,4.1-5.7,6-8.9c0.9-1.6,1.3-3.2,1.3-4.9
	C1131.1,226.4,1130.8,224.7,1130.4,223.1z M1125.8,280c-0.9,1.2-0.5,2.1,0.1,2.7c0.2-0.5,0.2-1.1,0.6-1.4c0.7-0.5,2.1-0.4,3.5-2
	c1.4-1.5,2.4-5.3,1-6.8c-1.4-1.5-4.7-0.3-7.1,3.2c-0.5,0.7-1.6,2.2-1.9,3.4c-0.2-0.1-0.2-0.3-0.4-0.4c1.6-3.2,4.1-5.7,6-8.9
	c0.9-1.6,1.3-3.2,1.3-4.9c0-1.6-0.3-3.3-0.7-4.9c-2.8,2-5.4,4.3-6.1,7.8c-0.6,3.6-0.4,7.1-1.3,10.6c-0.2-0.1-0.4,0.1-0.6,0
	c0.5-1.1,0.7-3,0.7-3.8c0.5-4.2-1.2-7.3-3.3-7.1c-2.1,0.2-3.8,3.7-3.8,5.7c0,2.1,1.1,3,1.3,3.8c0.1,0.4-0.3,0.9-0.5,1.4
	c0.9,0,1.8-0.4,1.9-1.9c0.1-1-0.2-2.2,0.9-2.3c1.5-0.2,1.6,2.4,1.2,3.8c-0.6,0.1-1-0.1-1.4,0.1c-0.8,0.6-0.8,1.4-0.8,2
	c0.3,0.1,0.7-0.1,1.2,0.2c-0.7,0.9-1.4,2.2-2.5,2.2c-0.7,0-0.9-1.1,0.3-1.7c0-0.3-0.4-0.9-1.2-0.9c-0.3,0-1.2,0.4-1.6,2.2
	c-0.2,1.1,0.8,2.7,1.9,2.6c1.2-0.1,2.8-1.6,4.3-4.1c0.3,0.1,0.3,0.5,0.6,0.6c-1.3,1.6-2.8,3.1-4.1,4.6c0.5,0.5,1,1.3,1.2,2.1
	c0.1,0.3,0.1,0.7,0.1,1.1c0,0.3,0,0.7-0.1,1c0.5-0.8,1-1.3,1.5-1.6c0.7-0.5,1.5-0.8,2.3-0.8c0-2-0.1-4.1,0-6.2
	c0.2,0,0.6-0.2,0.8-0.1c-0.5,2.9-0.2,5.1,0.6,5.9c0.7,0.8,2.6,0.3,3.1-0.7c0.9-1.6,0.5-2.5,0.3-2.7c-0.5-0.5-1.3-0.3-1.4-0.1
	c0.5,1.3-0.4,2-0.9,1.5c-0.8-0.7-0.5-2.1-0.4-3.3c0.6,0.2,0.8,0.5,1.1,0.7c0.4-0.4,0.9-1,0.8-2c-0.1-0.4-0.6-0.5-1-1
	c0.7-1.3,2.4-3.1,3.4-2C1127.3,278.4,1126.4,279.2,1125.8,280z M1127.3,199.8l0.3-0.8l0,0L1127.3,199.8z M974.3,244.6
	c-2.4,8.6,32.8,13.5,32.9,17.8c0.1,1.4-5.2,0.6-7.6-0.2c-10.1-3.2-26.6-9.9-29.4-11.6c0,0.9-0.2,2.3-0.5,3.4
	c-1.3-0.4-2.5-1.3-3.8-1.7c-1.3,1.9-2.7,3.8-3.9,5.7c0.1,1.1,0.5,2.8,0.5,3.8c2.3-0.3,5.2-0.1,7.4,0.3c5.6,1,10.6-4.2,15.8-3.2
	c0.5,3.8,0.6,8,4.3,12.7c6.4,1.2,15.7,2.2,14.5,5.8c-0.6,1.6-3.1,1.2-4.5,2c-2.6,1.4-3,3.2-3.5,5.3c2.5-2,4.8-3.3,6.5-3.3
	c-0.8,2.5-1.8,4-3.5,6.2c1.4,0.7,3.8-1.3,6.3-3.3c-0.1,1.8-1,3.6-2,5.4c2-0.5,4.2-2.4,5.4-4.5c-0.4-1.8-1.4-3.4-1.8-5.2
	c0.5,0,1.8,0.2,2.3,0.2c-0.4-1.9-2.2-3.8-1.7-5.7c0.3-1.1,1.9-1.5,2.9-2c-5.9-3.1-13.2-3.1-14.4-5c-0.6-0.8-0.5-2.8-0.5-3.8
	c3.1,0.4,6.4,1.7,9.6,2c2.2,0.2,3.9,0.5,5.4-3c2.8-6.7-34.3-10.4-34.1-17.7c0.1-3.2,2.8-5.8,6.9-6c5.8-0.3,9.3,3.1,10.1,7.2
	c-1.5,1.2-2.3,2.6-2,4.5c1.5-0.6,2.4-2.6,4-2.4c3.5,0.4,6,4.2,9.4,3.9c2.8-0.2,5.8-1.6,7.4-3.9c1.4-2.1-1.5-5-3.6-3.7
	c1.7,0.4,2.2,2.2,1.4,3.2c-1.2,1.9-5.2,1.9-7.9,0.5c0.8-1.2,1.4-0.6,3.1-3.5c-2.8-0.3-4.8,0.5-8.4-1.4c0.9-1.2,2.8-2.6,3.7-3.8
	c-5.5-0.5-12.7-2.9-16.7-3.4C980.3,235.9,975.2,241.7,974.3,244.6z M987.5,280.4c-1,1.4,7.8-3.5,3.6-6.7c-3.8-3-6.6-12-6.1-13.7
	c-8,1.8-0.2,10.1-3,10.5c-9-0.3-5.3-5.5-11.5-7.1c0.8,1.2,1.1,2.7,1.4,4c-3.1-2.1-4.5-1.2-5.9,0.6c1.5,0.4,3,0,3.4,1.9
	c-0.6,1.1-0.8,1.4-2.7,2.4c2.7,1.2,5,0.5,6.6-0.5c2.5,2.7,6.7,2,7,4.2c2.6-2.6,3.8-2.3,4.5-1.5c-1.3,1.4-2.5,1.8-2.9,4.2
	c1.4,0.3,3.4,0.1,4.2-1.2C986.8,276.3,990.8,275.6,987.5,280.4z M962.5,235.4c-3,0.3-5.4,1.6-6.2,4.1c0.7,0.6,1.2,1.5,2,2.1
	c-3,0.8-5.3,4.6-5.7,5.8c1.8-0.1,3.4-0.4,5.2-0.4c-0.5,1.9-1.7,4.9-2.2,6.8c1.9-1.3,2.5-1.5,4.2-1.7c1.1,1.7,1.4,3,2,5.3
	c1.3-2.1,2.7-3.9,3.9-6.1c1.5,0.7,2.1,1,3.5,1.6c-0.2-2.3,1-4.9,0.8-7.2c1-0.3,1.5,0.3,2.5-0.5c-0.3-1.3-0.6-1.9-0.9-3.2
	c0.8-0.1,1.8-0.8,2.6-0.9c-0.4-1-1-1.6-1.4-2.6c1-0.5,1.9-1,2.9-1.4c-0.1-1.3-0.9-2.8-2.9-3.5c3.2-2.1,2.8-1.7-0.6-1.9
	c0-1.3,0.3-2.1-0.1-3.2c-1.6,0.2-3.5-0.1-4.2,0.4c-0.4-2,0.1-1.7-1.5-2.8c-0.9,1.1-1.6,2.3-1.3,4.5C962.1,230,962,234.1,962.5,235.4
	z M958.5,264.8c1-1.6,2.1-2.5,3.4-2.9c-0.5-3-0.7-6.3-2.4-8.8c-2.6,0.1-3.9,1.9-5.3,3.8c-13.6-0.5-7.4-7.9-13.6-9.8
	c1.1,1.7,1.5,3.6,1.9,5.3c-3.9-2.1-5.3-1.9-7.4,0.1c1.9,0.9,3.2,1.3,4,3.4c-1.6,0.7-2.1,1.9-4.7,1.4c0.4,3.4,3.4,4.2,7.1,1.2
	c1.7,1.8,2.8,3.7,3.5,6.1c0.9-0.8,2.1-1.1,3-1.9c1.2,2.6,0.6,4.6,4.7,4.6c0-1,0.1-2.3,0.1-3.2c3.6,2.9,4,4,7,4.8
	c0-0.8,0.6-2.2,1.7-2.6C960.4,265.5,959.5,265.5,958.5,264.8z M951.1,230.7c-1.1,0.1-2.7-0.2-3.8-0.2c-1.3-0.1-2.1,1-2.7,2.5
	c2-0.3,4-0.6,5.7-0.1c-1,2.3-3.2,5.4-4.6,6.8c1.7-0.1,3.2-0.4,4,0.8c-1.6,1.4-3,4.5-2.7,6.3c2.5,1.4,1.6,1.6,2.1,4.9
	c0.3,1.7,4.5,0.9,6.2,1c0.3-1.3,1.3-3.6,1.6-4.8c-1.6-0.3-3.6,0.4-5.2,0.1c0.5-1.7,1.5-3.1,2.6-4.2c-0.2-1.2-1.1-1.8-1.3-3
	c0.1-2.5-0.1-4.9,0.7-7.3c0.8-2.2,3.2-3.6,3.7-5.9c0.5-2-1.6-3.8-2.4-5.7c0,1.6,0.2,2.8,0.2,4.4c-0.6,0.7-1.5,1.8-2.2,2.5
	c-0.3-1.1-0.1-2.4-0.8-3.2c-1.7-2-3.3-1.4-4.8-1.3c0.7,1.1,1.8,1.5,2.4,2.7C951,229.2,951.3,229.6,951.1,230.7z M835.1,246
	c5.4,0,12.5-4.6,18.5-13.1c1.3,0.4,1.8,1.8,2.8,2.4c-5.5,5.1-11.6,10-17.1,15.1c2.6,2.1,5.3,5,6.4,8.3c0.7,2,1.4,4.9,1,8h0
	c1.8-2.6,4.2-4.3,6.1-5.3c3-1.7,6.9-2.1,10.2-2c-0.8-7.5-2.1-15.2-2.9-22.7c1.2,0.2,2.5-0.4,3.7,0.1c-1.1,10.3,1.2,18.5,5.2,22
	c3.6,3.2,12.2,2.1,14.3-1.1c3.6-5.6,1.2-8.9,0-10c-2.6-2.1-6-1.6-6.8-1.1c2.9,4.8-0.8,7.1-3.5,5.2c-4.2-3.1-3.2-8.1-3.5-12.3
	c2.9,0.9,3.9,2.1,5.2,2.9c1.6-1.4,3.8-3.4,2.6-7c-0.8-1.5-2.8-2-5-4c2.5-4.4,9.8-10.4,15-5.9c3.7,3.2-0.5,5.7-2.9,8.2
	c-3.8,3.9-1.6,7.5,1.8,9.9c0.7-1.6,0.6-4,2.1-4.8c3.1-1.6,9.8-0.7,15.6-5.8c5.7-5,9-18.2,1.5-24.4c-7.4-6.3-22-3.3-31.9,8.5
	c-1.9,2.2-6.5,7.4-7.6,11.4c-1-0.4-1.3-1.3-2.2-1.7c6.2-11.1,16.7-19.2,24.2-29.8c7.3-10.5,3.4-23.3-1.5-36c0,0,0,0,0,0
	c-12,6.3-23.5,13.3-24.9,26.1c-1.4,12.9,1.1,25.9-1.5,38.3c-1-0.3-1.8,0.2-2.8-0.2c1.9-3.7,1.7-10.7,1.8-13.6
	c0.3-15.4-8.7-27.2-18.4-27.4c-9.7-0.2-16,11.8-15,19.4c1,7.6,6.6,11.3,7.9,14.6c0.6,1.6-1.1,3.3-1.6,5c4.2,0.5,8.2-0.8,7.9-6.2
	c-0.2-3.5-1.7-8.2,3.2-8.1c6.8,0.1,8.4,9.5,7.4,14.4c-2.9,0.1-4.8-0.8-6.4-0.3c-3.3,1.9-2.9,4.9-2.7,7c1.5,0.4,3.1,0.1,5.8,1.3
	c-3,3-5.5,7.4-10.7,7c-3.2-0.3-4.5-4.5,0.8-6.2c-0.3-1-2.4-3.6-5.8-3.7c-1.6-0.1-5.6,0.8-6.6,7.4C824.6,239.6,830.3,246,835.1,246z
	 M754,395.8c4-18.6,9.2-22.6,20.2-17.4l5.2-11C772.9,350.9,748.6,366.8,754,395.8z M780.8,364.3l7.7-15.1l-0.5-27.8l-12.8,35.8
	L780.8,364.3z M757.4,396.7c4.8-9.5,7.7-6.8,10.6-4.3l5-11.4C769.5,376.5,756.9,376.1,757.4,396.7z M754.5,459.8
	c16.2-40,34.3-89.7,46.5-121.6c-5.8-0.8-36.3,55.6-53.6,117.5C746.7,458.3,753.5,462.2,754.5,459.8z M760.2,487.9l-1.3-23.1
	c-2.7-0.7-6-1.7-8.4-3.2l2.1,24.4C754.6,488,758,489.1,760.2,487.9z M802.4,338.8c-11.9,31.9-31.1,81.3-45.3,122
	c-0.8,2.4,6.9,4,8,1.7C792.9,404.5,807.3,342,802.4,338.8z M818.6,421.4c4-18.6,9.2-22.6,20.2-17.3l5.2-11
	C837.5,376.6,813.2,392.4,818.6,421.4z M845.4,390l7.7-15.1l-0.5-27.8l-12.8,35.8L845.4,390z M821.9,422.4c4.8-9.5,7.7-6.8,10.6-4.3
	l5-11.4C834,402.2,821.5,401.8,821.9,422.4z M823.2,334.6l-18.7,20.6l-4.2,16.4l8.9-1.6L823.2,334.6z M796.5,411.5
	c13.9-15.2,4.2-23.2-1.3-22.1l-3.8,11.9C795.2,401.3,799.2,401.2,796.5,411.5z M799.3,374.9l-3.4,11.7c11.7,3.3,13,9.7,3.7,26.4
	C822.8,394.7,815,366.8,799.3,374.9z M819,485.5c16.2-40,34.3-89.7,46.5-121.6c-5.8-0.9-36.3,55.5-53.6,117.5
	C811.2,484,818,487.9,819,485.5z M824.7,513.6l-1.3-23.1c-2.7-0.7-6-1.7-8.5-3.2l2.1,24.4C819.1,513.7,822.5,514.7,824.7,513.6z
	 M866.9,364.5c-11.9,31.9-31.1,81.3-45.3,122c-0.9,2.5,6.9,4,8,1.7C857.5,430.1,871.8,367.7,866.9,364.5z M884.6,446.3
	c4-18.7,9.2-22.6,20.2-17.4l5.2-11C903.6,401.5,879.2,417.3,884.6,446.3z M911.4,414.9l7.7-15.1l-0.5-27.8l-12.8,35.8L911.4,414.9z
	 M888,447.2c4.7-9.5,7.7-6.8,10.6-4.3l5-11.4C900.1,427,887.5,426.6,888,447.2z M887.7,360.3L869,380.9l-4.2,16.4l8.9-1.6
	L887.7,360.3z M861.1,437.1c13.9-15.2,4.2-23.2-1.3-22.1l-3.8,11.9C859.7,427,863.8,426.8,861.1,437.1z M863.9,400.6l-3.4,11.7
	c11.7,3.3,13,9.7,3.7,26.4C887.3,420.4,879.6,392.4,863.9,400.6z M885.1,510.4c16.2-40,34.4-89.7,46.5-121.5
	c-5.8-0.8-36.3,55.5-53.6,117.5C877.2,508.9,884.1,512.8,885.1,510.4z M927.1,462c13.9-15.2,4.2-23.2-1.3-22.1l-3.8,11.9
	C925.8,451.8,929.8,451.7,927.1,462z M930.2,463.5c23.2-18.2,15.4-46.2-0.3-38.1l-3.4,11.7C938.2,440.4,939.5,446.9,930.2,463.5z
	 M953.8,385.2l-18.7,20.6l-4.2,16.4l8.9-1.6L953.8,385.2z M932.9,389.3c-11.9,31.9-31.1,81.3-45.3,122c-0.9,2.5,6.9,4,8,1.7
	C923.5,455,937.8,392.6,932.9,389.3z M890.8,538.5l-1.3-23.1c-2.7-0.7-6-1.7-8.5-3.2l2.1,24.4C885.2,538.6,888.6,539.7,890.8,538.5z
	 M1006.3,540c10.3,5.4,19.5,7.9,21.9,4c-8.1-3.5-15.4-7.3-21.2-12c2.1-1.3,5.5-1.6,8.2-1.3c-6.8-8.8-19.3-5.3-20.6-27
	c-0.2-3.6-0.3-8.5-1-12c-0.7-3.4-3.1-5.3-5.6-4.9c-1.2,0.2-4.3,2.6-8.6,3.7c2.1,2.1,3.8,4.9,4.6,7.4c-6,7.9-8.8,14-7.8,18.8
	c6.1,28.9,22.8,5.5,28,41.2c0.7,0.9,3.5,0.7,3.6-0.2C1008.1,552.1,1007.1,546,1006.3,540z M1070.9,606.4c-8.1-3.5-15.4-7.3-21.3-12
	c2.1-1.3,5.5-1.6,8.2-1.3c-6.9-8.8-19.3-5.3-20.6-26.9c-0.2-3.6-0.2-8.5-1-12c-0.7-3.4-3.1-5.3-5.5-4.9c-1.3,0.2-4.3,2.7-8.6,3.7
	c2.1,2.1,3.8,4.9,4.6,7.4c-6,7.9-8.8,14-7.8,18.8c6.1,28.8,22.8,5.5,28,41.1c0.7,0.9,3.5,0.7,3.5-0.2c0.2-5.6-0.7-11.7-1.5-17.7
	C1059.2,607.8,1068.4,610.3,1070.9,606.4z M1135.3,584.4c-8.1-3.5-15.4-7.3-21.3-12c2.2-1.3,5.5-1.6,8.2-1.3
	c-6.8-8.8-19.3-5.3-20.6-26.9c-0.2-3.6-0.3-8.5-1-12c-0.7-3.4-3.1-5.3-5.6-4.9c-1.3,0.2-4.3,2.6-8.6,3.7c2.1,2.1,3.8,4.9,4.6,7.4
	c-5.9,7.9-8.7,14-7.7,18.8c6.1,28.8,22.8,5.4,28,41.1c0.7,0.9,3.5,0.7,3.5-0.2c0.2-5.6-0.7-11.7-1.5-17.7
	C1123.7,585.8,1132.9,588.3,1135.3,584.4z M1132.7,507.2c3.7-6.7,4.7-11,2.7-11.9c-9.7,5.2-27.7,2.4-54.4-8
	c9.8-26.9,19.6-42.3,29.8-46.2c0.7-2.1-3.2-4.2-10.7-5.8c0.8-10.4-1.8-13.8-1.9-13.6c0.1-0.1-4.2,0.6-10.5,9
	c-6.7-3.8-11-4.7-11.9-2.7c5.2,9.7,2.4,27.7-8,54.3c-26.9-9.8-42.3-19.6-46.2-29.8c-2.1-0.6-4.2,3.2-5.8,10.7
	c-10.4-0.8-13.8,1.9-13.6,1.9c-0.2-0.1,0.7,4.1,9,10.4c-3.8,6.7-4.8,11-2.7,11.9c9.7-5.2,27.7-2.3,54.4,8.1
	c-9.8,26.9-19.6,42.3-29.9,46.2c-0.7,2.1,3.2,4.2,10.7,5.8c-0.8,10.4,1.9,13.8,1.9,13.6c-0.1,0.2,4.2-0.6,10.4-9
	c6.7,3.8,11,4.7,11.9,2.7c-5.2-9.7-2.3-27.7,8.1-54.4c26.9,9.8,42.3,19.6,46.2,29.8c2.1,0.7,4.2-3.2,5.8-10.7
	c10.4,0.8,13.8-1.9,13.6-1.9C1141.9,517.7,1141,513.5,1132.7,507.2z M1019.6,403.5c-6,7.9-8.7,14-7.7,18.8
	c6.1,28.8,22.8,5.5,28,41.1c0.7,0.9,3.5,0.7,3.5-0.2c0.2-5.6-0.7-11.7-1.5-17.7c10.2,5.4,19.5,7.9,21.9,4
	c-8.1-3.5-15.4-7.3-21.3-12.1c2.1-1.3,5.5-1.6,8.2-1.3c-6.9-8.8-19.3-5.3-20.6-26.9c-0.2-3.6-0.3-8.5-1-12.1
	c-0.7-3.4-3.1-5.3-5.5-4.9c-1.3,0.2-4.3,2.7-8.6,3.7C1017.1,398.3,1018.8,401.1,1019.6,403.5z M1170.9,490
	c-8.1-3.5-15.4-7.3-21.3-12.1c2.1-1.3,5.5-1.6,8.2-1.3c-6.9-8.8-19.4-5.3-20.6-26.9c-0.2-3.6-0.3-8.5-1-12c-0.7-3.4-3.1-5.3-5.6-4.9
	c-1.3,0.2-4.3,2.6-8.6,3.7c2.1,2.1,3.8,4.9,4.6,7.4c-6,7.9-8.8,14-7.7,18.8c6.1,28.9,22.8,5.5,28,41.2c0.7,0.9,3.5,0.7,3.5-0.2
	c0.2-5.6-0.7-11.7-1.5-17.7C1159.3,491.4,1168.5,493.9,1170.9,490z M1276.9,332.1c-25.4-29.5-43-65.4-52.8-108
	c-3.4,0.8-6.8,1.5-10.2,1.9l0.1-0.3l0.2-0.5l0,0l-0.5,0.1c-0.5,0.1-1,0.1-1.5,0.2c0.5-0.1,1-0.1,1.5-0.2l0.5-0.1l-0.2,0.5l-0.1,0.3
	l-38.2,101.3l-40.8-15.4l33.1-88l-2.5-1l-33.1,88l-41.2-15.5l36.1-95.5c-17.4-11.5-35.5-26.7-54.4-45.6l-1.2-1.2
	c-0.1-0.1-0.3-0.3-0.4-0.4l-0.1,0.2l-3.5-0.2h0L989.3,367l-95-34.6l67.4-185.1l-2.6-0.9l-67.3,185.1l-113.6-41.4l-1.9,5.1
	l211.1,76.9l-99.5,272.2l5.1,1.9l99.5-272.2l212.1,77.3l1.9-5.1C1219.2,402.3,1246,365.8,1276.9,332.1z M336.3,269.7
	c22.1-8.1,39.3-16.8,38.4-19.4c-1-2.6-19.7,1.9-41.8,10c-22.1,8.1-39,16.7-38.1,19.3C295.8,282.2,314.2,277.8,336.3,269.7z
	 M312.5,396.9l1.9,2.5c-0.4,0.3-0.9,1.1-1.4,2.5c-0.6,1.6-1.2,4-1.7,7.4l-0.2,1.3l-1.3,0c-1.6-0.1-3.1-0.1-4.5-0.1
	c-1.7-0.1-3.4-0.1-5-0.1c-2,1.4-4,2.8-6,4.1c-1.7,1.1-3.4,2.3-5.1,3.5c1.4,1.8,2.6,3.5,3.8,5.2l5.6-7.2l12.6,1.4l-6.1,12.2l-8.3-0.4
	c4.7,8.2,6.8,15.3,6.2,21.2c-0.2,1.8-0.6,3.5-1.2,5.1c-0.6,1.6-1.5,3.1-2.6,4.5h0l-0.1,0.2h0.3l14.2-0.1l3.7-8.7l0.4-0.9l0.9-0.1
	l4-0.3l-2.3-10.3l-0.4-1.6l1.7-0.2l3.8-0.5l-5-8.7l2.7-1.5L329,438l1.1,2l-2.3,0.3l-4.4,0.6l2.3,10.4l0.4,1.7l-1.8,0.1l-4.9,0.4
	l-3.7,8.7l-0.4,0.9l-1,0l-7.4,0.1c2.4,1.6,4.6,4.3,5.8,7.7c2.3,6.5,0.5,13.2-4.2,14.9c-4.7,1.7-10.4-2.3-12.7-8.8
	c-1.1-2.9-1.3-5.9-0.7-8.4l-4.4,4.8l-0.7,0.8l-1-0.4l-8.3-3.4l-4,3.8l-1.4,1.3l-1-1.6l-6.1-10l-3.1,5.7l-1.6,3.1l-1.2-3.3L258,457
	l2.9-1l3.3,9.3l2.7-5l1.3-2.4l1.4,2.3l6.4,10.6l3.3-3.2l0.7-0.7l1,0.4l8.2,3.4l8.8-9.8l0,0l-0.5-0.1c-0.2,0-0.8-0.1-1.4-0.2
	c-7.4-1.3-14.7-2.5-19.7-22l-5.2,6.2l-13.2-3.7l7.4-10.3l9.4,0.7c-0.4-1.9-0.7-3.8-1-6c-4.2,0.2-5.1,0.3-5.1,0.3c-0.1,0-0.1,0-0.1,0
	c-2.8,0.1-5.6,0.3-8.9,0.4c-1.6,1.8-2.9,3.5-3.7,5.1c-0.8,1.7-1.3,3.4-1.3,5l0.1,3.7l-2.7-2.6c-3.9-3.8-7.7-5.2-12-6.9
	c-0.7-0.3-1.4-0.5-1.7-0.7l1.1-2.9c0.8,0.3,1.3,0.5,1.7,0.7c3.9,1.5,7.3,2.8,10.8,5.6c0.3-1.1,0.7-2.2,1.2-3.2
	c1-2.1,2.6-4.2,4.6-6.4l0.4-0.4l0.6,0c0,0,0.1,0,0.1,0c2.8-0.1,6.1-0.3,9.4-0.5c1.9-0.1,0,0,6.6-0.3l1.4-0.1l0.2,1.4
	c2.2,15.1,5,23.2,8.4,27.7c0.2-0.2,0.5-0.4,0.8-0.6v0c0.7-0.6,1.5-1.1,2.2-1.6c3.5-2.3,7.3-3.8,11.3-4.5
	c-1.3-7.1-5.9-15.7-13.9-25.8l-1-1.3l1.4-0.9c2.2-1.5,4.3-2.9,6.4-4.4c2.2-1.5,4.3-2.9,6.4-4.4l0.4-0.3l0.5,0c2,0,3.7,0.1,5.5,0.1
	c1.1,0,2.2,0,3.2,0.1c0.5-2.9,1.1-5.1,1.7-6.7C310.8,398.7,311.6,397.6,312.5,396.9z M270.5,436.1c-1-2.8-2.9-4.7-4.2-4.2
	c-1.3,0.5-1.6,3.1-0.6,5.9c1,2.8,2.9,4.7,4.2,4.2C271.3,441.5,271.5,438.9,270.5,436.1z M299.9,447.5c-3.6,0.7-6.9,2-10,4
	c-0.7,0.4-1.4,0.9-2,1.4c-0.2,0.2-0.4,0.3-0.6,0.5c3,2.8,6.2,3.3,9.5,3.9c0.2,0.1,0.3,0.1,0.5,0.1c0.7-1,1.2-1.9,1.6-3
	c0.5-1.3,0.8-2.8,1-4.2C299.9,449.3,299.9,448.4,299.9,447.5z M299.1,423.3c1.4,2.6,3.5,4.2,4.8,3.6c1.2-0.7,1.1-3.3-0.3-5.9
	c-1.4-2.6-3.5-4.2-4.8-3.6C297.6,418,297.7,420.7,299.1,423.3z M222.8,337c-22.1,8.1-39,16.7-38.1,19.3c0.9,2.6,19.4-1.8,41.5-9.8
	c22.1-8.1,39.4-16.8,38.4-19.4C263.7,324.5,244.9,328.9,222.8,337z M1076.7,375.6l0.2,0l0-0.2l0-0.3l0.3,0.3l0.3,0.3l0-0.4l-0.1-0.9
	l0.5,0.4l0.2-0.3l-0.9-0.7l-0.3-0.3l0,0.4l0.1,0.8l-0.3-0.2l-0.3-0.2l0,0.4l0,0.5l-1-0.1l0.1-0.5l0.3-0.1l0.2,0v-0.2l0-0.6l0.5,0.1
	l0.4,0.1l-0.1-0.4l-0.4-0.9l-0.4,0.1l0.2,0.6l-0.3-0.1l-0.3-0.1v0.3l0,0.7l-0.3,0.1l-0.1,0l0,0.1l-0.2,0.8l-0.1,0.2l0.2,0
	L1076.7,375.6z M1134,314.5l40.8,15.4l-34.3,90.9l-0.3-0.1l-40.7-14.5L1134,314.5z M1138.7,383.7c-1.4-1.5-4.7-0.3-7.1,3.2
	c-0.5,0.7-1.6,2.2-1.9,3.3c-0.2-0.1-0.2-0.3-0.4-0.4c1.6-3.2,4.1-5.7,6-8.8c1.9-3.1,1.3-6.5,0.6-9.9c-2.8,2.1-5.4,4.3-6.1,7.8
	c-0.6,3.6-0.4,7.1-1.3,10.6c-0.2-0.1-0.4,0.1-0.6,0c0.5-1.1,0.7-3,0.7-3.8c0.5-4.2-1.2-7.3-3.3-7.1c-2.1,0.2-3.8,3.7-3.8,5.7
	c0,2.1,1.1,2.9,1.3,3.8c0.1,0.4-0.3,0.9-0.5,1.4c0.9,0,1.8-0.4,1.9-1.9c0.1-1-0.1-2.2,0.9-2.3c1.5-0.2,1.6,2.4,1.2,3.8
	c-0.6,0.1-1-0.1-1.4,0.1c-0.8,0.6-0.8,1.4-0.8,2c0.3,0.1,0.7-0.1,1.2,0.2c-0.7,0.9-1.4,2.2-2.5,2.2c-0.7,0-0.9-1.1,0.3-1.7
	c0-0.3-0.4-0.9-1.2-0.9c-0.3,0-1.2,0.4-1.6,2.2c-0.2,1.1,0.9,2.7,1.9,2.6c1.2-0.1,2.8-1.6,4.3-4.1c0.3,0.1,0.4,0.4,0.6,0.6
	c-1.3,1.6-2.8,3.1-4.1,4.6c0.5,0.5,1,1.3,1.2,2.1c0.1,0.5,0.2,1.3,0,2.2l0,0v0l0,0c0.5-0.8,1-1.3,1.5-1.6c0.7-0.5,1.5-0.8,2.3-0.8
	c0-2-0.1-4.1,0-6.2c0.3,0,0.6-0.2,0.8-0.1c-0.5,2.9-0.2,5.1,0.6,5.9c0.7,0.8,2.6,0.3,3.1-0.7c0.9-1.6,0.5-2.5,0.3-2.7
	c-0.5-0.5-1.2-0.3-1.4-0.1c0.5,1.2-0.4,2-0.9,1.5c-0.8-0.7-0.5-2.1-0.4-3.3c0.6,0.2,0.8,0.5,1.1,0.7c0.4-0.4,0.9-1,0.8-2
	c-0.1-0.4-0.6-0.5-1-1c0.6-1.3,2.4-3.1,3.4-2c0.7,0.8-0.3,1.6-0.9,2.3c-0.9,1.2-0.5,2.1,0.1,2.7c0.2-0.5,0.2-1.1,0.6-1.4
	c0.7-0.5,2.1-0.4,3.5-2C1139.1,389,1140.1,385.3,1138.7,383.7z M1145,366.7c1.2-0.1,2.8-1.6,4.3-4.1c0.3,0.1,0.4,0.4,0.6,0.6
	c-1.3,1.6-2.8,3.1-4.1,4.6c0.5,0.5,1,1.3,1.2,2.1c0.1,0.5,0.2,1.3,0,2.2l0,0v0l0,0c0.5-0.8,1-1.3,1.5-1.6c0.7-0.5,1.5-0.8,2.3-0.8
	c0-2-0.1-4.1,0-6.2c0.3,0,0.6-0.2,0.8-0.1c-0.5,2.9-0.2,5.1,0.6,5.9c0.7,0.8,2.6,0.3,3.1-0.7c0.9-1.6,0.5-2.5,0.3-2.7
	c-0.5-0.5-1.2-0.3-1.4-0.1c0.5,1.2-0.4,2-0.9,1.5c-0.8-0.7-0.5-2.1-0.4-3.3c0.6,0.2,0.8,0.5,1.1,0.7c0.4-0.4,0.9-1,0.8-2
	c-0.1-0.4-0.6-0.5-1-1c0.6-1.3,2.4-3.1,3.4-2c0.7,0.8-0.3,1.6-0.9,2.3c-0.9,1.2-0.5,2.1,0.1,2.7c0.2-0.5,0.2-1.1,0.6-1.4
	c0.7-0.5,2.1-0.4,3.5-2c1.4-1.5,2.4-5.3,1-6.8c-1.4-1.5-4.7-0.3-7.1,3.2c-0.5,0.7-1.6,2.2-1.9,3.3c-0.2-0.1-0.2-0.3-0.4-0.4
	c1.6-3.2,4.1-5.7,6-8.8c1.9-3.1,1.3-6.5,0.6-9.9v0c-2.8,2.1-5.4,4.3-6.1,7.8c-0.6,3.6-0.4,7.1-1.3,10.6c-0.2-0.1-0.4,0.1-0.6,0
	c0.5-1.1,0.7-3,0.7-3.8c0.5-4.2-1.2-7.3-3.3-7.1c-2.1,0.2-3.8,3.7-3.8,5.7c0,2.1,1.1,2.9,1.3,3.8c0.1,0.4-0.3,0.9-0.5,1.4
	c0.9,0,1.8-0.4,1.9-1.9c0.1-1-0.1-2.2,0.9-2.3c1.5-0.2,1.6,2.4,1.2,3.8c-0.6,0.1-1-0.1-1.4,0.1c-0.8,0.6-0.8,1.4-0.8,2
	c0.3,0.1,0.7-0.1,1.2,0.2c-0.7,0.9-1.4,2.2-2.5,2.2c-0.7,0-0.9-1.1,0.3-1.7c0-0.3-0.4-0.9-1.2-0.9c-0.3,0-1.2,0.4-1.6,2.2
	C1142.9,365.2,1144,366.8,1145,366.7z M1138.1,334.3c-2.8,2.1-5.4,4.3-6.1,7.8c-0.6,3.6-0.4,7.1-1.3,10.6c-0.2-0.1-0.4,0.1-0.6,0
	c0.5-1.1,0.7-3,0.8-3.8c0.5-4.2-1.2-7.3-3.3-7.1c-2.1,0.2-3.8,3.7-3.7,5.7c0,2.1,1.1,2.9,1.3,3.8c0.1,0.4-0.3,0.9-0.5,1.4
	c0.9,0,1.8-0.4,1.9-1.9c0-1-0.1-2.2,0.9-2.3c1.5-0.2,1.6,2.4,1.2,3.8c-0.6,0.1-1-0.1-1.4,0.1c-0.8,0.6-0.8,1.4-0.8,2
	c0.3,0.1,0.7-0.1,1.2,0.2c-0.7,0.9-1.4,2.2-2.5,2.2c-0.7,0-0.9-1.1,0.3-1.7c0-0.3-0.4-0.9-1.2-0.9c-0.3,0-1.2,0.4-1.6,2.2
	c-0.2,1.1,0.8,2.7,1.9,2.6c1.2-0.1,2.8-1.6,4.3-4.1c0.3,0.1,0.3,0.4,0.6,0.6c-1.3,1.6-2.8,3.1-4.1,4.6c0.5,0.5,1,1.3,1.2,2.1
	c0.1,0.5,0.2,1.3,0,2.2l0,0v0l0,0c0.5-0.8,1-1.3,1.5-1.6c0.7-0.5,1.5-0.8,2.3-0.8c0-2-0.1-4.1,0-6.2c0.3,0,0.6-0.2,0.8-0.1
	c-0.5,2.9-0.2,5.1,0.6,5.9c0.7,0.8,2.6,0.3,3.1-0.7c0.9-1.6,0.5-2.5,0.3-2.7c-0.5-0.5-1.3-0.3-1.4-0.1c0.5,1.2-0.4,2-0.9,1.5
	c-0.8-0.7-0.5-2.1-0.4-3.3c0.6,0.2,0.8,0.5,1.1,0.7c0.4-0.4,0.9-1,0.8-2c-0.1-0.4-0.6-0.5-1-1c0.6-1.3,2.4-3.1,3.4-2
	c0.7,0.8-0.3,1.6-0.9,2.3c-0.9,1.2-0.5,2.1,0.1,2.7c0.2-0.5,0.2-1.1,0.6-1.4c0.7-0.5,2.1-0.4,3.5-2c1.4-1.5,2.4-5.2,1-6.8
	c-1.5-1.5-4.7-0.3-7.1,3.2c-0.5,0.7-1.6,2.2-1.9,3.3c-0.2-0.1-0.2-0.3-0.4-0.4c1.6-3.2,4.1-5.7,6-8.8
	C1139.4,341.1,1138.9,337.7,1138.1,334.3L1138.1,334.3z M1177.8,240.1l0.7,1l0.3-0.2l-0.2-0.3l0.4,0.2l0.2-0.3l-1.1-0.5l-0.7-0.4
	L1177.8,240.1z M1176.6,239l0.6,0.2l0.5,0.2l-0.3-0.5l-0.5-0.8l-0.3,0.2l0.2,0.3l-0.1,0L1176.6,239z M1078.4,373.2l0.7,1l0.3-0.2
	l-0.2-0.3l0.4,0.2l0.2-0.3l-1.1-0.5l-0.7-0.4L1078.4,373.2z M1131.4,313.6l-34.5,91.7l-41.7-14.9l0.1-0.3l34.8-92.1L1131.4,313.6z
	 M1098.3,313.9c-1.3,0-2.3,0.5-2.6,1.4c0.3,0.3,0.6,0.6,0.9,0.9c-1.3,0.2-2.2,1.6-2.3,2c0.8,0,1.5-0.1,2.3,0
	c-0.2,0.7-0.6,1.8-0.8,2.5c0.8-0.4,1-0.5,1.8-0.5c0.5,0.7,0.7,1.2,1,2.1c0.5-0.8,1.1-1.4,1.6-2.2c0.7,0.3,0.9,0.4,1.6,0.7
	c-0.1-0.9,0.3-1.8,0.2-2.7c0.4-0.1,0.7,0.2,1.1-0.1c-0.2-0.5-0.3-0.7-0.5-1.2c0.3,0,0.8-0.3,1.1-0.3c-0.2-0.4-0.5-0.6-0.7-1
	c0.4-0.1,0.8-0.3,1.2-0.5c-0.1-0.5-0.5-1.1-1.4-1.4c1.3-0.7,1.2-0.6-0.3-0.7c0-0.5,0.1-0.8-0.1-1.2c-0.7,0-1.5-0.1-1.8,0.1
	c-0.2-0.8,0-0.7-0.7-1.1c-0.4,0.4-0.7,0.8-0.5,1.7C1098,311.8,1098,313.3,1098.3,313.9z M1090.4,312.5c0.9-0.1,1.7-0.1,2.5,0.1
	c-0.4,0.8-1.3,2-1.8,2.5c0.7,0,1.4-0.1,1.7,0.4c-0.7,0.5-1.2,1.6-1,2.3c1.1,0.6,0.7,0.6,1.1,1.9c0.2,0.6,2,0.5,2.7,0.5
	c0.1-0.5,0.5-1.3,0.6-1.8c-0.7-0.2-1.6,0-2.3-0.1c0.2-0.6,0.6-1.1,1-1.5c-0.1-0.5-0.5-0.7-0.6-1.2c0-0.9-0.1-1.9,0.1-2.7
	c0.3-0.8,1.3-1.3,1.5-2.1c0.2-0.7-0.8-1.5-1.2-2.2c0.1,0.6,0.2,1.1,0.2,1.7c-0.3,0.2-0.6,0.6-0.9,0.9c-0.1-0.4-0.1-0.9-0.4-1.2
	c-0.8-0.8-1.5-0.6-2.1-0.6c0.3,0.4,0.8,0.6,1.1,1.1c0.6,0.8,0.7,1,0.6,1.4c-0.5,0-1.2-0.2-1.7-0.2
	C1090.9,311.5,1090.6,311.9,1090.4,312.5z M1088.5,321c-0.7,0.2-0.9,0.6-2,0.4c0.3,1.3,1.6,1.7,3.1,0.6c0.8,0.7,1.3,1.5,1.7,2.4
	c0.4-0.3,0.9-0.4,1.3-0.6c0.6,1,0.4,1.7,2.2,1.8c0-0.4,0-0.9,0-1.2c1.7,1.2,1.8,1.6,3.2,2c0-0.3,0.2-0.8,0.7-1
	c-0.4-0.2-0.8-0.2-1.2-0.6c0.4-0.6,0.9-0.9,1.4-1c-0.3-1.2-0.5-2.4-1.3-3.4c-1.1,0-1.6,0.6-2.2,1.3c-6-0.6-3.5-3.2-6.2-4.1
	c0.5,0.7,0.8,1.4,0.9,2.1c-1.7-0.9-2.4-0.9-3.2-0.2C1087.5,320,1088.1,320.2,1088.5,321z M1084.7,344.3c0.3,0.3,0.6,0.6,0.9,0.9
	c-1.3,0.2-2.2,1.6-2.3,2c0.8,0,1.5-0.1,2.3,0c-0.2,0.7-0.6,1.8-0.8,2.5c0.8-0.4,1-0.5,1.8-0.5c0.5,0.7,0.7,1.2,1,2.1
	c0.5-0.8,1.1-1.4,1.6-2.2c0.7,0.3,0.9,0.4,1.6,0.7c-0.1-0.9,0.3-1.8,0.2-2.7c0.4-0.1,0.7,0.2,1.1-0.1c-0.2-0.5-0.3-0.7-0.5-1.2
	c0.3,0,0.8-0.3,1.1-0.3c-0.2-0.4-0.5-0.6-0.7-1c0.4-0.1,0.8-0.3,1.2-0.5c-0.1-0.5-0.5-1.1-1.4-1.4c1.3-0.7,1.2-0.6-0.3-0.7
	c0-0.5,0.1-0.8-0.1-1.2c-0.7,0-1.5-0.1-1.8,0.1c-0.2-0.8,0-0.7-0.7-1.1c-0.4,0.4-0.7,0.8-0.5,1.7c-1.4-0.3-1.3,1.2-1.1,1.7
	C1086,343,1085,343.4,1084.7,344.3z M1079.4,341.6c0.9-0.1,1.7-0.1,2.5,0.1c-0.4,0.8-1.3,2-1.8,2.5c0.7,0,1.4-0.1,1.7,0.4
	c-0.7,0.5-1.2,1.6-1,2.3c1.1,0.6,0.7,0.6,1.1,1.9c0.2,0.6,2,0.5,2.7,0.5c0.1-0.5,0.5-1.3,0.6-1.8c-0.7-0.2-1.6,0-2.3-0.1
	c0.2-0.6,0.6-1.1,1-1.5c-0.1-0.5-0.5-0.7-0.6-1.2c0-0.9-0.1-1.9,0.1-2.7c0.3-0.8,1.3-1.3,1.5-2.1c0.2-0.7-0.8-1.5-1.2-2.2
	c0.1,0.6,0.2,1.1,0.2,1.7c-0.3,0.2-0.6,0.6-0.9,0.9c-0.1-0.4-0.1-0.9-0.4-1.2c-0.8-0.8-1.5-0.6-2.1-0.6c0.3,0.4,0.8,0.6,1.1,1.1
	c0.6,0.8,0.7,1,0.6,1.4c-0.5,0-1.2-0.2-1.7-0.2C1080,340.6,1079.7,341.1,1079.4,341.6z M1077.5,350.1c-0.7,0.2-0.9,0.6-2,0.4
	c0.3,1.3,1.6,1.7,3.1,0.6c0.8,0.7,1.3,1.5,1.7,2.4c0.4-0.3,0.9-0.4,1.3-0.6c0.6,1,0.4,1.7,2.2,1.8c0-0.4,0-0.9,0-1.2
	c1.7,1.2,1.8,1.6,3.2,2c0-0.3,0.2-0.8,0.7-1c-0.4-0.2-0.8-0.3-1.2-0.6c0.4-0.6,0.8-0.9,1.4-1c-0.3-1.2-0.5-2.4-1.3-3.4
	c-1.1,0-1.6,0.6-2.2,1.3c-6-0.6-3.5-3.2-6.2-4.1c0.5,0.7,0.8,1.4,0.9,2.1c-1.7-0.9-2.4-0.9-3.2-0.2
	C1076.5,349.1,1077.1,349.3,1077.5,350.1z M1073.8,373.5c0.3,0.3,0.6,0.6,0.9,0.9c-1.3,0.2-2.2,1.6-2.3,2.1c0.8,0,1.5-0.1,2.3,0
	c-0.2,0.7-0.6,1.8-0.8,2.5c0.8-0.4,1-0.5,1.8-0.5c0.5,0.7,0.7,1.2,1,2.1c0.5-0.8,1.1-1.4,1.6-2.2c0.7,0.3,0.9,0.4,1.6,0.7
	c-0.1-0.9,0.3-1.8,0.2-2.7c0.4-0.1,0.7,0.2,1.1-0.1c-0.2-0.5-0.3-0.7-0.5-1.2c0.3,0,0.8-0.3,1.1-0.3c-0.2-0.4-0.5-0.6-0.7-1
	c0.4-0.1,0.8-0.3,1.2-0.5c-0.1-0.5-0.5-1.1-1.4-1.4c1.3-0.7,1.2-0.6-0.3-0.7c0-0.5,0.1-0.8-0.1-1.2c-0.7,0-1.5-0.1-1.8,0.1
	c-0.2-0.8,0-0.7-0.7-1.1c-0.4,0.4-0.7,0.8-0.5,1.7c-1.4-0.3-1.3,1.2-1.1,1.7C1075.1,372.1,1074.1,372.5,1073.8,373.5z M1068.5,370.7
	c0.9-0.1,1.7-0.1,2.5,0.1c-0.4,0.8-1.3,2-1.8,2.5c0.7,0,1.4-0.1,1.7,0.4c-0.7,0.5-1.2,1.6-1,2.3c1.1,0.6,0.7,0.6,1.1,1.9
	c0.2,0.6,2,0.5,2.7,0.5c0.1-0.5,0.5-1.3,0.6-1.8c-0.7-0.2-1.6,0-2.3-0.1c0.2-0.6,0.6-1.2,1-1.5c-0.1-0.5-0.5-0.7-0.6-1.2
	c0-0.9-0.1-1.9,0.1-2.7c0.3-0.8,1.3-1.3,1.5-2.1c0.1-0.7-0.8-1.5-1.2-2.2c0.1,0.6,0.2,1.1,0.2,1.7c-0.3,0.2-0.6,0.6-0.9,0.9
	c-0.1-0.4-0.1-0.9-0.4-1.2c-0.8-0.8-1.5-0.6-2.1-0.6c0.3,0.4,0.8,0.6,1.1,1.1c0.6,0.8,0.7,1,0.6,1.4c-0.5,0-1.2-0.2-1.7-0.2
	C1069,369.7,1068.7,370.2,1068.5,370.7z M1075.4,383.1c0.4-0.6,0.8-0.9,1.4-1c-0.3-1.2-0.5-2.4-1.3-3.4c-1.1,0-1.6,0.6-2.2,1.3
	c-6-0.6-3.4-3.2-6.2-4.1c0.5,0.7,0.8,1.4,1,2.1c-1.7-0.9-2.4-0.9-3.2-0.1c0.9,0.4,1.4,0.6,1.8,1.4c-0.7,0.2-0.9,0.6-2,0.4
	c0.3,1.3,1.6,1.7,3.1,0.6c0.8,0.7,1.3,1.5,1.7,2.4c0.4-0.3,0.9-0.4,1.3-0.6c0.6,1,0.4,1.7,2.2,1.8c0-0.4,0-0.9,0-1.2
	c1.7,1.2,1.8,1.6,3.2,2c0-0.3,0.2-0.8,0.7-0.9C1076.2,383.5,1075.8,383.4,1075.4,383.1z M1089.9,387.4c-1.8-1.2-3.2-4.7-3-5.4
	c-3.5,0.5,0.2,3.8-1,3.9c-4-0.3-2.5-2.2-5.2-3c0.4,0.5,0.6,1,0.7,1.5c-1.4-0.9-2-0.5-2.6,0.1c0.7,0.2,1.3,0.1,1.5,0.8
	c-0.2,0.4-0.3,0.5-1.1,0.9c1.2,0.5,2.2,0.3,2.9,0c1.2,1.1,3,0.9,3.1,1.8c1.1-0.9,1.6-0.8,1.9-0.5c-0.5,0.5-1,0.6-1.1,1.5
	c0.6,0.2,1.5,0.1,1.8-0.4c0.3-0.4,2-0.6,0.7,1.1C1088.1,390.3,1091.8,388.7,1089.9,387.4z M1097,376.8c0.8,0.2,1,0.9,0.7,1.2
	c-0.5,0.7-2.2,0.6-3.4,0c0.3-0.4,0.6-0.2,1.3-1.3c-1.2-0.2-2.1,0.1-3.7-0.7c0.4-0.4,1.2-0.9,1.5-1.3c-2.4-0.3-5.6-1.4-7.4-1.7
	c-1.8-0.3-3.9,1.7-4.2,2.9c-0.8,3.2,14.7,5.9,14.9,7.6c0.1,0.6-2.3,0.1-3.3-0.3c-4.5-1.5-11.9-4.5-13.2-5.1c0,0.3,0,0.9-0.1,1.3
	c-0.6-0.2-1.1-0.6-1.7-0.7c-0.5,0.7-1.1,1.4-1.6,2.1c0.1,0.4,0.3,1.1,0.3,1.5c1,0,2.3,0.1,3.3,0.3c2.5,0.5,4.5-1.3,6.8-0.8
	c0.3,1.5,0.5,3.1,2.2,4.9c2.8,0.6,7,1.2,6.5,2.6c-0.2,0.6-1.3,0.4-1.9,0.6c-1.1,0.5-1.2,1.1-1.4,1.9c1.1-0.7,2-1.1,2.8-1.1
	c-0.3,0.9-0.7,1.5-1.4,2.3c0.7,0.3,1.6-0.4,2.7-1.1c0,0.7-0.3,1.4-0.8,2c0.9-0.1,1.8-0.8,2.3-1.6c-0.2-0.7-0.7-1.3-0.9-2
	c0.2,0,0.8,0.1,1,0.1c-0.2-0.7-1.1-1.5-0.9-2.2c0.1-0.4,0.8-0.5,1.2-0.7c-2.7-1.3-5.8-1.5-6.4-2.3c-0.3-0.3-0.3-1.1-0.3-1.5
	c1.4,0.2,2.8,0.8,4.2,1c1,0.1,1.7,0.3,2.3-1c1.1-2.5-15.3-4.8-15.4-7.6c0-1.2,1.1-2.1,2.9-2.1c2.5,0,4.2,1.4,4.6,3
	c-0.7,0.4-0.9,1-0.8,1.7c0.7-0.2,1-0.9,1.7-0.8c1.5,0.3,2.7,1.7,4.2,1.7c1.2,0,2.5-0.5,3.1-1.3
	C1099.3,377.5,1097.9,376.3,1097,376.8z M1100.8,358.3c-1.8-1.2-3.2-4.7-3-5.4c-3.5,0.5,0.2,3.8-1,3.9c-4-0.3-2.5-2.2-5.2-3
	c0.4,0.5,0.6,1,0.7,1.5c-1.4-0.9-2-0.5-2.6,0.1c0.7,0.2,1.3,0.1,1.5,0.8c-0.2,0.4-0.3,0.5-1.1,0.9c1.2,0.5,2.2,0.3,2.9,0
	c1.2,1.1,3,0.9,3.1,1.8c1.1-0.9,1.6-0.8,1.9-0.5c-0.5,0.5-1,0.6-1.1,1.5c0.6,0.2,1.5,0.1,1.8-0.4c0.3-0.4,2-0.6,0.7,1.1
	C1099,361.2,1102.7,359.6,1100.8,358.3z M1108,347.7c0.8,0.2,1,0.9,0.7,1.2c-0.5,0.7-2.2,0.6-3.4,0c0.3-0.4,0.6-0.2,1.3-1.3
	c-1.2-0.2-2.1,0.1-3.7-0.7c0.3-0.4,1.2-0.9,1.5-1.3c-2.4-0.3-5.6-1.4-7.4-1.7c-1.8-0.3-3.9,1.7-4.2,2.9c-0.8,3.2,14.7,6,14.9,7.6
	c0.1,0.6-2.3,0.1-3.3-0.3c-4.5-1.5-11.9-4.5-13.2-5.1c0,0.3,0,0.9-0.2,1.3c-0.6-0.2-1.1-0.6-1.7-0.7c-0.5,0.7-1.1,1.4-1.6,2.1
	c0.1,0.4,0.3,1.1,0.3,1.5c1,0,2.3,0.1,3.3,0.3c2.5,0.5,4.6-1.3,6.8-0.8c0.3,1.5,0.5,3.1,2.2,4.9c2.8,0.6,7,1.2,6.5,2.6
	c-0.2,0.6-1.3,0.4-1.9,0.6c-1.1,0.5-1.2,1.1-1.4,1.9c1.1-0.7,2-1.1,2.8-1.1c-0.3,0.9-0.7,1.5-1.4,2.3c0.7,0.3,1.6-0.4,2.7-1.1
	c0,0.7-0.3,1.3-0.8,2c0.9-0.1,1.8-0.8,2.3-1.6c-0.2-0.7-0.7-1.3-0.9-2c0.2,0,0.8,0.1,1,0.1c-0.2-0.7-1.1-1.5-0.9-2.2
	c0.1-0.4,0.8-0.5,1.2-0.7c-2.7-1.3-5.8-1.5-6.4-2.3c-0.3-0.3-0.3-1.1-0.3-1.5c1.4,0.2,2.8,0.8,4.2,1c1,0.1,1.7,0.3,2.3-1
	c1.1-2.5-15.3-4.8-15.4-7.6c0-1.2,1.1-2.1,2.9-2.1c2.5,0,4.2,1.4,4.6,3c-0.7,0.4-0.9,0.9-0.8,1.7c0.7-0.2,1-0.9,1.7-0.8
	c1.5,0.3,2.7,1.7,4.2,1.7c1.2,0,2.5-0.5,3.1-1.3C1110.2,348.4,1108.9,347.2,1108,347.7z M1111.8,329.2c-1.8-1.2-3.2-4.7-3-5.4
	c-3.5,0.5,0.2,3.8-1,3.9c-4-0.3-2.5-2.2-5.2-3c0.4,0.5,0.6,1,0.7,1.5c-1.4-0.9-2-0.6-2.6,0.1c0.7,0.2,1.3,0.1,1.5,0.8
	c-0.2,0.4-0.3,0.5-1.1,0.9c1.2,0.5,2.2,0.3,2.9,0c1.2,1.1,3,0.9,3.2,1.8c1.1-0.9,1.6-0.8,1.9-0.5c-0.5,0.5-1,0.6-1.1,1.5
	c0.6,0.2,1.5,0.1,1.8-0.4c0.3-0.4,2-0.6,0.7,1.1C1110,332.1,1113.7,330.5,1111.8,329.2z M1112.3,318.8c-0.7,0.4-0.9,1-0.8,1.7
	c0.7-0.2,1-0.9,1.7-0.8c1.5,0.3,2.7,1.7,4.2,1.7c1.2,0,2.5-0.5,3.1-1.3c0.6-0.7-0.8-2-1.7-1.5c0.8,0.2,1,0.9,0.7,1.2
	c-0.5,0.7-2.2,0.6-3.4,0c0.3-0.4,0.6-0.2,1.3-1.3c-1.2-0.2-2.1,0.1-3.7-0.7c0.4-0.4,1.2-0.9,1.5-1.3c-2.4-0.3-5.6-1.4-7.4-1.7
	c-1.8-0.3-3.9,1.7-4.2,2.9c-0.8,3.2,14.7,6,14.9,7.6c0.1,0.6-2.3,0.1-3.3-0.3c-4.5-1.5-11.9-4.5-13.2-5.1c0,0.3,0,0.9-0.1,1.3
	c-0.6-0.2-1.1-0.5-1.7-0.7c-0.5,0.7-1.1,1.4-1.6,2.1c0.1,0.4,0.3,1.1,0.3,1.5c1,0,2.3,0.1,3.3,0.3c2.5,0.5,4.6-1.3,6.8-0.8
	c0.3,1.5,0.5,3.1,2.2,4.9c2.8,0.6,7,1.2,6.5,2.6c-0.2,0.6-1.3,0.4-1.9,0.6c-1.1,0.5-1.2,1.1-1.4,1.9c1.1-0.7,2-1.1,2.8-1.1
	c-0.3,0.9-0.7,1.5-1.4,2.3c0.7,0.3,1.6-0.4,2.7-1.1c0,0.7-0.3,1.4-0.8,2c0.9-0.1,1.8-0.8,2.3-1.6c-0.2-0.7-0.7-1.3-0.9-2
	c0.2,0,0.8,0.1,1,0.2c-0.2-0.7-1.1-1.5-0.9-2.2c0.1-0.4,0.8-0.5,1.2-0.7c-2.7-1.3-5.8-1.5-6.4-2.3c-0.3-0.3-0.3-1.1-0.3-1.5
	c1.4,0.3,2.8,0.8,4.2,1c1,0.1,1.7,0.3,2.3-1c1.1-2.5-15.3-4.8-15.4-7.6c0-1.2,1.1-2.1,2.9-2.1
	C1110.3,315.8,1111.9,317.2,1112.3,318.8z M1077.2,372.1l0.6,0.2l0.5,0.2l-0.3-0.5l-0.5-0.8l-0.3,0.2l0.2,0.3l-0.1,0L1077.2,372.1z
	 M1165.2,271.7l0.2,0l0-0.2l0-0.3l0.3,0.3l0.3,0.3l0-0.4l-0.1-0.9l0.5,0.4l0.2-0.3l-0.9-0.7l-0.3-0.3l0,0.4l0.1,0.8l-0.3-0.2
	l-0.3-0.2l0,0.4l0,0.4l-1-0.1l0.1-0.5l0.3-0.1l0.2,0v-0.2l0-0.6l0.5,0.1l0.4,0.1l-0.1-0.4l-0.4-0.9l-0.4,0.1l0.2,0.6l-0.3-0.1
	l-0.3-0.1l0,0.3v0.7l-0.3,0l-0.1,0l0,0.1l-0.2,0.9l-0.1,0.2l0.2,0L1165.2,271.7z M1154.7,297.2l0.6,0.2l0.5,0.2l-0.3-0.5l-0.5-0.8
	l-0.3,0.2l0.2,0.3l-0.1,0L1154.7,297.2z M1176.1,242.6l0.2,0l0-0.2l0-0.3l0.3,0.3l0.3,0.3l0-0.4l-0.1-0.9l0.5,0.4l0.2-0.3l-0.9-0.6
	l-0.3-0.2l0,0.4l0.1,0.8l-0.3-0.2l-0.3-0.2l0,0.4l0,0.4l-1-0.1l0.1-0.5l0.3-0.1l0.2,0v-0.2v-0.6l0.5,0.1l0.4,0.1l-0.1-0.4l-0.4-0.9
	l-0.4,0.1l0.2,0.6l-0.3-0.1l-0.3-0.1l0,0.3v0.7l-0.3,0.1l-0.1,0l0,0.1l-0.2,0.8l-0.1,0.2l0.2,0L1176.1,242.6z M1155.9,298.3l0.7,1
	l0.3-0.2l-0.2-0.3l0.4,0.2l0.2-0.3l-1.1-0.5l-0.7-0.4L1155.9,298.3z M1154.2,300.8l0.2,0l0-0.2l0-0.3l0.3,0.3l0.3,0.3l0-0.4
	l-0.1-0.9l0.5,0.4l0.2-0.3l-0.9-0.7l-0.3-0.3l0,0.4l0,0.8l-0.3-0.2l-0.3-0.2l0,0.4l0,0.4l-1-0.1l0.1-0.5l0.3-0.1l0.2,0v-0.2l0-0.6
	l0.5,0.1l0.4,0.1l-0.2-0.4l-0.4-0.9l-0.4,0.1l0.2,0.6l-0.3-0.1l-0.3-0.1v0.3l0,0.7l-0.3,0l-0.1,0l0,0.1l-0.2,0.9l-0.1,0.2l0.2,0
	L1154.2,300.8z M1166.9,269.2l0.7,1l0.3-0.2l-0.2-0.3l0.4,0.2l0.2-0.3l-1.1-0.5l-0.7-0.4L1166.9,269.2z M1087.7,346.5l0.2,0l0-0.2
	l0-0.3l0.3,0.3l0.3,0.3l0-0.4l-0.1-0.9l0.5,0.4l0.2-0.3l-0.9-0.7l-0.3-0.2l0,0.4l0.1,0.8l-0.3-0.2l-0.3-0.2l0,0.4l0,0.4l-1-0.1
	l0.1-0.5l0.3-0.1l0.2,0v-0.2l0-0.6l0.5,0.1l0.4,0.1l-0.1-0.4l-0.4-0.9l-0.4,0.1l0.2,0.6l-0.3-0.1l-0.3-0.1l0,0.3v0.7l-0.3,0l-0.1,0
	l0,0.1l-0.2,0.9l-0.1,0.2l0.2,0L1087.7,346.5z M1165.7,268.1l0.6,0.2l0.5,0.2l-0.3-0.5l-0.5-0.8l-0.3,0.2l0.2,0.3l-0.1,0
	L1165.7,268.1z M1088.2,343l0.6,0.2l0.5,0.2l-0.3-0.5l-0.5-0.8l-0.3,0.2l0.2,0.3l-0.1,0L1088.2,343z M1099.1,313.9l0.6,0.2l0.5,0.2
	l-0.3-0.5l-0.5-0.8l-0.3,0.2l0.2,0.3l-0.1,0L1099.1,313.9z M1089.4,344.1l0.7,1l0.3-0.2l-0.2-0.3l0.4,0.2l0.2-0.3l-1.1-0.5l-0.7-0.4
	L1089.4,344.1z M1098.6,317.4l0.2,0l0-0.2l0-0.3l0.3,0.3l0.3,0.3l0-0.4l-0.1-0.9l0.5,0.4l0.2-0.3l-0.9-0.7l-0.3-0.2l0,0.4l0.1,0.8
	l-0.3-0.2l-0.3-0.2l0,0.4l0,0.5l-1-0.1l0.1-0.5l0.3-0.1l0.2,0v-0.2v-0.6l0.5,0.1l0.4,0.1l-0.1-0.4l-0.4-0.9l-0.4,0.1l0.2,0.6
	l-0.3-0.1l-0.3-0.1l0,0.3l0,0.7l-0.3,0.1l-0.1,0l0,0.1l-0.2,0.8l-0.1,0.2l0.2,0L1098.6,317.4z M1100.3,315l0.7,1l0.3-0.2l-0.2-0.3
	l0.4,0.2l0.2-0.3l-1.1-0.5l-0.7-0.4L1100.3,315z M1057.1,308c-1,0.8-2,1.6-2.4,1.2c-0.4-0.4-0.8-0.8-1.2-1.1
	c-0.6-0.4-1.2-0.9-1.7-1.5c-1.4-1.2-2.7-1.9-4.5-2.4c-0.2,0-0.3,0-0.5,0c-1.2,0.1-2.5,0.2-3.2-0.5c-0.1-0.1-0.1-0.1-0.2-0.2
	c-0.1,0-0.1,0-0.2,0c-1.6-0.2-1.6-3.5-3.2-3.5c-1.9,0-4.3-1.3-2.1-4.2c0.1-0.2,0-0.4-0.3-0.6c-0.6-0.3-1.2-0.6-1.7-1.1
	c-0.9-0.6-1.8-1.3-2-2.3c-0.1-0.7,2.2-4.3,2.6-8.3c-0.1-0.2-0.1-0.3-0.2-0.5c-0.5-1.1-0.9-2.3-0.5-3.2c0.5-1.1,1.5-2.5,2.8-3.5
	c0.5-0.8,0.7-1.5,0.3-2.2c-1.2-1.7-1.3-2.2,1.5-2.4c0.4,0,0.9-0.7,1.5-1.6c0.3-0.8,0.7-1.6,1.3-2.1c0,0,0.1,0,0.1-0.1
	c0.6-0.8,1.2-1.4,1.8-1.2c2.5,0.6,3.9,1.1,9-2.5c2.4-1.7,6.3,1.8,7,0.9c1.4-2.2,5-0.3,4.4,1.5c-0.4,1,5.3,0.2,5.9,3.1
	c1,5.1,3.2,6,5.8,9.5c1.6,2.1-1.5,4.1,0.1,5.5c2.9,2.4,2.3,3.9,0.3,5c-0.5,0.2,0.9,5.7-0.5,6.1c-4.1,1.2-6,3.6-6.7,5.3
	c-0.1,0.3-0.2,0.7-0.3,1c0,0.2-0.1,0.4,0,0.6c0,0.4-0.6,0.6-1.4,0.9c-0.9,0.5-2.1,0.9-3.4,1c-0.6,0.3-1.1,0.6-1.2,1
	c-0.8,2.8-1.9,4-4,1.4c-0.4-0.4-1-0.2-1.7,0.2C1057.8,307.6,1057.4,307.8,1057.1,308z M1073.4,288.1c-0.7-0.3-1.5-0.4-2.3-0.4
	c-1.7,0-3.4,0.5-4.7,1.5c-0.7,0.6-1.1,1.9-1.4,3c-0.2,0.6-0.3,1.1-0.5,1.5c-0.4,0.9-1.4,1.3-2.4,1.8c-1,0.5-1.9,0.9-2.2,1.6
	c-0.4,1-0.5,2.3-0.3,3.4c0.2,0.5,0.3,0.9,0.4,1.4c0.3,0.6,0.6,1.1,1.1,1.4c1.8,1.2,5.3,0.7,7.4-0.6c0.7-0.4,0.9-1.5,1.2-2.6
	c0.2-0.9,0.4-1.7,0.8-2.3c0.7-0.9,1.8-1.5,2.9-2c1.3-0.6,2.6-1.2,2.9-2.4C1076.7,291.7,1075.2,288.8,1073.4,288.1z M1046.1,288.2
	c0,0.2,0.1,0.4,0.1,0.6c0.1,0.2,0.4,0.5,0.7,0.7c0.3,0.3,0.7,0.5,0.9,0.9c0.3,0.5,0.3,1.1,0.3,1.7c0,0.7,0,1.3,0.4,1.6
	c0.7,0.6,2.1,0.5,2.7-0.1c0.8-0.8,1.2-2.1,0.9-3.2c-0.1-0.4-0.6-0.8-1-1.2c-0.2-0.2-0.4-0.4-0.6-0.6c-0.3-0.4-0.3-1-0.3-1.5
	c0-0.5,0-0.9-0.2-1.2c-0.5-0.5-1.2-0.8-1.8-0.9c-0.1,0-0.1,0-0.2,0c0,0,0,0,0,0c-0.3,0-0.5,0.1-0.7,0.2
	C1046.6,285.8,1046.2,287.1,1046.1,288.2z M1047.6,284.4c1,0.5,2.3,0.5,3.3,0c0.3-0.2,0.6-0.8,0.8-1.3c0.1-0.3,0.2-0.5,0.4-0.7
	c0.3-0.4,0.8-0.6,1.4-0.7c0.5-0.1,0.9-0.3,1.1-0.5c0.5-0.9,0.5-2.3-0.1-2.9c-0.7-0.7-2.4-0.7-3.4-0.2c-0.3,0.1-0.5,0.6-0.7,1.1
	c-0.2,0.4-0.3,0.8-0.6,1.1c-0.4,0.4-1,0.6-1.6,0.8c-0.6,0.2-1.2,0.4-1.4,0.8C1046.3,282.6,1046.8,284,1047.6,284.4z M1052.1,294.2
	c0.2,0.9,1.6,1.9,2.7,2.1c0.3,0.1,0.7-0.2,1.1-0.5c0.4-0.2,0.7-0.5,1.1-0.6c0.6-0.1,1.2,0.1,1.7,0.3c0.6,0.2,1.2,0.4,1.7,0.1
	c0.7-0.4,1.1-1.9,0.7-2.6c-0.5-1-1.6-1.7-2.7-1.8c0,0,0,0-0.1,0c-0.4,0-0.9,0.3-1.3,0.6c-0.3,0.2-0.5,0.3-0.7,0.4
	c-0.5,0.2-1,0-1.5-0.2c-0.3-0.1-0.6-0.2-0.9-0.2c-0.1,0-0.2,0-0.3,0.1c-0.4,0.2-0.9,0.6-1.2,1.1c-0.1,0.2-0.2,0.4-0.3,0.6
	C1052.1,293.7,1052,293.9,1052.1,294.2z M1064.5,287.9L1064.5,287.9c0.1-0.6,0.4-1.1,0.8-1.6c0.4-0.5,0.7-1.1,0.6-1.6
	c-0.2-0.8-1.3-1.5-2.1-1.5c-0.1,0-0.1,0-0.2,0c-1.1,0.2-2.1,1-2.6,2.1c-0.2,0.4,0,1,0.1,1.5c0.1,0.3,0.1,0.6,0.1,0.8
	c0,0.5-0.3,1-0.6,1.4c-0.3,0.4-0.6,0.8-0.5,1.1c0.2,1,1,2.1,1.9,2.2c0,0,0.1,0,0.1,0c0.9,0,2.2-1,2.7-1.9c0,0,0,0,0,0
	c0.2-0.3,0-0.8-0.1-1.2C1064.6,288.7,1064.5,288.3,1064.5,287.9z M1062.2,279c-0.2-0.2-0.8-0.2-1.2-0.2c-0.4,0-0.9,0-1.2-0.2
	c-0.5-0.2-0.9-0.7-1.3-1.2c-0.4-0.5-0.8-1-1.3-1c0,0,0,0,0,0c-0.8,0-2,0.9-2.1,1.8c0,0.1,0,0.1,0,0.2c0.3,0.5,0.4,1.1,0.3,1.7
	c0.2,0.5,0.5,0.9,0.9,1.2c0.3,0.2,1,0.3,1.5,0.3c0.3,0,0.6,0,0.8,0.1c0.5,0.1,0.8,0.6,1.2,1c0.3,0.4,0.6,0.8,0.9,0.8
	c1,0.1,2.3-0.3,2.6-1.1C1063.6,281.3,1063,279.8,1062.2,279z M1062,277.2c0.3,0.9,1.5,1.6,2.5,2.3c0.5,0.3,1,0.6,1.3,0.9
	c0.7,0.7,0.8,1.8,1,2.8c0.1,1.1,0.3,2.1,0.9,2.6c1.8,1.3,4.7,1.9,6.3,0.6c1.7-1.3,2.2-4.9,1.6-7.3c-0.2-0.8-1.2-1.3-2.1-1.9
	c-0.8-0.4-1.5-0.9-2-1.5c-0.7-0.9-0.9-2.1-1-3.4c-0.2-1.4-0.4-2.8-1.4-3.5c-0.6-0.4-1.3-0.5-2.1-0.5c-1.5,0-3.2,0.6-4,1.6
	C1061.5,272,1061.1,274.9,1062,277.2z M1042.5,274.8c0.1,0.1,0.2,0.2,0.2,0.2c1.2,0.3,2.3,1.1,3.1,2.2c1,0.4,2.1,0.7,3.2,0.6
	c0.9-0.1,2-1,2.9-1.7c0.5-0.4,0.9-0.8,1.3-1c0.8-0.5,1.9-0.3,3-0.1c1.1,0.2,2.1,0.4,2.7-0.1c1.8-1.3,3.2-4,2.5-5.9
	c-0.8-2-4-3.6-6.4-3.7c0,0,0,0-0.1,0c-0.8,0-1.6,0.8-2.3,1.5c-0.6,0.6-1.3,1.2-2,1.5c-1.1,0.4-2.3,0.2-3.5,0
	c-0.7-0.1-1.3-0.2-1.9-0.2c-0.7,0-1.3,0.1-1.8,0.5C1041.9,269.9,1041.4,273.2,1042.5,274.8z M1045.7,290.2c0.3-0.9-0.2-2.2-0.5-3.3
	c-0.2-0.6-0.4-1.1-0.4-1.5c-0.1-1,0.4-1.9,1-2.8c0.1-0.2,0.3-0.5,0.4-0.7c0-0.1,0-0.2,0-0.2c0.1-0.1,0.2-0.3,0.3-0.4
	c0.2-0.4,0.3-0.9,0.2-1.2c-0.6-2.1-2.5-4.4-4.6-4.4h0c-2.2,0-4.8,2.5-5.8,4.7c-0.3,0.7,0.1,1.8,0.5,2.8c0.3,0.8,0.7,1.7,0.7,2.4v0
	c0,1.1-0.7,2.2-1.3,3.3c-0.7,1.3-1.4,2.5-1,3.6c0.6,1.8,3.6,3.4,5.4,2.9C1042.8,294.5,1044.9,292.5,1045.7,290.2z M1055.1,308.1
	c1.9-0.1,4.3-2.4,4.4-4.3c0.1-2.4-1.2-5-3.2-6.4c-0.7-0.5-2.2-0.5-3.3-0.5c-0.6,0-1.2,0-1.6,0c-0.9-0.2-1.7-1-2.4-1.8
	c-0.2-0.3-0.5-0.5-0.7-0.8c-0.1,0-0.1-0.1-0.2-0.1c-0.1-0.1-0.1-0.2-0.2-0.2c-0.4-0.3-0.7-0.5-1.1-0.5c-0.1,0-0.2,0-0.2,0
	c-1.1,0-2.2,0.3-3.2,0.8c-0.4,0.3-0.7,0.6-1.1,0.8c-0.5,0.4-0.9,0.9-1,1.5c-0.7,2.1,0.9,5.3,2.8,6.9c0.6,0.5,1.7,0.4,2.8,0.3
	c0.9-0.1,1.8-0.2,2.5,0.1c1.1,0.4,1.9,1.3,2.8,2.2C1053,307.1,1053.9,308.2,1055.1,308.1z M1231.3,347.9c-0.5,0.2,0.9,5.7-0.5,6.1
	c-4.1,1.2-6,3.6-6.7,5.3c-0.1,0.3-0.2,0.7-0.3,1c0,0.2-0.1,0.4,0,0.6c0,0.4-0.6,0.6-1.4,0.9c-0.9,0.5-2.1,0.9-3.4,1
	c-0.6,0.3-1.1,0.6-1.2,1c-0.8,2.8-1.9,4-4,1.4c-0.4-0.4-1-0.2-1.7,0.2c-0.3,0.3-0.6,0.5-0.9,0.7c-1,0.8-2,1.6-2.4,1.2
	c-0.4-0.4-0.8-0.8-1.2-1.1c-0.6-0.4-1.2-0.9-1.7-1.5c-1.4-1.2-2.7-1.9-4.5-2.4c-0.2,0-0.3,0-0.5,0c-1.2,0.1-2.5,0.2-3.2-0.5
	c-0.1-0.1-0.1-0.1-0.2-0.2c-0.1,0-0.1,0-0.2,0c-1.6-0.2-1.6-3.5-3.2-3.5c-1.9,0-4.3-1.3-2.1-4.2c0.1-0.2,0-0.4-0.3-0.6
	c-0.6-0.3-1.2-0.6-1.7-1.1c-0.9-0.6-1.8-1.3-2-2.3c-0.1-0.7,2.2-4.3,2.6-8.3c-0.1-0.2-0.1-0.3-0.2-0.5c-0.5-1.1-0.9-2.3-0.5-3.2
	c0.5-1.1,1.5-2.5,2.8-3.5c0.5-0.8,0.7-1.6,0.3-2.2c-1.2-1.7-1.3-2.2,1.5-2.4c0.4,0,0.9-0.7,1.5-1.6c0.3-0.8,0.7-1.6,1.3-2.1
	c0,0,0.1,0,0.1-0.1c0.6-0.8,1.2-1.4,1.8-1.2c2.5,0.6,3.9,1.1,9-2.6c2.4-1.7,6.3,1.8,7,0.9c1.4-2.2,5-0.3,4.4,1.5
	c-0.4,1,5.3,0.2,5.9,3.1c1,5.1,3.2,6,5.8,9.5c1.6,2.1-1.5,4.1,0.1,5.5C1233.9,345.4,1233.3,346.9,1231.3,347.9z M1216.1,335.3
	c0.3,0.9,1.5,1.6,2.5,2.3c0.5,0.3,1,0.6,1.3,0.9c0.7,0.7,0.8,1.8,1,2.8c0.1,1.1,0.3,2.1,0.9,2.6c1.8,1.3,4.7,1.9,6.3,0.6
	c1.7-1.3,2.2-4.9,1.6-7.3c-0.2-0.8-1.2-1.3-2.1-1.9c-0.8-0.4-1.6-0.9-2-1.5c-0.7-0.9-0.9-2.2-1-3.4c-0.2-1.4-0.4-2.8-1.4-3.5
	c-0.6-0.4-1.3-0.5-2.1-0.5c-1.5,0-3.2,0.6-3.9,1.6C1215.6,330.1,1215.2,333,1216.1,335.3z M1218.6,346L1218.6,346
	c0.1-0.6,0.4-1.1,0.8-1.6c0.4-0.5,0.7-1.1,0.6-1.6c-0.2-0.8-1.3-1.5-2.1-1.5c-0.1,0-0.1,0-0.2,0c-1.1,0.2-2.1,1-2.6,2.1
	c-0.2,0.4,0,1,0.1,1.5c0.1,0.3,0.1,0.6,0.1,0.8c0,0.5-0.3,1-0.6,1.4c-0.3,0.4-0.6,0.8-0.5,1.1c0.2,1,1,2.1,1.9,2.2
	c0.9,0.1,2.3-0.9,2.8-1.9l0,0c0.2-0.3,0-0.8-0.1-1.2C1218.7,346.8,1218.6,346.4,1218.6,346z M1200.3,346.3c0,0.2,0.1,0.4,0.1,0.6
	c0.1,0.2,0.4,0.5,0.7,0.7c0.3,0.3,0.7,0.5,0.9,0.9c0.3,0.5,0.3,1.1,0.3,1.7c0,0.7,0,1.3,0.4,1.6c0.7,0.6,2.1,0.5,2.7-0.1
	c0.8-0.8,1.2-2.1,0.9-3.2c-0.1-0.4-0.6-0.8-1-1.2c-0.2-0.2-0.4-0.4-0.6-0.5c-0.3-0.4-0.3-1-0.3-1.5c0-0.5,0-0.9-0.2-1.2
	c-0.5-0.5-1.2-0.8-1.9-0.9c-0.1,0-0.1,0-0.2,0c0,0,0,0,0,0c-0.3,0-0.5,0.1-0.7,0.2C1200.7,343.9,1200.3,345.2,1200.3,346.3z
	 M1201.7,342.5c1,0.5,2.3,0.5,3.3,0c0.3-0.2,0.6-0.8,0.8-1.3c0.1-0.3,0.2-0.5,0.4-0.7c0.3-0.4,0.8-0.6,1.4-0.7
	c0.5-0.1,0.9-0.3,1.1-0.5c0.5-0.9,0.5-2.3-0.1-2.9c-0.7-0.7-2.4-0.7-3.4-0.2c-0.3,0.1-0.5,0.6-0.7,1.1c-0.2,0.4-0.3,0.8-0.6,1.1
	c-0.4,0.4-1,0.6-1.6,0.8c-0.6,0.2-1.2,0.4-1.4,0.8C1200.5,340.6,1200.9,342.1,1201.7,342.5z M1206.2,352.2c0.2,0.9,1.6,1.9,2.7,2.1
	c0.3,0.1,0.7-0.2,1.1-0.5c0.4-0.2,0.7-0.5,1.1-0.6c0.6-0.1,1.2,0.1,1.7,0.3c0.6,0.2,1.2,0.4,1.7,0.1c0.7-0.5,1.1-1.9,0.7-2.6
	c-0.5-1-1.6-1.7-2.7-1.8c-0.4,0-0.9,0.3-1.4,0.6c-0.3,0.2-0.5,0.3-0.7,0.4c-0.5,0.2-1,0-1.5-0.2c-0.3-0.1-0.6-0.2-0.9-0.2
	c-0.1,0-0.2,0-0.3,0.1c-0.4,0.2-0.9,0.6-1.2,1c-0.1,0.2-0.2,0.4-0.3,0.6C1206.2,351.7,1206.2,352,1206.2,352.2z M1209.2,336.4
	c0.3,0.5,0.4,1.1,0.3,1.7c0.2,0.5,0.5,0.9,0.9,1.2c0.3,0.2,0.9,0.3,1.5,0.3c0.3,0,0.6,0,0.8,0.1c0.5,0.1,0.8,0.6,1.2,1
	c0.3,0.4,0.6,0.8,0.9,0.8c1,0.1,2.3-0.3,2.6-1.1c0.4-0.9-0.2-2.4-1-3.3c-0.2-0.2-0.7-0.2-1.2-0.2h0c-0.4,0-0.9,0-1.2-0.2
	c-0.5-0.2-0.9-0.7-1.3-1.2c-0.4-0.5-0.8-1-1.3-1c0,0,0,0,0,0c-0.8,0-2,0.9-2.1,1.8C1209.1,336.2,1209.2,336.3,1209.2,336.4z
	 M1196.7,332.9c0.1,0.1,0.2,0.2,0.2,0.2c1.2,0.3,2.3,1.1,3.1,2.2c1,0.4,2.1,0.7,3.2,0.6c0.9-0.1,2-1,2.9-1.7c0.5-0.4,0.9-0.8,1.3-1
	c0.8-0.5,1.9-0.3,3-0.1c1.1,0.2,2.1,0.4,2.7-0.1c1.8-1.3,3.2-4,2.5-5.9c-0.8-2-4-3.6-6.4-3.7c0,0,0,0-0.1,0c-0.8,0-1.6,0.8-2.3,1.5
	c-0.6,0.6-1.3,1.2-2,1.5h0c-1.1,0.4-2.3,0.2-3.5,0c-0.7-0.1-1.3-0.2-1.9-0.2c-0.7,0-1.3,0.1-1.8,0.5
	C1196,328,1195.6,331.3,1196.7,332.9z M1199.8,348.3c0.3-0.9-0.2-2.2-0.5-3.3c-0.2-0.6-0.4-1.1-0.4-1.5c-0.1-0.9,0.4-1.9,1-2.8
	c0.1-0.2,0.3-0.5,0.4-0.7c0-0.1,0-0.2,0-0.3c0.1-0.2,0.2-0.3,0.3-0.4c0.2-0.4,0.3-0.8,0.2-1.2c-0.6-2.1-2.5-4.4-4.6-4.4h0
	c-2.2,0-4.8,2.5-5.8,4.7c-0.3,0.7,0.1,1.8,0.5,2.8c0.3,0.8,0.7,1.7,0.7,2.4v0c0,1.1-0.7,2.2-1.3,3.3c-0.7,1.3-1.4,2.5-1,3.6
	c0.6,1.8,3.6,3.4,5.4,2.9C1196.9,352.6,1199,350.6,1199.8,348.3z M1213.6,361.8c0.1-2.4-1.2-5-3.2-6.4c-0.8-0.5-2.2-0.5-3.3-0.5
	c-0.6,0-1.2,0-1.6,0c-0.9-0.2-1.7-1-2.4-1.8c-0.2-0.3-0.5-0.5-0.7-0.8c-0.1,0-0.1-0.1-0.2-0.1c-0.1-0.1-0.1-0.2-0.2-0.2
	c-0.4-0.3-0.7-0.5-1.1-0.5c-0.1,0-0.2,0-0.2,0c-1.1,0-2.2,0.3-3.2,0.8c-0.4,0.3-0.7,0.6-1.1,0.8c-0.5,0.4-0.9,0.9-1,1.5
	c-0.7,2.1,0.9,5.3,2.8,6.9c0.6,0.5,1.7,0.4,2.8,0.3c0.9-0.1,1.8-0.2,2.5,0.1c1.1,0.4,1.9,1.3,2.8,2.2c1,1.1,1.9,2.1,3.1,2
	C1211.2,366.1,1213.5,363.7,1213.6,361.8z M1227.5,346.2c-0.7-0.3-1.5-0.4-2.3-0.4c-1.7,0-3.4,0.5-4.7,1.5c-0.7,0.6-1.1,1.9-1.4,3
	c-0.2,0.6-0.3,1.1-0.5,1.5c-0.4,0.9-1.4,1.3-2.4,1.8c-1,0.5-1.9,0.9-2.2,1.6c-0.4,1-0.5,2.3-0.3,3.4c0.2,0.5,0.4,1,0.5,1.5
	c0.3,0.6,0.6,1,1.1,1.4c1.8,1.2,5.3,0.7,7.4-0.6c0.7-0.4,0.9-1.5,1.2-2.6c0.2-0.9,0.4-1.7,0.8-2.3c0.7-0.9,1.8-1.5,2.9-2
	c1.3-0.6,2.6-1.2,2.9-2.4C1230.8,349.8,1229.3,346.9,1227.5,346.2z"/>
</svg>
