<svg id="Layer_1" xmlns="http://www.w3.org/2000/svg" width="595.279" height="841.891" viewBox="0 0 595.279 841.891"><path d="M347.668 319.974c-.131 0-.088 0 0 0zm0 0zm-142.632 43.883c9.631-3.53 17.126-7.321 16.733-8.454-.436-1.133-8.585.828-18.259 4.358-9.631 3.53-16.996 7.277-16.604 8.411.437 1.089 8.5-.828 18.13-4.315zm214.057-6.711l.218.741-.393-.131-.218-.043v.218l-.044.915-.305.087-.087.043-.044.087-.262 1.002-.043.218h1.83v-.174l.044-.393.349.305.261.262v-1.526l.567.479.218-.262-.828-.697-.262-.218v1.438l-.349-.305-.262-.218-.043.349-.044.61h-1.046l.175-.697.349-.087.131-.043v-.131l.043-.784.479.13.305.087-.087-.305-.305-1.046-.347.089zm2.353.131l.654 1.046.305-.174-.305-.523.522.262.175-.305-1.046-.566-.523-.305.218.565zm45.713 110.471zm-46.846-111.647l.61.218.393.131-.175-.393-.436-.871-.306.13.262.479-.218-.087-.13.393zm137.359 43.36c-40.528 45.104-40.049 88.464-39.613 130.212.044 3.922.088 7.888.088 11.81v1.482l-1.482.218c-11.504 1.525-22.355.828-32.684-1.743-10.066-2.527-19.61-6.842-28.762-12.638a341.851 341.851 0 0 1-32.64 5.447c-11.374 1.351-22.966 2.135-34.776 2.396l-.653.044-.479-.437a377.56 377.56 0 0 1-24.927-24.36 328.04 328.04 0 0 1-21.354-25.275c-10.72-1.481-20.786-4.401-30.068-9.021a83.822 83.822 0 0 1-12.638-7.713c-11.94 8.716-25.973 14.163-42.445 16.473-13.292 17.431-28.893 34.121-46.324 49.636l-.479.436h-.653c-23.314-.566-46.019-3.182-67.416-7.888-15.993 10.153-32.248 15.165-49.243 15.165-4.009 0-8.062-.262-12.158-.828l-1.481-.174v-1.481c0-3.923.043-7.845.087-11.767.479-41.835 1.002-85.064-39.525-130.212l-1.003-1.09.956-1.132c10.851-12.551 18.478-28.152 22.704-46.324l.393-1.656 1.699.393c18.303 4.663 40.18-5.622 65.02-30.592l.566-.566.784.087c35.08 2.963 58.395-3.355 69.333-18.738l1.002-1.395 1.395 1.046c14.991 11.112 30.897 18.041 47.283 20.612l1.481.218-.044 1.482c-1.655 56.303 22.792 88.464 48.329 118.097 25.405-29.502 49.81-61.707 48.284-118.01l-.044-1.482 1.395-.218h.088c2.266-.349 4.575-.785 6.842-1.351a98.355 98.355 0 0 0 6.798-1.83c11.548-3.574 22.791-9.413 33.599-17.432l1.352-1.046 1.002 1.395a37.18 37.18 0 0 0 5.229 5.883 42.134 42.134 0 0 0 6.667 4.837c12.812 7.496 31.943 10.154 57.437 8.019l.784-.043.566.566c12.551 12.638 24.273 21.528 35.212 26.626 10.72 5.011 20.656 6.362 29.808 4.009l1.656-.393.392 1.656c.61 2.571 1.264 5.055 1.961 7.496.741 2.44 1.525 4.837 2.354 7.19 4.401 11.984 10.503 22.53 18.303 31.638l.959 1.133-.917 1.133zm-388.239-43.709l.218.653 4.314 3.007 6.014 4.271 6.624 6.537c7.321.785 32.553-8.628 37.259-13.858l-.479-11.853 3.747-9.37-.262-.654c-2.091-.349-4.009-.349-5.839-.043l-2.876 2.92 1.002 2.179-1.481 1.308 1.177 1.743.218 1.699-5.84-.523-1.09-1.176c.262-.436.393-.828.088-1.525-.262-.697-1.395-1.351-2.267-.958-.915.349-1.22 1.656-1.002 2.266.262.61.349.61.653.828l-.522 2.658-4.619 2.833-.088.043-.479-.872c.348-.087 1.394-1.395.479-2.266-.609-.61-1.176-1.089-.261-2.31 1.351-1.743-.088-2.92-.697-3.138.479-.479.522-1.569.131-2.179-1.525-2.353-2.877-.043-2.528-1.351.306-1.133-1.177-1.264-2.135-.916-1.046.393-1.831 3.138-2.484.523-.262-1.002-1.786-1.612-2.44-1.351-.697.218-1.481 1.699-1.002 2.615 1.177 2.396-1.177.784-2.267 1.176-.958.349-1.961 1.395-1.002 2.092 1.09.741-1.395-.131-1.09 2.658.088.697.828 1.482 1.482 1.569-.306.567-.697 2.354 1.481 2.833 1.481.305 1.395 1.046 1.264 1.917-.131 1.22 1.525 1.569 1.83 1.438l.218.958-3.66 1.22-2.179-.958a1.718 1.718 0 0 0-.044-1.046 1.696 1.696 0 0 0-2.223-1.046c-.915.305-1.395 1.351-1.046 2.222.175.523.61.916 1.09 1.09l-.262 1.699-3.835 4.14-2.223-2.44-.043-2.353-1.874-.305-.959-1.656-3.791-.958a22.265 22.265 0 0 0-4.4 4.01zm-58.439 7.321l.218.653 4.314 3.007 6.014 4.271 6.624 6.58c7.32.741 32.553-8.628 37.303-13.858l-.479-11.853 3.748-9.37-.262-.653c-2.092-.349-4.053-.349-5.84-.044l-2.876 2.92 1.003 2.179-1.482 1.308 1.177 1.743.218 1.699-5.839-.479-1.09-1.22c.262-.436.393-.828.131-1.525s-1.395-1.351-2.267-1.002c-.871.349-1.22 1.656-.958 2.266.261.61.349.61.653.828l-.522 2.658-4.663 2.833-.087.043-.479-.871c.349-.087 1.351-1.395.479-2.266-.61-.61-1.177-1.09-.262-2.31 1.351-1.743-.087-2.919-.697-3.137.479-.479.522-1.569.131-2.179-1.525-2.353-2.877-.043-2.528-1.351.306-1.133-1.176-1.307-2.135-.958-1.046.392-1.83 3.138-2.484.523-.218-.958-1.786-1.612-2.44-1.351-.697.262-1.481 1.7-1.002 2.615 1.177 2.397-1.177.785-2.223 1.177-.959.349-1.961 1.438-1.002 2.092 1.089.741-1.438-.131-1.09 2.615.087.697.828 1.525 1.481 1.569-.305.566-.697 2.396 1.482 2.833 1.481.305 1.351 1.046 1.264 1.961-.131 1.22 1.525 1.569 1.83 1.395l.218 1.002-3.66 1.22-2.18-.959a1.71 1.71 0 0 0-.043-1.046c-.306-.915-1.352-1.395-2.223-1.046-.915.305-1.395 1.351-1.046 2.223.174.523.61.915 1.09 1.046l-.262 1.699-3.791 4.184-2.223-2.44-.044-2.353-1.874-.305-.959-1.612-3.791-.958a17.401 17.401 0 0 0-4.575 4.004zm45.539 68.2c-4.097.087-7.932.609-12.638 3.835.784 1.873 1.395 3.704 1.83 5.577 1.656-.697 3.138-1.264 4.488-1.612 1.569-.436 3.008-.609 4.445-.566h.218c4.141-1.089 5.491-3.05 6.886-5.055.131-.218.305-.436.436-.61a9.483 9.483 0 0 0-1.743-.74c-1.046-.349-2.396-.655-3.922-.829zm-7.931 33.294c1.438.915 2.833 1.612 4.314 2.092 1.133.349 2.31.566 3.486.609-.784-2.876-2.048-5.229-3.791-7.146-1.395-1.525-3.138-2.789-5.143-3.791-.566-.218-1.089-.393-1.612-.654 0 .044-.044.044-.044.087-.087.35-.218.741-.349 1.046v.044l-.13.349-.349.131c-.044.044-.088.044-.175.044l3.793 7.189zm-.871 7.844a56.376 56.376 0 0 0-.697-6.973l-4.14-7.932h-.219c-.218 4.751-.915 7.976-1.873 10.11a9.454 9.454 0 0 1-.697 1.308c.697 2.745 1.612 4.794 2.919 6.275 1.134 1.308 2.615 2.179 4.445 2.833.262-1.786.306-3.704.262-5.621zm7.19-16.124a24.348 24.348 0 0 0 8.279-.784c-1.612-2.833-3.225-4.532-5.534-5.535-1.177-.479-2.571-.827-4.184-1.046-2.135 0-4.357-.13-6.798-.305l-.349.175c-.218.087-.393.174-.61.218.523 1.612.61 3.355.479 4.881.697.261 1.308.522 1.961.828a22.776 22.776 0 0 0 6.756 1.568zm3.007-9.195c2.92-.305 5.36-1.046 7.408-2.527-1.961-1.656-3.791-2.658-5.491-3.312a17.452 17.452 0 0 0-5.011-1.046h-.218c-1.003-.044-2.223.131-3.617.522-1.438.349-3.095.915-4.881 1.656.131.61.218 1.22.305 1.874.087.697.175 1.307.218 1.874.044.261.044.522.044.827 2.658 0 4.924.088 6.842.349 1.568-.042 3.05-.086 4.401-.217zm-15.731-11.679c-.916-.697-1.264-2.092-3.53-2.354-.044-1.655.566-3.529.61-5.36.043-1.786-.393-3.573-2.484-5.099-1.046.437-1.874.654-3.442 1.831-2.615-2.267-4.053-3.269-5.316-3.355-.654.653-1.525 2.179-1.874 4.924-1.569-1.089-3.966-3.225-5.143-2.789-.653.436-1.089 1.83-1.699 4.401-.349-.218-3.094-.828-4.968-.436-1.09 1.133-1.308 2.527-1.481 4.184-1.265.436-3.008-.741-4.838-.915-1.089.522-2.092 3.529-1.786 7.408-.306.131-1.046.174-1.874.174-1.308 0-2.876-.043-3.573.219.827 3.747 4.227 6.057 7.975 8.323.131 2.005-1.221 7.277 5.752 14.512.306-.393.697-.872.959-1.177.262-.262.436-.393.479-.218 1.089 1.351 1.525 2.44 5.621 4.793.044-.043.088-.043.175-.087l.436-.218c.741-.436 1.481-.872 2.048-1.395l.785-.697.522.915c1.09 1.918 2.31 3.791 4.053 5.143 1.656 1.307 3.792 2.135 6.755 2.048 1.133-.522 2.136-1.438 2.963-3.269.437-1.046.828-2.353 1.134-4.009.305-1.7.522-3.704.609-6.145l.044-.566.522-.175c.654-.218 1.177-.218 1.656-.218.218 0 .479 0 .697-.044.044-.174.087-.305.131-.479.087-.306.175-.61.218-.959.306-1.699.131-3.704-.566-5.534l-.305-.741.697-.349c.305-.131.522-.218.784-.262h.044c-.044-.392-.044-.784-.088-1.22-.043-.306-.043-.61-.087-.959-.044-.305-.087-.566-.087-.871-.394-2.874-1.222-5.924-2.528-8.975zm-3.4 35.255a8.332 8.332 0 0 1-1.918 1.22l-.13.044h-.131c-.915.044-1.743 0-2.571-.131l4.184 7.452c.392-1.133.697-2.31.828-3.617a21.992 21.992 0 0 0-.262-4.968zm-21.266-73.473l-.479-11.854 3.748-9.37-.262-.654c-2.092-.349-4.053-.349-5.839-.043l-2.876 2.92 1.002 2.179-1.481 1.308 1.177 1.743.218 1.7-5.84-.523-1.09-1.177c.262-.436.393-.828.131-1.525-.305-.697-1.395-1.351-2.266-.959-.872.349-1.221 1.656-.959 2.266.218.61.349.61.653.828l-.522 2.658-4.663 2.833-.087.044-.436-.872c.349-.087 1.351-1.395.479-2.266-.654-.61-1.177-1.133-.262-2.31 1.351-1.743-.087-2.919-.697-3.137.479-.479.522-1.569.131-2.136-1.525-2.353-2.877-.043-2.528-1.351.306-1.133-1.176-1.308-2.135-.959-1.046.392-1.83 3.138-2.484.523-.218-1.002-1.786-1.612-2.44-1.351-.697.261-1.481 1.699-1.002 2.614 1.177 2.397-1.177.785-2.223 1.177-.959.349-1.961 1.438-1.002 2.092 1.089.741-1.438-.131-1.09 2.658.087.697.828 1.482 1.481 1.569-.261.566-.697 2.397 1.482 2.833 1.481.305 1.351 1.046 1.264 1.917-.131 1.22 1.525 1.569 1.83 1.438l.218.959-3.704 1.22-2.179-.959a1.718 1.718 0 0 0-.044-1.046 1.819 1.819 0 0 0-2.266-1.089c-.915.349-1.395 1.351-1.046 2.266.174.523.609.872 1.089 1.046l-.261 1.743-3.835 4.14-2.223-2.44-.044-2.354-1.874-.305-.958-1.613-3.792-.958c-1.568.958-3.05 2.266-4.357 3.878l.218.654 4.357 3.007 5.971 4.271 6.624 6.58c7.191.786 32.423-8.627 37.173-13.813zm-24.927 62.709c.349-.262.741-.479 1.133-.697.044-.349.044-.654.088-1.003.087-1.002.218-2.048.436-3.181-2.484.959-5.447 3.617-4.794 5.055 1.351-.435 2.527.131 3.137-.174zm-1.264 9.456c.697-.392 1.874-1.177 3.269-1.874-.523-1.612-.828-3.486-.915-5.621v-.087c-1.961 1.569-3.443 4.184-2.354 7.582zm6.799 3.792a13.203 13.203 0 0 1-2.267-2.833c-1.002 1.481-1.743 3.442-1.133 4.837 1.395-1.002 2.397-1.699 3.4-2.004zm22.225 4.837c2.963 3.094 5.403 3.66 7.146 4.663.828-1.046 2.267-2.658 3.617-3.443 1.177 1.177 1.699 2.964 4.053 3.182.479.043 1.133-.697 1.961-1.525l-5.36-9.587a11.253 11.253 0 0 1-3.268-1.787c-1.656-1.308-2.92-3.007-3.966-4.794-.479.349-1.003.697-1.525.959-.218.087-.349.218-.479.262-.131.087-.305.131-.479.218l-.131-.262c-.74.872-2.701 1.046-4.053.915-11.505-1.089-13.247-12.638-21.876-12.158-.218 1.264-.393 2.484-.479 3.704 0 .088 0 .218-.044.306 2.789-.61 5.753.043 5.447 1.22-1.002.262-2.439-.087-3.66.131a9.765 9.765 0 0 0-1.874.653v1.134a18.6 18.6 0 0 0 .784 4.968c2.659-1.09 5.622-1.525 7.147.959-.872-.044-3.704-.697-5.622.566-.218.131-.436.349-.697.566.872 1.656 2.005 2.963 3.399 3.922l-.087.131h.043c.959.131 1.352-.828 2.528-1.7 2.658 3.574 4.531 6.843 7.669 9.021.219-.828.785-2.354 1.7-2.92 1.133.828 2.179 3.442 6.362 3.878.567-.524 1.09-2.877 1.744-3.182zm6.972 22.094c-1.046-1.264-1.918-2.658-2.658-4.14-1.221 1.351-1.743 3.53-.915 6.624 1.264-.479 2.352-1.481 3.573-2.484zm5.317 4.228c-.959-.479-1.83-1.002-2.615-1.612-.479-.349-.958-.741-1.351-1.177-1.656 1.961-2.135 4.794 1.264 7.016-.087-.654 1.525-2.79 2.702-4.227zm7.843 4.88c-.087-.828-.305-1.743-.349-2.746-1.655-.218-3.138-.522-4.532-.958.873 2.659 2.877 3.704 4.881 3.704zm26.104-36.955c-1.743-5.621-2.44-7.277-2.31-10.764v-.087c.044-.915.044-1.743-.044-2.527a31.792 31.792 0 0 0-.349-1.787c-3.05.828-6.057 1.133-9.107.872a20.085 20.085 0 0 1-2.266-.262c.479.393.871.828 1.307 1.264 2.136 2.354 3.617 5.273 4.445 8.89.087.479-.262 1.003-.741 1.003a12.982 12.982 0 0 1-5.142-.654 18.47 18.47 0 0 1-3.443-1.524c.262 1.961.437 3.834.479 5.621.087 2.354 0 4.663-.305 6.886-.044.479-.61.828-1.046.697-2.571-.697-4.619-1.831-6.231-3.617a13.31 13.31 0 0 1-1.134-1.481c0 .305-.043.609-.087.958a14.28 14.28 0 0 1-.61 3.138h.044c-.262 1.961-.349.218.436 6.799.218 1.655.349 8.454-7.582 8.367-.479 0-1.003-.044-1.525-.088-2.005-.218-3.922.044-5.404.872.741 1.525 1.569 2.963 2.658 4.227 1.134-.74 2.44-1.395 4.097-1.525h.087c.479 0 .567 1.831.131 1.787-1.002-.044-2.092.393-3.094 1.046.349.349.741.653 1.133.959.697.566 1.481 1.046 2.354 1.481.479-1.787 2.005-4.576 4.271-4.794.218 1.874-2.44 3.312-2.44 5.578 1.525.566 3.269.959 5.273 1.221 3.922-1.177 3.965-2.876 2.527-8.629 1.83.828 4.881 4.01 7.582 3.617-.261-3.835.567-7.757 1.656-11.243 1.133 1.002 2.136 2.658 3.573 2.614-.349-1.786.175-7.975 1.438-10.589 1.656.174 2.745 1.046 4.184.871-.175-2.527-.653-5.534.349-9.979 1.698-.002 3.572.957 4.836.782zm14.076 15.776c-.697-.218-1.352-.566-1.961-.915.305 1.438.871 2.615 1.83 2.746.044-.48.044-1.134.131-1.831zm7.277.479c-.61.088-1.22.175-1.787.218a13.66 13.66 0 0 1-3.007-.087c.741 1.743 2.18 3.486 4.663 4.532.567-1.394.436-3.05.131-4.663zm9.152 2.964c-.174-2.658-.436-4.532-.479-5.971-1.961.959-3.747 1.743-5.49 2.267 1.132 1.655 2.918 3.007 5.969 3.704zm13.77-18.391c1.831-2.789 5.622-5.229 6.973-8.716-1.481-.392-2.876-.174-3.966-.653 4.184-4.488 4.794-6.885-.261-7.801h-.044c-.784.219-1.351.262-2.92.437-.436.043-1.002.087-1.874.218-5.316.566-7.8-3.748-10.109-7.67-1.438-2.484-2.789-4.794-4.576-5.229-4.794-1.177-13.771 10.502-15.645 12.986 1.22 5.099 6.537 8.41 10.633 7.844 2.354-.349 10.372-1.002 11.592 4.489.697 3.268-4.488 4.619-9.369 4.357-3.181-.174-12.507.872-12.899 8.89-.043.567-.043 1.569.044 2.658a9.204 9.204 0 0 0 2.44 1.438c.262-2.005.741-3.791 2.048-3.312-.392.043-.697 1.786-.305 3.835a13.06 13.06 0 0 0 3.486.218c.479-.044 1.002-.088 1.525-.175-.523-2.44-.828-4.532 1.307-5.055.306 1.395.654 2.963 1.352 4.488 2.004-.566 4.14-1.481 6.449-2.702.087-.305.175-.566.306-.828 1.264-2.135 3.791-2.004 6.101-1.961 4.357.088 8.323-1.786 10.502-5.839.827-1.088-1.7-1.131-2.79-1.917zm16.299-5.752c-.523-.262-.915-.566-1.308-.872.218.741.523 1.352.959 1.525.087-.173.218-.435.349-.653zm9.369 2.354c0-.175-.044-.393-.044-.654-3.138 0-5.447-.305-7.19-.828-.087 2.092.654 4.794 3.138 7.365 1.351-.828 2.353-2.833 4.096-5.883zm8.803 2.266c-.349-1.351-.522-2.44-.566-3.486-1.656.175-3.225.305-4.619.393 1.35 1.219 3.05 2.222 5.185 3.093zm7.975-25.929c-1.133-1.874-1.873-3.574-2.614-5.796-.61-1.787-.087-1.874.828-2.484-.959-2.702-3.138-3.182-4.271-5.055-.523-.828-.872-1.395-.479-2.658-1.177-1.613-6.275-2.789-8.28-3.705-1.481-.653.349-3.094-3.573-4.662-2.005 3.791-3.486 9.587-8.28 9.151-7.277-.61-10.677-9.588-16.516-14.294 29.546-11.025 32.901-19.305 32.335-23.532-1.308-10.154-7.539-15.296-14.599-18.826-.697 1.438-.61 3.094.305 4.924-35.821 6.58-46.934 34.427-72.253 39.83-3.486.741-6.275-2.701-5.709-5.011 1.221-4.969 10.198-10.895 21.311-11.462 9.587-.479 12.245-6.144 11.94-6.972-.697-.043-1.481-.349-2.397-.915 2.005-4.053 3.486-8.019 3.966-11.766.262-2.266-2.658-6.145-5.578-5.97 1.352 9.413-4.924 18.128-11.112 20.002-18.434 5.491-24.36 9.195-24.534 16.255-.175 8.019 6.624 12.942 12.681 12.289 19.393-2.049 53.776-42.445 71.12-40.267 8.28 1.046 10.066 5.186 10.11 8.411.131 8.149-26.19 17.388-34.862 20.089-.697-.043-1.395.087-2.18.131-11.548.087-23.401 10.764-37.913 17.301h-.261c.522.262 1.002.566 1.351.915.305.262.349.828.087 1.133-.349.437-.61.828-.871 1.264-1.177 1.7-2.31 3.355-4.794 4.62.653.174 1.351.348 2.092.653 2.092.784 4.401 2.092 6.755 4.271.349.305.349.959 0 1.264-2.31 2.049-5.099 3.051-8.367 3.486 2.702 1.308 4.532 3.442 6.406 6.973.043.044.043.131.043.174a.136.136 0 0 1 .044.088c.262.915.479 1.786.61 2.745.087.828.13 1.656.087 2.527.131 0 .218 0 .305.044 4.358-.044 8.323-3.007 11.723-6.886 3.182-4.009 11.287-13.684 16.473-12.376 2.44.61 3.966 3.225 5.622 6.014 2.004 3.486 4.227 7.277 8.454 6.842.653-.087 1.351-.131 1.874-.174.827-.088 1.351-.131 1.786-.219 0 0 0-.043-.043-.043 7.233-1.787 13.64-10.328 21.135-9.544 2.31.262 5.36 2.658 5.187 4.488-.654 6.537-12.42 7.888-13.03 12.682-.044.218-.044.61-.044 1.09l.088-.044c.349.915.958 1.874 2.31 2.658.74-1.786 1.83-3.704 4.14-3.791-1.918 2.396-2.048 3.529-2.354 4.532.044 0 .044.043.087.043 1.613.479 3.792.785 6.755.785-.043-2.702.218-6.406 1.656-5.491-.305 1.481-.479 4.097.393 5.186l.174.262a94.958 94.958 0 0 0 6.145-.479c.131-1.395.566-2.745 1.221-4.575.697-2.005.087-3.748.522-5.927.262-1.308 2.005-.872 3.442-.828 1.525-3.312.218-5.578.175-8.454 2.13-.088 3.437-.437 3.176-.916zm261.426-86.59c-.349 1.395 6.406 2.615 6.493 3.312.043.261-1.002.043-1.438-.131-1.961-.654-5.186-1.961-5.752-2.223.044.131 0 .392-.044.566-.261-.087-.479-.261-.74-.305-.218.305-.479.61-.697.915.043.174.131.479.131.654.436-.044 1.002.043 1.438.13 1.09.218 2.005-.566 2.964-.349.131.61.218 1.351.958 2.136 1.221.261 3.051.522 2.833 1.133-.087.261-.566.174-.828.261-.479.218-.522.523-.61.828.479-.305.872-.479 1.221-.479-.131.393-.305.654-.61 1.002.306.131.697-.174 1.177-.479 0 .305-.131.567-.349.872.393-.043.784-.349 1.002-.697-.087-.305-.305-.566-.392-.872.087 0 .349.044.436.087-.087-.305-.479-.654-.393-.959.044-.174.349-.218.523-.305-1.177-.567-2.527-.654-2.789-1.002-.131-.131-.131-.479-.131-.654.61.087 1.22.349 1.83.436.436.043.741.131 1.002-.436.479-1.089-6.667-2.092-6.711-3.312 0-.523.479-.915 1.264-.915 1.09 0 1.831.61 2.005 1.308-.262.174-.392.392-.349.697.262-.087.436-.393.741-.349.653.13 1.177.741 1.83.741.522 0 1.09-.218 1.351-.566.262-.305-.349-.872-.74-.654.349.087.436.392.305.566-.218.305-.959.262-1.481 0 .131-.174.262-.087.566-.566-.522-.087-.915.043-1.612-.349.131-.174.522-.392.653-.566-1.046-.131-2.44-.61-3.225-.741-.786-.13-1.701.785-1.832 1.265zm2.92 6.057c-.175.218 1.438-.479.61-1.089-.785-.523-1.395-2.048-1.308-2.353-1.525.218.087 1.656-.436 1.699-1.743-.131-1.09-.958-2.267-1.307.175.218.262.436.305.654-.609-.393-.871-.218-1.133.043.306.087.566.043.654.349-.088.174-.131.218-.479.392.522.218.958.131 1.264 0 .522.479 1.308.392 1.351.784.479-.392.697-.349.828-.218-.218.218-.436.262-.479.654.262.087.654.043.784-.174.131-.088.873-.175.306.566zm-3.922 7.103c-.262.174-.393.392-.349.741.261-.087.436-.392.74-.349.654.087 1.177.741 1.83.741.523 0 1.09-.218 1.352-.566.261-.349-.349-.872-.741-.654.349.087.436.392.305.523-.218.305-.958.262-1.481 0 .131-.174.262-.087.566-.566-.522-.087-.915.043-1.612-.305.131-.174.523-.392.654-.566-1.046-.131-2.44-.61-3.226-.741-.784-.131-1.699.741-1.83 1.22-.392 1.395 6.406 2.615 6.493 3.312.044.261-1.002.043-1.438-.131-1.961-.654-5.187-1.961-5.753-2.266.044.131 0 .392-.043.566-.262-.087-.479-.218-.741-.305-.218.305-.479.61-.697.916.044.174.131.479.131.653.436 0 1.002.044 1.438.131 1.089.218 2.004-.566 2.963-.349.131.654.218 1.351.959 2.135 1.22.262 3.05.523 2.832 1.133-.087.261-.566.174-.828.261-.479.218-.522.479-.609.828.479-.305.871-.479 1.22-.479-.131.393-.305.654-.61 1.002.306.131.697-.174 1.177-.479 0 .305-.131.566-.349.872.393-.043.785-.349 1.003-.697-.088-.305-.306-.566-.393-.872.087 0 .349.043.436.043-.087-.305-.479-.653-.392-.958.043-.174.349-.218.522-.305-1.177-.566-2.527-.653-2.789-1.002-.131-.131-.131-.479-.131-.654.61.131 1.221.349 1.83.436.437.044.741.131 1.003-.436.479-1.089-6.668-2.092-6.711-3.312 0-.523.479-.915 1.264-.915 1.09.131 1.787.697 2.005 1.394zm-.872 5.578c-.174.218 1.438-.479.61-1.09-.784-.523-1.395-2.048-1.308-2.31-1.525.218.087 1.656-.436 1.7-1.743-.131-1.046-.959-2.267-1.308.175.218.262.436.306.654-.61-.392-.872-.218-1.133.043.305.087.566.044.653.349-.087.174-.131.218-.479.392.523.218.959.131 1.264 0 .523.479 1.308.393 1.395.785.479-.392.697-.349.828-.218-.218.218-.436.261-.479.654.262.087.653.043.784-.175.088-.129.829-.217.262.524zm-3.922 7.103c-.262.174-.393.436-.349.741.305-.087.436-.392.74-.349.654.087 1.177.741 1.831.741.522 0 1.089-.218 1.351-.567.262-.305-.349-.872-.741-.654.349.087.437.393.306.523-.218.305-.959.261-1.481 0 .13-.175.261-.087.566-.567-.523-.087-.915.044-1.612-.305.13-.174.522-.393.653-.567-1.046-.13-2.44-.61-3.225-.741-.785-.131-1.7.741-1.83 1.264-.393 1.395 6.405 2.571 6.493 3.312.043.262-1.003.043-1.438-.131-1.961-.653-5.186-1.961-5.752-2.222 0 .13 0 .392-.044.566-.262-.087-.479-.261-.741-.305-.218.305-.479.61-.697.915.044.175.131.479.131.654.437-.043 1.003.043 1.438.131 1.09.218 2.005-.566 2.963-.349.131.61.218 1.351.959 2.135 1.221.262 3.051.523 2.833 1.133-.088.261-.566.174-.828.261-.479.218-.523.479-.61.828.479-.305.872-.479 1.221-.479-.131.392-.306.654-.61 1.002.305.13.697-.174 1.177-.479 0 .305-.131.566-.349.872.392-.043.784-.349 1.002-.697-.087-.305-.305-.566-.393-.872.088 0 .349.043.437.087-.088-.305-.479-.654-.393-.959.044-.174.349-.218.522-.305-1.176-.566-2.527-.653-2.789-1.002-.13-.131-.13-.479-.13-.654.609.087 1.22.349 1.83.436.436.044.74.131 1.002-.436.479-1.089-6.667-2.092-6.711-3.312 0-.523.479-.915 1.264-.915 1.089.003 1.83.569 2.004 1.266zm-.872 5.622c-.174.218 1.438-.479.61-1.089-.74-.523-1.395-2.048-1.308-2.354-1.524.218.088 1.656-.436 1.7-1.743-.131-1.046-.958-2.266-1.307.174.218.261.436.305.653-.61-.392-.871-.218-1.133.044.305.087.566.043.653.349-.087.174-.131.218-.479.392a1.57 1.57 0 0 0 1.265 0c.522.479 1.307.392 1.394.784.479-.392.697-.349.828-.218-.218.218-.436.262-.479.654.262.087.654.043.785-.131s.872-.261.261.523zm-5.708-2.963c.174-.261.392-.392.609-.436-.131-.523-.218-1.046-.566-1.482-.479 0-.697.262-.958.566-2.615-.261-1.482-1.395-2.702-1.787.218.305.349.61.436.916-.74-.393-1.046-.393-1.395-.087.393.174.61.261.784.61-.305.087-.392.262-.871.174.131.567.697.741 1.351.262.349.305.566.654.741 1.046.174-.131.392-.174.566-.262.262.436.175.741.959.785v-.523c.74.523.784.697 1.395.872 0-.131.087-.349.305-.392-.262-.088-.436-.088-.654-.262zm-1.743-5.709c-.218 0-.523-.087-.741-.087-.262-.043-.393.131-.479.392.393-.043.741-.043 1.09.044a5.396 5.396 0 0 1-.784 1.089c.305 0 .609-.043.74.174-.305.218-.522.697-.436 1.002.479.262.305.262.479.828.087.262.871.218 1.177.218.043-.218.218-.566.261-.784-.305-.087-.697 0-1.002-.043.087-.262.262-.479.436-.654-.043-.218-.218-.305-.261-.523 0-.392-.088-.828.043-1.177s.566-.566.653-.915c.088-.305-.349-.654-.522-.958.044.261.087.479.087.741-.131.087-.261.261-.392.392-.088-.174-.044-.392-.175-.523-.349-.349-.653-.261-.915-.261.131.174.349.261.479.479.218.304.262.392.262.566zm3.007 3.573c.305.131.392.174.697.305-.044-.392.131-.785.087-1.177.174-.043.305.087.479-.043-.087-.218-.131-.349-.218-.566.131 0 .349-.131.479-.131-.088-.174-.219-.262-.306-.436a2.56 2.56 0 0 0 .523-.218c-.044-.218-.218-.479-.61-.61.566-.305.522-.262-.131-.305 0-.218.044-.349-.044-.523-.305 0-.653-.043-.784.043-.087-.349 0-.305-.305-.479-.175.174-.306.349-.218.741-.61-.131-.567.523-.479.741-.566 0-1.003.218-1.133.61.13.087.261.262.392.392-.566.087-.958.697-1.002.872.349 0 .653-.044 1.002 0-.087.305-.262.784-.349 1.089.349-.174.436-.218.784-.218.219.305.306.523.437.916.22-.393.481-.654.699-1.003zm-.306-12.202c-.305.087-.392.262-.871.174.131.567.697.741 1.351.262.349.305.566.61.741 1.046.174-.131.392-.174.566-.262.262.436.174.741.959.785v-.523c.74.523.784.697 1.395.872 0-.131.087-.349.305-.393-.175-.087-.349-.087-.522-.261.174-.261.392-.392.609-.436-.131-.523-.218-1.046-.566-1.482-.479 0-.697.262-.959.566-2.614-.261-1.524-1.395-2.701-1.787.218.305.349.61.392.915-.74-.392-1.046-.392-1.395-.087.261.176.523.219.696.611zm2.049-4.053c-.218 0-.523-.087-.741-.087-.262-.044-.393.131-.479.392.393-.043.741-.043 1.09.043a5.404 5.404 0 0 1-.784 1.09c.305 0 .609-.044.74.174-.305.218-.522.697-.436 1.002.479.262.305.262.479.828.087.261.871.218 1.177.218.043-.218.218-.566.261-.784-.305-.087-.697.043-1.002-.044.087-.261.262-.523.436-.653-.043-.218-.218-.305-.261-.523 0-.393-.088-.828.043-1.177s.566-.566.653-.915c.088-.305-.349-.654-.522-.959.044.262.087.479.087.741l-.392.392c-.044-.174-.044-.392-.175-.523-.349-.349-.653-.262-.915-.262.131.174.349.262.479.479.218.307.305.394.262.568zm2.701-8.628c-.305.087-.392.262-.871.174.131.566.697.741 1.351.262.349.305.566.653.741 1.046.174-.131.392-.174.566-.262.262.436.175.741.959.784v-.522c.74.522.784.697 1.395.871 0-.13.087-.349.305-.436-.175-.087-.349-.087-.566-.262.174-.261.392-.392.61-.436-.131-.523-.219-1.046-.566-1.481-.479 0-.697.261-.959.566-2.615-.262-1.525-1.395-2.702-1.787.218.305.349.61.436.915-.74-.392-1.046-.392-1.395-.087.305.219.566.263.696.655zm-1.612 10.154l.393.392c-.566.087-.959.697-1.002.915.349 0 .653-.043 1.002 0-.087.305-.262.828-.349 1.09.349-.174.436-.218.784-.218.218.305.305.523.436.916.219-.349.479-.61.697-.959.262.131.393.174.697.305-.043-.392.131-.785.088-1.177.174-.043.261.087.436-.043-.087-.218-.131-.349-.218-.523.131 0 .349-.131.479-.131-.088-.174-.219-.261-.306-.436.175-.087.349-.131.523-.218-.044-.218-.218-.479-.61-.61.566-.305.522-.262-.131-.305 0-.218.044-.349-.044-.523-.305 0-.653-.043-.784.044-.087-.349 0-.305-.305-.479-.175.174-.306.349-.218.741-.61-.131-.566.523-.479.741-.523-.132-.958.086-1.089.478zm5.927-13.292c-.566 0-1.002.218-1.133.61l.393.392c-.567.087-.959.697-1.003.872.349 0 .654-.043 1.003 0-.088.305-.262.784-.349 1.089.349-.174.436-.218.784-.218.218.305.305.523.436.915.218-.349.479-.61.697-.958.262.13.393.174.697.305-.044-.392.131-.784.087-1.176.175-.044.262.087.437-.044-.088-.218-.131-.349-.219-.566.131 0 .349-.131.479-.131-.087-.174-.218-.261-.305-.436.174-.043.349-.131.522-.218-.043-.218-.218-.479-.609-.61.566-.305.522-.261-.131-.305 0-.218.043-.348-.044-.523-.305 0-.653-.043-.784.044-.087-.349 0-.305-.305-.479-.175.174-.306.349-.219.741-.565-.219-.565.479-.434.696zm-2.223-.915c-.218 0-.522-.087-.74-.087-.262-.043-.393.131-.479.393.393-.044.74-.044 1.09.043a5.37 5.37 0 0 1-.785 1.089c.306 0 .61-.043.741.174-.306.218-.523.697-.436 1.002.479.261.305.261.479.828.088.261.872.218 1.177.218.044-.218.218-.566.262-.785-.305-.087-.697 0-1.002-.043.087-.261.261-.479.436-.654-.044-.218-.218-.305-.262-.523 0-.392-.087-.828.044-1.176s.566-.567.653-.916c.087-.305-.349-.653-.522-.958 0 .261.087.479.087.741-.131.087-.262.262-.393.393-.043-.175-.043-.393-.174-.523-.349-.349-.654-.261-.915-.261.131.174.349.261.479.479.217.305.304.392.26.566zm-14.555 8.106c.522-.043 1.22-.697 1.874-1.787.131.043.131.218.262.262-.567.697-1.221 1.351-1.787 2.004.218.218.436.566.522.915.044.131.044.305.044.479 0 .131 0 .305-.044.436.218-.349.437-.566.654-.697.305-.218.653-.349 1.002-.349 0-.872-.044-1.787 0-2.702.087 0 .262-.087.349-.043-.218 1.264-.087 2.222.262 2.571.305.349 1.133.131 1.351-.305.393-.697.218-1.09.131-1.177-.218-.218-.566-.131-.61-.043.218.566-.174.872-.392.653-.349-.305-.218-.915-.175-1.438.262.087.349.218.479.262.175-.174.393-.436.349-.872-.044-.174-.262-.218-.436-.436.262-.566 1.046-1.351 1.481-.872.305.349-.087.697-.393 1.046-.392.523-.218.916.044 1.177.087-.218.087-.479.262-.61.305-.218.915-.175 1.525-.872.609-.653 1.046-2.266.436-2.963-.61-.654-2.048-.131-3.094 1.395-.219.305-.697.958-.828 1.481-.088-.043-.088-.131-.175-.174.697-1.395 1.787-2.484 2.615-3.878.828-1.351.566-2.833.261-4.314-1.22.916-2.353 1.874-2.658 3.399-.261 1.569-.174 3.094-.566 4.619-.087-.043-.174.043-.262 0 .219-.479.306-1.307.306-1.656.218-1.831-.523-3.181-1.438-3.094s-1.656 1.612-1.612 2.484c0 .915.479 1.308.566 1.656.044.174-.131.392-.218.61.393 0 .784-.174.828-.828.044-.436-.087-.958.393-1.002.653-.087.697 1.046.522 1.656-.262.043-.436-.043-.61.043-.349.262-.349.61-.349.872.131.043.306-.043.523.087-.306.392-.61.958-1.09.958-.305 0-.392-.479.131-.741 0-.131-.174-.392-.522-.392-.131 0-.523.174-.697.958-.131.568.349 1.265.784 1.222zm-3.006-14.119c-1.221.872-2.354 1.874-2.658 3.399-.262 1.569-.175 3.094-.566 4.619-.088-.043-.175.044-.262 0 .218-.479.305-1.307.305-1.656.218-1.874-.522-3.181-1.438-3.094-.916.087-1.656 1.612-1.656 2.484 0 .915.479 1.264.566 1.656.044.174-.131.392-.218.61.392 0 .784-.174.828-.828.043-.436-.087-.959.392-1.002.654-.087.697 1.046.523 1.656-.262.044-.436-.043-.61.044-.349.261-.349.61-.349.872.131.043.305-.044.523.087-.306.392-.61.959-1.09.959-.305 0-.393-.479.131-.741 0-.13-.175-.392-.523-.392-.131 0-.522.174-.697.959-.087.479.393 1.176.828 1.133.523-.043 1.221-.697 1.874-1.787.131.043.131.174.262.261-.566.697-1.221 1.351-1.787 2.005.218.218.437.566.523.915.043.218.087.566 0 .958.218-.349.436-.566.61-.697.305-.218.653-.349 1.002-.349 0-.871-.044-1.787 0-2.702.131 0 .262-.087.349-.043-.218 1.264-.087 2.223.262 2.571.305.349 1.133.13 1.351-.305.393-.697.218-1.089.087-1.177-.218-.218-.522-.131-.61-.043.219.566-.174.872-.392.654-.349-.305-.218-.916-.175-1.438.262.087.349.218.479.305.175-.174.393-.436.349-.872-.043-.174-.262-.218-.436-.436.305-.567 1.046-1.351 1.481-.872.306.349-.131.697-.392 1.002-.393.523-.219.916.043 1.177.087-.218.087-.479.262-.61.305-.218.915-.174 1.525-.872.609-.654 1.046-2.31.436-2.963s-2.048-.131-3.094 1.395c-.218.305-.697.958-.872 1.438-.087-.043-.087-.131-.174-.174.697-1.395 1.786-2.484 2.614-3.878a4.232 4.232 0 0 0 .566-2.135c.132-.655.001-1.396-.172-2.093zm-2.005 24.796c-.392.523-.218.915.044 1.177.087-.218.087-.479.261-.61.306-.218.916-.174 1.525-.872.61-.653 1.046-2.31.437-2.963-.61-.654-2.049-.131-3.095 1.394-.218.305-.697.959-.828 1.482-.087-.043-.087-.131-.174-.174.697-1.395 1.786-2.484 2.614-3.878a4.232 4.232 0 0 0 .566-2.135c0-.697-.13-1.438-.305-2.136-1.22.872-2.354 1.874-2.658 3.399-.262 1.569-.174 3.094-.566 4.619-.087-.043-.175.043-.262 0 .218-.479.306-1.307.306-1.656.218-1.831-.523-3.181-1.438-3.094-.915.087-1.656 1.612-1.656 2.484 0 .915.479 1.308.566 1.656.044.174-.131.392-.218.61.393 0 .784-.174.828-.828.044-.436-.087-.958.393-1.002.653-.087.697 1.046.522 1.656-.262.043-.436-.043-.61.043-.349.262-.349.61-.349.872.131.044.306-.043.523.087-.305.392-.61.958-1.09.958-.305 0-.392-.479.131-.741 0-.131-.174-.392-.522-.392-.131 0-.523.174-.697.958-.088.479.349 1.177.828 1.133.522-.043 1.22-.697 1.873-1.787.131.043.131.218.262.261-.566.697-1.22 1.351-1.786 2.005.218.218.436.566.522.915.044.131.044.305.044.479 0 .13 0 .305-.044.436.218-.349.436-.566.653-.697.306-.218.654-.349 1.003-.349 0-.872-.044-1.787 0-2.702.087 0 .262-.087.349-.044-.218 1.264-.087 2.223.262 2.571.305.349 1.133.131 1.351-.305.392-.697.218-1.089.131-1.176-.218-.218-.566-.131-.61-.044.218.567-.174.872-.393.654-.349-.305-.218-.915-.174-1.438.262.087.349.218.479.305.174-.174.392-.436.349-.872-.044-.174-.262-.218-.436-.436.305-.566 1.045-1.351 1.481-.872.261.351-.131.7-.392 1.049zm.653-34.95l.131-.349-.131.349zm-66.675 19.523c-1.046 3.748 14.294 5.883 14.338 7.757.043.61-2.267.262-3.312-.087-4.401-1.395-11.592-4.314-12.812-5.055 0 .392-.087 1.002-.218 1.481-.566-.174-1.09-.566-1.656-.741-.566.828-1.177 1.656-1.699 2.484.043.479.218 1.22.218 1.656 1.002-.131 2.266-.043 3.225.131 2.44.436 4.619-1.831 6.886-1.395.218 1.656.261 3.486 1.873 5.534 2.789.523 6.842.959 6.319 2.528-.262.697-1.351.523-1.961.872-1.133.61-1.308 1.395-1.525 2.31 1.09-.872 2.092-1.438 2.833-1.438-.349 1.09-.785 1.743-1.525 2.702.609.305 1.655-.566 2.745-1.438-.044.784-.436 1.569-.871 2.353.871-.218 1.83-1.046 2.353-1.961-.174-.784-.61-1.481-.784-2.266.218 0 .784.087 1.002.087-.174-.828-.958-1.656-.74-2.484.131-.479.828-.653 1.264-.872-2.571-1.351-5.753-1.351-6.275-2.179-.262-.349-.218-1.22-.218-1.656 1.351.174 2.789.741 4.184.871.958.087 1.699.218 2.353-1.307 1.221-2.92-14.947-4.532-14.859-7.713.043-1.395 1.22-2.527 3.007-2.615 2.527-.131 4.053 1.351 4.401 3.138-.654.523-1.003 1.133-.872 1.961.654-.261 1.046-1.133 1.743-1.046 1.525.174 2.615 1.831 4.097 1.7 1.22-.087 2.527-.697 3.225-1.7.61-.915-.653-2.179-1.568-1.612.74.174.958.959.609 1.395-.522.828-2.266.828-3.442.218.349-.523.61-.261 1.351-1.525-1.22-.131-2.092.218-3.66-.61.393-.523 1.22-1.133 1.612-1.656-2.396-.218-5.534-1.264-7.277-1.482-1.749-.132-3.971 2.396-4.364 3.66zm5.753 15.601c-.436.61 3.398-1.525 1.568-2.92-1.655-1.307-2.876-5.229-2.658-5.97-3.486.785-.087 4.401-1.308 4.576-3.922-.13-2.31-2.396-5.011-3.094.349.523.479 1.177.609 1.743-1.351-.915-1.961-.523-2.57.261.653.174 1.307 0 1.481.828-.262.479-.349.61-1.177 1.046 1.177.523 2.179.218 2.876-.218 1.09 1.176 2.92.872 3.051 1.83 1.133-1.133 1.656-1.002 1.961-.654-.566.61-1.09.785-1.264 1.831.61.131 1.481.043 1.83-.523.307-.523 2.05-.828.612 1.264zm-10.894-19.61c-1.308.131-2.354.697-2.702 1.787.305.262.522.654.872.916-1.308.349-2.311 2.004-2.484 2.527.784-.043 1.481-.174 2.266-.174-.218.828-.74 2.135-.958 2.963.827-.566 1.089-.654 1.83-.741.479.741.61 1.307.871 2.31.566-.915 1.177-1.7 1.7-2.658.653.305.915.436 1.525.697-.088-1.002.436-2.135.349-3.138.436-.131.653.131 1.089-.218-.131-.567-.262-.828-.392-1.395.349-.044.784-.349 1.133-.393-.175-.436-.437-.697-.61-1.133.436-.218.828-.436 1.264-.61-.043-.567-.393-1.22-1.264-1.525 1.395-.915 1.22-.741-.262-.828 0-.566.131-.915-.043-1.395-.697.087-1.525-.043-1.831.174-.174-.872.044-.741-.653-1.22-.393.479-.697 1.002-.566 1.961-1.309-.261-1.352 1.526-1.134 2.093zM417.698 369c.436-.697.915-1.089 1.481-1.264-.218-1.307-.305-2.746-1.046-3.835-1.133.043-1.699.828-2.31 1.656-5.927-.218-3.225-3.443-5.927-4.271.479.741.653 1.569.828 2.31-1.699-.915-2.31-.828-3.225.044.828.392 1.395.566 1.743 1.481-.697.305-.915.828-2.049.61.175 1.481 1.482 1.83 3.095.523a6.248 6.248 0 0 1 1.524 2.658c.393-.349.916-.479 1.308-.828.523 1.133.262 2.004 2.049 2.004 0-.436.043-1.002.043-1.394 1.569 1.264 1.743 1.743 3.051 2.091 0-.349.262-.958.74-1.133-.476-.347-.869-.347-1.305-.652zm-3.224-14.86c-.479.043-1.177-.087-1.656-.087-.566-.043-.915.436-1.177 1.089.871-.13 1.743-.261 2.484-.043-.437 1.002-1.395 2.353-2.005 2.963.74-.043 1.395-.174 1.743.349-.697.61-1.308 1.961-1.177 2.746 1.09.61.697.697.915 2.135.131.741 1.961.392 2.702.436.131-.566.566-1.569.697-2.092-.697-.13-1.569.174-2.267.044.218-.741.654-1.351 1.133-1.831-.087-.523-.479-.784-.566-1.307.044-1.09-.043-2.136.306-3.182.349-.958 1.395-1.568 1.612-2.571.218-.872-.697-1.656-1.046-2.484 0 .697.087 1.22.087 1.917-.262.305-.653.784-.959 1.089-.13-.479-.043-1.046-.349-1.395-.74-.872-1.438-.61-2.092-.566.306.479.785.653 1.046 1.176.525.96.656 1.134.569 1.614zm-50.552 6.667c2.354 0 5.447-2.005 8.062-5.709.566.174.784.785 1.22 1.046-2.396 2.223-5.055 4.358-7.451 6.581 1.133.915 2.31 2.179 2.789 3.617.305.872.609 2.135.436 3.486.784-1.133 1.83-1.874 2.658-2.31 1.308-.741 3.007-.915 4.445-.872-.349-3.269-.915-6.624-1.265-9.893.523.087 1.09-.174 1.613.044-.479 4.488.522 8.062 2.266 9.587 1.569 1.395 5.316.916 6.231-.479 1.569-2.44.523-3.878 0-4.358-1.133-.915-2.614-.697-2.963-.479 1.264 2.092-.349 3.094-1.525 2.266-1.83-1.351-1.395-3.53-1.525-5.36 1.264.393 1.7.916 2.267 1.264.697-.61 1.655-1.482 1.133-3.051-.349-.653-1.221-.872-2.179-1.743 1.089-1.917 4.271-4.532 6.536-2.571 1.612 1.395-.218 2.484-1.264 3.573-1.656 1.7-.697 3.269.784 4.314.306-.697.262-1.743.915-2.092 1.352-.697 4.271-.305 6.799-2.528 2.483-2.179 3.922-7.931.653-10.633-3.225-2.746-9.587-1.438-13.901 3.704-.828.958-2.832 3.225-3.312 4.968-.437-.174-.566-.566-.959-.741 2.702-4.837 7.277-8.367 10.546-12.986 3.182-4.576 1.481-10.154-.653-15.688-5.229 2.746-10.241 5.796-10.852 11.374-.61 5.622.479 11.287-.653 16.69-.436-.13-.784.087-1.221-.087.828-1.612.741-4.663.785-5.927.13-6.711-3.792-11.853-8.019-11.94-4.228-.087-6.973 5.142-6.537 8.454s2.876 4.924 3.442 6.363c.262.697-.479 1.438-.697 2.179 1.831.218 3.574-.349 3.443-2.702-.088-1.525-.741-3.573 1.395-3.53 2.963.044 3.66 4.14 3.225 6.275-1.264.043-2.092-.349-2.789-.131-1.438.828-1.264 2.136-1.177 3.051.653.174 1.351.043 2.527.566-1.307 1.307-2.396 3.225-4.662 3.05-1.395-.13-1.962-1.961.349-2.702-.131-.436-1.046-1.569-2.528-1.612-.697-.043-2.44.349-2.876 3.225-.086 1.658 2.397 4.447 4.489 4.447zm-35.342 65.28c1.743-8.105 4.01-9.849 8.803-7.582l2.267-4.794c-2.833-7.19-13.423-.262-11.07 12.376zm11.68-13.727l3.355-6.581-.219-12.114-5.577 15.601 2.441 3.094zm-10.198 14.119c2.092-4.14 3.356-2.963 4.62-1.874l2.179-4.968c-1.526-1.96-7.017-2.135-6.799 6.842zm-1.264 27.499c7.06-17.432 14.947-39.09 20.265-52.991-2.528-.349-15.819 24.229-23.358 51.204-.305 1.133 2.658 2.832 3.093 1.787zm2.484 12.245l-.566-10.066c-1.177-.305-2.615-.74-3.661-1.395l.915 10.633c.872.872 2.353 1.351 3.312.828zm18.39-64.975c-5.186 13.901-13.553 35.429-19.74 53.165-.349 1.046 3.007 1.743 3.486.741 12.114-25.275 18.39-52.511 16.254-53.906zm7.06 35.995c1.743-8.105 4.01-9.849 8.804-7.539l2.266-4.793c-2.834-7.19-13.423-.306-11.07 12.332zm11.679-13.683l3.355-6.58-.218-12.115-5.578 15.602 2.441 3.093zm-10.241 14.119c2.092-4.14 3.355-2.963 4.619-1.873l2.179-4.969c-1.524-1.961-6.972-2.135-6.798 6.842zm.567-38.262l-8.149 8.978-1.83 7.146 3.879-.697 6.1-15.427zm-11.635 33.512c6.057-6.624 1.83-10.109-.567-9.631l-1.655 5.187c1.654-.001 3.398-.045 2.222 4.444zm1.22-15.95l-1.481 5.099c5.099 1.438 5.665 4.227 1.612 11.505 10.11-7.975 6.71-20.134-.131-16.604zm8.584 48.198c7.06-17.431 14.947-39.09 20.264-52.991-2.527-.392-15.818 24.187-23.357 51.205-.306 1.132 2.658 2.832 3.093 1.786zm2.485 12.246l-.567-10.066c-1.176-.306-2.614-.741-3.704-1.395l.915 10.633c.915.871 2.397 1.307 3.356.828zm18.39-64.976c-5.186 13.901-13.553 35.43-19.741 53.166-.392 1.089 3.007 1.743 3.486.74 12.158-25.318 18.39-52.511 16.255-53.906zm7.712 35.648c1.743-8.149 4.01-9.849 8.804-7.583l2.266-4.794c-2.789-7.147-13.422-.261-11.07 12.377zm11.68-13.684l3.355-6.581-.218-12.114-5.578 15.601 2.441 3.094zm-10.197 14.075c2.048-4.14 3.355-2.963 4.619-1.874l2.179-4.968c-1.526-1.96-7.016-2.134-6.798 6.842zm-.131-37.869l-8.149 8.977-1.83 7.147 3.878-.697 6.101-15.427zm-11.592 33.468c6.058-6.624 1.83-10.11-.566-9.631l-1.656 5.187c1.612.043 3.399-.044 2.222 4.444zm1.22-15.906l-1.481 5.099c5.099 1.438 5.665 4.228 1.612 11.505 10.066-7.975 6.711-20.178-.131-16.604zm9.239 47.849c7.06-17.432 14.99-39.09 20.264-52.948-2.527-.349-15.819 24.187-23.358 51.205-.349 1.089 2.658 2.789 3.094 1.743zm18.303-21.091c6.058-6.624 1.83-10.11-.566-9.631l-1.656 5.186c1.655-.001 3.399-.045 2.222 4.445zm1.35.653c10.11-7.932 6.711-20.133-.131-16.604l-1.481 5.099c5.099 1.438 5.665 4.27 1.612 11.505zm10.285-34.122l-8.148 8.978-1.831 7.146 3.879-.697 6.1-15.427zm-9.108 1.787c-5.186 13.901-13.553 35.429-19.741 53.165-.392 1.09 3.007 1.743 3.486.741 12.159-25.275 18.391-52.469 16.255-53.906zm-18.346 65.018l-.566-10.066c-1.177-.305-2.614-.741-3.704-1.395l.915 10.633c.914.872 2.396 1.352 3.355.828zm50.333.655c4.488 2.353 8.498 3.442 9.544 1.742-3.53-1.524-6.711-3.181-9.239-5.229.916-.566 2.397-.697 3.574-.566-2.964-3.835-8.411-2.311-8.978-11.767-.087-1.569-.131-3.704-.436-5.229-.306-1.481-1.352-2.31-2.44-2.136-.523.088-1.874 1.134-3.748 1.613.915.915 1.656 2.135 2.005 3.225-2.615 3.442-3.835 6.101-3.399 8.192 2.658 12.594 9.937 2.396 12.202 17.954.305.393 1.525.306 1.568-.087.131-2.44-.305-5.098-.653-7.712zm28.151 28.935c-3.529-1.525-6.711-3.182-9.282-5.229.915-.566 2.397-.697 3.574-.566-3.007-3.835-8.411-2.31-8.978-11.723-.087-1.568-.087-3.704-.436-5.229-.306-1.481-1.352-2.31-2.397-2.135-.566.087-1.873 1.176-3.747 1.612.915.915 1.656 2.135 2.004 3.225-2.614 3.442-3.834 6.101-3.398 8.192 2.658 12.551 9.936 2.397 12.202 17.911.305.392 1.524.305 1.524-.087.088-2.44-.305-5.1-.653-7.714 4.488 2.354 8.498 3.442 9.587 1.743zm28.064-9.587c-3.529-1.525-6.711-3.182-9.282-5.229.959-.566 2.397-.697 3.574-.566-2.964-3.835-8.411-2.31-8.978-11.723-.087-1.569-.131-3.704-.436-5.229-.306-1.481-1.352-2.31-2.44-2.136-.566.088-1.874 1.133-3.748 1.612.915.915 1.656 2.136 2.005 3.226-2.571 3.442-3.791 6.101-3.355 8.192 2.658 12.551 9.936 2.354 12.202 17.91.305.393 1.524.306 1.524-.087.088-2.44-.305-5.099-.653-7.713 4.533 2.353 8.541 3.443 9.587 1.743zm-1.132-33.642c1.612-2.92 2.048-4.794 1.177-5.187-4.228 2.267-12.071 1.047-23.707-3.485 4.271-11.723 8.542-18.434 12.986-20.134.306-.915-1.395-1.83-4.662-2.527.349-4.532-.785-6.014-.828-5.927.043-.044-1.83.262-4.576 3.922-2.92-1.655-4.793-2.048-5.186-1.177 2.266 4.228 1.046 12.071-3.486 23.663-11.723-4.271-18.434-8.541-20.133-12.986-.915-.261-1.831 1.395-2.528 4.663-4.532-.349-6.014.828-5.926.828-.088-.044.305 1.787 3.922 4.532-1.656 2.92-2.092 4.794-1.177 5.186 4.227-2.266 12.071-1.002 23.706 3.53-4.271 11.723-8.541 18.434-13.029 20.133-.306.915 1.395 1.83 4.663 2.527-.349 4.532.827 6.014.827 5.927-.043.087 1.831-.261 4.532-3.922 2.92 1.656 4.794 2.048 5.187 1.177-2.267-4.228-1.003-12.071 3.529-23.707 11.723 4.271 18.434 8.542 20.134 12.986.915.306 1.83-1.395 2.527-4.662 4.532.349 6.014-.828 5.927-.828.13.043-.262-1.787-3.879-4.532zm-49.288-45.192c-2.614 3.443-3.791 6.102-3.355 8.193 2.658 12.551 9.936 2.396 12.202 17.91.305.393 1.525.306 1.525-.087.087-2.44-.306-5.099-.654-7.713 4.445 2.353 8.498 3.442 9.544 1.743-3.529-1.525-6.711-3.182-9.282-5.273.915-.566 2.396-.697 3.573-.566-3.007-3.835-8.41-2.31-8.977-11.723-.088-1.568-.131-3.704-.437-5.272-.305-1.482-1.351-2.311-2.396-2.136-.566.087-1.874 1.177-3.748 1.612.917 1.047 1.657 2.266 2.005 3.312zm65.935 37.696c-3.53-1.524-6.712-3.181-9.282-5.272.915-.566 2.396-.697 3.573-.566-3.007-3.835-8.454-2.31-8.978-11.723-.087-1.569-.131-3.704-.436-5.229-.305-1.481-1.351-2.31-2.44-2.136-.566.088-1.874 1.134-3.748 1.612.915.916 1.656 2.136 2.005 3.226-2.614 3.442-3.835 6.101-3.355 8.192 2.658 12.594 9.936 2.396 12.202 17.954.305.393 1.525.306 1.525-.087.087-2.44-.306-5.099-.654-7.714 4.532 2.353 8.542 3.443 9.588 1.743zm46.192-68.81c-11.068-12.856-18.738-28.5-23.009-47.065-1.482.349-2.964.654-4.445.828l.044-.131.087-.218-.218.043c-.218.043-.436.043-.654.087.219-.044.437-.044.654-.087l.218-.043-.087.218-.044.131-16.646 44.145-17.78-6.711 14.425-38.349-1.09-.436-14.425 38.349-17.954-6.755 15.731-41.617c-7.582-5.011-15.47-11.635-23.706-19.872l-.523-.523-.174-.174-.044.087-1.525-.087-34.165 93.389-41.399-15.078 29.372-80.664-1.134-.392-29.328 80.664-49.505-18.042-.828 2.223 91.994 33.511-43.36 118.621 2.223.827 43.36-118.62 92.43 33.687.828-2.223c5.533-19.131 17.212-35.037 30.677-49.723zm-409.897-27.193c9.631-3.53 17.126-7.321 16.734-8.454-.437-1.133-8.585.828-18.216 4.358s-16.996 7.278-16.604 8.411c.437 1.133 8.455-.785 18.086-4.315zm-10.372 55.431l.828 1.09c-.174.131-.392.479-.609 1.089-.262.697-.523 1.743-.741 3.226l-.087.566h-.566c-.697-.044-1.352-.044-1.961-.044-.741-.044-1.482-.044-2.18-.044-.871.61-1.743 1.221-2.614 1.787-.741.479-1.481 1.002-2.223 1.525.61.784 1.133 1.525 1.656 2.266l2.44-3.138 5.49.61-2.658 5.316-3.617-.174c2.049 3.573 2.964 6.667 2.702 9.238a9.275 9.275 0 0 1-.522 2.223 7.407 7.407 0 0 1-1.134 1.961l-.043.087h.131l6.188-.043 1.612-3.792.175-.392.393-.044 1.743-.131-1.003-4.488-.174-.697.74-.087 1.656-.218-2.179-3.792 1.177-.653 2.57 4.663.479.871-1.002.131-1.917.262 1.002 4.532.174.74-.784.044-2.135.175-1.613 3.791-.174.393h-.436l-3.225.043c1.045.697 2.004 1.874 2.527 3.355 1.002 2.833.218 5.753-1.831 6.493-2.048.741-4.531-1.002-5.534-3.835-.479-1.264-.566-2.571-.305-3.66l-1.918 2.092-.305.349-.436-.175-3.617-1.481-1.743 1.656-.61.566-.436-.697-2.658-4.358-1.351 2.484-.697 1.351-.523-1.438-1.874-5.404 1.264-.436 1.438 4.053 1.177-2.179.566-1.046.61 1.002 2.789 4.62 1.438-1.395.306-.306.436.175 3.573 1.481 3.835-4.271-.218-.044c-.087 0-.349-.044-.61-.087-3.225-.566-6.406-1.09-8.585-9.587l-2.266 2.701-5.753-1.612 3.225-4.488 4.097.305a36.661 36.661 0 0 1-.436-2.614c-1.83.087-2.223.131-2.223.131h-.044c-1.22.043-2.44.13-3.878.174-.697.784-1.264 1.525-1.612 2.223-.349.741-.566 1.481-.566 2.179l.043 1.612-1.177-1.133c-1.699-1.656-3.355-2.266-5.229-3.007-.305-.131-.609-.218-.74-.305l.479-1.264c.349.13.566.218.74.305 1.7.653 3.182 1.22 4.707 2.44.131-.479.305-.959.522-1.395.437-.915 1.134-1.83 2.005-2.789l.174-.175h.306c1.22-.043 2.658-.13 4.097-.218.827-.043 0 0 2.876-.131l.609-.043.088.61c.958 6.58 2.179 10.109 3.66 12.07.087-.087.218-.174.349-.261.306-.262.654-.479.959-.697a12.978 12.978 0 0 1 4.924-1.961c-.566-3.095-2.57-6.842-6.057-11.243l-.437-.566.61-.393c.959-.654 1.874-1.264 2.789-1.918.959-.653 1.874-1.264 2.789-1.917l.175-.131h.218c.871 0 1.612.044 2.396.044.479 0 .959 0 1.395.043.218-1.264.479-2.223.741-2.92.438-1.04.786-1.52 1.178-1.826zm-18.303 17.083c-.436-1.22-1.264-2.048-1.83-1.83s-.697 1.351-.262 2.571c.437 1.22 1.264 2.048 1.831 1.83.61-.217.698-1.351.261-2.571zm12.813 4.968a12.222 12.222 0 0 0-4.358 1.743 6.392 6.392 0 0 0-.871.61c-.087.087-.175.131-.262.218 1.308 1.22 2.702 1.438 4.14 1.699.088.044.131.044.219.044.305-.436.522-.828.697-1.308.218-.566.349-1.22.436-1.83l-.001-1.176zm-.349-10.546c.61 1.133 1.525 1.83 2.092 1.569.522-.306.479-1.438-.131-2.571-.61-1.134-1.525-1.831-2.092-1.569-.523.262-.479 1.438.131 2.571zm-33.25-37.608c-9.631 3.53-16.996 7.278-16.604 8.411.392 1.133 8.454-.784 18.085-4.271 9.631-3.53 17.17-7.321 16.733-8.455-.391-1.132-8.584.786-18.214 4.315zm372.115 16.821h.087v-.218l.131.131.131.131v-.175l-.044-.392.218.174.087-.131-.392-.305-.131-.131v.175l.043.349-.13-.088-.131-.087v.393l-.437-.044.044-.218.131-.044h.087v-.349l.218.044.175.044-.044-.175-.174-.392-.175.043.087.262-.131-.044-.13-.043v.436l-.131.044h-.044v.043l-.087.349-.044.087h.087l.699.131zm24.97-26.626l17.78 6.711-14.947 39.612-.131-.043-17.736-6.319 15.034-39.961zm2.049 30.156c-.61-.654-2.049-.131-3.095 1.395-.218.305-.697.959-.828 1.438-.087-.043-.087-.13-.174-.174.697-1.395 1.786-2.484 2.614-3.835s.566-2.833.262-4.314c-1.22.915-2.354 1.874-2.658 3.399-.262 1.568-.174 3.094-.566 4.619-.087-.044-.175.044-.262 0 .218-.479.305-1.308.305-1.656.219-1.83-.522-3.181-1.438-3.094s-1.656 1.612-1.656 2.484c0 .915.479 1.264.566 1.655.044.175-.131.393-.218.61.393 0 .784-.174.828-.828.044-.436-.044-.959.393-1.002.653-.087.697 1.046.522 1.656-.262.043-.436-.044-.61.043-.349.262-.349.61-.349.872.131.043.306-.044.523.087-.306.393-.61.959-1.09.959-.305 0-.392-.479.131-.741 0-.131-.174-.393-.522-.393-.131 0-.523.175-.697.959-.088.479.392 1.177.828 1.133.522-.043 1.22-.697 1.873-1.786.131.043.175.174.262.262-.566.697-1.22 1.351-1.786 2.004.218.218.436.566.522.915.044.219.087.567 0 .959.218-.349.436-.566.653-.697.306-.218.654-.349 1.003-.349 0-.871-.044-1.786 0-2.702.131 0 .261-.087.349-.043-.218 1.264-.087 2.223.262 2.571.305.349 1.133.131 1.351-.306.392-.697.218-1.089.131-1.177-.218-.218-.523-.13-.61-.043.218.522-.174.871-.393.653-.349-.305-.218-.915-.174-1.438.262.087.349.218.479.305.174-.175.392-.436.349-.872-.044-.174-.262-.218-.436-.436.261-.566 1.045-1.351 1.481-.871.305.349-.131.697-.393 1.002-.393.523-.218.915.044 1.177.087-.218.087-.479.261-.61.306-.218.916-.174 1.525-.871.612-.609 1.047-2.221.438-2.919zm2.745-7.408c.522-.044 1.22-.697 1.874-1.787.131.044.174.175.262.262-.567.697-1.221 1.351-1.787 2.005.218.218.436.566.522.915a2.3 2.3 0 0 1 0 .958c.219-.349.437-.566.654-.696.305-.219.653-.35 1.002-.35 0-.871-.043-1.786 0-2.701.131 0 .262-.087.349-.044-.218 1.264-.087 2.223.262 2.571.305.349 1.133.131 1.351-.305.393-.697.218-1.09.131-1.177-.218-.218-.522-.131-.61-.044.219.523-.174.872-.392.654-.349-.306-.218-.916-.175-1.438.262.087.349.218.479.305.175-.174.393-.436.349-.871-.043-.175-.262-.218-.436-.436.262-.567 1.046-1.352 1.481-.872.305.349-.131.697-.392 1.002-.393.523-.219.916.043 1.177.087-.218.087-.479.262-.609.305-.219.915-.175 1.525-.872.609-.653 1.046-2.31.436-2.963-.61-.654-2.048-.131-3.094 1.395-.219.305-.697.958-.828 1.438-.087-.043-.087-.131-.175-.174.697-1.395 1.787-2.484 2.615-3.835.828-1.352.566-2.833.261-4.314-1.22.915-2.353 1.874-2.658 3.399-.261 1.568-.174 3.094-.566 4.619-.087-.044-.174.043-.262 0 .219-.479.306-1.308.306-1.656.218-1.83-.523-3.181-1.438-3.094s-1.656 1.612-1.656 2.483c0 .915.479 1.264.567 1.656.043.175-.131.393-.218.61.392 0 .784-.175.827-.828.044-.436-.043-.959.393-1.002.653-.088.697 1.046.522 1.655-.261.044-.436-.043-.609.044-.349.262-.349.61-.349.871.131.044.305-.043.522.088-.305.392-.61.958-1.089.958-.306 0-.393-.479.13-.74 0-.131-.174-.393-.522-.393-.131 0-.522.175-.697.959-.087.523.392 1.22.828 1.177zm-3.007-14.119c-1.221.915-2.354 1.873-2.658 3.398-.262 1.569-.175 3.094-.566 4.619-.088-.043-.175.044-.262 0 .218-.479.305-1.307.349-1.655.218-1.831-.523-3.182-1.438-3.095-.915.088-1.655 1.612-1.612 2.484 0 .915.479 1.264.566 1.656.044.174-.13.392-.218.609.393 0 .785-.174.828-.828 0-.436-.043-.958.393-1.002.653-.087.697 1.046.522 1.656-.261.043-.436-.044-.61.043-.349.262-.349.61-.349.872.131.044.306-.044.523.087-.305.393-.61.959-1.09.959-.305 0-.392-.479.131-.741 0-.131-.174-.392-.522-.392-.131 0-.523.174-.697.958-.087.479.349 1.177.828 1.134.522-.044 1.22-.697 1.873-1.787.131.044.131.175.262.262-.566.697-1.22 1.351-1.786 2.005.218.218.436.566.522.915.044.218.087.566 0 .958.218-.349.436-.566.654-.697.305-.218.653-.349 1.002-.349 0-.871-.044-1.786 0-2.701.131 0 .262-.088.349-.044-.218 1.264-.087 2.223.262 2.571.305.349 1.133.131 1.351-.305.393-.697.218-1.09.131-1.177-.218-.218-.566-.131-.61-.044.218.523-.174.872-.393.653-.349-.305-.218-.915-.174-1.438.262.087.349.218.479.305.174-.174.392-.436.349-.871-.044-.175-.262-.218-.436-.437.261-.566 1.046-1.351 1.481-.871.305.349-.131.697-.393 1.002-.392.523-.218.915.044 1.177.087-.218.087-.479.262-.61.305-.218.915-.174 1.524-.871.61-.653 1.046-2.266.437-2.963-.654-.654-2.049-.131-3.095 1.395-.218.305-.697.958-.828 1.438-.087-.043-.087-.131-.174-.174.697-1.395 1.787-2.484 2.614-3.835.741-1.306.524-2.787.175-4.269zm17.301-41.051l.305.436.131-.087-.087-.131.174.087.087-.131-.479-.218-.306-.174.175.218zm-.524-.48l.262.087.218.087-.131-.218-.218-.349-.131.087.087.131h-.043l-.044.175zm-42.794 58.482l.306.437.13-.088-.087-.131.175.088.087-.131-.479-.218-.305-.175.173.218zm23.097-25.972l-15.034 39.961-18.173-6.493.044-.131 15.165-40.136 17.998 6.799zm-14.425.13c-.566 0-1.002.218-1.133.61l.393.392c-.566.087-.959.697-1.003.872.35 0 .654-.043 1.003 0-.087.305-.262.784-.349 1.089.349-.174.436-.218.784-.218.218.305.305.523.436.915.218-.349.479-.61.697-.958.306.13.393.174.697.305-.043-.392.131-.784.088-1.176.174-.043.305.087.479-.043-.087-.218-.13-.305-.218-.523.131 0 .349-.13.479-.13-.087-.174-.218-.262-.305-.436.174-.043.349-.131.522-.218-.043-.218-.218-.479-.609-.61.566-.305.522-.261-.131-.305 0-.218.043-.349-.044-.523-.305 0-.653-.043-.784.043-.088-.349 0-.305-.306-.479-.174.174-.305.349-.218.741-.608-.263-.608.391-.478.652zm-3.442-.609c.393-.043.741-.043 1.09.043a5.332 5.332 0 0 1-.785 1.089c.306 0 .61-.043.741.174-.305.218-.522.697-.436 1.002.479.261.305.261.479.828.087.261.871.218 1.176.218.044-.218.219-.566.262-.785-.305-.087-.697 0-1.002-.043.087-.261.262-.479.436-.654-.043-.218-.218-.305-.262-.522 0-.393-.043-.828.044-1.177.131-.349.566-.566.653-.915.088-.305-.349-.654-.522-.959.044.262.087.479.087.741-.131.087-.262.262-.393.392-.043-.174-.043-.392-.174-.522-.349-.349-.653-.262-.915-.262.131.174.349.262.479.479.261.349.305.436.261.61-.218 0-.522-.087-.74-.087-.261-.086-.392.088-.479.35zm-.828 3.704c-.305.087-.392.261-.871.174.131.566.697.741 1.351.261.349.305.566.654.741 1.046.174-.13.392-.174.566-.261.262.436.174.741.959.784v-.523c.74.523.784.697 1.395.872 0-.13.087-.349.305-.436-.175-.087-.349-.087-.523-.262.175-.261.393-.392.61-.436-.131-.523-.218-1.046-.566-1.482-.479 0-.697.262-.959.567-2.614-.262-1.525-1.395-2.701-1.787.218.305.349.61.392.916-.74-.393-1.046-.393-1.395-.087.26.218.522.305.696.654zm-1.656 10.154l.393.393c-.566.087-.959.697-1.002.871.349 0 .653-.044 1.002 0-.087.305-.262.784-.349 1.09.349-.175.436-.219.784-.219.219.306.306.523.437.916.218-.349.479-.61.697-.959.305.131.392.174.697.305-.044-.392.13-.784.087-1.177.174-.043.305.088.479-.043-.088-.218-.131-.306-.218-.523.13 0 .349-.131.479-.131-.087-.174-.218-.261-.305-.436.175-.044.349-.131.523-.218-.044-.218-.219-.479-.61-.61.566-.305.522-.261-.131-.305 0-.218.044-.349-.044-.523-.305 0-.653-.043-.784.044-.087-.349 0-.305-.305-.479-.175.175-.306.349-.218.741-.61-.131-.567.522-.479.74-.566-.044-1.003.13-1.133.523zm-2.31-1.177c.393-.044.741-.044 1.09.044a5.357 5.357 0 0 1-.784 1.089c.305 0 .61-.043.74.175-.305.218-.522.697-.436 1.002.479.262.305.262.479.828.087.262.872.218 1.177.218.043-.218.218-.566.262-.784-.306-.087-.697 0-1.003-.044.087-.261.262-.479.436-.653-.043-.218-.218-.305-.261-.523 0-.392-.044-.827.043-1.176.131-.349.566-.567.654-.916.087-.305-.349-.653-.523-.958.044.261.087.479.087.74-.13.088-.261.262-.392.393-.044-.175-.044-.393-.175-.523-.349-.349-.653-.261-.915-.261.131.174.349.261.479.479.262.349.305.436.262.609-.218 0-.523-.087-.741-.087-.217-.088-.348.13-.479.348zm-.827 3.704c-.306.087-.393.262-.872.175.131.566.697.74 1.351.261.349.306.567.654.741 1.046.175-.13.393-.174.566-.261.262.436.175.74.959.784v-.523c.74.523.784.697 1.395.872 0-.131.087-.349.305-.436-.174-.088-.349-.131-.522-.262.174-.262.349-.393.609-.436-.13-.523-.218-1.046-.566-1.482-.479 0-.697.262-.958.566-2.615-.261-1.525-1.395-2.702-1.786.218.305.349.61.393.915-.741-.393-1.046-.393-1.395-.087.259.218.521.305.696.654zm-1.613 10.197l.393.393c-.566.087-.959.697-1.002.915.349 0 .653-.044 1.002 0-.087.305-.262.784-.349 1.089.349-.174.436-.218.784-.218.219.306.306.523.437.915.218-.348.479-.609.697-.958.305.131.392.174.697.305-.044-.392.13-.784.087-1.177.174-.043.305.088.479-.043-.088-.218-.131-.306-.218-.523.13 0 .349-.131.479-.131-.087-.174-.218-.261-.305-.436.175-.044.349-.131.523-.218-.044-.218-.219-.479-.61-.61.566-.305.522-.262-.131-.305 0-.218.044-.349-.044-.523-.305 0-.653-.043-.784.044-.087-.349 0-.305-.305-.479-.175.175-.306.349-.218.741-.61-.131-.567.522-.479.74-.566-.131-1.003.044-1.133.479zm-2.31-1.22c.393-.044.741-.044 1.09.043a5.404 5.404 0 0 1-.784 1.09c.305 0 .609-.044.74.174-.305.219-.522.697-.436 1.003.479.262.305.262.479.828.087.261.871.218 1.177.218.043-.218.218-.566.262-.784-.306-.088-.697 0-1.003-.044.087-.262.262-.523.436-.653-.043-.219-.218-.306-.261-.523 0-.393-.044-.828.043-1.177.131-.349.566-.566.654-.915.043-.305-.349-.653-.523-.959.044.262.087.479.087.741-.13.087-.261.262-.392.393-.044-.175-.044-.393-.175-.523-.349-.349-.653-.262-.915-.262.131.175.349.262.479.479.262.349.305.436.262.61-.218 0-.523-.087-.741-.087-.26-.088-.391.131-.479.348zm3.007 5.404c.175-.262.35-.393.61-.436-.131-.523-.218-1.046-.566-1.481-.479 0-.697.261-.959.566-2.614-.262-1.481-1.395-2.701-1.787.218.306.349.61.436.915-.741-.392-1.046-.392-1.395-.043.393.174.61.261.784.609-.305.088-.392.262-.871.175.131.566.697.741 1.351.262.349.305.566.653.741 1.046.174-.131.392-.175.566-.262.262.436.174.74.959.784v-.522c.74.522.784.697 1.395.871 0-.131.087-.349.305-.393-.306-.129-.48-.173-.655-.304zm6.319 1.874c-.784-.523-1.395-2.048-1.308-2.354-1.525.218.088 1.656-.436 1.7-1.743-.131-1.09-.959-2.266-1.308.174.218.261.436.305.653-.61-.392-.872-.218-1.133.044.305.087.566.044.653.349-.087.174-.131.218-.479.392.523.219.959.131 1.264 0 .523.479 1.308.393 1.352.785.479-.393.697-.349.828-.218-.219.218-.437.261-.479.653.261.087.653.044.784-.175.131-.174.871-.261.305.479-.174.263 1.438-.434.61-1zm3.094-4.619c.349.087.437.392.306.522-.218.306-.959.262-1.482 0 .131-.174.262-.087.567-.566-.523-.087-.916.044-1.612-.305.174-.175.522-.393.653-.566-1.046-.131-2.44-.61-3.225-.741-.785-.131-1.7.741-1.831 1.264-.349 1.395 6.406 2.571 6.493 3.312.044.261-1.002.043-1.438-.131-1.961-.654-5.186-1.961-5.753-2.223 0 .131 0 .392-.043.566-.262-.087-.479-.262-.741-.305-.218.305-.479.609-.697.915.044.174.131.479.131.653a8.03 8.03 0 0 1 1.438.131c1.089.218 1.961-.566 2.963-.349.131.653.218 1.351.959 2.136 1.221.261 3.051.522 2.833 1.133-.088.262-.567.174-.828.262-.479.218-.523.479-.61.827.479-.305.871-.479 1.22-.479-.13.392-.305.653-.609 1.002.305.131.697-.175 1.177-.479 0 .305-.131.61-.35.872.393-.044.785-.349 1.003-.697-.087-.306-.305-.567-.393-.872.087 0 .349.044.437.044-.088-.306-.479-.654-.393-.959.043-.175.349-.218.522-.305-1.177-.567-2.527-.654-2.789-1.003-.13-.131-.13-.479-.13-.653.609.087 1.22.349 1.83.436.436.044.74.131 1.002-.436.479-1.09-6.667-2.092-6.711-3.312 0-.522.479-.915 1.264-.915 1.09 0 1.83.61 2.005 1.308-.306.174-.393.436-.349.741.305-.088.436-.393.74-.349.654.131 1.177.74 1.83.74.523 0 1.09-.218 1.352-.566s-.348-.871-.741-.653zm1.656-8.063c-.784-.522-1.395-2.048-1.308-2.353-1.525.218.088 1.655-.436 1.699-1.743-.131-1.09-.959-2.266-1.308.174.218.261.436.305.654-.61-.393-.871-.219-1.133.043.305.087.566.044.653.349-.087.175-.131.218-.479.393.523.218.959.131 1.264 0 .523.479 1.308.392 1.352.784.479-.393.697-.349.828-.218-.219.218-.437.262-.479.653.261.088.653.044.784-.174.131-.175.871-.262.305.479-.174.263 1.438-.434.61-1.001zm3.138-4.619c.349.087.436.393.305.523-.218.305-.958.261-1.481 0 .131-.175.262-.088.566-.566-.522-.088-.915.043-1.612-.306.131-.174.523-.392.654-.566-1.046-.131-2.44-.61-3.226-.741-.784-.13-1.699.741-1.83 1.265-.349 1.395 6.406 2.614 6.493 3.312.044.262-1.002.044-1.438-.131-1.962-.653-5.187-1.961-5.753-2.223 0 .131 0 .393-.087.566-.262-.087-.479-.261-.741-.305-.218.305-.479.61-.697.915.044.175.131.479.131.654.436 0 1.003.043 1.438.13 1.089.218 2.005-.566 2.963-.349.131.654.218 1.352.959 2.136 1.221.262 3.051.522 2.833 1.133-.088.262-.567.175-.828.262-.479.218-.523.479-.61.828.479-.306.871-.479 1.221-.479-.131.393-.306.653-.61 1.002.305.131.697-.174 1.177-.479 0 .306-.131.567-.349.872.392-.044.784-.349 1.002-.697-.087-.305-.305-.566-.393-.872.088 0 .349.044.437.044-.088-.305-.479-.653-.393-.959.044-.174.349-.218.522-.305-1.176-.566-2.527-.653-2.789-1.002-.13-.131-.13-.479-.13-.654.609.087 1.22.349 1.83.436.436.044.74.131 1.002-.436.479-1.089-6.667-2.092-6.711-3.312 0-.523.479-.915 1.264-.915 1.09 0 1.83.609 2.005 1.307-.306.175-.393.393-.349.741.305-.087.436-.393.74-.349.654.131 1.177.741 1.831.741.522 0 1.089-.218 1.351-.567.262-.348-.305-.872-.697-.654zm1.656-8.062c-.785-.523-1.395-2.048-1.308-2.354-1.525.218.087 1.656-.436 1.7-1.743-.131-1.09-.959-2.267-1.308.175.218.262.436.306.654-.61-.392-.872-.262-1.134.043.306.087.567.043.654.349-.087.174-.131.218-.479.392.522.218.959.131 1.264 0 .523.479 1.308.393 1.395.784.479-.392.697-.349.828-.218-.218.218-.436.262-.479.654.262.087.653.043.784-.175.131-.174.872-.262.306.479-.219.264 1.394-.433.566-1zm.218-4.532c-.306.174-.393.436-.349.741.305-.087.436-.392.74-.349.654.13 1.177.741 1.831.741.522 0 1.089-.218 1.351-.566.262-.305-.349-.872-.741-.654.349.087.437.392.306.523-.218.305-.959.262-1.482 0 .131-.174.262-.087.567-.566-.523-.087-.915.043-1.612-.305.174-.174.522-.392.653-.566-1.046-.131-2.44-.61-3.225-.741-.785-.131-1.7.741-1.831 1.264-.348 1.395 6.406 2.615 6.494 3.312.043.261-1.003.043-1.438-.131-1.961-.654-5.186-1.961-5.752-2.223 0 .131 0 .392-.044.567-.262-.087-.479-.218-.741-.305-.218.305-.479.61-.697.915.044.174.131.479.131.654.436 0 1.003.043 1.438.13 1.089.218 2.005-.566 2.963-.349.131.654.218 1.351.959 2.136 1.221.261 3.051.523 2.833 1.133-.088.261-.567.174-.828.261-.479.218-.523.479-.61.828.479-.305.871-.479 1.221-.479-.131.393-.306.654-.61 1.003.305.13.697-.175 1.177-.479 0 .305-.131.609-.349.871.392-.043.784-.349 1.002-.697-.087-.305-.305-.566-.393-.871.088 0 .349.043.437.087-.088-.305-.479-.653-.393-.959.044-.174.349-.218.522-.305-1.176-.566-2.527-.654-2.789-1.002-.13-.131-.13-.479-.13-.654.609.131 1.22.349 1.83.436.436.043.74.131 1.002-.436.479-1.089-6.667-2.092-6.711-3.312 0-.523.479-.916 1.264-.916 1.132-.044 1.829.566 2.004 1.263zm-15.296 23.227l.261.088.219.087-.131-.218-.218-.349-.131.087.087.131h-.044l-.043.174zm38.349-43.753h.087v-.218l.131.131.131.131v-.174l-.044-.393.219.174.087-.13-.393-.305-.131-.131v.174l.044.349-.131-.087-.131-.087v.348l-.436-.043.043-.218.131-.044h.088v-.349l.218.044.174.043-.043-.174-.175-.392-.174.043.087.261-.131-.043-.131-.043v.436h-.174v.044l-.088.392-.043.087h.087l.698.174zm-4.577 11.113l.262.087.218.087-.131-.218-.218-.349-.131.087.088.131h-.044l-.044.175zm9.327-23.794h.087v-.218l.131.131.131.13v-.174l-.043-.392.218.174.087-.131-.393-.261-.131-.087v.174l.044.349-.131-.087-.131-.087v.348l-.436-.043.044-.218.13-.043h.088v-.348l.218.043.174.043-.043-.174-.175-.392-.174.043.087.262-.131-.044-.131-.043v.436l-.131.043h-.043v.043l-.088.349-.043.087h.087l.698.087zm-8.803 24.274l.305.436.131-.087-.087-.131.175.087.087-.131-.479-.218-.305-.174.173.218zm-.741 1.089h.088v-.218l.13.131.131.131v-.174l-.043-.392.218.174.087-.131-.393-.305-.13-.131v.524l-.131-.087-.131-.087v.348l-.436-.043.043-.218.131-.043h.087v-.348l.218.043.175.043-.087-.174-.175-.392-.174.043.087.262-.131-.043-.131-.044v.436h-.174v.043l-.088.392-.043.087h.087l.785.173zm5.535-13.771l.305.436.131-.087-.087-.131.174.087.087-.131-.479-.218-.306-.174.175.218zm-34.515 33.687h.087v-.218l.131.13.131.131v-.174l-.043-.393.218.175.087-.131-.393-.306-.131-.087v.175l.044.349-.131-.088-.131-.087v.349l-.436-.044.044-.218.131-.043h.087v-.349l.218.043.174.044-.043-.175-.175-.392-.174.044.087.261-.131-.043-.131-.044v.436h-.174v.044l-.088.392-.043.088h.087l.698.131zm33.991-34.166l.262.087.218.087-.131-.218-.218-.349-.131.087.087.131h-.043l-.044.175zm-33.773 32.64l.262.087.218.087-.131-.218-.218-.349-.131.087.088.131h-.044l-.044.175zm4.75-12.682l.262.087.218.087-.131-.218-.218-.349-.131.087.088.13h-.044l-.044.176zm-4.227 13.162l.305.436.131-.087-.087-.131.174.087.088-.131-.479-.218-.306-.174.174.218zm4.009-11.636h.088v-.218l.13.131.131.13v-.174l-.043-.392.218.174.087-.131-.393-.305-.13-.087v.174l.043.349-.131-.087-.131-.087v.392l-.436-.043.044-.218.131-.044h.087v-.349l.218.044.174.043-.043-.174-.175-.392-.174.043.087.261-.131-.043-.131-.043v.436l-.131.044h-.043v.043l-.087.349-.044.087h.087l.698.087zm.741-1.046l.305.436.131-.087-.087-.131.174.087.088-.131-.479-.218-.306-.174.174.218zm-18.826-3.05c-.436.349-.871.697-1.046.523-.174-.174-.349-.349-.522-.479a3.44 3.44 0 0 1-.741-.654 4.757 4.757 0 0 0-1.961-1.046h-.218c-.523.043-1.09.087-1.395-.218l-.087-.087h-.087c-.697-.087-.697-1.525-1.395-1.525-.828 0-1.874-.567-.916-1.831.044-.087 0-.174-.13-.261-.262-.131-.523-.262-.741-.479-.393-.261-.784-.566-.871-1.002-.044-.305.958-1.874 1.133-3.617-.044-.087-.044-.131-.087-.218-.219-.479-.393-1.002-.219-1.394a4.288 4.288 0 0 1 1.221-1.525c.218-.349.305-.654.131-.959-.523-.741-.566-.958.653-1.046.175 0 .393-.305.654-.697.13-.348.305-.697.566-.915 0 0 .043 0 .043-.043.262-.349.523-.61.785-.523 1.089.261 1.699.479 3.922-1.089 1.046-.741 2.745.784 3.05.392.61-.958 2.18-.131 1.918.654-.175.436 2.31.087 2.571 1.351.436 2.223 1.395 2.615 2.527 4.14.697.915-.653 1.787.044 2.397 1.264 1.046 1.002 1.699.13 2.179-.218.087.393 2.484-.218 2.658-1.786.523-2.614 1.569-2.919 2.31-.044.131-.088.305-.131.436 0 .087-.044.174 0 .261 0 .174-.262.262-.61.393a3.71 3.71 0 0 1-1.481.436c-.262.131-.479.262-.523.436-.349 1.22-.828 1.743-1.743.61-.174-.174-.436-.087-.74.087-.261.17-.436.257-.567.345zm7.104-8.673c-.305-.131-.653-.174-1.002-.174-.741 0-1.482.218-2.049.654-.305.261-.479.828-.609 1.307-.088.262-.131.479-.219.654-.174.392-.609.566-1.046.785-.436.218-.827.392-.958.697-.175.436-.218 1.002-.131 1.481.087.218.131.392.174.61.131.262.262.479.479.61.784.523 2.31.305 3.225-.262.306-.174.393-.653.523-1.133.087-.392.174-.741.349-1.002.305-.392.784-.653 1.264-.872.566-.261 1.133-.523 1.264-1.046.174-.74-.48-2.004-1.264-2.309zm-11.897.044c0 .087.043.174.043.262.044.087.175.218.306.305.13.13.305.218.392.392.131.218.131.479.131.741 0 .305 0 .566.175.697.305.262.915.218 1.176-.043.349-.349.523-.915.393-1.395-.044-.174-.262-.349-.436-.523l-.262-.262c-.131-.174-.131-.436-.131-.653s0-.393-.087-.523a1.489 1.489 0 0 0-.784-.392h-.088a.627.627 0 0 0-.305.087c-.305.261-.48.828-.523 1.307zm.654-1.656a1.663 1.663 0 0 0 1.438 0c.13-.087.261-.349.349-.566a.695.695 0 0 1 .174-.305c.131-.174.349-.261.61-.305.218-.043.392-.13.479-.218.218-.392.218-1.002-.044-1.264-.305-.305-1.046-.305-1.481-.087-.131.044-.218.262-.306.479-.087.174-.13.349-.261.479-.175.174-.437.261-.697.349-.262.087-.523.174-.61.349-.218.305 0 .915.349 1.089zm1.961 4.271c.087.393.697.828 1.177.916.131.043.305-.087.479-.218.174-.087.305-.218.479-.261.261-.043.522.043.74.131.262.087.523.174.741.043.305-.174.479-.828.305-1.133-.218-.436-.697-.741-1.177-.784h-.043c-.175 0-.393.131-.566.261a2.466 2.466 0 0 1-.306.174c-.218.087-.436 0-.653-.087-.131-.043-.262-.087-.393-.087-.043 0-.087 0-.131.044a1.344 1.344 0 0 0-.522.479l-.131.262c.001.042-.043.129.001.26zm5.403-2.746c.044-.262.175-.479.349-.697.175-.218.306-.479.262-.697-.087-.349-.566-.654-.915-.654h-.087c-.479.087-.915.436-1.133.915-.088.174 0 .436.043.654.044.131.044.261.044.349 0 .218-.131.436-.262.61s-.262.349-.218.479c.087.436.436.915.828.959h.044c.392 0 .958-.436 1.176-.828.088-.131 0-.349-.043-.523-.044-.218-.088-.392-.088-.567zm-1.002-3.878c-.087-.087-.349-.087-.522-.087-.175 0-.393 0-.523-.087-.218-.087-.392-.305-.566-.523-.175-.218-.349-.436-.566-.436-.349 0-.872.392-.915.785v.087c.131.218.174.479.131.741.087.218.218.393.392.523.131.087.437.131.654.131.131 0 .261 0 .349.043.218.044.349.262.522.436.131.174.262.349.393.349.436.043 1.002-.131 1.133-.479.128-.481-.133-1.134-.482-1.483zm-.087-.785c.131.392.653.697 1.089 1.002.219.131.437.261.567.392.305.305.349.784.436 1.22.043.479.131.915.392 1.133.785.566 2.049.828 2.746.261.74-.566.959-2.135.697-3.181-.087-.349-.523-.566-.915-.828-.349-.174-.654-.392-.872-.654-.305-.392-.392-.915-.436-1.481-.087-.61-.175-1.22-.61-1.525-.262-.174-.566-.218-.915-.218-.653 0-1.395.261-1.743.697-.654.916-.829 2.18-.436 3.182zm-8.498-1.046l.087.087c.523.13 1.003.479 1.352.958.436.174.915.305 1.395.262.392-.044.871-.436 1.264-.741.218-.174.392-.349.566-.436.349-.218.828-.131 1.308-.043.479.087.915.174 1.176-.044.785-.566 1.395-1.743 1.09-2.571-.349-.872-1.743-1.569-2.789-1.612h-.044c-.349 0-.697.349-1.002.653-.262.262-.566.523-.871.654-.479.174-1.003.087-1.525 0-.306-.043-.566-.087-.828-.087-.305 0-.566.044-.784.218-.657.567-.875 2.005-.395 2.702zm1.394 6.711c.131-.392-.087-.958-.218-1.438-.087-.261-.175-.479-.175-.654-.043-.436.175-.828.437-1.22.043-.087.131-.218.174-.305v-.087c.044-.043.087-.13.131-.174.087-.174.131-.392.087-.523-.261-.915-1.089-1.917-2.004-1.917-.959 0-2.092 1.09-2.528 2.048-.131.305.044.785.219 1.22.13.349.305.741.305 1.046 0 .479-.305.958-.566 1.438-.306.566-.61 1.089-.437 1.569.262.785 1.569 1.482 2.354 1.264.958-.393 1.873-1.264 2.221-2.267zm4.097 7.801c.828-.043 1.874-1.046 1.917-1.874.044-1.046-.522-2.179-1.395-2.789-.305-.218-.958-.218-1.438-.218h-.697c-.393-.087-.741-.436-1.046-.784-.088-.131-.218-.218-.306-.349-.043 0-.043-.044-.087-.044-.043-.043-.043-.087-.087-.087-.175-.131-.305-.218-.479-.218h-.087c-.479 0-.959.13-1.395.349-.175.13-.306.261-.479.349-.218.174-.393.392-.436.653-.306.915.392 2.31 1.22 3.007.262.218.741.174 1.221.131.392-.043.784-.087 1.089.043.479.174.828.567 1.221.959.349.436.741.916 1.264.872zm76.785 17.344c-.218.088.392 2.484-.218 2.658-1.787.523-2.615 1.569-2.92 2.311-.044.13-.087.305-.131.436 0 .087-.044.174 0 .262 0 .174-.262.261-.61.392a3.695 3.695 0 0 1-1.481.436c-.262.131-.479.262-.523.437-.349 1.22-.827 1.743-1.743.609-.174-.174-.436-.087-.74.088-.131.131-.262.218-.393.305-.436.349-.871.697-1.046.523a5.037 5.037 0 0 0-.522-.479 3.495 3.495 0 0 1-.741-.654 4.768 4.768 0 0 0-1.961-1.046h-.218c-.523.044-1.09.088-1.395-.218l-.087-.087h-.087c-.697-.087-.697-1.525-1.395-1.525-.828 0-1.874-.566-.916-1.83.044-.087 0-.175-.13-.262-.262-.131-.523-.262-.741-.479-.393-.262-.784-.566-.871-1.002-.044-.306.958-1.874 1.133-3.617-.044-.087-.044-.131-.088-.218-.218-.479-.392-1.002-.218-1.395a4.277 4.277 0 0 1 1.221-1.525c.218-.349.305-.697.131-.959-.523-.74-.566-.958.653-1.046.175 0 .393-.305.654-.697.13-.349.305-.697.566-.915 0 0 .043 0 .043-.044.262-.349.523-.61.785-.523 1.089.262 1.699.479 3.922-1.133 1.046-.741 2.745.784 3.05.392.61-.958 2.18-.131 1.918.654-.175.436 2.31.087 2.571 1.351.436 2.223 1.395 2.615 2.527 4.141.697.915-.653 1.786.044 2.396 1.09 1.174.828 1.827-.043 2.263zm-6.624-5.49c.131.392.653.697 1.089 1.002.219.131.437.262.566.393.306.305.35.784.437 1.22.043.479.131.915.392 1.133.785.567 2.049.828 2.746.262.74-.566.958-2.135.697-3.181-.088-.349-.523-.567-.915-.828-.349-.175-.697-.393-.872-.654-.305-.392-.393-.958-.436-1.481-.087-.61-.175-1.22-.61-1.525-.262-.174-.566-.218-.915-.218-.653 0-1.395.262-1.699.697-.697.913-.872 2.177-.48 3.18zm1.089 4.663c.044-.262.175-.479.349-.697.175-.219.306-.479.262-.697-.087-.349-.566-.654-.915-.654h-.087c-.479.087-.915.436-1.133.915-.088.175 0 .437.043.654.044.131.044.261.044.349 0 .218-.131.436-.262.609-.131.175-.262.349-.218.479.087.436.436.915.828.959.392.044 1.002-.393 1.22-.828.088-.131 0-.349-.043-.522-.044-.219-.088-.393-.088-.567zm-7.974.13c0 .088.044.175.044.262.043.087.174.218.305.305.131.131.306.219.393.393.131.218.131.479.131.741 0 .305 0 .566.174.697.306.261.915.218 1.177-.044.349-.349.522-.915.393-1.395-.044-.174-.262-.349-.437-.522a1.118 1.118 0 0 0-.261-.218c-.131-.175-.131-.437-.131-.654s0-.392-.088-.522a1.473 1.473 0 0 0-.827-.393h-.088c-.13 0-.218.044-.305.087-.306.217-.48.784-.48 1.263zm.61-1.656a1.663 1.663 0 0 0 1.438 0c.13-.088.261-.349.348-.566a.71.71 0 0 1 .175-.306c.131-.174.349-.262.61-.305.218-.044.392-.131.479-.218.218-.393.218-1.003-.044-1.264-.305-.306-1.046-.306-1.481-.088-.131.044-.218.262-.306.479-.087.175-.131.349-.261.479-.175.175-.437.262-.697.349-.262.087-.523.175-.61.349-.175.263 0 .917.349 1.091zm1.961 4.227c.087.393.697.828 1.177.915.131.044.305-.087.479-.218.174-.087.305-.218.479-.261.261-.044.522.043.74.13.262.088.523.175.741.044.305-.218.479-.828.305-1.133-.218-.436-.697-.741-1.177-.785-.174 0-.392.131-.61.262-.13.088-.218.131-.305.175-.218.087-.436 0-.653-.087-.131-.044-.262-.088-.393-.088-.043 0-.087 0-.131.044a1.64 1.64 0 0 0-.522.436l-.131.262.001.304zm1.307-6.885c.131.218.174.479.131.74.087.218.218.393.392.523.131.087.393.131.654.131.13 0 .261 0 .349.043.218.044.349.262.522.436.131.175.262.349.393.349.436.044 1.002-.13 1.133-.479.174-.393-.087-1.046-.436-1.438-.088-.087-.306-.087-.523-.087-.174 0-.392 0-.522-.088-.218-.087-.393-.305-.566-.522-.175-.218-.349-.436-.567-.436-.349 0-.871.392-.915.784-.088-.044-.045 0-.045.044zm-5.447-1.525l.087.087c.522.131 1.002.479 1.351.959.436.174.915.305 1.395.262.393-.044.872-.437 1.264-.741.218-.175.393-.349.566-.436.349-.218.828-.131 1.308-.044s.915.174 1.177-.044c.784-.566 1.395-1.743 1.09-2.571-.349-.872-1.743-1.569-2.789-1.612h-.044c-.349 0-.697.349-1.002.654-.262.261-.567.523-.872.653-.479.174-1.002.087-1.525 0-.305-.043-.566-.087-.828-.087-.305 0-.566.043-.784.218-.699.566-.873 2.004-.394 2.702zm1.351 6.711c.131-.393-.087-.959-.218-1.438-.087-.261-.175-.479-.175-.653-.043-.393.175-.828.437-1.221.043-.087.131-.218.174-.305v-.131a.594.594 0 0 1 .131-.174c.087-.175.131-.349.087-.523-.261-.915-1.089-1.917-2.004-1.917-.959 0-2.092 1.089-2.528 2.048-.131.305.044.784.219 1.221.13.349.305.74.305 1.046 0 .479-.305.958-.566 1.438-.306.566-.61 1.09-.437 1.569.262.784 1.569 1.481 2.354 1.264.957-.35 1.872-1.222 2.221-2.224zm6.013 5.883c.044-1.046-.522-2.179-1.395-2.789-.349-.218-.958-.218-1.438-.218h-.697c-.393-.087-.741-.436-1.046-.784-.088-.131-.219-.218-.306-.349-.043 0-.043-.044-.087-.044-.044-.043-.044-.087-.087-.087-.175-.131-.306-.218-.479-.218h-.087c-.479 0-.959.131-1.395.349-.175.131-.306.262-.479.349-.218.174-.393.392-.436.653-.306.915.392 2.31 1.22 3.007.262.218.741.175 1.221.131.392-.044.784-.087 1.089.044.479.174.828.566 1.221.959.436.479.828.915 1.351.871.785 0 1.787-1.046 1.83-1.874zm6.058-6.798c-.305-.131-.653-.175-1.002-.175-.741 0-1.482.218-2.049.654-.305.261-.479.827-.609 1.307-.088.262-.131.479-.219.654-.174.392-.609.566-1.046.784-.436.218-.827.393-.958.697-.175.436-.218 1.002-.131 1.481.087.218.174.436.218.654.131.261.262.436.479.609.784.523 2.31.306 3.225-.261.305-.175.393-.654.522-1.134.088-.392.175-.74.349-1.002.306-.393.785-.653 1.265-.872.566-.261 1.133-.522 1.264-1.045.131-.783-.524-2.047-1.308-2.351z"/></svg>