<svg id="Layer_1" xmlns="http://www.w3.org/2000/svg" viewBox="0 0 1366 768"><path d="M797.8 152.3c-.3 0-.2 0 0 0zm0 0zM470.5 253c22.1-8.1 39.3-16.8 38.4-19.4-1-2.6-19.7 1.9-41.9 10-22.1 8.1-39 16.7-38.1 19.3 1 2.5 19.5-1.9 41.6-9.9zm491.2-15.4l.5 1.7-.9-.3-.5-.1v.5l-.1 2.1-.7.2-.2.1-.1.2-.6 2.3-.1.5h4.2v-.4l.1-.9.8.7.6.6v-3.5l1.3 1.1.5-.6-1.9-1.6-.6-.5v3.3l-.8-.7-.6-.5-.1.8-.1 1.4H960l.4-1.6.8-.2.3-.1v-.3l.1-1.8 1.1.3.7.2-.2-.7-.7-2.4-.8.2zm5.4.3l1.5 2.4.7-.4-.7-1.2 1.2.6.4-.7-2.4-1.3-1.2-.7.5 1.3zM1072 491.4zM964.5 235.2l1.4.5.9.3-.4-.9-1-2-.7.3.6 1.1-.5-.2-.3.9zm315.2 99.5c-93 103.5-91.9 203-90.9 298.8.1 9 .2 18.1.2 27.1v3.4l-3.4.5c-26.4 3.5-51.3 1.9-75-4-23.1-5.8-45-15.7-66-29-24.4 5.3-49.4 9.5-74.9 12.5-26.1 3.1-52.7 4.9-79.8 5.5l-1.5.1-1.1-1c-20.3-18.1-39.3-36.7-57.2-55.9-17.6-18.8-33.9-38.2-49-58-24.6-3.4-47.7-10.1-69-20.7-10.1-5-19.8-10.9-29-17.7-27.4 20-59.6 32.5-97.4 37.8-30.5 40-66.3 78.3-106.3 113.9l-1.1 1h-1.5c-53.5-1.3-105.6-7.3-154.7-18.1-36.7 23.3-74 34.8-113 34.8-9.2 0-18.5-.6-27.9-1.9l-3.4-.4V660c0-9 .1-18 .2-27 1.1-96 2.3-195.2-90.7-298.8l-2.3-2.5 2.2-2.6c24.9-28.8 42.4-64.6 52.1-106.3l.9-3.8 3.9.9c42 10.7 92.2-12.9 149.2-70.2l1.3-1.3 1.8.2c80.5 6.8 134-7.7 159.1-43l2.3-3.2 3.2 2.4c34.4 25.5 70.9 41.4 108.5 47.3l3.4.5-.1 3.4c-3.8 129.2 52.3 203 110.9 271C742 359.3 798 285.4 794.5 156.2l-.1-3.4 3.2-.5h.2c5.2-.8 10.5-1.8 15.7-3.1 5.2-1.2 10.4-2.6 15.6-4.2 26.5-8.2 52.3-21.6 77.1-40l3.1-2.4 2.3 3.2c3.5 4.9 7.5 9.4 12 13.5 4.6 4.1 9.7 7.8 15.3 11.1 29.4 17.2 73.3 23.3 131.8 18.4l1.8-.1 1.3 1.3c28.8 29 55.7 49.4 80.8 61.1 24.6 11.5 47.4 14.6 68.4 9.2l3.8-.9.9 3.8c1.4 5.9 2.9 11.6 4.5 17.2 1.7 5.6 3.5 11.1 5.4 16.5 10.1 27.5 24.1 51.7 42 72.6l2.2 2.6-2.1 2.6zM388.8 234.4l.5 1.5 9.9 6.9 13.8 9.8 15.2 15c16.8 1.8 74.7-19.8 85.5-31.8l-1.1-27.2 8.6-21.5-.6-1.5c-4.8-.8-9.2-.8-13.4-.1l-6.6 6.7 2.3 5-3.4 3 2.7 4 .5 3.9-13.4-1.2-2.5-2.7c.6-1 .9-1.9.2-3.5-.6-1.6-3.2-3.1-5.2-2.2-2.1.8-2.8 3.8-2.3 5.2.6 1.4.8 1.4 1.5 1.9l-1.2 6.1-10.6 6.5-.2.1-1.1-2c.8-.2 3.2-3.2 1.1-5.2-1.4-1.4-2.7-2.5-.6-5.3 3.1-4-.2-6.7-1.6-7.2 1.1-1.1 1.2-3.6.3-5-3.5-5.4-6.6-.1-5.8-3.1.7-2.6-2.7-2.9-4.9-2.1-2.4.9-4.2 7.2-5.7 1.2-.6-2.3-4.1-3.7-5.6-3.1-1.6.5-3.4 3.9-2.3 6 2.7 5.5-2.7 1.8-5.2 2.7-2.2.8-4.5 3.2-2.3 4.8 2.5 1.7-3.2-.3-2.5 6.1.2 1.6 1.9 3.4 3.4 3.6-.7 1.3-1.6 5.4 3.4 6.5 3.4.7 3.2 2.4 2.9 4.4-.3 2.8 3.5 3.6 4.2 3.3l.5 2.2-8.4 2.8-5-2.2c.2-.8.2-1.6-.1-2.4-.7-2.1-3-3.2-5.1-2.4-2.1.7-3.2 3.1-2.4 5.1.4 1.2 1.4 2.1 2.5 2.5l-.6 3.9-8.8 9.5-5.1-5.6-.1-5.4-4.3-.7-2.2-3.8-8.7-2.2c-3.6 2.5-7 5.5-10.1 9.2zm-134.1 16.8l.5 1.5 9.9 6.9 13.8 9.8 15.2 15.1c16.8 1.7 74.7-19.8 85.6-31.8l-1.1-27.2 8.6-21.5-.6-1.5c-4.8-.8-9.3-.8-13.4-.1l-6.6 6.7 2.3 5-3.4 3 2.7 4 .5 3.9-13.4-1.1-2.5-2.8c.6-1 .9-1.9.3-3.5-.6-1.6-3.2-3.1-5.2-2.3-2 .8-2.8 3.8-2.2 5.2.6 1.4.8 1.4 1.5 1.9l-1.2 6.1-10.7 6.5-.2.1-1.1-2c.8-.2 3.1-3.2 1.1-5.2-1.4-1.4-2.7-2.5-.6-5.3 3.1-4-.2-6.7-1.6-7.2 1.1-1.1 1.2-3.6.3-5-3.5-5.4-6.6-.1-5.8-3.1.7-2.6-2.7-3-4.9-2.2-2.4.9-4.2 7.2-5.7 1.2-.5-2.2-4.1-3.7-5.6-3.1-1.6.6-3.4 3.9-2.3 6 2.7 5.5-2.7 1.8-5.1 2.7-2.2.8-4.5 3.3-2.3 4.8 2.5 1.7-3.3-.3-2.5 6 .2 1.6 1.9 3.5 3.4 3.6-.7 1.3-1.6 5.5 3.4 6.5 3.4.7 3.1 2.4 2.9 4.5-.3 2.8 3.5 3.6 4.2 3.2l.5 2.3-8.4 2.8-5-2.2c.2-.8.2-1.6-.1-2.4-.7-2.1-3.1-3.2-5.1-2.4-2.1.7-3.2 3.1-2.4 5.1.4 1.2 1.4 2.1 2.5 2.4l-.6 3.9-8.7 9.6-5.1-5.6-.1-5.4-4.3-.7-2.2-3.7-8.7-2.2c-4.1 2.5-7.5 5.5-10.5 9.2zm104.5 156.5c-9.4.2-18.2 1.4-29 8.8 1.8 4.3 3.2 8.5 4.2 12.8 3.8-1.6 7.2-2.9 10.3-3.7 3.6-1 6.9-1.4 10.2-1.3h.5c9.5-2.5 12.6-7 15.8-11.6.3-.5.7-1 1-1.4-1.1-.6-2.4-1.2-4-1.7-2.4-.8-5.5-1.5-9-1.9zM341 484.1c3.3 2.1 6.5 3.7 9.9 4.8 2.6.8 5.3 1.3 8 1.4-1.8-6.6-4.7-12-8.7-16.4-3.2-3.5-7.2-6.4-11.8-8.7-1.3-.5-2.5-.9-3.7-1.5 0 .1-.1.1-.1.2-.2.8-.5 1.7-.8 2.4v.1l-.3.8-.8.3c-.1.1-.2.1-.4.1l8.7 16.5zm-2 18c-.2-5.2-.7-10.5-1.6-16l-9.5-18.2h-.5c-.5 10.9-2.1 18.3-4.3 23.2-.5 1.1-1 2.1-1.6 3 1.6 6.3 3.7 11 6.7 14.4 2.6 3 6 5 10.2 6.5.6-4.1.7-8.5.6-12.9zm16.5-37c6.3.5 12.7-.1 19-1.8-3.7-6.5-7.4-10.4-12.7-12.7-2.7-1.1-5.9-1.9-9.6-2.4-4.9 0-10-.3-15.6-.7l-.8.4c-.5.2-.9.4-1.4.5 1.2 3.7 1.4 7.7 1.1 11.2 1.6.6 3 1.2 4.5 1.9 5 2 10.2 3.2 15.5 3.6zm6.9-21.1c6.7-.7 12.3-2.4 17-5.8-4.5-3.8-8.7-6.1-12.6-7.6-4.3-1.6-8.3-2.2-11.5-2.4h-.5c-2.3-.1-5.1.3-8.3 1.2-3.3.8-7.1 2.1-11.2 3.8.3 1.4.5 2.8.7 4.3.2 1.6.4 3 .5 4.3.1.6.1 1.2.1 1.9 6.1 0 11.3.2 15.7.8 3.6-.1 7-.2 10.1-.5zm-36.1-26.8c-2.1-1.6-2.9-4.8-8.1-5.4-.1-3.8 1.3-8.1 1.4-12.3.1-4.1-.9-8.2-5.7-11.7-2.4 1-4.3 1.5-7.9 4.2-6-5.2-9.3-7.5-12.2-7.7-1.5 1.5-3.5 5-4.3 11.3-3.6-2.5-9.1-7.4-11.8-6.4-1.5 1-2.5 4.2-3.9 10.1-.8-.5-7.1-1.9-11.4-1-2.5 2.6-3 5.8-3.4 9.6-2.9 1-6.9-1.7-11.1-2.1-2.5 1.2-4.8 8.1-4.1 17-.7.3-2.4.4-4.3.4-3 0-6.6-.1-8.2.5 1.9 8.6 9.7 13.9 18.3 19.1.3 4.6-2.8 16.7 13.2 33.3.7-.9 1.6-2 2.2-2.7.6-.6 1-.9 1.1-.5 2.5 3.1 3.5 5.6 12.9 11 .1-.1.2-.1.4-.2l1-.5c1.7-1 3.4-2 4.7-3.2l1.8-1.6 1.2 2.1c2.5 4.4 5.3 8.7 9.3 11.8 3.8 3 8.7 4.9 15.5 4.7 2.6-1.2 4.9-3.3 6.8-7.5 1-2.4 1.9-5.4 2.6-9.2.7-3.9 1.2-8.5 1.4-14.1l.1-1.3 1.2-.4c1.5-.5 2.7-.5 3.8-.5.5 0 1.1 0 1.6-.1.1-.4.2-.7.3-1.1.2-.7.4-1.4.5-2.2.7-3.9.3-8.5-1.3-12.7l-.7-1.7 1.6-.8c.7-.3 1.2-.5 1.8-.6h.1c-.1-.9-.1-1.8-.2-2.8-.1-.7-.1-1.4-.2-2.2-.1-.7-.2-1.3-.2-2-.9-6.6-2.8-13.6-5.8-20.6zm-7.8 80.9c-1.4 1.2-2.9 2.1-4.4 2.8l-.3.1h-.3c-2.1.1-4 0-5.9-.3l9.6 17.1c.9-2.6 1.6-5.3 1.9-8.3.2-3.5.1-7.2-.6-11.4zm-48.8-168.6l-1.1-27.2 8.6-21.5-.6-1.5c-4.8-.8-9.3-.8-13.4-.1l-6.6 6.7 2.3 5-3.4 3 2.7 4 .5 3.9-13.4-1.2-2.5-2.7c.6-1 .9-1.9.3-3.5-.7-1.6-3.2-3.1-5.2-2.2-2 .8-2.8 3.8-2.2 5.2.5 1.4.8 1.4 1.5 1.9l-1.2 6.1-10.7 6.5-.2.1-1-2c.8-.2 3.1-3.2 1.1-5.2-1.5-1.4-2.7-2.6-.6-5.3 3.1-4-.2-6.7-1.6-7.2 1.1-1.1 1.2-3.6.3-4.9-3.5-5.4-6.6-.1-5.8-3.1.7-2.6-2.7-3-4.9-2.2-2.4.9-4.2 7.2-5.7 1.2-.5-2.3-4.1-3.7-5.6-3.1-1.6.6-3.4 3.9-2.3 6 2.7 5.5-2.7 1.8-5.1 2.7-2.2.8-4.5 3.3-2.3 4.8 2.5 1.7-3.3-.3-2.5 6.1.2 1.6 1.9 3.4 3.4 3.6-.6 1.3-1.6 5.5 3.4 6.5 3.4.7 3.1 2.4 2.9 4.4-.3 2.8 3.5 3.6 4.2 3.3l.5 2.2-8.5 2.8-5-2.2c.2-.8.2-1.6-.1-2.4-.8-2.1-3.1-3.2-5.2-2.5-2.1.8-3.2 3.1-2.4 5.2.4 1.2 1.4 2 2.5 2.4l-.6 4-8.8 9.5-5.1-5.6-.1-5.4-4.3-.7-2.2-3.7-8.7-2.2c-3.6 2.2-7 5.2-10 8.9l.5 1.5 10 6.9 13.7 9.8 15.2 15.1c16.5 1.8 74.4-19.8 85.3-31.7zm-57.2 143.9c.8-.6 1.7-1.1 2.6-1.6.1-.8.1-1.5.2-2.3.2-2.3.5-4.7 1-7.3-5.7 2.2-12.5 8.3-11 11.6 3.1-1 5.8.3 7.2-.4zm-2.9 21.7c1.6-.9 4.3-2.7 7.5-4.3-1.2-3.7-1.9-8-2.1-12.9v-.2c-4.5 3.6-7.9 9.6-5.4 17.4zm15.6 8.7c-2-1.9-3.7-4-5.2-6.5-2.3 3.4-4 7.9-2.6 11.1 3.2-2.3 5.5-3.9 7.8-4.6zm51 11.1c6.8 7.1 12.4 8.4 16.4 10.7 1.9-2.4 5.2-6.1 8.3-7.9 2.7 2.7 3.9 6.8 9.3 7.3 1.1.1 2.6-1.6 4.5-3.5l-12.3-22c-2.9-1-5.3-2.4-7.5-4.1-3.8-3-6.7-6.9-9.1-11-1.1.8-2.3 1.6-3.5 2.2-.5.2-.8.5-1.1.6-.3.2-.7.3-1.1.5l-.3-.6c-1.7 2-6.2 2.4-9.3 2.1-26.4-2.5-30.4-29-50.2-27.9-.5 2.9-.9 5.7-1.1 8.5 0 .2 0 .5-.1.7 6.4-1.4 13.2.1 12.5 2.8-2.3.6-5.6-.2-8.4.3-1.3.3-2.8.8-4.3 1.5v2.6c.1 4.3.8 8.1 1.8 11.4 6.1-2.5 12.9-3.5 16.4 2.2-2-.1-8.5-1.6-12.9 1.3-.5.3-1 .8-1.6 1.3 2 3.8 4.6 6.8 7.8 9l-.2.3h.1c2.2.3 3.1-1.9 5.8-3.9 6.1 8.2 10.4 15.7 17.6 20.7.5-1.9 1.8-5.4 3.9-6.7 2.6 1.9 5 7.9 14.6 8.9 1.3-1.2 2.5-6.6 4-7.3zm16 50.7c-2.4-2.9-4.4-6.1-6.1-9.5-2.8 3.1-4 8.1-2.1 15.2 2.9-1.1 5.4-3.4 8.2-5.7zm12.2 9.7c-2.2-1.1-4.2-2.3-6-3.7-1.1-.8-2.2-1.7-3.1-2.7-3.8 4.5-4.9 11 2.9 16.1-.2-1.5 3.5-6.4 6.2-9.7zm18 11.2c-.2-1.9-.7-4-.8-6.3-3.8-.5-7.2-1.2-10.4-2.2 2 6.1 6.6 8.5 11.2 8.5zm59.9-84.8c-4-12.9-5.6-16.7-5.3-24.7v-.2c.1-2.1.1-4-.1-5.8-.2-1.3-.5-2.7-.8-4.1-7 1.9-13.9 2.6-20.9 2-1.7-.1-3.5-.3-5.2-.6 1.1.9 2 1.9 3 2.9 4.9 5.4 8.3 12.1 10.2 20.4.2 1.1-.6 2.3-1.7 2.3-4 .3-7.9-.2-11.8-1.5-2.7-.9-5.3-2-7.9-3.5.6 4.5 1 8.8 1.1 12.9.2 5.4 0 10.7-.7 15.8-.1 1.1-1.4 1.9-2.4 1.6-5.9-1.6-10.6-4.2-14.3-8.3-.9-1-1.8-2.2-2.6-3.4 0 .7-.1 1.4-.2 2.2-.2 2.6-.7 4.9-1.4 7.2h.1c-.6 4.5-.8.5 1 15.6.5 3.8.8 19.4-17.4 19.2-1.1 0-2.3-.1-3.5-.2-4.6-.5-9 .1-12.4 2 1.7 3.5 3.6 6.8 6.1 9.7 2.6-1.7 5.6-3.2 9.4-3.5h.2c1.1 0 1.3 4.2.3 4.1-2.3-.1-4.8.9-7.1 2.4.8.8 1.7 1.5 2.6 2.2 1.6 1.3 3.4 2.4 5.4 3.4 1.1-4.1 4.6-10.5 9.8-11 .5 4.3-5.6 7.6-5.6 12.8 3.5 1.3 7.5 2.2 12.1 2.8 9-2.7 9.1-6.6 5.8-19.8 4.2 1.9 11.2 9.2 17.4 8.3-.6-8.8 1.3-17.8 3.8-25.8 2.6 2.3 4.9 6.1 8.2 6-.8-4.1.4-18.3 3.3-24.3 3.8.4 6.3 2.4 9.6 2-.4-5.8-1.5-12.7.8-22.9 3.9 0 8.2 2.2 11.1 1.8zm32.3 36.2c-1.6-.5-3.1-1.3-4.5-2.1.7 3.3 2 6 4.2 6.3.1-1.1.1-2.6.3-4.2zm16.7 1.1c-1.4.2-2.8.4-4.1.5-2.4.2-4.7.1-6.9-.2 1.7 4 5 8 10.7 10.4 1.3-3.2 1-7 .3-10.7zm21 6.8c-.4-6.1-1-10.4-1.1-13.7-4.5 2.2-8.6 4-12.6 5.2 2.6 3.8 6.7 6.9 13.7 8.5zm31.6-42.2c4.2-6.4 12.9-12 16-20-3.4-.9-6.6-.4-9.1-1.5 9.6-10.3 11-15.8-.6-17.9h-.1c-1.8.5-3.1.6-6.7 1-1 .1-2.3.2-4.3.5-12.2 1.3-17.9-8.6-23.2-17.6-3.3-5.7-6.4-11-10.5-12-11-2.7-31.6 24.1-35.9 29.8 2.8 11.7 15 19.3 24.4 18 5.4-.8 23.8-2.3 26.6 10.3 1.6 7.5-10.3 10.6-21.5 10-7.3-.4-28.7 2-29.6 20.4-.1 1.3-.1 3.6.1 6.1 1.7 1.4 3.6 2.5 5.6 3.3.6-4.6 1.7-8.7 4.7-7.6-.9.1-1.6 4.1-.7 8.8 2.5.5 5.2.7 8 .5 1.1-.1 2.3-.2 3.5-.4-1.2-5.6-1.9-10.4 3-11.6.7 3.2 1.5 6.8 3.1 10.3 4.6-1.3 9.5-3.4 14.8-6.2.2-.7.4-1.3.7-1.9 2.9-4.9 8.7-4.6 14-4.5 10 .2 19.1-4.1 24.1-13.4 1.9-2.5-3.9-2.6-6.4-4.4zm37.4-13.2c-1.2-.6-2.1-1.3-3-2 .5 1.7 1.2 3.1 2.2 3.5.2-.4.5-1 .8-1.5zm21.5 5.4c0-.4-.1-.9-.1-1.5-7.2 0-12.5-.7-16.5-1.9-.2 4.8 1.5 11 7.2 16.9 3.1-1.9 5.4-6.5 9.4-13.5zM563 501c-.8-3.1-1.2-5.6-1.3-8-3.8.4-7.4.7-10.6.9 3.1 2.8 7 5.1 11.9 7.1zm18.3-59.5c-2.6-4.3-4.3-8.2-6-13.3-1.4-4.1-.2-4.3 1.9-5.7-2.2-6.2-7.2-7.3-9.8-11.6-1.2-1.9-2-3.2-1.1-6.1-2.7-3.7-14.4-6.4-19-8.5-3.4-1.5.8-7.1-8.2-10.7-4.6 8.7-8 22-19 21-16.7-1.4-24.5-22-37.9-32.8 67.8-25.3 75.5-44.3 74.2-54-3-23.3-17.3-35.1-33.5-43.2-1.6 3.3-1.4 7.1.7 11.3-82.2 15.1-107.7 79-165.8 91.4-8 1.7-14.4-6.2-13.1-11.5 2.8-11.4 23.4-25 48.9-26.3 22-1.1 28.1-14.1 27.4-16-1.6-.1-3.4-.8-5.5-2.1 4.6-9.3 8-18.4 9.1-27 .6-5.2-6.1-14.1-12.8-13.7 3.1 21.6-11.3 41.6-25.5 45.9-42.3 12.6-55.9 21.1-56.3 37.3-.4 18.4 15.2 29.7 29.1 28.2 44.5-4.7 123.4-97.4 163.2-92.4 19 2.4 23.1 11.9 23.2 19.3.3 18.7-60.1 39.9-80 46.1-1.6-.1-3.2.2-5 .3-26.5.2-53.7 24.7-87 39.7h-.6c1.2.6 2.3 1.3 3.1 2.1.7.6.8 1.9.2 2.6-.8 1-1.4 1.9-2 2.9-2.7 3.9-5.3 7.7-11 10.6 1.5.4 3.1.8 4.8 1.5 4.8 1.8 10.1 4.8 15.5 9.8.8.7.8 2.2 0 2.9-5.3 4.7-11.7 7-19.2 8 6.2 3 10.4 7.9 14.7 16 .1.1.1.3.1.4.1.1.1.2.1.2.6 2.1 1.1 4.1 1.4 6.3.2 1.9.3 3.8.2 5.8.3 0 .5 0 .7.1 10-.1 19.1-6.9 26.9-15.8 7.3-9.2 25.9-31.4 37.8-28.4 5.6 1.4 9.1 7.4 12.9 13.8 4.6 8 9.7 16.7 19.4 15.7 1.5-.2 3.1-.3 4.3-.4 1.9-.2 3.1-.3 4.1-.5 0 0 0-.1-.1-.1 16.6-4.1 31.3-23.7 48.5-21.9 5.3.6 12.3 6.1 11.9 10.3-1.5 15-28.5 18.1-29.9 29.1-.1.5-.1 1.4-.1 2.5l.2-.1c.8 2.1 2.2 4.3 5.3 6.1 1.7-4.1 4.2-8.5 9.5-8.7-4.4 5.5-4.7 8.1-5.4 10.4.1 0 .1.1.2.1 3.7 1.1 8.7 1.8 15.5 1.8-.1-6.2.5-14.7 3.8-12.6-.7 3.4-1.1 9.4.9 11.9l.4.6c4.1-.2 8.8-.5 14.1-1.1.3-3.2 1.3-6.3 2.8-10.5 1.6-4.6.2-8.6 1.2-13.6.6-3 4.6-2 7.9-1.9 3.5-7.6.5-12.8.4-19.4 4.9-.2 7.9-1 7.3-2.1zm599.9-198.7c-.8 3.2 14.7 6 14.9 7.6.1.6-2.3.1-3.3-.3-4.5-1.5-11.9-4.5-13.2-5.1.1.3 0 .9-.1 1.3-.6-.2-1.1-.6-1.7-.7-.5.7-1.1 1.4-1.6 2.1.1.4.3 1.1.3 1.5 1-.1 2.3.1 3.3.3 2.5.5 4.6-1.3 6.8-.8.3 1.4.5 3.1 2.2 4.9 2.8.6 7 1.2 6.5 2.6-.2.6-1.3.4-1.9.6-1.1.5-1.2 1.2-1.4 1.9 1.1-.7 2-1.1 2.8-1.1-.3.9-.7 1.5-1.4 2.3.7.3 1.6-.4 2.7-1.1 0 .7-.3 1.3-.8 2 .9-.1 1.8-.8 2.3-1.6-.2-.7-.7-1.3-.9-2 .2 0 .8.1 1 .2-.2-.7-1.1-1.5-.9-2.2.1-.4.8-.5 1.2-.7-2.7-1.3-5.8-1.5-6.4-2.3-.3-.3-.3-1.1-.3-1.5 1.4.2 2.8.8 4.2 1 1 .1 1.7.3 2.3-1 1.1-2.5-15.3-4.8-15.4-7.6 0-1.2 1.1-2.1 2.9-2.1 2.5 0 4.2 1.4 4.6 3-.6.4-.9.9-.8 1.6.6-.2 1-.9 1.7-.8 1.5.3 2.7 1.7 4.2 1.7 1.2 0 2.5-.5 3.1-1.3.6-.7-.8-2-1.7-1.5.8.2 1 .9.7 1.3-.5.7-2.2.6-3.4 0 .3-.4.6-.2 1.3-1.3-1.2-.2-2.1.1-3.7-.8.3-.4 1.2-.9 1.5-1.3-2.4-.3-5.6-1.4-7.4-1.7-1.8-.3-3.9 1.8-4.2 2.9zm6.7 13.9c-.4.5 3.3-1.1 1.4-2.5-1.8-1.2-3.2-4.7-3-5.4-3.5.5.2 3.8-1 3.9-4-.3-2.5-2.2-5.2-3 .4.5.6 1 .7 1.5-1.4-.9-2-.5-2.6.1.7.2 1.3.1 1.5.8-.2.4-.3.5-1.1.9 1.2.5 2.2.3 2.9 0 1.2 1.1 3 .9 3.1 1.8 1.1-.9 1.6-.8 1.9-.5-.5.5-1 .6-1.1 1.5.6.2 1.5.1 1.8-.4.3-.2 2-.4.7 1.3zm-9 16.3c-.6.4-.9.9-.8 1.7.6-.2 1-.9 1.7-.8 1.5.2 2.7 1.7 4.2 1.7 1.2 0 2.5-.5 3.1-1.3.6-.8-.8-2-1.7-1.5.8.2 1 .9.7 1.2-.5.7-2.2.6-3.4 0 .3-.4.6-.2 1.3-1.3-1.2-.2-2.1.1-3.7-.7.3-.4 1.2-.9 1.5-1.3-2.4-.3-5.6-1.4-7.4-1.7-1.8-.3-3.9 1.7-4.2 2.8-.9 3.2 14.7 6 14.9 7.6.1.6-2.3.1-3.3-.3-4.5-1.5-11.9-4.5-13.2-5.2.1.3 0 .9-.1 1.3-.6-.2-1.1-.5-1.7-.7-.5.7-1.1 1.4-1.6 2.1.1.4.3 1.1.3 1.5 1 0 2.3.1 3.3.3 2.5.5 4.6-1.3 6.8-.8.3 1.5.5 3.1 2.2 4.9 2.8.6 7 1.2 6.5 2.6-.2.6-1.3.4-1.9.6-1.1.5-1.2 1.1-1.4 1.9 1.1-.7 2-1.1 2.8-1.1-.3.9-.7 1.5-1.4 2.3.7.3 1.6-.4 2.7-1.1 0 .7-.3 1.3-.8 2 .9-.1 1.8-.8 2.3-1.6-.2-.7-.7-1.3-.9-2 .2 0 .8.1 1 .1-.2-.7-1.1-1.5-.9-2.2.1-.4.8-.5 1.2-.7-2.7-1.3-5.8-1.5-6.4-2.3-.3-.3-.3-1.1-.3-1.5 1.4.3 2.8.8 4.2 1 1 .1 1.7.3 2.3-1 1.1-2.5-15.3-4.8-15.4-7.6 0-1.2 1.1-2.1 2.9-2.1 2.5.3 4.1 1.6 4.6 3.2zm-2 12.8c-.4.5 3.3-1.1 1.4-2.5-1.8-1.2-3.2-4.7-3-5.3-3.5.5.2 3.8-1 3.9-4-.3-2.4-2.2-5.2-3 .4.5.6 1 .7 1.5-1.4-.9-2-.5-2.6.1.7.2 1.3.1 1.5.8-.2.4-.3.5-1.1.9 1.2.5 2.2.3 2.9 0 1.2 1.1 3 .9 3.2 1.8 1.1-.9 1.6-.8 1.9-.5-.5.5-1 .6-1.1 1.5.6.2 1.5.1 1.8-.4.2-.3 1.9-.5.6 1.2zm-9 16.3c-.6.4-.9 1-.8 1.7.7-.2 1-.9 1.7-.8 1.5.2 2.7 1.7 4.2 1.7 1.2 0 2.5-.5 3.1-1.3.6-.7-.8-2-1.7-1.5.8.2 1 .9.7 1.2-.5.7-2.2.6-3.4 0 .3-.4.6-.2 1.3-1.3-1.2-.2-2.1.1-3.7-.7.3-.4 1.2-.9 1.5-1.3-2.4-.3-5.6-1.4-7.4-1.7-1.8-.3-3.9 1.7-4.2 2.9-.9 3.2 14.7 5.9 14.9 7.6.1.6-2.3.1-3.3-.3-4.5-1.5-11.9-4.5-13.2-5.1 0 .3 0 .9-.1 1.3-.6-.2-1.1-.6-1.7-.7-.5.7-1.1 1.4-1.6 2.1.1.4.3 1.1.3 1.5 1-.1 2.3.1 3.3.3 2.5.5 4.6-1.3 6.8-.8.3 1.4.5 3.1 2.2 4.9 2.8.6 7 1.2 6.5 2.6-.2.6-1.3.4-1.9.6-1.1.5-1.2 1.1-1.4 1.9 1.1-.7 2-1.1 2.8-1.1-.3.9-.7 1.5-1.4 2.3.7.3 1.6-.4 2.7-1.1 0 .7-.3 1.3-.8 2 .9-.1 1.8-.8 2.3-1.6-.2-.7-.7-1.3-.9-2 .2 0 .8.1 1 .2-.2-.7-1.1-1.5-.9-2.2.1-.4.8-.5 1.2-.7-2.7-1.3-5.8-1.5-6.4-2.3-.3-.3-.3-1.1-.3-1.5 1.4.2 2.8.8 4.2 1 1 .1 1.7.3 2.3-1 1.1-2.5-15.3-4.8-15.4-7.6 0-1.2 1.1-2.1 2.9-2.1 2.5 0 4.2 1.3 4.6 2.9zm-2 12.9c-.4.5 3.3-1.1 1.4-2.5-1.7-1.2-3.2-4.7-3-5.4-3.5.5.2 3.8-1 3.9-4-.3-2.4-2.2-5.2-3 .4.5.6 1 .7 1.5-1.4-.9-2-.5-2.6.1.7.2 1.3.1 1.5.8-.2.4-.3.5-1.1.9 1.2.5 2.2.3 2.9 0 1.2 1.1 3 .9 3.2 1.8 1.1-.9 1.6-.8 1.9-.5-.5.5-1 .6-1.1 1.5.6.2 1.5.1 1.8-.3.3-.4 2-.6.6 1.2zm-13.1-6.8c.4-.6.9-.9 1.4-1-.3-1.2-.5-2.4-1.3-3.4-1.1 0-1.6.6-2.2 1.3-6-.6-3.4-3.2-6.2-4.1.5.7.8 1.4 1 2.1-1.7-.9-2.4-.9-3.2-.2.9.4 1.4.6 1.8 1.4-.7.2-.9.6-2 .4.3 1.3 1.6 1.7 3.1.6.8.7 1.3 1.5 1.7 2.4.4-.3.9-.4 1.3-.6.6 1 .4 1.7 2.2 1.8v-1.2c1.7 1.2 1.8 1.6 3.2 2 0-.3.2-.8.7-.9-.6-.2-1-.2-1.5-.6zm-4-13.1c-.5 0-1.2-.2-1.7-.2-.6-.1-.9.3-1.1.9.9-.1 1.7-.1 2.5.1-.4.8-1.3 2-1.8 2.5.7 0 1.4-.1 1.7.4-.7.5-1.2 1.6-1 2.3 1.1.6.7.6 1.1 1.9.2.6 2 .5 2.7.5.1-.5.5-1.3.6-1.8-.7-.2-1.6 0-2.3-.1.2-.6.6-1.1 1-1.5-.1-.5-.5-.7-.6-1.2 0-.9-.2-1.9.1-2.7.3-.8 1.3-1.3 1.5-2.1.2-.7-.8-1.5-1.2-2.2.1.6.2 1.1.2 1.7-.3.2-.6.6-.9.9-.2-.4-.1-.9-.4-1.2-.8-.8-1.5-.6-2.1-.6.3.4.8.6 1.1 1.1.5.7.6.9.6 1.3zm6.9 8.2c.7.3.9.4 1.6.7-.1-.9.3-1.8.2-2.7.4-.1.7.2 1.1-.1-.2-.5-.3-.8-.5-1.3.3 0 .8-.3 1.1-.3-.2-.4-.5-.6-.7-1 .4-.1.8-.3 1.2-.5-.1-.5-.5-1.1-1.4-1.4 1.3-.7 1.2-.6-.3-.7 0-.5.1-.8-.1-1.2-.7 0-1.5-.1-1.8.1-.2-.8 0-.7-.7-1.1-.4.4-.7.8-.5 1.7-1.4-.3-1.3 1.2-1.1 1.7-1.3 0-2.3.5-2.6 1.4.3.2.6.6.9.9-1.3.2-2.2 1.6-2.3 2 .8 0 1.5-.1 2.3 0-.2.7-.6 1.8-.8 2.5.8-.4 1-.5 1.8-.5.5.7.7 1.2 1 2.1.5-.9 1.1-1.5 1.6-2.3zm-.7-28c-.7.2-.9.6-2 .4.3 1.3 1.6 1.7 3.1.6.8.7 1.3 1.4 1.7 2.4.4-.3.9-.4 1.3-.6.6 1 .4 1.7 2.2 1.8v-1.2c1.7 1.2 1.8 1.6 3.2 2 0-.3.2-.8.7-.9-.4-.2-.8-.2-1.2-.6.4-.6.9-.9 1.4-1-.3-1.2-.5-2.4-1.3-3.4-1.1 0-1.6.6-2.2 1.3-6-.6-3.5-3.2-6.2-4.1.5.7.8 1.4.9 2.1-1.7-.9-2.4-.9-3.2-.2.6.4 1.2.5 1.6 1.4zm4.7-9.3c-.5 0-1.2-.2-1.7-.2-.6-.1-.9.3-1.1.9.9-.1 1.7-.1 2.5.1-.4.8-1.3 2-1.8 2.5.7 0 1.4-.1 1.7.4-.7.5-1.2 1.6-1 2.3 1.1.6.7.6 1.1 1.9.2.6 2 .5 2.7.5.1-.5.5-1.3.6-1.8-.7-.2-1.6.1-2.3-.1.2-.6.6-1.2 1-1.5-.1-.5-.5-.7-.6-1.2 0-.9-.2-1.9.1-2.7.3-.8 1.3-1.3 1.5-2.1.2-.7-.8-1.5-1.2-2.2.1.6.2 1.1.2 1.7l-.9.9c-.1-.4-.1-.9-.4-1.2-.8-.8-1.5-.6-2.1-.6.3.4.8.6 1.1 1.1.5.7.7.9.6 1.3zm6.2-19.8c-.7.2-.9.6-2 .4.3 1.3 1.6 1.7 3.1.6.8.7 1.3 1.5 1.7 2.4.4-.3.9-.4 1.3-.6.6 1 .4 1.7 2.2 1.8v-1.2c1.7 1.2 1.8 1.6 3.2 2 0-.3.2-.8.7-1-.4-.2-.8-.2-1.3-.6.4-.6.9-.9 1.4-1-.3-1.2-.5-2.4-1.3-3.4-1.1 0-1.6.6-2.2 1.3-6-.6-3.5-3.2-6.2-4.1.5.7.8 1.4 1 2.1-1.7-.9-2.4-.9-3.2-.2.7.5 1.3.6 1.6 1.5zm-3.7 23.3l.9.9c-1.3.2-2.2 1.6-2.3 2.1.8 0 1.5-.1 2.3 0-.2.7-.6 1.9-.8 2.5.8-.4 1-.5 1.8-.5.5.7.7 1.2 1 2.1.5-.8 1.1-1.4 1.6-2.2.6.3.9.4 1.6.7-.1-.9.3-1.8.2-2.7.4-.1.6.2 1-.1-.2-.5-.3-.8-.5-1.2.3 0 .8-.3 1.1-.3-.2-.4-.5-.6-.7-1 .4-.2.8-.3 1.2-.5-.1-.5-.5-1.1-1.4-1.4 1.3-.7 1.2-.6-.3-.7 0-.5.1-.8-.1-1.2-.7 0-1.5-.1-1.8.1-.2-.8 0-.7-.7-1.1-.4.4-.7.8-.5 1.7-1.4-.3-1.3 1.2-1.1 1.7-1.2-.3-2.2.2-2.5 1.1zm13.6-30.5c-1.3 0-2.3.5-2.6 1.4l.9.9c-1.3.2-2.2 1.6-2.3 2 .8 0 1.5-.1 2.3 0-.2.7-.6 1.8-.8 2.5.8-.4 1-.5 1.8-.5.5.7.7 1.2 1 2.1.5-.8 1.1-1.4 1.6-2.2.6.3.9.4 1.6.7-.1-.9.3-1.8.2-2.7.4-.1.6.2 1-.1-.2-.5-.3-.8-.5-1.3.3 0 .8-.3 1.1-.3-.2-.4-.5-.6-.7-1 .4-.1.8-.3 1.2-.5-.1-.5-.5-1.1-1.4-1.4 1.3-.7 1.2-.6-.3-.7 0-.5.1-.8-.1-1.2-.7 0-1.5-.1-1.8.1-.2-.8 0-.7-.7-1.1-.4.4-.7.8-.5 1.7-1.3-.5-1.3 1.1-1 1.6zm-5.1-2.1c-.5 0-1.2-.2-1.7-.2-.6-.1-.9.3-1.1.9.9-.1 1.7-.1 2.5.1-.4.8-1.3 2-1.8 2.5.7 0 1.4-.1 1.7.4-.7.5-1.2 1.6-1 2.3 1.1.6.7.6 1.1 1.9.2.6 2 .5 2.7.5.1-.5.5-1.3.6-1.8-.7-.2-1.6 0-2.3-.1.2-.6.6-1.1 1-1.5-.1-.5-.5-.7-.6-1.2 0-.9-.2-1.9.1-2.7.3-.8 1.3-1.3 1.5-2.1.2-.7-.8-1.5-1.2-2.2 0 .6.2 1.1.2 1.7-.3.2-.6.6-.9.9-.1-.4-.1-.9-.4-1.2-.8-.8-1.5-.6-2.1-.6.3.4.8.6 1.1 1.1.5.7.7.9.6 1.3zm-33.4 18.6c1.2-.1 2.8-1.6 4.3-4.1.3.1.3.5.6.6-1.3 1.6-2.8 3.1-4.1 4.6.5.5 1 1.3 1.2 2.1.1.3.1.7.1 1.1 0 .3 0 .7-.1 1 .5-.8 1-1.3 1.5-1.6.7-.5 1.5-.8 2.3-.8 0-2-.1-4.1 0-6.2.2 0 .6-.2.8-.1-.5 2.9-.2 5.1.6 5.9.7.8 2.6.3 3.1-.7.9-1.6.5-2.5.3-2.7-.5-.5-1.3-.3-1.4-.1.5 1.3-.4 2-.9 1.5-.8-.7-.5-2.1-.4-3.3.6.2.8.5 1.1.6.4-.4.9-1 .8-2-.1-.4-.6-.5-1-1 .6-1.3 2.4-3.1 3.4-2 .7.8-.2 1.6-.9 2.4-.9 1.2-.5 2.1.1 2.7.2-.5.2-1.1.6-1.4.7-.5 2.1-.4 3.5-2 1.4-1.5 2.4-5.2 1-6.8-1.4-1.5-4.7-.3-7.1 3.2-.5.7-1.6 2.2-1.9 3.4-.2-.1-.2-.3-.4-.4 1.6-3.2 4.1-5.7 6-8.9 1.9-3.1 1.3-6.5.6-9.9-2.8 2.1-5.4 4.3-6.1 7.8-.6 3.6-.4 7.1-1.3 10.6-.2-.1-.4.1-.6 0 .5-1.1.7-3 .7-3.8.5-4.2-1.2-7.3-3.3-7.1-2.1.2-3.8 3.7-3.7 5.7 0 2.1 1.1 3 1.3 3.8.1.4-.3.9-.5 1.4.9 0 1.8-.4 1.9-1.9.1-1-.2-2.2.9-2.3 1.5-.2 1.6 2.4 1.2 3.8-.6.1-1-.1-1.4.1-.8.6-.8 1.4-.8 2 .3.1.7-.1 1.2.2-.7.9-1.4 2.2-2.5 2.2-.7 0-.9-1.1.3-1.7 0-.3-.4-.9-1.2-.9-.3 0-1.2.4-1.6 2.2-.3 1.3.8 2.9 1.8 2.8zm-6.9-32.4c-2.8 2-5.4 4.3-6.1 7.8-.6 3.6-.4 7.1-1.3 10.6-.2-.1-.4.1-.6 0 .5-1.1.7-3 .7-3.8.5-4.3-1.2-7.3-3.3-7.1-2.1.2-3.8 3.7-3.8 5.7 0 2.1 1.1 2.9 1.3 3.8.1.4-.3.9-.5 1.4.9 0 1.8-.4 1.9-1.9.1-1-.2-2.2.9-2.3 1.5-.2 1.6 2.4 1.2 3.8-.6.1-1-.1-1.4.1-.8.6-.8 1.4-.8 2 .3.1.7-.1 1.2.2-.7.9-1.4 2.2-2.5 2.2-.7 0-.9-1.1.3-1.7 0-.3-.4-.9-1.2-.9-.3 0-1.2.4-1.6 2.2-.2 1.1.9 2.7 1.9 2.6 1.2-.1 2.8-1.6 4.3-4.1.3.1.3.4.6.6-1.3 1.6-2.8 3.1-4.1 4.6.5.5 1 1.3 1.2 2.1.1.5.2 1.3 0 2.2.5-.8 1-1.3 1.4-1.6.7-.5 1.5-.8 2.3-.8 0-2-.1-4.1 0-6.2.3 0 .6-.2.8-.1-.5 2.9-.2 5.1.6 5.9.7.8 2.6.3 3.1-.7.9-1.6.5-2.5.2-2.7-.5-.5-1.2-.3-1.4-.1.5 1.3-.4 2-.9 1.5-.8-.7-.5-2.1-.4-3.3.6.2.8.5 1.1.7.4-.4.9-1 .8-2-.1-.4-.6-.5-1-1 .7-1.3 2.4-3.1 3.4-2 .7.8-.3 1.6-.9 2.3-.9 1.2-.5 2.1.1 2.7.2-.5.2-1.1.6-1.4.7-.5 2.1-.4 3.5-2 1.4-1.5 2.4-5.3 1-6.8s-4.7-.3-7.1 3.2c-.5.7-1.6 2.2-2 3.3-.2-.1-.2-.3-.4-.4 1.6-3.2 4.1-5.7 6-8.9.9-1.6 1.3-3.2 1.3-4.9.3-1.5 0-3.2-.4-4.8zm-4.6 56.9c-.9 1.2-.5 2.1.1 2.7.2-.5.2-1.1.6-1.4.7-.5 2.1-.4 3.5-2 1.4-1.5 2.4-5.3 1-6.8s-4.7-.3-7.1 3.2c-.5.7-1.6 2.2-1.9 3.4-.2-.1-.2-.3-.4-.4 1.6-3.2 4.1-5.7 6-8.9.9-1.6 1.3-3.2 1.3-4.9 0-1.6-.3-3.3-.7-4.9-2.8 2-5.4 4.3-6.1 7.8-.6 3.6-.4 7.1-1.3 10.6-.2-.1-.4.1-.6 0 .5-1.1.7-3 .7-3.8.5-4.2-1.2-7.3-3.3-7.1-2.1.2-3.8 3.7-3.8 5.7 0 2.1 1.1 3 1.3 3.8.1.4-.3.9-.5 1.4.9 0 1.8-.4 1.9-1.9.1-1-.2-2.2.9-2.3 1.5-.2 1.6 2.4 1.2 3.8-.6.1-1-.1-1.4.1-.8.6-.8 1.4-.8 2 .3.1.7-.1 1.2.2-.7.9-1.4 2.2-2.5 2.2-.7 0-.9-1.1.3-1.7 0-.3-.4-.9-1.2-.9-.3 0-1.2.4-1.6 2.2-.2 1.1.8 2.7 1.9 2.6 1.2-.1 2.8-1.6 4.3-4.1.3.1.3.5.6.6-1.3 1.6-2.8 3.1-4.1 4.6.5.5 1 1.3 1.2 2.1.1.3.1.7.1 1.1 0 .3 0 .7-.1 1 .5-.8 1-1.3 1.5-1.6.7-.5 1.5-.8 2.3-.8 0-2-.1-4.1 0-6.2.2 0 .6-.2.8-.1-.5 2.9-.2 5.1.6 5.9.7.8 2.6.3 3.1-.7.9-1.6.5-2.5.3-2.7-.5-.5-1.3-.3-1.4-.1.5 1.3-.4 2-.9 1.5-.8-.7-.5-2.1-.4-3.3.6.2.8.5 1.1.7.4-.4.9-1 .8-2-.1-.4-.6-.5-1-1 .7-1.3 2.4-3.1 3.4-2 .6.8-.3 1.6-.9 2.4zm1.5-80.2l.3-.8-.3.8zm-153 44.8c-2.4 8.6 32.8 13.5 32.9 17.8.1 1.4-5.2.6-7.6-.2-10.1-3.2-26.6-9.9-29.4-11.6 0 .9-.2 2.3-.5 3.4-1.3-.4-2.5-1.3-3.8-1.7-1.3 1.9-2.7 3.8-3.9 5.7.1 1.1.5 2.8.5 3.8 2.3-.3 5.2-.1 7.4.3 5.6 1 10.6-4.2 15.8-3.2.5 3.8.6 8 4.3 12.7 6.4 1.2 15.7 2.2 14.5 5.8-.6 1.6-3.1 1.2-4.5 2-2.6 1.4-3 3.2-3.5 5.3 2.5-2 4.8-3.3 6.5-3.3-.8 2.5-1.8 4-3.5 6.2 1.4.7 3.8-1.3 6.3-3.3-.1 1.8-1 3.6-2 5.4 2-.5 4.2-2.4 5.4-4.5-.4-1.8-1.4-3.4-1.8-5.2.5 0 1.8.2 2.3.2-.4-1.9-2.2-3.8-1.7-5.7.3-1.1 1.9-1.5 2.9-2-5.9-3.1-13.2-3.1-14.4-5-.6-.8-.5-2.8-.5-3.8 3.1.4 6.4 1.7 9.6 2 2.2.2 3.9.5 5.4-3 2.8-6.7-34.3-10.4-34.1-17.7.1-3.2 2.8-5.8 6.9-6 5.8-.3 9.3 3.1 10.1 7.2-1.5 1.2-2.3 2.6-2 4.5 1.5-.6 2.4-2.6 4-2.4 3.5.4 6 4.2 9.4 3.9 2.8-.2 5.8-1.6 7.4-3.9 1.4-2.1-1.5-5-3.6-3.7 1.7.4 2.2 2.2 1.4 3.2-1.2 1.9-5.2 1.9-7.9.5.8-1.2 1.4-.6 3.1-3.5-2.8-.3-4.8.5-8.4-1.4.9-1.2 2.8-2.6 3.7-3.8-5.5-.5-12.7-2.9-16.7-3.4-4-.3-9.1 5.5-10 8.4zm13.2 35.8c-1 1.4 7.8-3.5 3.6-6.7-3.8-3-6.6-12-6.1-13.7-8 1.8-.2 10.1-3 10.5-9-.3-5.3-5.5-11.5-7.1.8 1.2 1.1 2.7 1.4 4-3.1-2.1-4.5-1.2-5.9.6 1.5.4 3 0 3.4 1.9-.6 1.1-.8 1.4-2.7 2.4 2.7 1.2 5 .5 6.6-.5 2.5 2.7 6.7 2 7 4.2 2.6-2.6 3.8-2.3 4.5-1.5-1.3 1.4-2.5 1.8-2.9 4.2 1.4.3 3.4.1 4.2-1.2.7-1.2 4.7-1.9 1.4 2.9zm-25-45c-3 .3-5.4 1.6-6.2 4.1.7.6 1.2 1.5 2 2.1-3 .8-5.3 4.6-5.7 5.8 1.8-.1 3.4-.4 5.2-.4-.5 1.9-1.7 4.9-2.2 6.8 1.9-1.3 2.5-1.5 4.2-1.7 1.1 1.7 1.4 3 2 5.3 1.3-2.1 2.7-3.9 3.9-6.1 1.5.7 2.1 1 3.5 1.6-.2-2.3 1-4.9.8-7.2 1-.3 1.5.3 2.5-.5-.3-1.3-.6-1.9-.9-3.2.8-.1 1.8-.8 2.6-.9-.4-1-1-1.6-1.4-2.6 1-.5 1.9-1 2.9-1.4-.1-1.3-.9-2.8-2.9-3.5 3.2-2.1 2.8-1.7-.6-1.9 0-1.3.3-2.1-.1-3.2-1.6.2-3.5-.1-4.2.4-.4-2 .1-1.7-1.5-2.8-.9 1.1-1.6 2.3-1.3 4.5-3-.6-3.1 3.5-2.6 4.8zm-4 29.4c1-1.6 2.1-2.5 3.4-2.9-.5-3-.7-6.3-2.4-8.8-2.6.1-3.9 1.9-5.3 3.8-13.6-.5-7.4-7.9-13.6-9.8 1.1 1.7 1.5 3.6 1.9 5.3-3.9-2.1-5.3-1.9-7.4.1 1.9.9 3.2 1.3 4 3.4-1.6.7-2.1 1.9-4.7 1.4.4 3.4 3.4 4.2 7.1 1.2 1.7 1.8 2.8 3.7 3.5 6.1.9-.8 2.1-1.1 3-1.9 1.2 2.6.6 4.6 4.7 4.6 0-1 .1-2.3.1-3.2 3.6 2.9 4 4 7 4.8 0-.8.6-2.2 1.7-2.6-1.1-.8-2-.8-3-1.5zm-7.4-34.1c-1.1.1-2.7-.2-3.8-.2-1.3-.1-2.1 1-2.7 2.5 2-.3 4-.6 5.7-.1-1 2.3-3.2 5.4-4.6 6.8 1.7-.1 3.2-.4 4 .8-1.6 1.4-3 4.5-2.7 6.3 2.5 1.4 1.6 1.6 2.1 4.9.3 1.7 4.5.9 6.2 1 .3-1.3 1.3-3.6 1.6-4.8-1.6-.3-3.6.4-5.2.1.5-1.7 1.5-3.1 2.6-4.2-.2-1.2-1.1-1.8-1.3-3 .1-2.5-.1-4.9.7-7.3.8-2.2 3.2-3.6 3.7-5.9.5-2-1.6-3.8-2.4-5.7 0 1.6.2 2.8.2 4.4-.6.7-1.5 1.8-2.2 2.5-.3-1.1-.1-2.4-.8-3.2-1.7-2-3.3-1.4-4.8-1.3.7 1.1 1.8 1.5 2.4 2.7 1.2 2.2 1.5 2.6 1.3 3.7zm-116 15.3c5.4 0 12.5-4.6 18.5-13.1 1.3.4 1.8 1.8 2.8 2.4-5.5 5.1-11.6 10-17.1 15.1 2.6 2.1 5.3 5 6.4 8.3.7 2 1.4 4.9 1 8 1.8-2.6 4.2-4.3 6.1-5.3 3-1.7 6.9-2.1 10.2-2-.8-7.5-2.1-15.2-2.9-22.7 1.2.2 2.5-.4 3.7.1-1.1 10.3 1.2 18.5 5.2 22 3.6 3.2 12.2 2.1 14.3-1.1 3.6-5.6 1.2-8.9 0-10-2.6-2.1-6-1.6-6.8-1.1 2.9 4.8-.8 7.1-3.5 5.2-4.2-3.1-3.2-8.1-3.5-12.3 2.9.9 3.9 2.1 5.2 2.9 1.6-1.4 3.8-3.4 2.6-7-.8-1.5-2.8-2-5-4 2.5-4.4 9.8-10.4 15-5.9 3.7 3.2-.5 5.7-2.9 8.2-3.8 3.9-1.6 7.5 1.8 9.9.7-1.6.6-4 2.1-4.8 3.1-1.6 9.8-.7 15.6-5.8 5.7-5 9-18.2 1.5-24.4-7.4-6.3-22-3.3-31.9 8.5-1.9 2.2-6.5 7.4-7.6 11.4-1-.4-1.3-1.3-2.2-1.7 6.2-11.1 16.7-19.2 24.2-29.8 7.3-10.5 3.4-23.3-1.5-36-12 6.3-23.5 13.3-24.9 26.1-1.4 12.9 1.1 25.9-1.5 38.3-1-.3-1.8.2-2.8-.2 1.9-3.7 1.7-10.7 1.8-13.6.3-15.4-8.7-27.2-18.4-27.4-9.7-.2-16 11.8-15 19.4 1 7.6 6.6 11.3 7.9 14.6.6 1.6-1.1 3.3-1.6 5 4.2.5 8.2-.8 7.9-6.2-.2-3.5-1.7-8.2 3.2-8.1 6.8.1 8.4 9.5 7.4 14.4-2.9.1-4.8-.8-6.4-.3-3.3 1.9-2.9 4.9-2.7 7 1.5.4 3.1.1 5.8 1.3-3 3-5.5 7.4-10.7 7-3.2-.3-4.5-4.5.8-6.2-.3-1-2.4-3.6-5.8-3.7-1.6-.1-5.6.8-6.6 7.4-.2 3.8 5.5 10.2 10.3 10.2zM754 395.8c4-18.6 9.2-22.6 20.2-17.4l5.2-11c-6.5-16.5-30.8-.6-25.4 28.4zm26.8-31.5l7.7-15.1-.5-27.8-12.8 35.8 5.6 7.1zm-23.4 32.4c4.8-9.5 7.7-6.8 10.6-4.3l5-11.4c-3.5-4.5-16.1-4.9-15.6 15.7zm-2.9 63.1c16.2-40 34.3-89.7 46.5-121.6-5.8-.8-36.3 55.6-53.6 117.5-.7 2.6 6.1 6.5 7.1 4.1zm5.7 28.1l-1.3-23.1c-2.7-.7-6-1.7-8.4-3.2l2.1 24.4c2 2 5.4 3.1 7.6 1.9zm42.2-149.1c-11.9 31.9-31.1 81.3-45.3 122-.8 2.4 6.9 4 8 1.7 27.8-58 42.2-120.5 37.3-123.7zm16.2 82.6c4-18.6 9.2-22.6 20.2-17.3l5.2-11c-6.5-16.5-30.8-.7-25.4 28.3zm26.8-31.4l7.7-15.1-.5-27.8-12.8 35.8 5.6 7.1zm-23.5 32.4c4.8-9.5 7.7-6.8 10.6-4.3l5-11.4c-3.5-4.5-16-4.9-15.6 15.7zm1.3-87.8l-18.7 20.6-4.2 16.4 8.9-1.6 14-35.4zm-26.7 76.9c13.9-15.2 4.2-23.2-1.3-22.1l-3.8 11.9c3.8 0 7.8-.1 5.1 10.2zm2.8-36.6l-3.4 11.7c11.7 3.3 13 9.7 3.7 26.4 23.2-18.3 15.4-46.2-.3-38.1zM819 485.5c16.2-40 34.3-89.7 46.5-121.6-5.8-.9-36.3 55.5-53.6 117.5-.7 2.6 6.1 6.5 7.1 4.1zm5.7 28.1l-1.3-23.1c-2.7-.7-6-1.7-8.5-3.2l2.1 24.4c2.1 2 5.5 3 7.7 1.9zm42.2-149.1c-11.9 31.9-31.1 81.3-45.3 122-.9 2.5 6.9 4 8 1.7 27.9-58.1 42.2-120.5 37.3-123.7zm17.7 81.8c4-18.7 9.2-22.6 20.2-17.4l5.2-11c-6.4-16.4-30.8-.6-25.4 28.4zm26.8-31.4l7.7-15.1-.5-27.8-12.8 35.8 5.6 7.1zM888 447.2c4.7-9.5 7.7-6.8 10.6-4.3l5-11.4c-3.5-4.5-16.1-4.9-15.6 15.7zm-.3-86.9L869 380.9l-4.2 16.4 8.9-1.6 14-35.4zm-26.6 76.8c13.9-15.2 4.2-23.2-1.3-22.1l-3.8 11.9c3.7.1 7.8-.1 5.1 10.2zm2.8-36.5l-3.4 11.7c11.7 3.3 13 9.7 3.7 26.4 23.1-18.3 15.4-46.3-.3-38.1zm21.2 109.8c16.2-40 34.4-89.7 46.5-121.5-5.8-.8-36.3 55.5-53.6 117.5-.8 2.5 6.1 6.4 7.1 4zm42-48.4c13.9-15.2 4.2-23.2-1.3-22.1l-3.8 11.9c3.8 0 7.8-.1 5.1 10.2zm3.1 1.5c23.2-18.2 15.4-46.2-.3-38.1l-3.4 11.7c11.7 3.3 13 9.8 3.7 26.4zm23.6-78.3l-18.7 20.6-4.2 16.4 8.9-1.6 14-35.4zm-20.9 4.1c-11.9 31.9-31.1 81.3-45.3 122-.9 2.5 6.9 4 8 1.7 27.9-58 42.2-120.4 37.3-123.7zm-42.1 149.2l-1.3-23.1c-2.7-.7-6-1.7-8.5-3.2l2.1 24.4c2.1 2 5.5 3.1 7.7 1.9zm115.5 1.5c10.3 5.4 19.5 7.9 21.9 4-8.1-3.5-15.4-7.3-21.2-12 2.1-1.3 5.5-1.6 8.2-1.3-6.8-8.8-19.3-5.3-20.6-27-.2-3.6-.3-8.5-1-12-.7-3.4-3.1-5.3-5.6-4.9-1.2.2-4.3 2.6-8.6 3.7 2.1 2.1 3.8 4.9 4.6 7.4-6 7.9-8.8 14-7.8 18.8 6.1 28.9 22.8 5.5 28 41.2.7.9 3.5.7 3.6-.2.3-5.6-.7-11.7-1.5-17.7zm64.6 66.4c-8.1-3.5-15.4-7.3-21.3-12 2.1-1.3 5.5-1.6 8.2-1.3-6.9-8.8-19.3-5.3-20.6-26.9-.2-3.6-.2-8.5-1-12-.7-3.4-3.1-5.3-5.5-4.9-1.3.2-4.3 2.7-8.6 3.7 2.1 2.1 3.8 4.9 4.6 7.4-6 7.9-8.8 14-7.8 18.8 6.1 28.8 22.8 5.5 28 41.1.7.9 3.5.7 3.5-.2.2-5.6-.7-11.7-1.5-17.7 10.3 5.4 19.5 7.9 22 4zm64.4-22c-8.1-3.5-15.4-7.3-21.3-12 2.2-1.3 5.5-1.6 8.2-1.3-6.8-8.8-19.3-5.3-20.6-26.9-.2-3.6-.3-8.5-1-12-.7-3.4-3.1-5.3-5.6-4.9-1.3.2-4.3 2.6-8.6 3.7 2.1 2.1 3.8 4.9 4.6 7.4-5.9 7.9-8.7 14-7.7 18.8 6.1 28.8 22.8 5.4 28 41.1.7.9 3.5.7 3.5-.2.2-5.6-.7-11.7-1.5-17.7 10.4 5.4 19.6 7.9 22 4zm-2.6-77.2c3.7-6.7 4.7-11 2.7-11.9-9.7 5.2-27.7 2.4-54.4-8 9.8-26.9 19.6-42.3 29.8-46.2.7-2.1-3.2-4.2-10.7-5.8.8-10.4-1.8-13.8-1.9-13.6.1-.1-4.2.6-10.5 9-6.7-3.8-11-4.7-11.9-2.7 5.2 9.7 2.4 27.7-8 54.3-26.9-9.8-42.3-19.6-46.2-29.8-2.1-.6-4.2 3.2-5.8 10.7-10.4-.8-13.8 1.9-13.6 1.9-.2-.1.7 4.1 9 10.4-3.8 6.7-4.8 11-2.7 11.9 9.7-5.2 27.7-2.3 54.4 8.1-9.8 26.9-19.6 42.3-29.9 46.2-.7 2.1 3.2 4.2 10.7 5.8-.8 10.4 1.9 13.8 1.9 13.6-.1.2 4.2-.6 10.4-9 6.7 3.8 11 4.7 11.9 2.7-5.2-9.7-2.3-27.7 8.1-54.4 26.9 9.8 42.3 19.6 46.2 29.8 2.1.7 4.2-3.2 5.8-10.7 10.4.8 13.8-1.9 13.6-1.9.3.1-.6-4.1-8.9-10.4zm-113.1-103.7c-6 7.9-8.7 14-7.7 18.8 6.1 28.8 22.8 5.5 28 41.1.7.9 3.5.7 3.5-.2.2-5.6-.7-11.7-1.5-17.7 10.2 5.4 19.5 7.9 21.9 4-8.1-3.5-15.4-7.3-21.3-12.1 2.1-1.3 5.5-1.6 8.2-1.3-6.9-8.8-19.3-5.3-20.6-26.9-.2-3.6-.3-8.5-1-12.1-.7-3.4-3.1-5.3-5.5-4.9-1.3.2-4.3 2.7-8.6 3.7 2.1 2.4 3.8 5.2 4.6 7.6zm151.3 86.5c-8.1-3.5-15.4-7.3-21.3-12.1 2.1-1.3 5.5-1.6 8.2-1.3-6.9-8.8-19.4-5.3-20.6-26.9-.2-3.6-.3-8.5-1-12-.7-3.4-3.1-5.3-5.6-4.9-1.3.2-4.3 2.6-8.6 3.7 2.1 2.1 3.8 4.9 4.6 7.4-6 7.9-8.8 14-7.7 18.8 6.1 28.9 22.8 5.5 28 41.2.7.9 3.5.7 3.5-.2.2-5.6-.7-11.7-1.5-17.7 10.4 5.4 19.6 7.9 22 4zm106-157.9c-25.4-29.5-43-65.4-52.8-108-3.4.8-6.8 1.5-10.2 1.9l.1-.3.2-.5-.5.1c-.5.1-1 .1-1.5.2.5-.1 1-.1 1.5-.2l.5-.1-.2.5-.1.3-38.2 101.3-40.8-15.4 33.1-88-2.5-1-33.1 88-41.2-15.5 36.1-95.5c-17.4-11.5-35.5-26.7-54.4-45.6l-1.2-1.2-.4-.4-.1.2-3.5-.2L989.3 367l-95-34.6 67.4-185.1-2.6-.9-67.3 185.1-113.6-41.4-1.9 5.1 211.1 76.9-99.5 272.2 5.1 1.9L992.5 374l212.1 77.3 1.9-5.1c12.7-43.9 39.5-80.4 70.4-114.1zm-940.6-62.4c22.1-8.1 39.3-16.8 38.4-19.4-1-2.6-19.7 1.9-41.8 10-22.1 8.1-39 16.7-38.1 19.3 1 2.6 19.4-1.8 41.5-9.9zm-23.8 127.2l1.9 2.5c-.4.3-.9 1.1-1.4 2.5-.6 1.6-1.2 4-1.7 7.4l-.2 1.3h-1.3c-1.6-.1-3.1-.1-4.5-.1-1.7-.1-3.4-.1-5-.1-2 1.4-4 2.8-6 4.1-1.7 1.1-3.4 2.3-5.1 3.5 1.4 1.8 2.6 3.5 3.8 5.2l5.6-7.2 12.6 1.4-6.1 12.2-8.3-.4c4.7 8.2 6.8 15.3 6.2 21.2-.2 1.8-.6 3.5-1.2 5.1-.6 1.6-1.5 3.1-2.6 4.5l-.1.2h.3l14.2-.1 3.7-8.7.4-.9.9-.1 4-.3-2.3-10.3-.4-1.6 1.7-.2 3.8-.5-5-8.7 2.7-1.5L329 438l1.1 2-2.3.3-4.4.6 2.3 10.4.4 1.7-1.8.1-4.9.4-3.7 8.7-.4.9h-1l-7.4.1c2.4 1.6 4.6 4.3 5.8 7.7 2.3 6.5.5 13.2-4.2 14.9-4.7 1.7-10.4-2.3-12.7-8.8-1.1-2.9-1.3-5.9-.7-8.4l-4.4 4.8-.7.8-1-.4-8.3-3.4-4 3.8-1.4 1.3-1-1.6-6.1-10-3.1 5.7-1.6 3.1-1.2-3.3L258 457l2.9-1 3.3 9.3 2.7-5 1.3-2.4 1.4 2.3 6.4 10.6 3.3-3.2.7-.7 1 .4 8.2 3.4 8.8-9.8-.5-.1c-.2 0-.8-.1-1.4-.2-7.4-1.3-14.7-2.5-19.7-22l-5.2 6.2-13.2-3.7 7.4-10.3 9.4.7c-.4-1.9-.7-3.8-1-6-4.2.2-5.1.3-5.1.3h-.1c-2.8.1-5.6.3-8.9.4-1.6 1.8-2.9 3.5-3.7 5.1-.8 1.7-1.3 3.4-1.3 5l.1 3.7-2.7-2.6c-3.9-3.8-7.7-5.2-12-6.9-.7-.3-1.4-.5-1.7-.7l1.1-2.9c.8.3 1.3.5 1.7.7 3.9 1.5 7.3 2.8 10.8 5.6.3-1.1.7-2.2 1.2-3.2 1-2.1 2.6-4.2 4.6-6.4l.4-.4h.7c2.8-.1 6.1-.3 9.4-.5 1.9-.1 0 0 6.6-.3l1.4-.1.2 1.4c2.2 15.1 5 23.2 8.4 27.7.2-.2.5-.4.8-.6.7-.6 1.5-1.1 2.2-1.6 3.5-2.3 7.3-3.8 11.3-4.5-1.3-7.1-5.9-15.7-13.9-25.8l-1-1.3 1.4-.9c2.2-1.5 4.3-2.9 6.4-4.4 2.2-1.5 4.3-2.9 6.4-4.4l.4-.3h.5c2 0 3.7.1 5.5.1 1.1 0 2.2 0 3.2.1.5-2.9 1.1-5.1 1.7-6.7 1-2.4 1.8-3.5 2.7-4.2zm-42 39.2c-1-2.8-2.9-4.7-4.2-4.2-1.3.5-1.6 3.1-.6 5.9 1 2.8 2.9 4.7 4.2 4.2 1.4-.5 1.6-3.1.6-5.9zm29.4 11.4c-3.6.7-6.9 2-10 4-.7.4-1.4.9-2 1.4-.2.2-.4.3-.6.5 3 2.8 6.2 3.3 9.5 3.9.2.1.3.1.5.1.7-1 1.2-1.9 1.6-3 .5-1.3.8-2.8 1-4.2v-2.7zm-.8-24.2c1.4 2.6 3.5 4.2 4.8 3.6 1.2-.7 1.1-3.3-.3-5.9-1.4-2.6-3.5-4.2-4.8-3.6-1.2.6-1.1 3.3.3 5.9zM222.8 337c-22.1 8.1-39 16.7-38.1 19.3.9 2.6 19.4-1.8 41.5-9.8 22.1-8.1 39.4-16.8 38.4-19.4-.9-2.6-19.7 1.8-41.8 9.9zm853.9 38.6h.2v-.5l.3.3.3.3v-.4l-.1-.9.5.4.2-.3-.9-.7-.3-.3v.4l.1.8-.3-.2-.3-.2v.9l-1-.1.1-.5.3-.1h.2v-.8l.5.1.4.1-.1-.4-.4-.9-.4.1.2.6-.3-.1-.3-.1v1l-.3.1h-.1v.1l-.2.8-.1.2h.2l1.6.3zm57.3-61.1l40.8 15.4-34.3 90.9-.3-.1-40.7-14.5 34.5-91.7zm4.7 69.2c-1.4-1.5-4.7-.3-7.1 3.2-.5.7-1.6 2.2-1.9 3.3-.2-.1-.2-.3-.4-.4 1.6-3.2 4.1-5.7 6-8.8 1.9-3.1 1.3-6.5.6-9.9-2.8 2.1-5.4 4.3-6.1 7.8-.6 3.6-.4 7.1-1.3 10.6-.2-.1-.4.1-.6 0 .5-1.1.7-3 .7-3.8.5-4.2-1.2-7.3-3.3-7.1-2.1.2-3.8 3.7-3.8 5.7 0 2.1 1.1 2.9 1.3 3.8.1.4-.3.9-.5 1.4.9 0 1.8-.4 1.9-1.9.1-1-.1-2.2.9-2.3 1.5-.2 1.6 2.4 1.2 3.8-.6.1-1-.1-1.4.1-.8.6-.8 1.4-.8 2 .3.1.7-.1 1.2.2-.7.9-1.4 2.2-2.5 2.2-.7 0-.9-1.1.3-1.7 0-.3-.4-.9-1.2-.9-.3 0-1.2.4-1.6 2.2-.2 1.1.9 2.7 1.9 2.6 1.2-.1 2.8-1.6 4.3-4.1.3.1.4.4.6.6-1.3 1.6-2.8 3.1-4.1 4.6.5.5 1 1.3 1.2 2.1.1.5.2 1.3 0 2.2.5-.8 1-1.3 1.5-1.6.7-.5 1.5-.8 2.3-.8 0-2-.1-4.1 0-6.2.3 0 .6-.2.8-.1-.5 2.9-.2 5.1.6 5.9.7.8 2.6.3 3.1-.7.9-1.6.5-2.5.3-2.7-.5-.5-1.2-.3-1.4-.1.5 1.2-.4 2-.9 1.5-.8-.7-.5-2.1-.4-3.3.6.2.8.5 1.1.7.4-.4.9-1 .8-2-.1-.4-.6-.5-1-1 .6-1.3 2.4-3.1 3.4-2 .7.8-.3 1.6-.9 2.3-.9 1.2-.5 2.1.1 2.7.2-.5.2-1.1.6-1.4.7-.5 2.1-.4 3.5-2 1.4-1.4 2.4-5.1 1-6.7zm6.3-17c1.2-.1 2.8-1.6 4.3-4.1.3.1.4.4.6.6-1.3 1.6-2.8 3.1-4.1 4.6.5.5 1 1.3 1.2 2.1.1.5.2 1.3 0 2.2.5-.8 1-1.3 1.5-1.6.7-.5 1.5-.8 2.3-.8 0-2-.1-4.1 0-6.2.3 0 .6-.2.8-.1-.5 2.9-.2 5.1.6 5.9.7.8 2.6.3 3.1-.7.9-1.6.5-2.5.3-2.7-.5-.5-1.2-.3-1.4-.1.5 1.2-.4 2-.9 1.5-.8-.7-.5-2.1-.4-3.3.6.2.8.5 1.1.7.4-.4.9-1 .8-2-.1-.4-.6-.5-1-1 .6-1.3 2.4-3.1 3.4-2 .7.8-.3 1.6-.9 2.3-.9 1.2-.5 2.1.1 2.7.2-.5.2-1.1.6-1.4.7-.5 2.1-.4 3.5-2 1.4-1.5 2.4-5.3 1-6.8s-4.7-.3-7.1 3.2c-.5.7-1.6 2.2-1.9 3.3-.2-.1-.2-.3-.4-.4 1.6-3.2 4.1-5.7 6-8.8 1.9-3.1 1.3-6.5.6-9.9-2.8 2.1-5.4 4.3-6.1 7.8-.6 3.6-.4 7.1-1.3 10.6-.2-.1-.4.1-.6 0 .5-1.1.7-3 .7-3.8.5-4.2-1.2-7.3-3.3-7.1-2.1.2-3.8 3.7-3.8 5.7 0 2.1 1.1 2.9 1.3 3.8.1.4-.3.9-.5 1.4.9 0 1.8-.4 1.9-1.9.1-1-.1-2.2.9-2.3 1.5-.2 1.6 2.4 1.2 3.8-.6.1-1-.1-1.4.1-.8.6-.8 1.4-.8 2 .3.1.7-.1 1.2.2-.7.9-1.4 2.2-2.5 2.2-.7 0-.9-1.1.3-1.7 0-.3-.4-.9-1.2-.9-.3 0-1.2.4-1.6 2.2-.2 1.2.9 2.8 1.9 2.7zm-6.9-32.4c-2.8 2.1-5.4 4.3-6.1 7.8-.6 3.6-.4 7.1-1.3 10.6-.2-.1-.4.1-.6 0 .5-1.1.7-3 .8-3.8.5-4.2-1.2-7.3-3.3-7.1-2.1.2-3.8 3.7-3.7 5.7 0 2.1 1.1 2.9 1.3 3.8.1.4-.3.9-.5 1.4.9 0 1.8-.4 1.9-1.9 0-1-.1-2.2.9-2.3 1.5-.2 1.6 2.4 1.2 3.8-.6.1-1-.1-1.4.1-.8.6-.8 1.4-.8 2 .3.1.7-.1 1.2.2-.7.9-1.4 2.2-2.5 2.2-.7 0-.9-1.1.3-1.7 0-.3-.4-.9-1.2-.9-.3 0-1.2.4-1.6 2.2-.2 1.1.8 2.7 1.9 2.6 1.2-.1 2.8-1.6 4.3-4.1.3.1.3.4.6.6-1.3 1.6-2.8 3.1-4.1 4.6.5.5 1 1.3 1.2 2.1.1.5.2 1.3 0 2.2.5-.8 1-1.3 1.5-1.6.7-.5 1.5-.8 2.3-.8 0-2-.1-4.1 0-6.2.3 0 .6-.2.8-.1-.5 2.9-.2 5.1.6 5.9.7.8 2.6.3 3.1-.7.9-1.6.5-2.5.3-2.7-.5-.5-1.3-.3-1.4-.1.5 1.2-.4 2-.9 1.5-.8-.7-.5-2.1-.4-3.3.6.2.8.5 1.1.7.4-.4.9-1 .8-2-.1-.4-.6-.5-1-1 .6-1.3 2.4-3.1 3.4-2 .7.8-.3 1.6-.9 2.3-.9 1.2-.5 2.1.1 2.7.2-.5.2-1.1.6-1.4.7-.5 2.1-.4 3.5-2 1.4-1.5 2.4-5.2 1-6.8-1.5-1.5-4.7-.3-7.1 3.2-.5.7-1.6 2.2-1.9 3.3-.2-.1-.2-.3-.4-.4 1.6-3.2 4.1-5.7 6-8.8 1.7-3 1.2-6.4.4-9.8zm39.7-94.2l.7 1 .3-.2-.2-.3.4.2.2-.3-1.1-.5-.7-.4.4.5zm-1.2-1.1l.6.2.5.2-.3-.5-.5-.8-.3.2.2.3h-.1l-.1.4zm-98.2 134.2l.7 1 .3-.2-.2-.3.4.2.2-.3-1.1-.5-.7-.4.4.5zm53-59.6l-34.5 91.7-41.7-14.9.1-.3 34.8-92.1 41.3 15.6zm-33.1.3c-1.3 0-2.3.5-2.6 1.4l.9.9c-1.3.2-2.2 1.6-2.3 2 .8 0 1.5-.1 2.3 0-.2.7-.6 1.8-.8 2.5.8-.4 1-.5 1.8-.5.5.7.7 1.2 1 2.1.5-.8 1.1-1.4 1.6-2.2.7.3.9.4 1.6.7-.1-.9.3-1.8.2-2.7.4-.1.7.2 1.1-.1-.2-.5-.3-.7-.5-1.2.3 0 .8-.3 1.1-.3-.2-.4-.5-.6-.7-1 .4-.1.8-.3 1.2-.5-.1-.5-.5-1.1-1.4-1.4 1.3-.7 1.2-.6-.3-.7 0-.5.1-.8-.1-1.2-.7 0-1.5-.1-1.8.1-.2-.8 0-.7-.7-1.1-.4.4-.7.8-.5 1.7-1.4-.6-1.4.9-1.1 1.5zm-7.9-1.4c.9-.1 1.7-.1 2.5.1-.4.8-1.3 2-1.8 2.5.7 0 1.4-.1 1.7.4-.7.5-1.2 1.6-1 2.3 1.1.6.7.6 1.1 1.9.2.6 2 .5 2.7.5.1-.5.5-1.3.6-1.8-.7-.2-1.6 0-2.3-.1.2-.6.6-1.1 1-1.5-.1-.5-.5-.7-.6-1.2 0-.9-.1-1.9.1-2.7.3-.8 1.3-1.3 1.5-2.1.2-.7-.8-1.5-1.2-2.2.1.6.2 1.1.2 1.7-.3.2-.6.6-.9.9-.1-.4-.1-.9-.4-1.2-.8-.8-1.5-.6-2.1-.6.3.4.8.6 1.1 1.1.6.8.7 1 .6 1.4-.5 0-1.2-.2-1.7-.2-.6-.2-.9.2-1.1.8zm-1.9 8.5c-.7.2-.9.6-2 .4.3 1.3 1.6 1.7 3.1.6.8.7 1.3 1.5 1.7 2.4.4-.3.9-.4 1.3-.6.6 1 .4 1.7 2.2 1.8v-1.2c1.7 1.2 1.8 1.6 3.2 2 0-.3.2-.8.7-1-.4-.2-.8-.2-1.2-.6.4-.6.9-.9 1.4-1-.3-1.2-.5-2.4-1.3-3.4-1.1 0-1.6.6-2.2 1.3-6-.6-3.5-3.2-6.2-4.1.5.7.8 1.4.9 2.1-1.7-.9-2.4-.9-3.2-.2.6.5 1.2.7 1.6 1.5zm-3.8 23.3l.9.9c-1.3.2-2.2 1.6-2.3 2 .8 0 1.5-.1 2.3 0-.2.7-.6 1.8-.8 2.5.8-.4 1-.5 1.8-.5.5.7.7 1.2 1 2.1.5-.8 1.1-1.4 1.6-2.2.7.3.9.4 1.6.7-.1-.9.3-1.8.2-2.7.4-.1.7.2 1.1-.1-.2-.5-.3-.7-.5-1.2.3 0 .8-.3 1.1-.3-.2-.4-.5-.6-.7-1 .4-.1.8-.3 1.2-.5-.1-.5-.5-1.1-1.4-1.4 1.3-.7 1.2-.6-.3-.7 0-.5.1-.8-.1-1.2-.7 0-1.5-.1-1.8.1-.2-.8 0-.7-.7-1.1-.4.4-.7.8-.5 1.7-1.4-.3-1.3 1.2-1.1 1.7-1.3-.1-2.3.3-2.6 1.2zm-5.3-2.7c.9-.1 1.7-.1 2.5.1-.4.8-1.3 2-1.8 2.5.7 0 1.4-.1 1.7.4-.7.5-1.2 1.6-1 2.3 1.1.6.7.6 1.1 1.9.2.6 2 .5 2.7.5.1-.5.5-1.3.6-1.8-.7-.2-1.6 0-2.3-.1.2-.6.6-1.1 1-1.5-.1-.5-.5-.7-.6-1.2 0-.9-.1-1.9.1-2.7.3-.8 1.3-1.3 1.5-2.1.2-.7-.8-1.5-1.2-2.2.1.6.2 1.1.2 1.7-.3.2-.6.6-.9.9-.1-.4-.1-.9-.4-1.2-.8-.8-1.5-.6-2.1-.6.3.4.8.6 1.1 1.1.6.8.7 1 .6 1.4-.5 0-1.2-.2-1.7-.2-.5-.2-.8.3-1.1.8zm-1.9 8.5c-.7.2-.9.6-2 .4.3 1.3 1.6 1.7 3.1.6.8.7 1.3 1.5 1.7 2.4.4-.3.9-.4 1.3-.6.6 1 .4 1.7 2.2 1.8v-1.2c1.7 1.2 1.8 1.6 3.2 2 0-.3.2-.8.7-1-.4-.2-.8-.3-1.2-.6.4-.6.8-.9 1.4-1-.3-1.2-.5-2.4-1.3-3.4-1.1 0-1.6.6-2.2 1.3-6-.6-3.5-3.2-6.2-4.1.5.7.8 1.4.9 2.1-1.7-.9-2.4-.9-3.2-.2.6.5 1.2.7 1.6 1.5zm-3.7 23.4l.9.9c-1.3.2-2.2 1.6-2.3 2.1.8 0 1.5-.1 2.3 0-.2.7-.6 1.8-.8 2.5.8-.4 1-.5 1.8-.5.5.7.7 1.2 1 2.1.5-.8 1.1-1.4 1.6-2.2.7.3.9.4 1.6.7-.1-.9.3-1.8.2-2.7.4-.1.7.2 1.1-.1-.2-.5-.3-.7-.5-1.2.3 0 .8-.3 1.1-.3-.2-.4-.5-.6-.7-1 .4-.1.8-.3 1.2-.5-.1-.5-.5-1.1-1.4-1.4 1.3-.7 1.2-.6-.3-.7 0-.5.1-.8-.1-1.2-.7 0-1.5-.1-1.8.1-.2-.8 0-.7-.7-1.1-.4.4-.7.8-.5 1.7-1.4-.3-1.3 1.2-1.1 1.7-1.3-.3-2.3.1-2.6 1.1zm-5.3-2.8c.9-.1 1.7-.1 2.5.1-.4.8-1.3 2-1.8 2.5.7 0 1.4-.1 1.7.4-.7.5-1.2 1.6-1 2.3 1.1.6.7.6 1.1 1.9.2.6 2 .5 2.7.5.1-.5.5-1.3.6-1.8-.7-.2-1.6 0-2.3-.1.2-.6.6-1.2 1-1.5-.1-.5-.5-.7-.6-1.2 0-.9-.1-1.9.1-2.7.3-.8 1.3-1.3 1.5-2.1.1-.7-.8-1.5-1.2-2.2.1.6.2 1.1.2 1.7-.3.2-.6.6-.9.9-.1-.4-.1-.9-.4-1.2-.8-.8-1.5-.6-2.1-.6.3.4.8.6 1.1 1.1.6.8.7 1 .6 1.4-.5 0-1.2-.2-1.7-.2-.6-.2-.9.3-1.1.8zm6.9 12.4c.4-.6.8-.9 1.4-1-.3-1.2-.5-2.4-1.3-3.4-1.1 0-1.6.6-2.2 1.3-6-.6-3.4-3.2-6.2-4.1.5.7.8 1.4 1 2.1-1.7-.9-2.4-.9-3.2-.1.9.4 1.4.6 1.8 1.4-.7.2-.9.6-2 .4.3 1.3 1.6 1.7 3.1.6.8.7 1.3 1.5 1.7 2.4.4-.3.9-.4 1.3-.6.6 1 .4 1.7 2.2 1.8v-1.2c1.7 1.2 1.8 1.6 3.2 2 0-.3.2-.8.7-.9-.7-.3-1.1-.4-1.5-.7zm14.5 4.3c-1.8-1.2-3.2-4.7-3-5.4-3.5.5.2 3.8-1 3.9-4-.3-2.5-2.2-5.2-3 .4.5.6 1 .7 1.5-1.4-.9-2-.5-2.6.1.7.2 1.3.1 1.5.8-.2.4-.3.5-1.1.9 1.2.5 2.2.3 2.9 0 1.2 1.1 3 .9 3.1 1.8 1.1-.9 1.6-.8 1.9-.5-.5.5-1 .6-1.1 1.5.6.2 1.5.1 1.8-.4.3-.4 2-.6.7 1.1-.4.6 3.3-1 1.4-2.3zm7.1-10.6c.8.2 1 .9.7 1.2-.5.7-2.2.6-3.4 0 .3-.4.6-.2 1.3-1.3-1.2-.2-2.1.1-3.7-.7.4-.4 1.2-.9 1.5-1.3-2.4-.3-5.6-1.4-7.4-1.7-1.8-.3-3.9 1.7-4.2 2.9-.8 3.2 14.7 5.9 14.9 7.6.1.6-2.3.1-3.3-.3-4.5-1.5-11.9-4.5-13.2-5.1 0 .3 0 .9-.1 1.3-.6-.2-1.1-.6-1.7-.7-.5.7-1.1 1.4-1.6 2.1.1.4.3 1.1.3 1.5 1 0 2.3.1 3.3.3 2.5.5 4.5-1.3 6.8-.8.3 1.5.5 3.1 2.2 4.9 2.8.6 7 1.2 6.5 2.6-.2.6-1.3.4-1.9.6-1.1.5-1.2 1.1-1.4 1.9 1.1-.7 2-1.1 2.8-1.1-.3.9-.7 1.5-1.4 2.3.7.3 1.6-.4 2.7-1.1 0 .7-.3 1.4-.8 2 .9-.1 1.8-.8 2.3-1.6-.2-.7-.7-1.3-.9-2 .2 0 .8.1 1 .1-.2-.7-1.1-1.5-.9-2.2.1-.4.8-.5 1.2-.7-2.7-1.3-5.8-1.5-6.4-2.3-.3-.3-.3-1.1-.3-1.5 1.4.2 2.8.8 4.2 1 1 .1 1.7.3 2.3-1 1.1-2.5-15.3-4.8-15.4-7.6 0-1.2 1.1-2.1 2.9-2.1 2.5 0 4.2 1.4 4.6 3-.7.4-.9 1-.8 1.7.7-.2 1-.9 1.7-.8 1.5.3 2.7 1.7 4.2 1.7 1.2 0 2.5-.5 3.1-1.3.6-.8-.8-2-1.7-1.5zm3.8-18.5c-1.8-1.2-3.2-4.7-3-5.4-3.5.5.2 3.8-1 3.9-4-.3-2.5-2.2-5.2-3 .4.5.6 1 .7 1.5-1.4-.9-2-.5-2.6.1.7.2 1.3.1 1.5.8-.2.4-.3.5-1.1.9 1.2.5 2.2.3 2.9 0 1.2 1.1 3 .9 3.1 1.8 1.1-.9 1.6-.8 1.9-.5-.5.5-1 .6-1.1 1.5.6.2 1.5.1 1.8-.4.3-.4 2-.6.7 1.1-.4.6 3.3-1 1.4-2.3zm7.2-10.6c.8.2 1 .9.7 1.2-.5.7-2.2.6-3.4 0 .3-.4.6-.2 1.3-1.3-1.2-.2-2.1.1-3.7-.7.3-.4 1.2-.9 1.5-1.3-2.4-.3-5.6-1.4-7.4-1.7-1.8-.3-3.9 1.7-4.2 2.9-.8 3.2 14.7 6 14.9 7.6.1.6-2.3.1-3.3-.3-4.5-1.5-11.9-4.5-13.2-5.1 0 .3 0 .9-.2 1.3-.6-.2-1.1-.6-1.7-.7-.5.7-1.1 1.4-1.6 2.1.1.4.3 1.1.3 1.5 1 0 2.3.1 3.3.3 2.5.5 4.6-1.3 6.8-.8.3 1.5.5 3.1 2.2 4.9 2.8.6 7 1.2 6.5 2.6-.2.6-1.3.4-1.9.6-1.1.5-1.2 1.1-1.4 1.9 1.1-.7 2-1.1 2.8-1.1-.3.9-.7 1.5-1.4 2.3.7.3 1.6-.4 2.7-1.1 0 .7-.3 1.3-.8 2 .9-.1 1.8-.8 2.3-1.6-.2-.7-.7-1.3-.9-2 .2 0 .8.1 1 .1-.2-.7-1.1-1.5-.9-2.2.1-.4.8-.5 1.2-.7-2.7-1.3-5.8-1.5-6.4-2.3-.3-.3-.3-1.1-.3-1.5 1.4.2 2.8.8 4.2 1 1 .1 1.7.3 2.3-1 1.1-2.5-15.3-4.8-15.4-7.6 0-1.2 1.1-2.1 2.9-2.1 2.5 0 4.2 1.4 4.6 3-.7.4-.9.9-.8 1.7.7-.2 1-.9 1.7-.8 1.5.3 2.7 1.7 4.2 1.7 1.2 0 2.5-.5 3.1-1.3.6-.8-.7-2-1.6-1.5zm3.8-18.5c-1.8-1.2-3.2-4.7-3-5.4-3.5.5.2 3.8-1 3.9-4-.3-2.5-2.2-5.2-3 .4.5.6 1 .7 1.5-1.4-.9-2-.6-2.6.1.7.2 1.3.1 1.5.8-.2.4-.3.5-1.1.9 1.2.5 2.2.3 2.9 0 1.2 1.1 3 .9 3.2 1.8 1.1-.9 1.6-.8 1.9-.5-.5.5-1 .6-1.1 1.5.6.2 1.5.1 1.8-.4.3-.4 2-.6.7 1.1-.5.6 3.2-1 1.3-2.3zm.5-10.4c-.7.4-.9 1-.8 1.7.7-.2 1-.9 1.7-.8 1.5.3 2.7 1.7 4.2 1.7 1.2 0 2.5-.5 3.1-1.3.6-.7-.8-2-1.7-1.5.8.2 1 .9.7 1.2-.5.7-2.2.6-3.4 0 .3-.4.6-.2 1.3-1.3-1.2-.2-2.1.1-3.7-.7.4-.4 1.2-.9 1.5-1.3-2.4-.3-5.6-1.4-7.4-1.7-1.8-.3-3.9 1.7-4.2 2.9-.8 3.2 14.7 6 14.9 7.6.1.6-2.3.1-3.3-.3-4.5-1.5-11.9-4.5-13.2-5.1 0 .3 0 .9-.1 1.3-.6-.2-1.1-.5-1.7-.7-.5.7-1.1 1.4-1.6 2.1.1.4.3 1.1.3 1.5 1 0 2.3.1 3.3.3 2.5.5 4.6-1.3 6.8-.8.3 1.5.5 3.1 2.2 4.9 2.8.6 7 1.2 6.5 2.6-.2.6-1.3.4-1.9.6-1.1.5-1.2 1.1-1.4 1.9 1.1-.7 2-1.1 2.8-1.1-.3.9-.7 1.5-1.4 2.3.7.3 1.6-.4 2.7-1.1 0 .7-.3 1.4-.8 2 .9-.1 1.8-.8 2.3-1.6-.2-.7-.7-1.3-.9-2 .2 0 .8.1 1 .2-.2-.7-1.1-1.5-.9-2.2.1-.4.8-.5 1.2-.7-2.7-1.3-5.8-1.5-6.4-2.3-.3-.3-.3-1.1-.3-1.5 1.4.3 2.8.8 4.2 1 1 .1 1.7.3 2.3-1 1.1-2.5-15.3-4.8-15.4-7.6 0-1.2 1.1-2.1 2.9-2.1 2.6-.1 4.2 1.3 4.6 2.9zm-35.1 53.3l.6.2.5.2-.3-.5-.5-.8-.3.2.2.3h-.1l-.1.4zm88-100.4h.2v-.5l.3.3.3.3v-.4l-.1-.9.5.4.2-.3-.9-.7-.3-.3v.4l.1.8-.3-.2-.3-.2v.8l-1-.1.1-.5.3-.1h.2v-.8l.5.1.4.1-.1-.4-.4-.9-.4.1.2.6-.3-.1-.3-.1v1h-.4v.1l-.2.9-.1.2h.2l1.6.4zm-10.5 25.5l.6.2.5.2-.3-.5-.5-.8-.3.2.2.3h-.1l-.1.4zm21.4-54.6h.2v-.5l.3.3.3.3v-.4l-.1-.9.5.4.2-.3-.9-.6-.3-.2v.4l.1.8-.3-.2-.3-.2v.8l-1-.1.1-.5.3-.1h.2v-.8l.5.1.4.1-.1-.4-.4-.9-.4.1.2.6-.3-.1-.3-.1v1l-.3.1h-.1v.1l-.2.8-.1.2h.2l1.6.2zm-20.2 55.7l.7 1 .3-.2-.2-.3.4.2.2-.3-1.1-.5-.7-.4.4.5zm-1.7 2.5h.2v-.5l.3.3.3.3v-.4l-.1-.9.5.4.2-.3-.9-.7-.3-.3v1.2l-.3-.2-.3-.2v.8l-1-.1.1-.5.3-.1h.2v-.8l.5.1.4.1-.2-.4-.4-.9-.4.1.2.6-.3-.1-.3-.1v1h-.4v.1l-.2.9-.1.2h.2l1.8.4zm12.7-31.6l.7 1 .3-.2-.2-.3.4.2.2-.3-1.1-.5-.7-.4.4.5zm-79.2 77.3h.2v-.5l.3.3.3.3v-.4l-.1-.9.5.4.2-.3-.9-.7-.3-.2v.4l.1.8-.3-.2-.3-.2v.8l-1-.1.1-.5.3-.1h.2v-.8l.5.1.4.1-.1-.4-.4-.9-.4.1.2.6-.3-.1-.3-.1v1h-.4v.1l-.2.9-.1.2h.2l1.6.3zm78-78.4l.6.2.5.2-.3-.5-.5-.8-.3.2.2.3h-.1l-.1.4zm-77.5 74.9l.6.2.5.2-.3-.5-.5-.8-.3.2.2.3h-.1l-.1.4zm10.9-29.1l.6.2.5.2-.3-.5-.5-.8-.3.2.2.3h-.1l-.1.4zm-9.7 30.2l.7 1 .3-.2-.2-.3.4.2.2-.3-1.1-.5-.7-.4.4.5zm9.2-26.7h.2v-.5l.3.3.3.3v-.4l-.1-.9.5.4.2-.3-.9-.7-.3-.2v.4l.1.8-.3-.2-.3-.2v.9l-1-.1.1-.5.3-.1h.2v-.8l.5.1.4.1-.1-.4-.4-.9-.4.1.2.6-.3-.1-.3-.1v1l-.3.1h-.1v.1l-.2.8-.1.2h.2l1.6.2zm1.7-2.4l.7 1 .3-.2-.2-.3.4.2.2-.3-1.1-.5-.7-.4.4.5zm-43.2-7c-1 .8-2 1.6-2.4 1.2-.4-.4-.8-.8-1.2-1.1-.6-.4-1.2-.9-1.7-1.5-1.4-1.2-2.7-1.9-4.5-2.4h-.5c-1.2.1-2.5.2-3.2-.5l-.2-.2h-.2c-1.6-.2-1.6-3.5-3.2-3.5-1.9 0-4.3-1.3-2.1-4.2.1-.2 0-.4-.3-.6-.6-.3-1.2-.6-1.7-1.1-.9-.6-1.8-1.3-2-2.3-.1-.7 2.2-4.3 2.6-8.3-.1-.2-.1-.3-.2-.5-.5-1.1-.9-2.3-.5-3.2.5-1.1 1.5-2.5 2.8-3.5.5-.8.7-1.5.3-2.2-1.2-1.7-1.3-2.2 1.5-2.4.4 0 .9-.7 1.5-1.6.3-.8.7-1.6 1.3-2.1 0 0 .1 0 .1-.1.6-.8 1.2-1.4 1.8-1.2 2.5.6 3.9 1.1 9-2.5 2.4-1.7 6.3 1.8 7 .9 1.4-2.2 5-.3 4.4 1.5-.4 1 5.3.2 5.9 3.1 1 5.1 3.2 6 5.8 9.5 1.6 2.1-1.5 4.1.1 5.5 2.9 2.4 2.3 3.9.3 5-.5.2.9 5.7-.5 6.1-4.1 1.2-6 3.6-6.7 5.3-.1.3-.2.7-.3 1 0 .2-.1.4 0 .6 0 .4-.6.6-1.4.9-.9.5-2.1.9-3.4 1-.6.3-1.1.6-1.2 1-.8 2.8-1.9 4-4 1.4-.4-.4-1-.2-1.7.2-.6.4-1 .6-1.3.8zm16.3-19.9c-.7-.3-1.5-.4-2.3-.4-1.7 0-3.4.5-4.7 1.5-.7.6-1.1 1.9-1.4 3-.2.6-.3 1.1-.5 1.5-.4.9-1.4 1.3-2.4 1.8s-1.9.9-2.2 1.6c-.4 1-.5 2.3-.3 3.4.2.5.3.9.4 1.4.3.6.6 1.1 1.1 1.4 1.8 1.2 5.3.7 7.4-.6.7-.4.9-1.5 1.2-2.6.2-.9.4-1.7.8-2.3.7-.9 1.8-1.5 2.9-2 1.3-.6 2.6-1.2 2.9-2.4.4-1.7-1.1-4.6-2.9-5.3zm-27.3.1c0 .2.1.4.1.6.1.2.4.5.7.7.3.3.7.5.9.9.3.5.3 1.1.3 1.7 0 .7 0 1.3.4 1.6.7.6 2.1.5 2.7-.1.8-.8 1.2-2.1.9-3.2-.1-.4-.6-.8-1-1.2l-.6-.6c-.3-.4-.3-1-.3-1.5s0-.9-.2-1.2c-.5-.5-1.2-.8-1.8-.9h-.2c-.3 0-.5.1-.7.2-.7.6-1.1 1.9-1.2 3zm1.5-3.8c1 .5 2.3.5 3.3 0 .3-.2.6-.8.8-1.3.1-.3.2-.5.4-.7.3-.4.8-.6 1.4-.7.5-.1.9-.3 1.1-.5.5-.9.5-2.3-.1-2.9-.7-.7-2.4-.7-3.4-.2-.3.1-.5.6-.7 1.1-.2.4-.3.8-.6 1.1-.4.4-1 .6-1.6.8-.6.2-1.2.4-1.4.8-.5.7 0 2.1.8 2.5zm4.5 9.8c.2.9 1.6 1.9 2.7 2.1.3.1.7-.2 1.1-.5.4-.2.7-.5 1.1-.6.6-.1 1.2.1 1.7.3.6.2 1.2.4 1.7.1.7-.4 1.1-1.9.7-2.6-.5-1-1.6-1.7-2.7-1.8h-.1c-.4 0-.9.3-1.3.6-.3.2-.5.3-.7.4-.5.2-1 0-1.5-.2-.3-.1-.6-.2-.9-.2-.1 0-.2 0-.3.1-.4.2-.9.6-1.2 1.1l-.3.6c0 .1-.1.3 0 .6zm12.4-6.3c.1-.6.4-1.1.8-1.6s.7-1.1.6-1.6c-.2-.8-1.3-1.5-2.1-1.5h-.2c-1.1.2-2.1 1-2.6 2.1-.2.4 0 1 .1 1.5.1.3.1.6.1.8 0 .5-.3 1-.6 1.4-.3.4-.6.8-.5 1.1.2 1 1 2.1 1.9 2.2h.1c.9 0 2.2-1 2.7-1.9.2-.3 0-.8-.1-1.2-.1-.5-.2-.9-.2-1.3zm-2.3-8.9c-.2-.2-.8-.2-1.2-.2-.4 0-.9 0-1.2-.2-.5-.2-.9-.7-1.3-1.2s-.8-1-1.3-1c-.8 0-2 .9-2.1 1.8v.2c.3.5.4 1.1.3 1.7.2.5.5.9.9 1.2.3.2 1 .3 1.5.3.3 0 .6 0 .8.1.5.1.8.6 1.2 1 .3.4.6.8.9.8 1 .1 2.3-.3 2.6-1.1.3-1.1-.3-2.6-1.1-3.4zm-.2-1.8c.3.9 1.5 1.6 2.5 2.3.5.3 1 .6 1.3.9.7.7.8 1.8 1 2.8.1 1.1.3 2.1.9 2.6 1.8 1.3 4.7 1.9 6.3.6 1.7-1.3 2.2-4.9 1.6-7.3-.2-.8-1.2-1.3-2.1-1.9-.8-.4-1.5-.9-2-1.5-.7-.9-.9-2.1-1-3.4-.2-1.4-.4-2.8-1.4-3.5-.6-.4-1.3-.5-2.1-.5-1.5 0-3.2.6-4 1.6-1.5 2.1-1.9 5-1 7.3zm-19.5-2.4l.2.2c1.2.3 2.3 1.1 3.1 2.2 1 .4 2.1.7 3.2.6.9-.1 2-1 2.9-1.7.5-.4.9-.8 1.3-1 .8-.5 1.9-.3 3-.1 1.1.2 2.1.4 2.7-.1 1.8-1.3 3.2-4 2.5-5.9-.8-2-4-3.6-6.4-3.7h-.1c-.8 0-1.6.8-2.3 1.5-.6.6-1.3 1.2-2 1.5-1.1.4-2.3.2-3.5 0-.7-.1-1.3-.2-1.9-.2-.7 0-1.3.1-1.8.5-1.5 1.3-2 4.6-.9 6.2zm3.2 15.4c.3-.9-.2-2.2-.5-3.3-.2-.6-.4-1.1-.4-1.5-.1-1 .4-1.9 1-2.8.1-.2.3-.5.4-.7v-.2c.1-.1.2-.3.3-.4.2-.4.3-.9.2-1.2-.6-2.1-2.5-4.4-4.6-4.4-2.2 0-4.8 2.5-5.8 4.7-.3.7.1 1.8.5 2.8.3.8.7 1.7.7 2.4 0 1.1-.7 2.2-1.3 3.3-.7 1.3-1.4 2.5-1 3.6.6 1.8 3.6 3.4 5.4 2.9 2.2-.9 4.3-2.9 5.1-5.2zm9.4 17.9c1.9-.1 4.3-2.4 4.4-4.3.1-2.4-1.2-5-3.2-6.4-.7-.5-2.2-.5-3.3-.5h-1.6c-.9-.2-1.7-1-2.4-1.8-.2-.3-.5-.5-.7-.8-.1 0-.1-.1-.2-.1-.1-.1-.1-.2-.2-.2-.4-.3-.7-.5-1.1-.5h-.2c-1.1 0-2.2.3-3.2.8-.4.3-.7.6-1.1.8-.5.4-.9.9-1 1.5-.7 2.1.9 5.3 2.8 6.9.6.5 1.7.4 2.8.3.9-.1 1.8-.2 2.5.1 1.1.4 1.9 1.3 2.8 2.2.8 1 1.7 2.1 2.9 2zm176.2 39.8c-.5.2.9 5.7-.5 6.1-4.1 1.2-6 3.6-6.7 5.3-.1.3-.2.7-.3 1 0 .2-.1.4 0 .6 0 .4-.6.6-1.4.9-.9.5-2.1.9-3.4 1-.6.3-1.1.6-1.2 1-.8 2.8-1.9 4-4 1.4-.4-.4-1-.2-1.7.2-.3.3-.6.5-.9.7-1 .8-2 1.6-2.4 1.2-.4-.4-.8-.8-1.2-1.1-.6-.4-1.2-.9-1.7-1.5-1.4-1.2-2.7-1.9-4.5-2.4h-.5c-1.2.1-2.5.2-3.2-.5l-.2-.2h-.2c-1.6-.2-1.6-3.5-3.2-3.5-1.9 0-4.3-1.3-2.1-4.2.1-.2 0-.4-.3-.6-.6-.3-1.2-.6-1.7-1.1-.9-.6-1.8-1.3-2-2.3-.1-.7 2.2-4.3 2.6-8.3-.1-.2-.1-.3-.2-.5-.5-1.1-.9-2.3-.5-3.2.5-1.1 1.5-2.5 2.8-3.5.5-.8.7-1.6.3-2.2-1.2-1.7-1.3-2.2 1.5-2.4.4 0 .9-.7 1.5-1.6.3-.8.7-1.6 1.3-2.1 0 0 .1 0 .1-.1.6-.8 1.2-1.4 1.8-1.2 2.5.6 3.9 1.1 9-2.6 2.4-1.7 6.3 1.8 7 .9 1.4-2.2 5-.3 4.4 1.5-.4 1 5.3.2 5.9 3.1 1 5.1 3.2 6 5.8 9.5 1.6 2.1-1.5 4.1.1 5.5 2.5 2.7 1.9 4.2-.1 5.2zm-15.2-12.6c.3.9 1.5 1.6 2.5 2.3.5.3 1 .6 1.3.9.7.7.8 1.8 1 2.8.1 1.1.3 2.1.9 2.6 1.8 1.3 4.7 1.9 6.3.6 1.7-1.3 2.2-4.9 1.6-7.3-.2-.8-1.2-1.3-2.1-1.9-.8-.4-1.6-.9-2-1.5-.7-.9-.9-2.2-1-3.4-.2-1.4-.4-2.8-1.4-3.5-.6-.4-1.3-.5-2.1-.5-1.5 0-3.2.6-3.9 1.6-1.6 2.1-2 5-1.1 7.3zm2.5 10.7c.1-.6.4-1.1.8-1.6s.7-1.1.6-1.6c-.2-.8-1.3-1.5-2.1-1.5h-.2c-1.1.2-2.1 1-2.6 2.1-.2.4 0 1 .1 1.5.1.3.1.6.1.8 0 .5-.3 1-.6 1.4-.3.4-.6.8-.5 1.1.2 1 1 2.1 1.9 2.2.9.1 2.3-.9 2.8-1.9.2-.3 0-.8-.1-1.2-.1-.5-.2-.9-.2-1.3zm-18.3.3c0 .2.1.4.1.6.1.2.4.5.7.7.3.3.7.5.9.9.3.5.3 1.1.3 1.7 0 .7 0 1.3.4 1.6.7.6 2.1.5 2.7-.1.8-.8 1.2-2.1.9-3.2-.1-.4-.6-.8-1-1.2-.2-.2-.4-.4-.6-.5-.3-.4-.3-1-.3-1.5s0-.9-.2-1.2c-.5-.5-1.2-.8-1.9-.9h-.2c-.3 0-.5.1-.7.2-.7.5-1.1 1.8-1.1 2.9zm1.4-3.8c1 .5 2.3.5 3.3 0 .3-.2.6-.8.8-1.3.1-.3.2-.5.4-.7.3-.4.8-.6 1.4-.7.5-.1.9-.3 1.1-.5.5-.9.5-2.3-.1-2.9-.7-.7-2.4-.7-3.4-.2-.3.1-.5.6-.7 1.1-.2.4-.3.8-.6 1.1-.4.4-1 .6-1.6.8-.6.2-1.2.4-1.4.8-.4.6 0 2.1.8 2.5zm4.5 9.7c.2.9 1.6 1.9 2.7 2.1.3.1.7-.2 1.1-.5.4-.2.7-.5 1.1-.6.6-.1 1.2.1 1.7.3.6.2 1.2.4 1.7.1.7-.5 1.1-1.9.7-2.6-.5-1-1.6-1.7-2.7-1.8-.4 0-.9.3-1.4.6-.3.2-.5.3-.7.4-.5.2-1 0-1.5-.2-.3-.1-.6-.2-.9-.2-.1 0-.2 0-.3.1-.4.2-.9.6-1.2 1l-.3.6v.7zm3-15.8c.3.5.4 1.1.3 1.7.2.5.5.9.9 1.2.3.2.9.3 1.5.3.3 0 .6 0 .8.1.5.1.8.6 1.2 1 .3.4.6.8.9.8 1 .1 2.3-.3 2.6-1.1.4-.9-.2-2.4-1-3.3-.2-.2-.7-.2-1.2-.2-.4 0-.9 0-1.2-.2-.5-.2-.9-.7-1.3-1.2s-.8-1-1.3-1c-.8 0-2 .9-2.1 1.8-.2-.1-.1 0-.1.1zm-12.5-3.5l.2.2c1.2.3 2.3 1.1 3.1 2.2 1 .4 2.1.7 3.2.6.9-.1 2-1 2.9-1.7.5-.4.9-.8 1.3-1 .8-.5 1.9-.3 3-.1 1.1.2 2.1.4 2.7-.1 1.8-1.3 3.2-4 2.5-5.9-.8-2-4-3.6-6.4-3.7h-.1c-.8 0-1.6.8-2.3 1.5-.6.6-1.3 1.2-2 1.5-1.1.4-2.3.2-3.5 0-.7-.1-1.3-.2-1.9-.2-.7 0-1.3.1-1.8.5-1.6 1.3-2 4.6-.9 6.2zm3.1 15.4c.3-.9-.2-2.2-.5-3.3-.2-.6-.4-1.1-.4-1.5-.1-.9.4-1.9 1-2.8.1-.2.3-.5.4-.7v-.3c.1-.2.2-.3.3-.4.2-.4.3-.8.2-1.2-.6-2.1-2.5-4.4-4.6-4.4-2.2 0-4.8 2.5-5.8 4.7-.3.7.1 1.8.5 2.8.3.8.7 1.7.7 2.4 0 1.1-.7 2.2-1.3 3.3-.7 1.3-1.4 2.5-1 3.6.6 1.8 3.6 3.4 5.4 2.9 2.2-.8 4.3-2.8 5.1-5.1zm13.8 13.5c.1-2.4-1.2-5-3.2-6.4-.8-.5-2.2-.5-3.3-.5h-1.6c-.9-.2-1.7-1-2.4-1.8-.2-.3-.5-.5-.7-.8-.1 0-.1-.1-.2-.1-.1-.1-.1-.2-.2-.2-.4-.3-.7-.5-1.1-.5h-.2c-1.1 0-2.2.3-3.2.8-.4.3-.7.6-1.1.8-.5.4-.9.9-1 1.5-.7 2.1.9 5.3 2.8 6.9.6.5 1.7.4 2.8.3.9-.1 1.8-.2 2.5.1 1.1.4 1.9 1.3 2.8 2.2 1 1.1 1.9 2.1 3.1 2 1.8 0 4.1-2.4 4.2-4.3zm13.9-15.6c-.7-.3-1.5-.4-2.3-.4-1.7 0-3.4.5-4.7 1.5-.7.6-1.1 1.9-1.4 3-.2.6-.3 1.1-.5 1.5-.4.9-1.4 1.3-2.4 1.8s-1.9.9-2.2 1.6c-.4 1-.5 2.3-.3 3.4.2.5.4 1 .5 1.5.3.6.6 1 1.1 1.4 1.8 1.2 5.3.7 7.4-.6.7-.4.9-1.5 1.2-2.6.2-.9.4-1.7.8-2.3.7-.9 1.8-1.5 2.9-2 1.3-.6 2.6-1.2 2.9-2.4.3-1.8-1.2-4.7-3-5.4z"/></svg>